<svg width="25" height="25" viewBox="0 0 25 25" fill="none" xmlns="http://www.w3.org/2000/svg">
<g clip-path="url(#clip0)">
<path d="M14.0625 1.56226C8.56333 1.56226 4.01208 5.64629 3.24984 10.9372H0L4.68751 15.6247L9.37503 10.9372H6.40794C7.13395 7.37583 10.29 4.68723 14.0625 4.68723C18.3701 4.68723 21.875 8.19219 21.875 12.4997C21.875 16.8073 18.3701 20.3123 14.0625 20.3123C11.5563 20.3123 9.18426 19.0961 7.71788 17.0606L5.18188 18.8856C7.23418 21.7359 10.5538 23.4373 14.0625 23.4373C20.0935 23.4373 25 18.5301 25 12.4998C25 6.46948 20.0935 1.56226 14.0625 1.56226Z" fill="#2E363F"/>
<path d="M12.5 7.81226V14.166L17.1646 16.9645L18.7729 14.2851L15.625 12.396V7.8123L12.5 7.81226Z" fill="#2E363F"/>
</g>
<defs>
<clipPath id="clip0">
<rect width="25" height="25" fill="white"/>
</clipPath>
</defs>
</svg>
