<svg width="41" height="41" viewBox="0 0 41 41" fill="none" xmlns="http://www.w3.org/2000/svg">
<circle cx="20.2682" cy="20.5272" r="20.2675" fill="#0077B7"/>
<g clip-path="url(#clip0)">
<path d="M29.0439 28.6361V28.6354H29.0482V22.1934C29.0482 19.0419 28.3698 16.6143 24.6855 16.6143C22.9144 16.6143 21.7258 17.5862 21.2405 18.5076H21.1893V16.9085H17.696V28.6354H21.3335V22.8287C21.3335 21.2998 21.6233 19.8214 23.5167 19.8214C25.3823 19.8214 25.4101 21.5662 25.4101 22.9267V28.6361H29.0439Z" fill="white"/>
<path d="M11.7732 16.9092H15.415V28.6361H11.7732V16.9092Z" fill="white"/>
<path d="M13.5924 11.0708C12.428 11.0708 11.4832 12.0157 11.4832 13.1801C11.4832 14.3445 12.428 15.3091 13.5924 15.3091C14.7569 15.3091 15.7017 14.3445 15.7017 13.1801C15.701 12.0157 14.7561 11.0708 13.5924 11.0708V11.0708Z" fill="white"/>
</g>
<defs>
<clipPath id="clip0">
<rect width="17.5651" height="17.5651" fill="white" transform="translate(11.4832 11.0708)"/>
</clipPath>
</defs>
</svg>
