<svg width="41" height="41" viewBox="0 0 41 41" fill="none" xmlns="http://www.w3.org/2000/svg">
<circle cx="20.2682" cy="20.4432" r="20.2675" fill="url(#paint0_linear)"/>
<path d="M24.6923 11.6575H16.5192C13.7437 11.6575 11.4856 13.9157 11.4856 16.6912V24.8643C11.4856 27.64 13.7437 29.8981 16.5192 29.8981H24.6923C27.4681 29.8981 29.7262 27.6399 29.7262 24.8643V16.6912C29.7263 13.9157 27.4681 11.6575 24.6923 11.6575ZM28.1079 24.8643C28.1079 26.7476 26.5757 28.2797 24.6925 28.2797H16.5192C14.6361 28.2798 13.104 26.7476 13.104 24.8643V16.6912C13.104 14.8081 14.6361 13.2759 16.5192 13.2759H24.6923C26.5756 13.2759 28.1078 14.8081 28.1078 16.6912V24.8643H28.1079Z" fill="white"/>
<path d="M20.6042 16.077C18.0125 16.077 15.9041 18.1855 15.9041 20.7772C15.9041 23.3688 18.0125 25.4771 20.6042 25.4771C23.1959 25.4771 25.3043 23.3688 25.3043 20.7772C25.3043 18.1855 23.1959 16.077 20.6042 16.077ZM20.6042 23.8586C18.905 23.8586 17.5224 22.4763 17.5224 20.7771C17.5224 19.0777 18.9049 17.6953 20.6042 17.6953C22.3035 17.6953 23.6859 19.0777 23.6859 20.7771C23.6859 22.4763 22.3034 23.8586 20.6042 23.8586Z" fill="white"/>
<path d="M25.5044 14.7058C25.1926 14.7058 24.8863 14.832 24.6661 15.0532C24.4448 15.2733 24.3176 15.5797 24.3176 15.8926C24.3176 16.2046 24.4449 16.5109 24.6661 16.732C24.8862 16.9521 25.1926 17.0795 25.5044 17.0795C25.8173 17.0795 26.1227 16.9521 26.3439 16.732C26.565 16.5109 26.6913 16.2044 26.6913 15.8926C26.6913 15.5797 26.565 15.2733 26.3439 15.0532C26.1237 14.832 25.8173 14.7058 25.5044 14.7058Z" fill="white"/>
<defs>
<linearGradient id="paint0_linear" x1="2.72232" y1="38.0699" x2="40.2807" y2="5.55715" gradientUnits="userSpaceOnUse">
<stop stop-color="#FFDD55"/>
<stop offset="0.5" stop-color="#FF543E"/>
<stop offset="1" stop-color="#C837AB"/>
</linearGradient>
</defs>
</svg>
