<svg width="23" height="23" viewBox="0 0 23 23" fill="none" xmlns="http://www.w3.org/2000/svg">
<path d="M11.4469 0.091488C10.7207 -0.102894 9.98548 0.024373 9.40035 0.360622C8.53698 0.860076 8.02108 1.78989 8.05531 2.7875L8.10361 4.22238L9.42578 3.45905V3.45788L11.915 2.02021C11.9152 2.02062 11.9156 2.02089 11.9159 2.02129L13.0831 1.34727C13.0829 1.34686 13.0825 1.34646 13.0822 1.34605L13.0863 1.34376C12.7526 0.771757 12.1413 0.27729 11.4469 0.091488Z" fill="#2E363F"/>
<path d="M21.5602 22.3267C21.5602 22.1882 21.5602 13.3384 21.5602 13.4768C21.3541 13.4768 14.5278 13.4768 14.8217 13.4768V23.0005H20.8863C21.2588 23.0005 21.5602 22.6991 21.5602 22.3267Z" fill="#2E363F"/>
<path d="M9.94488 9.37939L11.1174 8.70555C11.0379 8.56925 8.95073 4.9893 9.08235 5.21508L7.92334 5.88892C8.00245 6.02544 10.0759 9.60554 9.94488 9.37939Z" fill="#2E363F"/>
<path d="M0.0928309 11.1845C0.170907 11.3195 1.88616 14.2834 1.77744 14.0955L8.77195 10.0659C8.69312 9.92924 6.6179 6.33221 6.75042 6.56194L0.335415 10.2681C0.0120144 10.4433 -0.0958457 10.8611 0.0928309 11.1845Z" fill="#2E363F"/>
<path d="M17.5998 1.07766C17.5055 0.915941 17.3572 0.808125 17.182 0.76774C17.0203 0.713787 16.8316 0.740741 16.6699 0.835124L10.2549 4.54127C10.3339 4.67779 12.4074 8.25788 12.2764 8.03174L19.2844 3.98867C19.2063 3.85372 17.4911 0.889795 17.5998 1.07766Z" fill="#2E363F"/>
<path d="M12.1279 13.4767H13.4756V23.0004H12.1279V13.4767Z" fill="#2E363F"/>
<path d="M4.71462 23.0004H10.7792V13.4767H4.04077V22.3265C4.04077 22.6987 4.34252 23.0004 4.71462 23.0004Z" fill="#2E363F"/>
<path d="M22.3263 6.73661H21.6524V6.06276C21.6524 5.6903 21.351 5.38892 20.9786 5.38892C20.6061 5.38892 20.3047 5.6903 20.3047 6.06276V6.73661H19.6309C19.2584 6.73661 18.957 7.038 18.957 7.41045C18.957 7.78291 19.2584 8.0843 19.6309 8.0843H20.3047V8.75814C20.3047 9.1306 20.6061 9.43199 20.9786 9.43199C21.351 9.43199 21.6524 9.1306 21.6524 8.75814V8.0843H22.3263C22.6987 8.0843 23.0001 7.78291 23.0001 7.41045C23.0001 7.038 22.6987 6.73661 22.3263 6.73661Z" fill="#2E363F"/>
<path d="M18.1912 9.43326H17.5174V8.75942C17.5174 8.38696 17.216 8.08557 16.8436 8.08557C16.4711 8.08557 16.1697 8.38696 16.1697 8.75942V9.43326H15.4959C15.1234 9.43326 14.822 9.73465 14.822 10.1071C14.822 10.4796 15.1234 10.781 15.4959 10.781H16.1697V11.4548C16.1697 11.8273 16.4711 12.1286 16.8436 12.1286C17.216 12.1286 17.5174 11.8273 17.5174 11.4548V10.781H18.1912C18.5637 10.781 18.8651 10.4796 18.8651 10.1071C18.8651 9.73465 18.5637 9.43326 18.1912 9.43326Z" fill="#2E363F"/>
<path d="M3.56552 3.73079C2.6004 4.28815 2.11015 5.35691 2.23904 6.39984C2.26262 6.59243 2.39142 7.08797 2.5791 7.41317L3.74638 6.73915C3.74638 6.73906 3.74629 6.73906 3.74629 6.73897L6.23602 5.30103L6.2366 5.30134L7.55936 4.5376C6.13898 3.69175 6.2047 3.58928 5.41509 3.43856C4.74664 3.30999 4.02585 3.46493 3.56552 3.73079Z" fill="#2E363F"/>
</svg>
