<svg width="41" height="41" viewBox="0 0 41 41" fill="none" xmlns="http://www.w3.org/2000/svg">
<circle cx="20.2675" cy="20.4442" r="20.2675" fill="#00ACEE"/>
<g clip-path="url(#clip0)">
<path d="M30.4029 14.7082C29.6743 15.0278 28.898 15.2397 28.0886 15.3425C28.9213 14.8454 29.5568 14.0641 29.8556 13.1225C29.0792 13.5854 28.2221 13.9123 27.3086 14.0948C26.5715 13.3099 25.5209 12.8237 24.3747 12.8237C22.1511 12.8237 20.3609 14.6286 20.3609 16.8413C20.3609 17.1597 20.3878 17.4658 20.4539 17.7572C17.1147 17.5944 14.16 15.9939 12.1751 13.556C11.8286 14.1572 11.6253 14.8454 11.6253 15.5862C11.6253 16.9772 12.3417 18.2103 13.4094 18.9242C12.7641 18.9119 12.131 18.7246 11.5947 18.4295C11.5947 18.4417 11.5947 18.4576 11.5947 18.4735C11.5947 20.4254 12.987 22.0466 14.8127 22.4201C14.4857 22.5095 14.1294 22.5523 13.7596 22.5523C13.5025 22.5523 13.2429 22.5376 12.9992 22.4838C13.5196 24.0744 14.9964 25.2438 16.7523 25.2817C15.3857 26.3507 13.6506 26.9948 11.7723 26.9948C11.4429 26.9948 11.127 26.9801 10.811 26.9397C12.5902 28.087 14.6988 28.7421 16.9727 28.7421C24.3637 28.7421 28.4045 22.6197 28.4045 17.3127C28.4045 17.1352 28.3984 16.9637 28.3898 16.7935C29.187 16.2278 29.8568 15.5213 30.4029 14.7082Z" fill="#EEEEEE"/>
</g>
<defs>
<clipPath id="clip0">
<rect width="19.5919" height="19.5919" fill="white" transform="translate(10.811 10.9868)"/>
</clipPath>
</defs>
</svg>
