<svg width="23" height="20" viewBox="0 0 23 20" fill="none" xmlns="http://www.w3.org/2000/svg">
<path d="M6.10938 0C7.35744 0 8.50169 0.389558 9.51028 1.15788C10.4772 1.89447 11.121 2.83265 11.5 3.51487C11.879 2.83261 12.5228 1.89447 13.4897 1.15788C14.4983 0.389558 15.6426 0 16.8906 0C20.3735 0 23 2.80606 23 6.52717C23 10.5473 19.7233 13.2977 14.7627 17.4616C13.9203 18.1687 12.9655 18.9702 11.9731 19.825C11.8423 19.9379 11.6743 20 11.5 20C11.3257 20 11.1577 19.9379 11.0269 19.8251C10.0344 18.9701 9.07961 18.1687 8.23674 17.4612C3.27674 13.2977 0 10.5473 0 6.52717C0 2.80606 2.62649 0 6.10938 0Z" fill="#2E363F"/>
</svg>
