<svg width="21" height="23" viewBox="0 0 21 23" fill="none" xmlns="http://www.w3.org/2000/svg">
<path d="M16.9917 14.8629C16.0809 16.1139 14.6054 16.9287 12.943 16.9287H10.6104C9.80463 16.9287 9.11844 16.4171 8.8586 15.7011C8.53787 15.6054 8.22334 15.4813 7.91642 15.3287C7.26645 15.0058 6.67628 14.5683 6.15675 14.0263C2.78682 14.7666 0.264648 17.7694 0.264648 21.3618V21.8313C0.264648 22.4768 0.787926 23 1.43339 23H19.5666C20.2121 23 20.7354 22.4768 20.7354 21.8313V21.3618C20.7353 18.5866 19.2301 16.1633 16.9917 14.8629Z" fill="#2E363F"/>
<path d="M4.91455 11.6173C5.41686 11.6173 5.85408 11.3389 6.08059 10.928C6.08655 10.9443 6.0926 10.9605 6.09871 10.9766C6.10051 10.9815 6.10231 10.9863 6.10411 10.9912C6.63549 12.3899 7.66944 13.5624 9.03282 14.0748C9.36256 13.5508 9.94563 13.2024 10.6105 13.2024H12.943C13.1757 13.2024 13.3923 13.1367 13.5821 13.0306C13.9009 12.8523 14.1876 12.4 14.3357 12.1603C14.5726 11.7767 14.7562 11.3704 14.919 10.9273C15.0104 11.0935 15.1362 11.238 15.2869 11.3512V11.9232C15.2869 13.2156 14.2355 14.2671 12.943 14.2671H10.6104C10.1694 14.2671 9.81193 14.6246 9.81193 15.0656C9.81193 15.5066 10.1694 15.864 10.6104 15.864H12.943C15.116 15.864 16.8839 14.0962 16.8839 11.9232V11.3512C17.2071 11.1084 17.4162 10.7219 17.4162 10.2865V7.87884V6.95557C17.4162 6.51125 17.1983 6.11812 16.8637 5.87639C16.6042 2.59267 13.8492 0 10.5 0C7.15066 0 4.39573 2.59267 4.13624 5.87634C3.80165 6.11807 3.58374 6.51125 3.58374 6.95552V10.2864C3.58374 11.0235 4.18252 11.6173 4.91455 11.6173ZM10.5 1.597C12.9794 1.597 15.0244 3.49177 15.2634 5.90936C15.1065 6.0328 14.978 6.19057 14.8894 6.3716C14.136 4.40588 12.454 3.03729 10.4999 3.03729C8.50369 3.03729 6.84875 4.45291 6.11342 6.36374C6.11241 6.36634 6.11146 6.369 6.11046 6.37165C6.0219 6.19062 5.89336 6.03285 5.73644 5.90941C5.97562 3.49177 8.02059 1.597 10.5 1.597Z" fill="#2E363F"/>
</svg>
