<svg width="41" height="42" viewBox="0 0 41 42" fill="none" xmlns="http://www.w3.org/2000/svg">
<circle cx="20.2675" cy="20.7401" r="20.2675" fill="#F70000"/>
<path d="M30.6 15.2712L30.6271 15.4478C30.3658 14.5209 29.6605 13.8057 28.7643 13.5454L28.7453 13.5409C27.06 13.0833 20.2781 13.0833 20.2781 13.0833C20.2781 13.0833 13.5132 13.0743 11.8108 13.5409C10.8974 13.8057 10.1912 14.5209 9.93445 15.4289L9.92994 15.4478C9.3003 18.7365 9.2958 22.6882 9.95787 26.2094L9.92994 26.031C10.1912 26.9579 10.8965 27.6731 11.7927 27.9335L11.8117 27.938C13.4952 28.3965 20.279 28.3965 20.279 28.3965C20.279 28.3965 27.0429 28.3965 28.7462 27.938C29.6605 27.6731 30.3667 26.9579 30.6235 26.0499L30.628 26.031C30.9144 24.5015 31.0784 22.7414 31.0784 20.9434C31.0784 20.8777 31.0784 20.811 31.0775 20.7444C31.0784 20.6831 31.0784 20.6101 31.0784 20.5372C31.0784 18.7383 30.9144 16.9782 30.6 15.2712ZM18.1144 24.0286V17.4592L23.7587 20.7489L18.1144 24.0286Z" fill="white"/>
</svg>
