<svg width="23" height="23" viewBox="0 0 23 23" fill="none" xmlns="http://www.w3.org/2000/svg">
<path d="M20.8742 4.86172C20.8738 4.85431 20.873 4.84689 20.8718 4.83953C20.843 4.79846 20.8077 4.76312 20.7781 4.72287C20.5634 4.43035 20.336 4.1488 20.0961 3.87818C20.0304 3.80423 19.9646 3.7311 19.8973 3.65879C19.6503 3.39423 19.3911 3.14196 19.12 2.90206C19.0699 2.85767 19.023 2.81169 18.9729 2.76812C18.3047 2.19563 17.573 1.70158 16.7922 1.29572C16.761 1.2793 16.7281 1.26534 16.6961 1.24887C16.3484 1.07218 15.9919 0.913357 15.6279 0.773112C15.5457 0.743552 15.4709 0.71558 15.3929 0.69093C15.0692 0.574276 14.7405 0.472114 14.4069 0.384443C14.3083 0.358156 14.2097 0.331051 14.1095 0.308038C13.7808 0.231633 13.4522 0.173282 13.1161 0.125619C13.0142 0.110839 12.9139 0.0910994 12.8112 0.0787745C11.9456 -0.0264209 11.0705 -0.0264209 10.2049 0.0787745C10.1022 0.0910994 10.0019 0.110839 9.90002 0.125619C9.56397 0.173282 9.23201 0.231633 8.9066 0.308038C8.80637 0.331051 8.70777 0.358156 8.60917 0.384443C8.27336 0.472066 7.94473 0.574228 7.62317 0.69093C7.54099 0.718854 7.46622 0.746825 7.38818 0.773112C7.02426 0.913357 6.6677 1.07214 6.32 1.24887C6.28794 1.26529 6.2551 1.27925 6.22386 1.29572C5.4405 1.70114 4.70635 2.19515 4.03574 2.76812C3.98563 2.81164 3.93878 2.85767 3.88866 2.90206C3.61477 3.14307 3.35566 3.39534 3.11137 3.65879C3.04402 3.7311 2.97825 3.80423 2.91254 3.87818C2.67206 4.14822 2.44472 4.42977 2.23057 4.72283C2.20101 4.76307 2.16567 4.79841 2.13688 4.83948C2.13313 4.84665 2.12981 4.85407 2.12701 4.86167C-0.707051 8.83344 -0.707051 14.1664 2.12701 18.1381C2.12981 18.1457 2.13308 18.1531 2.13688 18.1603C2.16563 18.2014 2.20096 18.2367 2.23057 18.277C2.44477 18.5695 2.67206 18.851 2.91254 19.1216C2.97825 19.1956 3.04402 19.2687 3.11137 19.341C3.35898 19.6056 3.61804 19.8579 3.88866 20.0978C3.93878 20.1422 3.98563 20.1881 4.03574 20.2317C4.70399 20.8042 5.43569 21.2983 6.21644 21.7041C6.24769 21.7205 6.28052 21.7345 6.31259 21.751C6.66029 21.9276 7.0168 22.0865 7.38077 22.2267C7.46295 22.2563 7.53772 22.2842 7.61576 22.3089C7.93948 22.4256 8.26816 22.5277 8.60176 22.6154C8.70035 22.6417 8.79895 22.6688 8.89919 22.6918C9.22787 22.7682 9.55651 22.8265 9.8926 22.8742C9.99448 22.889 10.0947 22.9087 10.1975 22.9211C11.063 23.0262 11.9382 23.0262 12.8038 22.9211C12.9065 22.9087 13.0067 22.889 13.1086 22.8742C13.4447 22.8265 13.7766 22.7682 14.1021 22.6918C14.2023 22.6688 14.3009 22.6417 14.3995 22.6154C14.7358 22.5278 15.0645 22.4256 15.3855 22.3089C15.4677 22.281 15.5424 22.253 15.6205 22.2267C15.9844 22.0865 16.341 21.9277 16.6887 21.751C16.7207 21.7345 16.7536 21.7206 16.7848 21.7041C17.5656 21.2982 18.2973 20.8042 18.9655 20.2317C19.0156 20.1881 19.0625 20.1422 19.1126 20.0978C19.3865 19.8573 19.6456 19.6051 19.8899 19.341C19.9572 19.2687 20.023 19.1956 20.0887 19.1216C20.3292 18.851 20.5565 18.5695 20.7707 18.277C20.8002 18.2367 20.8356 18.2014 20.8644 18.1603C20.8681 18.1531 20.8714 18.1457 20.8742 18.1381C23.7083 14.1664 23.7083 8.83349 20.8742 4.86172ZM19.9367 6.41635C20.7225 7.71052 21.197 9.16949 21.3228 10.6783H16.4011C16.3408 9.69927 16.1868 8.72829 15.941 7.77869C17.3312 7.51833 18.6769 7.05951 19.9367 6.41635ZM13.5951 1.86676C13.6411 1.87745 13.6855 1.89223 13.7315 1.90292C14.0256 1.97195 14.3174 2.05082 14.6025 2.14941C14.646 2.1642 14.6887 2.18148 14.7315 2.19708C15.0141 2.29568 15.2927 2.40497 15.5655 2.52576C15.6132 2.54795 15.66 2.5726 15.7077 2.5948C15.9689 2.71916 16.2242 2.85362 16.4735 2.99825L16.6378 3.09767C16.8744 3.24229 17.1045 3.39703 17.328 3.56192C17.3855 3.60381 17.443 3.6441 17.4997 3.69008C17.7188 3.8544 17.9286 4.03051 18.1291 4.21842C18.1817 4.26608 18.2359 4.31293 18.2877 4.36223C18.498 4.56188 18.6985 4.77304 18.8924 4.99162C18.9171 5.02036 18.9434 5.04665 18.968 5.0738C17.8554 5.60401 16.6768 5.98262 15.4636 6.19946C14.9016 4.65441 14.1592 3.1811 13.2517 1.81014C13.3658 1.83065 13.4825 1.84216 13.5951 1.86676ZM8.2477 10.6783C8.3125 9.78925 8.46387 8.90864 8.69963 8.04897C9.6306 8.15956 10.5673 8.2144 11.5048 8.21329C12.4432 8.213 13.3808 8.15677 14.3124 8.04484C14.5478 8.9059 14.6983 9.7879 14.7619 10.6783H8.2477ZM14.7619 12.3216C14.6971 13.2107 14.5457 14.0913 14.3099 14.9509C13.379 14.8404 12.4423 14.7855 11.5048 14.7866C10.5664 14.7856 9.62891 14.8404 8.69713 14.9509C8.46204 14.0912 8.31154 13.2106 8.24765 12.3216H14.7619ZM11.5048 2.17575C12.4398 3.50102 13.2089 4.93596 13.7947 6.44842C13.0341 6.5292 12.2697 6.56979 11.5048 6.57003C10.7407 6.56911 9.9771 6.52829 9.21723 6.4476C9.80382 4.93615 10.572 3.50169 11.5048 2.17575ZM4.11802 4.99075C4.31113 4.77217 4.51242 4.56101 4.72276 4.36136C4.77452 4.31206 4.82878 4.26521 4.88135 4.21755C5.08404 4.03297 5.29385 3.85685 5.51074 3.68922C5.56746 3.64564 5.62494 3.60703 5.68247 3.56106C5.90596 3.39674 6.13604 3.24195 6.37267 3.0968L6.53699 2.99738C6.78623 2.8517 7.04149 2.71718 7.30277 2.59393C7.35044 2.57174 7.39728 2.54709 7.44494 2.52489C7.71773 2.40164 7.99629 2.29236 8.27895 2.19621C8.32165 2.18061 8.36113 2.16333 8.40793 2.14855C8.69304 2.05322 8.98311 1.97436 9.27891 1.90205C9.32493 1.89136 9.36927 1.87658 9.41612 1.86671C9.52868 1.84206 9.64538 1.83055 9.75958 1.81C8.85177 3.1812 8.10909 4.6548 7.54682 6.20014C6.33363 5.98329 5.15496 5.60469 4.04244 5.07447C4.06709 5.04578 4.09337 5.01949 4.11802 4.99075ZM3.07286 6.41635C4.33236 7.05946 5.67776 7.51828 7.06778 7.77869C6.82229 8.72834 6.66847 9.69932 6.60848 10.6783H1.68673C1.81258 9.16949 2.28709 7.71052 3.07286 6.41635ZM3.07286 16.5836C2.28705 15.2895 1.81254 13.8305 1.68673 12.3216H6.60848C6.66876 13.3007 6.82282 14.2717 7.0686 15.2213C5.67833 15.4816 4.33265 15.9404 3.07286 16.5836ZM9.41448 21.1332C9.36845 21.1225 9.32411 21.1077 9.27809 21.097C8.98392 21.028 8.69222 20.9491 8.40711 20.8505C8.36354 20.8357 8.32083 20.8184 8.27808 20.8028C7.99543 20.7042 7.71691 20.595 7.44408 20.4742C7.39641 20.452 7.34957 20.4273 7.30191 20.4051C7.04063 20.2808 6.78537 20.1463 6.53612 20.0017L6.37181 19.9023C6.13518 19.7576 5.90509 19.6029 5.68161 19.438C5.62407 19.3961 5.56659 19.3558 5.50988 19.3098C5.29077 19.1455 5.08096 18.9694 4.88049 18.7815C4.82791 18.7338 4.77365 18.687 4.7219 18.6377C4.51156 18.438 4.31108 18.2269 4.11716 18.0083C4.09251 17.9796 4.06622 17.9533 4.04157 17.9261C5.15414 17.3959 6.33276 17.0173 7.54595 16.8005C8.10799 18.3455 8.85042 19.8188 9.75785 21.1898C9.64369 21.1693 9.52704 21.1578 9.41448 21.1332ZM11.5048 20.8242C10.5697 19.499 9.80065 18.064 9.21478 16.5516C10.7365 16.3878 12.2714 16.3878 13.7931 16.5516L13.7922 16.5524C13.2058 18.0638 12.4376 19.4982 11.5048 20.8242ZM18.8916 18.0092C18.6984 18.2277 18.4972 18.4389 18.2868 18.6386C18.2351 18.6879 18.1808 18.7347 18.1282 18.7824C17.9255 18.9675 17.7157 19.1436 17.4988 19.3107C17.4421 19.3542 17.3846 19.397 17.3271 19.4389C17.1036 19.6032 16.8735 19.758 16.6369 19.9031L16.4726 20.0025C16.2239 20.1477 15.9686 20.2822 15.7068 20.406C15.6591 20.4282 15.6123 20.4528 15.5646 20.475C15.2918 20.5983 15.0133 20.7076 14.7306 20.8037C14.6879 20.8193 14.6484 20.8366 14.6016 20.8514C14.3165 20.9467 14.0265 21.0256 13.7307 21.0979C13.6846 21.1086 13.6403 21.1233 13.5935 21.1332C13.4809 21.1579 13.3642 21.1694 13.25 21.1899C14.1574 19.819 14.8999 18.3457 15.4619 16.8006C16.6751 17.0174 17.8538 17.3961 18.9663 17.9263C18.9425 17.9541 18.9162 17.9804 18.8916 18.0092ZM19.9367 16.5836C18.6772 15.9405 17.3318 15.4817 15.9418 15.2213C16.1873 14.2716 16.3411 13.3007 16.4011 12.3216H21.3228C21.197 13.8304 20.7225 15.2894 19.9367 16.5836Z" fill="white"/>
</svg>
