<svg width="25" height="25" viewBox="0 0 25 25" fill="none" xmlns="http://www.w3.org/2000/svg">
<path d="M1.02344 14.5796V22.3949C1.02344 23.8319 2.19261 25 3.62852 25H22.3853C23.8223 25 24.9904 23.8318 24.9904 22.3949V14.5796H1.02344Z" fill="#9BA0A8"/>
<path d="M12.3461 2.38257L8.44678 3.3079L11.7136 8.11485L15.937 7.15411L12.3461 2.38257Z" fill="#9BA0A8"/>
<path d="M7.36323 3.56519L3.16064 4.56135L6.39306 9.32351L10.6227 8.36169L7.36323 3.56519Z" fill="#9BA0A8"/>
<path d="M24.9737 4.54682L24.0869 1.18311C23.8827 0.365094 23.0449 -0.149642 22.2186 0.0389514L18.7173 0.8705L22.0393 5.76811L24.585 5.18875C24.7236 5.15749 24.8424 5.07098 24.9154 4.95014C24.9883 4.8293 25.0092 4.68437 24.9737 4.54682Z" fill="#9BA0A8"/>
<path d="M17.6323 1.12793L13.4526 2.11994L17.0497 6.90188L20.948 6.01508L17.6323 1.12793Z" fill="#9BA0A8"/>
<path d="M6.27418 9.37036L4.60693 13.5375H8.69488L10.3621 9.37036H6.27418Z" fill="#9BA0A8"/>
<path d="M11.4841 9.37036L9.81689 13.5375H13.9048L15.5721 9.37036H11.4841Z" fill="#9BA0A8"/>
<path d="M24.4695 9.37036H21.905L20.2378 13.5385H24.9905V9.89135C24.9905 9.60272 24.7581 9.37036 24.4695 9.37036Z" fill="#9BA0A8"/>
<path d="M16.6946 9.37036L15.0273 13.5375H19.1143L20.7825 9.37036H16.6946Z" fill="#9BA0A8"/>
<path d="M2.07689 4.81982L1.22761 5.02092C0.813933 5.11471 0.463807 5.36582 0.241852 5.7264C0.0198977 6.08801 -0.0457509 6.51316 0.0574112 6.92473L1.02338 10.7428V13.5375H3.48467L5.04876 9.62883L5.303 9.57154L2.07689 4.81982Z" fill="#9BA0A8"/>
</svg>
