<svg width="16" height="16" viewBox="0 0 16 16" fill="none" xmlns="http://www.w3.org/2000/svg">
<path d="M7.99951 0C5.18811 0 2.84326 2.26469 2.84326 5.15625C2.84326 6.25631 3.17382 7.23725 3.80823 8.15644L7.60492 14.0808C7.78911 14.3688 8.21029 14.3683 8.39411 14.0808L12.2073 8.13628C12.828 7.25875 13.1558 6.22834 13.1558 5.15625C13.1558 2.31309 10.8427 0 7.99951 0ZM7.99951 7.5C6.70723 7.5 5.65576 6.44853 5.65576 5.15625C5.65576 3.86397 6.70723 2.8125 7.99951 2.8125C9.29179 2.8125 10.3433 3.86397 10.3433 5.15625C10.3433 6.44853 9.29179 7.5 7.99951 7.5Z" fill="#9BA0A8"/>
<path d="M11.664 10.7716L9.30367 14.4618C8.6927 15.4144 7.30292 15.4113 6.69489 14.4627L4.3307 10.7726C2.25057 11.2535 0.968262 12.1345 0.968262 13.1874C0.968262 15.0143 4.59101 15.9999 7.99951 15.9999C11.408 15.9999 15.0308 15.0143 15.0308 13.1874C15.0308 12.1338 13.7467 11.2523 11.664 10.7716Z" fill="#9BA0A8"/>
</svg>
