<svg width="23" height="23" viewBox="0 0 23 23" fill="none" xmlns="http://www.w3.org/2000/svg">
<path d="M9.41987 18.8483C11.3593 18.8483 13.1509 18.2572 14.647 17.2598L20.0588 22.6716C20.4838 23.0965 21.1857 23.0965 21.6288 22.6716L22.6816 21.6188C23.1064 21.194 23.1064 20.4921 22.6816 20.0489L17.2513 14.6555C18.2485 13.1594 18.8397 11.3678 18.8397 9.42842C18.8397 4.23825 14.61 0.00854492 9.41987 0.00854492C4.22971 0.00854492 0 4.23825 0 9.42842C0 14.6184 4.21124 18.8483 9.41987 18.8483ZM9.41987 3.70261C12.5783 3.70261 15.1457 6.26999 15.1457 9.42842C15.1457 12.5868 12.5783 15.1542 9.41987 15.1542C6.26145 15.1542 3.69407 12.5868 3.69407 9.42842C3.69407 6.26999 6.26145 3.70261 9.41987 3.70261Z" fill="#9BA0A8"/>
</svg>
