<svg width="10" height="9" viewBox="0 0 10 9" fill="none" xmlns="http://www.w3.org/2000/svg">
<path d="M2.65625 0C3.19889 0 3.69639 0.175301 4.1349 0.521044C4.55531 0.852511 4.83521 1.27469 5 1.58169C5.16478 1.27467 5.44469 0.852511 5.8651 0.521044C6.30361 0.175301 6.80111 0 7.34375 0C8.85805 0 10 1.26273 10 2.93723C10 4.74627 8.57533 5.98398 6.41857 7.85772C6.05232 8.17592 5.63719 8.5366 5.2057 8.92127C5.14883 8.97204 5.07578 9 5 9C4.92422 9 4.85117 8.97204 4.7943 8.92129C4.36277 8.53656 3.94766 8.1759 3.58119 7.85752C1.42467 5.98398 0 4.74627 0 2.93723C0 1.26273 1.14195 0 2.65625 0Z" fill="#2E363F"/>
</svg>
