<svg width="41" height="41" viewBox="0 0 41 41" fill="none" xmlns="http://www.w3.org/2000/svg">
<circle cx="20.2675" cy="20.4442" r="20.2675" fill="#00E676"/>
<g clip-path="url(#clip0)">
<path d="M20.2698 10.3127H20.2647C14.6773 10.3127 10.1335 14.8577 10.1335 20.4465C10.1335 22.6632 10.848 24.7178 12.0628 26.3861L10.7998 30.1508L14.695 28.9056C16.2974 29.9671 18.2089 30.5802 20.2698 30.5802C25.8573 30.5802 30.401 26.034 30.401 20.4465C30.401 14.859 25.8573 10.3127 20.2698 10.3127ZM26.1664 24.6228C25.9219 25.3132 24.9516 25.8858 24.1776 26.053C23.6481 26.1657 22.9565 26.2556 20.6283 25.2904C17.6502 24.0566 15.7324 21.0304 15.583 20.8341C15.4398 20.6377 14.3796 19.2317 14.3796 17.7775C14.3796 16.3233 15.1181 15.6152 15.4158 15.3112C15.6602 15.0617 16.0643 14.9477 16.4519 14.9477C16.5773 14.9477 16.6901 14.954 16.7914 14.9591C17.0891 14.9717 17.2386 14.9895 17.4349 15.4594C17.6794 16.0484 18.2747 17.5026 18.3457 17.6521C18.4179 17.8016 18.4901 18.0042 18.3887 18.2006C18.2937 18.4033 18.2101 18.4932 18.0607 18.6655C17.9112 18.8377 17.7693 18.9695 17.6198 19.1544C17.483 19.3153 17.3285 19.4876 17.5008 19.7852C17.673 20.0766 18.2684 21.0482 19.145 21.8285C20.2761 22.8355 21.1932 23.1572 21.5213 23.2941C21.7658 23.3954 22.0571 23.3713 22.2358 23.1813C22.4625 22.9368 22.7424 22.5315 23.0274 22.1325C23.2301 21.8462 23.486 21.8107 23.7545 21.9121C24.0282 22.0071 25.476 22.7228 25.7737 22.871C26.0714 23.0204 26.2677 23.0914 26.3399 23.2168C26.4108 23.3422 26.4108 23.9312 26.1664 24.6228Z" fill="#EEEEEE"/>
</g>
<defs>
<clipPath id="clip0">
<rect width="20.2675" height="20.2675" fill="white" transform="translate(10.1335 10.3127)"/>
</clipPath>
</defs>
</svg>
