<svg width="22" height="20" viewBox="0 0 22 20" fill="none" xmlns="http://www.w3.org/2000/svg">
<path d="M20.6777 11.5442C20.5877 11.5588 20.4966 11.5656 20.4054 11.5644L4.88485 11.5644L5.22328 11.7218C5.55409 11.8784 5.85503 12.0915 6.11264 12.3514L10.465 16.7038C11.0382 17.251 11.1345 18.1312 10.6932 18.7895C10.1796 19.4909 9.1947 19.6432 8.49325 19.1296C8.43658 19.088 8.38272 19.0428 8.3321 18.9941L0.461665 11.1236C-0.15341 10.5093 -0.153951 9.51261 0.460435 8.89754C0.460829 8.89714 0.461271 8.8967 0.461665 8.89631L8.33211 1.02587C8.94768 0.412021 9.94432 0.413399 10.5582 1.02896C10.6065 1.07742 10.6516 1.12897 10.6932 1.18328C11.1345 1.84149 11.0382 2.72175 10.465 3.26894L6.12051 7.62917C5.88956 7.86036 5.62404 8.05422 5.33347 8.20371L4.86124 8.41621L20.3188 8.41621C21.1229 8.38636 21.8284 8.94806 21.9795 9.73845C22.1186 10.5966 21.5358 11.405 20.6777 11.5442Z" fill="#2E363F"/>
</svg>
