<svg width="39" height="39" viewBox="0 0 39 39" fill="none" xmlns="http://www.w3.org/2000/svg">
<path d="M38.3275 32.2759H0.672444C0.301107 32.2759 0 31.9747 0 31.6034V7.39656C0 7.02523 0.301107 6.72412 0.672444 6.72412H38.3276C38.6989 6.72412 39 7.02523 39 7.39656V31.6034C38.9999 31.9748 38.6988 32.2759 38.3275 32.2759Z" fill="#FF4B55"/>
<path d="M6.47516 10.7199L7.11623 12.642L9.14239 12.6577C9.40473 12.6597 9.5135 12.9945 9.30243 13.1503L7.67251 14.3539L8.28363 16.2858C8.3627 16.5359 8.07797 16.7427 7.86454 16.5902L6.21618 15.4119L4.56782 16.5902C4.35439 16.7427 4.06966 16.5358 4.14873 16.2857L4.75985 14.3538L3.12993 13.1503C2.91886 12.9945 3.02763 12.6597 3.28997 12.6577L5.31614 12.642L5.9572 10.7199C6.04022 10.471 6.39221 10.471 6.47516 10.7199Z" fill="#FFE15A"/>
<path d="M13.8326 11.1935L14.2923 11.8204L15.0342 11.5884C15.1302 11.5584 15.2092 11.6679 15.1504 11.7495L14.6963 12.3803L15.1461 13.0141C15.2044 13.0961 15.1247 13.2051 15.0288 13.1744L14.2885 12.9375L13.8247 13.5612C13.7647 13.642 13.6363 13.5998 13.636 13.4992L13.6325 12.7219L12.8959 12.4735C12.8007 12.4413 12.801 12.3063 12.8966 12.2748L13.6347 12.0313L13.6434 11.2541C13.6445 11.1536 13.7731 11.1124 13.8326 11.1935Z" fill="#FFE15A"/>
<path d="M11.0341 9.32507L11.8068 9.40901L12.1365 8.7051C12.1792 8.614 12.3133 8.62962 12.3339 8.72811L12.4928 9.48891L13.2641 9.58489C13.3639 9.5973 13.3905 9.72969 13.3031 9.77973L12.6286 10.1659L12.7757 10.9292C12.7948 11.028 12.6771 11.0942 12.6025 11.0266L12.0267 10.5044L11.3464 10.8801C11.2583 10.9288 11.1589 10.8372 11.2002 10.7454L11.5188 10.0364L10.9512 9.50536C10.8778 9.43696 10.9341 9.31425 11.0341 9.32507Z" fill="#FFE15A"/>
<path d="M12.2557 16.8578L11.796 17.4847L11.0542 17.2527C10.9581 17.2227 10.8791 17.3322 10.9379 17.4138L11.3921 18.0446L10.9422 18.6784C10.8839 18.7605 10.9637 18.8695 11.0595 18.8388L11.7998 18.6018L12.2636 19.2256C12.3236 19.3063 12.452 19.2641 12.4524 19.1636L12.4558 18.3862L13.1924 18.1378C13.2877 18.1056 13.2873 17.9706 13.1917 17.9391L12.4536 17.6956L12.4449 16.9184C12.4437 16.818 12.3152 16.7766 12.2557 16.8578Z" fill="#FFE15A"/>
<path d="M15.0541 15.102L14.2814 15.186L13.9517 14.4821C13.909 14.391 13.7749 14.4066 13.7543 14.5051L13.5954 15.2659L12.8241 15.3619C12.7242 15.3743 12.6976 15.5067 12.785 15.5567L13.4595 15.9429L13.3124 16.7061C13.2934 16.805 13.411 16.8711 13.4856 16.8036L14.0614 16.2814L14.7418 16.6571C14.8298 16.7058 14.9292 16.6142 14.8879 16.5224L14.5693 15.8134L15.1369 15.2823C15.2106 15.2139 15.1543 15.0912 15.0541 15.102Z" fill="#FFE15A"/>
</svg>
