<svg width="39" height="40" viewBox="0 0 39 40" fill="none" xmlns="http://www.w3.org/2000/svg">
<path d="M7.24792e-05 15.6323H39V7.58629C39 7.20543 38.6989 6.89661 38.3276 6.89661H0.67244C0.301102 6.89661 0 7.20543 0 7.58629L7.24792e-05 15.6323Z" fill="#FAB446"/>
<path d="M0.67252 33.1034H38.3276C38.6989 33.1034 39 32.7946 39 32.4137V24.3678H7.62939e-05V32.4137C7.62939e-05 32.7947 0.301182 33.1034 0.67252 33.1034Z" fill="#73AF00"/>
<path d="M7.62939e-05 15.6321H39V24.3672H7.62939e-05V15.6321Z" fill="#F5F5F5"/>
<path d="M19.5001 23.7069C21.493 23.7069 23.1143 22.0441 23.1143 20.0001C23.1143 17.956 21.493 16.2932 19.5001 16.2932C17.5071 16.2932 15.8859 17.956 15.8859 20.0001C15.8859 22.0441 17.5071 23.7069 19.5001 23.7069ZM19.5001 16.9828C21.1224 16.9828 22.4419 18.3362 22.4419 20.0001C22.4419 21.664 21.1224 23.0173 19.5001 23.0173C17.8778 23.0173 16.5582 21.664 16.5582 20.0001C16.5582 18.3362 17.8778 16.9828 19.5001 16.9828Z" fill="#41479B"/>
<path d="M19.5002 20.4203C19.2739 20.4203 19.0905 20.2322 19.0905 20.0001C19.0905 19.768 19.2739 19.5798 19.5002 19.5798C19.7265 19.5798 19.9099 19.768 19.9099 20.0001C19.9099 20.2322 19.7265 20.4203 19.5002 20.4203Z" fill="#41479B"/>
<path d="M19.5001 20.0631L20.5414 20.1709L22.7781 20.0631V19.937L20.5414 19.8292L19.5001 19.937V20.0631Z" fill="#41479B"/>
<path d="M19.5 20.0631L18.4587 20.1709L16.222 20.0631V19.937L18.4587 19.8292L19.5 19.937V20.0631Z" fill="#41479B"/>
<path d="M19.5616 20.0001L19.6667 18.9321L19.5616 16.6381H19.4387L19.3336 18.9321L19.4387 20.0001H19.5616Z" fill="#41479B"/>
<path d="M19.5616 20.0001L19.6667 21.0681L19.5616 23.3621H19.4387L19.3336 21.0681L19.4387 20.0001H19.5616Z" fill="#41479B"/>
<path d="M19.5434 20.0446L20.354 19.3658L21.8613 17.6674L21.7744 17.5782L20.1184 19.1242L19.4566 19.9556L19.5434 20.0446Z" fill="#41479B"/>
<path d="M19.5435 20.0445L18.8816 20.8759L17.2256 22.4218L17.1387 22.3327L18.646 20.6343L19.4566 19.9554L19.5435 20.0445Z" fill="#41479B"/>
<path d="M19.5435 19.9556L18.8816 19.1242L17.2256 17.5782L17.1387 17.6674L18.646 19.3658L19.4566 20.0446L19.5435 19.9556Z" fill="#41479B"/>
<path d="M19.5434 19.9554L20.354 20.6343L21.8613 22.3327L21.7744 22.4218L20.1184 20.8759L19.4566 20.0445L19.5434 19.9554Z" fill="#41479B"/>
<path d="M19.4767 20.0583L20.3986 20.5666L22.5052 21.3449L22.5522 21.2284L20.526 20.2509L19.5238 19.9418L19.4767 20.0583Z" fill="#41479B"/>
<path d="M19.4766 20.0584L18.4744 19.7493L16.4482 18.7718L16.4952 18.6553L18.6019 19.4336L19.5237 19.9418L19.4766 20.0584Z" fill="#41479B"/>
<path d="M19.5569 20.0242L20.0525 19.0788L20.8113 16.9182L20.6977 16.8699L19.7446 18.9481L19.4432 19.976L19.5569 20.0242Z" fill="#41479B"/>
<path d="M19.5569 20.0242L19.2555 21.0521L18.3024 23.1303L18.1888 23.082L18.9477 20.9214L19.4432 19.976L19.5569 20.0242Z" fill="#41479B"/>
<path d="M19.5238 20.0584L20.526 19.7493L22.5522 18.7718L22.5052 18.6553L20.3986 19.4336L19.4767 19.9418L19.5238 20.0584Z" fill="#41479B"/>
<path d="M19.5237 20.0583L18.6019 20.5666L16.4952 21.3449L16.4482 21.2284L18.4744 20.2509L19.4766 19.9418L19.5237 20.0583Z" fill="#41479B"/>
<path d="M19.5569 19.976L19.2555 18.9481L18.3024 16.8699L18.1888 16.9182L18.9477 19.0788L19.4432 20.0242L19.5569 19.976Z" fill="#41479B"/>
<path d="M19.5569 19.976L20.0525 20.9214L20.8113 23.082L20.6977 23.1303L19.7446 21.0521L19.4432 20.0242L19.5569 19.976Z" fill="#41479B"/>
<path d="M19.5 20.567C19.1948 20.567 18.9473 20.3132 18.9473 20.0001C18.9473 19.687 19.1948 19.4332 19.5 19.4332C19.8053 19.4332 20.0527 19.687 20.0527 20.0001C20.0527 20.3132 19.8053 20.567 19.5 20.567Z" fill="#F5F5F5"/>
<path d="M19.5001 20.34C19.3171 20.34 19.1687 20.1878 19.1687 20.0001C19.1687 19.8123 19.3171 19.6602 19.5001 19.6602C19.6832 19.6602 19.8315 19.8123 19.8315 20.0001C19.8315 20.1878 19.6832 20.34 19.5001 20.34Z" fill="#41479B"/>
</svg>
