<svg width="39" height="39" viewBox="0 0 39 39" fill="none" xmlns="http://www.w3.org/2000/svg">
<path d="M0.670315 32.274H38.3297C38.7029 32.274 39 31.9693 39 31.6037V7.39626C39 7.02302 38.6953 6.72595 38.3297 6.72595H0.677933C0.304691 6.72595 0.00762177 7.03064 0.00762177 7.39626V31.6037C3.8147e-06 31.9769 0.304691 32.274 0.670315 32.274Z" fill="#F5F5F5"/>
<path d="M0.670311 32.274H38.3297C38.7029 32.274 39 31.9693 39 31.6037V28.2445H0V31.6037C0 31.9769 0.304688 32.274 0.670311 32.274Z" fill="#FF4B55"/>
<path d="M38.3297 6.72595H0.677929C0.304688 6.72595 0.00761795 7.03064 0.00761795 7.39626V10.7554H39V7.39626C39 7.02302 38.6953 6.72595 38.3297 6.72595Z" fill="#FF4B55"/>
<path d="M0 14.7926H39V24.2075H0V14.7926Z" fill="#41479B"/>
</svg>
