<svg width="39" height="39" viewBox="0 0 39 39" fill="none" xmlns="http://www.w3.org/2000/svg">
<path d="M38.3275 32.2759H0.672444C0.301107 32.2759 0 31.9747 0 31.6034V7.39656C0 7.02523 0.301107 6.72412 0.672444 6.72412H38.3276C38.6989 6.72412 39 7.02523 39 7.39656V31.6034C38.9999 31.9748 38.6988 32.2759 38.3275 32.2759Z" fill="#F5F5F5"/>
<path d="M38.9999 8.68973H0V7.39656C0 7.02523 0.301107 6.72412 0.672444 6.72412H38.3276C38.6989 6.72412 39 7.02523 39 7.39656L38.9999 8.68973Z" fill="#FF4B55"/>
<path d="M38.9999 14.5862H0V16.5517H38.9999V14.5862Z" fill="#FF4B55"/>
<path d="M38.9999 10.655H0V12.6206H38.9999V10.655Z" fill="#FF4B55"/>
<path d="M38.9999 20.4828H0.672444C0.301107 20.4828 0 20.1817 0 19.8104V18.5172H38.9999V20.4828Z" fill="#FF4B55"/>
<path d="M38.9999 26.3799H0V28.3454H38.9999V26.3799Z" fill="#FF4B55"/>
<path d="M38.3275 32.2758H0.672444C0.301107 32.2758 0 31.9747 0 31.6034V30.3103H38.9999V31.6035C38.9999 31.9748 38.6988 32.2758 38.3275 32.2758Z" fill="#FF4B55"/>
<path d="M38.9999 22.4486H0V24.4141H38.9999V22.4486Z" fill="#FF4B55"/>
<path d="M17.4827 6.72424H0.672444C0.301107 6.72424 0 7.02527 0 7.39661V19.8103C0 20.1817 0.301107 20.4828 0.672444 20.4828H17.4828C17.8541 20.4828 18.1552 20.1817 18.1552 19.8103V7.39661C18.1552 7.02527 17.854 6.72424 17.4827 6.72424Z" fill="#41479B"/>
<path d="M1.88827 8.26759L2.03711 8.71396L2.50762 8.71754C2.56855 8.71807 2.59377 8.79577 2.54479 8.83195L2.16629 9.1115L2.30828 9.56007C2.32671 9.61812 2.26052 9.66626 2.21093 9.63076L1.82817 9.35723L1.4454 9.63084C1.39582 9.66626 1.32977 9.61819 1.34806 9.56015L1.49004 9.11158L1.11154 8.83203C1.06256 8.79577 1.08778 8.71815 1.14871 8.71762L1.61923 8.71404L1.76807 8.26767C1.78726 8.20978 1.86892 8.20978 1.88827 8.26759Z" fill="#F5F5F5"/>
<path d="M1.88827 10.6025L2.03711 11.0489L2.50762 11.0524C2.56855 11.053 2.59377 11.1307 2.54479 11.1669L2.16629 11.4464L2.30828 11.895C2.32671 11.953 2.26052 12.0012 2.21093 11.9657L1.82817 11.6921L1.4454 11.9657C1.39582 12.0012 1.32977 11.9531 1.34806 11.8951L1.49004 11.4465L1.11154 11.1669C1.06256 11.1307 1.08778 11.0531 1.14871 11.0525L1.61923 11.0489L1.76807 10.6026C1.78726 10.5448 1.86892 10.5448 1.88827 10.6025Z" fill="#F5F5F5"/>
<path d="M1.88827 12.9375L2.03711 13.3838L2.50762 13.3874C2.56855 13.3879 2.59377 13.4656 2.54479 13.5018L2.16629 13.7814L2.30828 14.2299C2.32671 14.288 2.26052 14.3361 2.21093 14.3006L1.82817 14.0271L1.4454 14.3007C1.39582 14.3361 1.32977 14.2881 1.34806 14.23L1.49004 13.7814L1.11154 13.5019C1.06256 13.4656 1.08778 13.388 1.14871 13.3875L1.61923 13.3839L1.76807 12.9375C1.78726 12.8797 1.86892 12.8797 1.88827 12.9375Z" fill="#F5F5F5"/>
<path d="M1.88827 15.2725L2.03711 15.7188L2.50762 15.7224C2.56855 15.723 2.59377 15.8007 2.54479 15.8368L2.16629 16.1164L2.30828 16.565C2.32671 16.623 2.26052 16.6711 2.21093 16.6356L1.82817 16.3621L1.4454 16.6357C1.39582 16.6711 1.32977 16.6231 1.34806 16.565L1.49004 16.1165L1.11154 15.8369C1.06256 15.8007 1.08778 15.723 1.14871 15.7225L1.61923 15.7189L1.76807 15.2726C1.78726 15.2147 1.86892 15.2147 1.88827 15.2725Z" fill="#F5F5F5"/>
<path d="M1.88827 17.6075L2.03711 18.0539L2.50762 18.0574C2.56855 18.058 2.59377 18.1357 2.54479 18.1719L2.16629 18.4514L2.30828 18.9C2.32671 18.958 2.26052 19.0062 2.21093 18.9707L1.82817 18.6971L1.4454 18.9707C1.39582 19.0062 1.32977 18.9581 1.34806 18.9001L1.49004 18.4515L1.11154 18.1719C1.06256 18.1357 1.08778 18.0581 1.14871 18.0575L1.61923 18.0539L1.76807 17.6076C1.78726 17.5496 1.86892 17.5496 1.88827 17.6075Z" fill="#F5F5F5"/>
<path d="M3.70052 9.4122L3.84936 9.85857L4.31987 9.86215C4.38081 9.86268 4.40602 9.94037 4.35704 9.97656L3.97855 10.2561L4.12053 10.7047C4.13897 10.7627 4.07277 10.8109 4.02318 10.7754L3.64042 10.5018L3.25766 10.7754C3.20807 10.8108 3.14203 10.7627 3.16031 10.7047L3.3023 10.2561L2.9238 9.97656C2.87482 9.9403 2.90003 9.86268 2.96097 9.86215L3.43148 9.85857L3.58032 9.4122C3.59944 9.35446 3.68125 9.35446 3.70052 9.4122Z" fill="#F5F5F5"/>
<path d="M3.70052 11.7473L3.84936 12.1937L4.31987 12.1973C4.38081 12.1978 4.40602 12.2755 4.35704 12.3117L3.97855 12.5912L4.12053 13.0398C4.13897 13.0979 4.07277 13.146 4.02318 13.1105L3.64042 12.8369L3.25766 13.1105C3.20807 13.1459 3.14203 13.0979 3.16031 13.0398L3.3023 12.5912L2.9238 12.3117C2.87482 12.2754 2.90003 12.1978 2.96097 12.1973L3.43148 12.1937L3.58032 11.7473C3.59944 11.6895 3.68125 11.6895 3.70052 11.7473Z" fill="#F5F5F5"/>
<path d="M3.70052 14.0823L3.84936 14.5287L4.31987 14.5322C4.38081 14.5328 4.40602 14.6105 4.35704 14.6467L3.97855 14.9262L4.12053 15.3748C4.13897 15.4328 4.07277 15.481 4.02318 15.4455L3.64042 15.1719L3.25766 15.4455C3.20807 15.4809 3.14203 15.4328 3.16031 15.3748L3.3023 14.9262L2.9238 14.6467C2.87482 14.6104 2.90003 14.5328 2.96097 14.5322L3.43148 14.5287L3.58032 14.0823C3.59944 14.0245 3.68125 14.0245 3.70052 14.0823Z" fill="#F5F5F5"/>
<path d="M3.70052 16.4172L3.84936 16.8636L4.31987 16.8672C4.38081 16.8677 4.40602 16.9454 4.35704 16.9816L3.97855 17.2611L4.12053 17.7097C4.13897 17.7677 4.07277 17.8159 4.02318 17.7804L3.64042 17.5068L3.25766 17.7804C3.20807 17.8158 3.14203 17.7677 3.16031 17.7097L3.3023 17.2611L2.9238 16.9816C2.87482 16.9453 2.90003 16.8677 2.96097 16.8672L3.43148 16.8636L3.58032 16.4172C3.59944 16.3595 3.68125 16.3595 3.70052 16.4172Z" fill="#F5F5F5"/>
<path d="M5.51302 8.26748L5.66186 8.71385L6.13238 8.71743C6.19331 8.71796 6.21853 8.79566 6.16955 8.83184L5.79105 9.11139L5.93303 9.55996C5.95147 9.618 5.88528 9.66614 5.83569 9.63065L5.45292 9.35704L5.07016 9.63065C5.02057 9.66607 4.95453 9.618 4.97281 9.55996L5.1148 9.11139L4.7363 8.83184C4.68732 8.79558 4.71253 8.71796 4.77347 8.71743L5.24398 8.71385L5.39282 8.26748C5.41202 8.20967 5.49375 8.20967 5.51302 8.26748Z" fill="#F5F5F5"/>
<path d="M5.51302 10.6024L5.66186 11.0488L6.13238 11.0523C6.19331 11.0529 6.21853 11.1306 6.16955 11.1667L5.79105 11.4463L5.93303 11.8949C5.95147 11.9529 5.88528 12.001 5.83569 11.9656L5.45292 11.6919L5.07016 11.9656C5.02057 12.001 4.95453 11.9529 4.97281 11.8949L5.1148 11.4463L4.7363 11.1667C4.68732 11.1305 4.71253 11.0529 4.77347 11.0523L5.24398 11.0488L5.39282 10.6024C5.41202 10.5446 5.49375 10.5446 5.51302 10.6024Z" fill="#F5F5F5"/>
<path d="M5.51302 12.9375L5.66186 13.3838L6.13238 13.3874C6.19331 13.388 6.21853 13.4656 6.16955 13.5018L5.79105 13.7814L5.93303 14.23C5.95147 14.288 5.88528 14.3361 5.83569 14.3006L5.45292 14.027L5.07016 14.3006C5.02057 14.3361 4.95453 14.288 4.97281 14.23L5.1148 13.7814L4.7363 13.5018C4.68732 13.4656 4.71253 13.388 4.77347 13.3874L5.24398 13.3838L5.39282 12.9375C5.41202 12.8797 5.49375 12.8797 5.51302 12.9375Z" fill="#F5F5F5"/>
<path d="M5.51302 15.2725L5.66186 15.7189L6.13238 15.7224C6.19331 15.723 6.21853 15.8007 6.16955 15.8368L5.79105 16.1164L5.93303 16.565C5.95147 16.623 5.88528 16.6712 5.83569 16.6357L5.45292 16.362L5.07016 16.6357C5.02057 16.6711 4.95453 16.623 4.97281 16.565L5.1148 16.1164L4.7363 15.8368C4.68732 15.8006 4.71253 15.723 4.77347 15.7224L5.24398 15.7189L5.39282 15.2725C5.41202 15.2147 5.49375 15.2147 5.51302 15.2725Z" fill="#F5F5F5"/>
<path d="M5.51302 17.6075L5.66186 18.0539L6.13238 18.0575C6.19331 18.058 6.21853 18.1357 6.16955 18.1719L5.79105 18.4514L5.93303 18.9C5.95147 18.958 5.88528 19.0062 5.83569 18.9707L5.45292 18.6971L5.07016 18.9707C5.02057 19.0061 4.95453 18.958 4.97281 18.9L5.1148 18.4514L4.7363 18.1719C4.68732 18.1356 4.71253 18.058 4.77347 18.0575L5.24398 18.0539L5.39282 17.6075C5.41202 17.5496 5.49375 17.5496 5.51302 17.6075Z" fill="#F5F5F5"/>
<path d="M7.32552 9.4122L7.47436 9.85857L7.94487 9.86215C8.00581 9.86268 8.03102 9.94037 7.98205 9.97656L7.60355 10.2561L7.74553 10.7047C7.76397 10.7627 7.69777 10.8109 7.64819 10.7754L7.26542 10.5018L6.88266 10.7754C6.83307 10.8108 6.76703 10.7627 6.78531 10.7047L6.9273 10.2561L6.5488 9.97656C6.49982 9.9403 6.52503 9.86268 6.58597 9.86215L7.05648 9.85857L7.20532 9.4122C7.22444 9.35446 7.30625 9.35446 7.32552 9.4122Z" fill="#F5F5F5"/>
<path d="M7.32552 11.7473L7.47436 12.1937L7.94487 12.1973C8.00581 12.1978 8.03102 12.2755 7.98205 12.3117L7.60355 12.5912L7.74553 13.0398C7.76397 13.0979 7.69777 13.146 7.64819 13.1105L7.26542 12.8369L6.88266 13.1105C6.83307 13.1459 6.76703 13.0979 6.78531 13.0398L6.9273 12.5912L6.5488 12.3117C6.49982 12.2754 6.52503 12.1978 6.58597 12.1973L7.05648 12.1937L7.20532 11.7473C7.22444 11.6895 7.30625 11.6895 7.32552 11.7473Z" fill="#F5F5F5"/>
<path d="M7.32552 14.0823L7.47436 14.5287L7.94487 14.5322C8.00581 14.5328 8.03102 14.6105 7.98205 14.6467L7.60355 14.9262L7.74553 15.3748C7.76397 15.4328 7.69777 15.481 7.64819 15.4455L7.26542 15.1719L6.88266 15.4455C6.83307 15.4809 6.76703 15.4328 6.78531 15.3748L6.9273 14.9262L6.5488 14.6467C6.49982 14.6104 6.52503 14.5328 6.58597 14.5322L7.05648 14.5287L7.20532 14.0823C7.22444 14.0245 7.30625 14.0245 7.32552 14.0823Z" fill="#F5F5F5"/>
<path d="M7.32552 16.4172L7.47436 16.8636L7.94487 16.8672C8.00581 16.8677 8.03102 16.9454 7.98205 16.9816L7.60355 17.2611L7.74553 17.7097C7.76397 17.7677 7.69777 17.8159 7.64819 17.7804L7.26542 17.5068L6.88266 17.7804C6.83307 17.8158 6.76703 17.7677 6.78531 17.7097L6.9273 17.2611L6.5488 16.9816C6.49982 16.9453 6.52503 16.8677 6.58597 16.8672L7.05648 16.8636L7.20532 16.4172C7.22444 16.3595 7.30625 16.3595 7.32552 16.4172Z" fill="#F5F5F5"/>
<path d="M9.13785 8.26748L9.28669 8.71385L9.75721 8.71743C9.81814 8.71796 9.84336 8.79566 9.79438 8.83184L9.41588 9.11139L9.55786 9.55996C9.5763 9.618 9.51011 9.66614 9.46052 9.63065L9.07768 9.35704L8.69492 9.63065C8.64533 9.66607 8.57929 9.618 8.59757 9.55996L8.73955 9.11139L8.36105 8.83184C8.31208 8.79558 8.33729 8.71796 8.39823 8.71743L8.86874 8.71385L9.01758 8.26748C9.03685 8.20967 9.11858 8.20967 9.13785 8.26748Z" fill="#F5F5F5"/>
<path d="M9.13785 10.6024L9.28669 11.0488L9.75721 11.0523C9.81814 11.0529 9.84336 11.1306 9.79438 11.1667L9.41588 11.4463L9.55786 11.8949C9.5763 11.9529 9.51011 12.001 9.46052 11.9656L9.07768 11.6919L8.69492 11.9656C8.64533 12.001 8.57929 11.9529 8.59757 11.8949L8.73955 11.4463L8.36105 11.1667C8.31208 11.1305 8.33729 11.0529 8.39823 11.0523L8.86874 11.0488L9.01758 10.6024C9.03685 10.5446 9.11858 10.5446 9.13785 10.6024Z" fill="#F5F5F5"/>
<path d="M9.13785 12.9375L9.28669 13.3838L9.75721 13.3874C9.81814 13.388 9.84336 13.4656 9.79438 13.5018L9.41588 13.7814L9.55786 14.23C9.5763 14.288 9.51011 14.3361 9.46052 14.3006L9.07768 14.027L8.69492 14.3006C8.64533 14.3361 8.57929 14.288 8.59757 14.23L8.73955 13.7814L8.36105 13.5018C8.31208 13.4656 8.33729 13.388 8.39823 13.3874L8.86874 13.3838L9.01758 12.9375C9.03685 12.8797 9.11858 12.8797 9.13785 12.9375Z" fill="#F5F5F5"/>
<path d="M9.13785 15.2725L9.28669 15.7189L9.75721 15.7224C9.81814 15.723 9.84336 15.8007 9.79438 15.8368L9.41588 16.1164L9.55786 16.565C9.5763 16.623 9.51011 16.6712 9.46052 16.6357L9.07768 16.362L8.69492 16.6357C8.64533 16.6711 8.57929 16.623 8.59757 16.565L8.73955 16.1164L8.36105 15.8368C8.31208 15.8006 8.33729 15.723 8.39823 15.7224L8.86874 15.7189L9.01758 15.2725C9.03685 15.2147 9.11858 15.2147 9.13785 15.2725Z" fill="#F5F5F5"/>
<path d="M9.13785 17.6075L9.28669 18.0539L9.75721 18.0575C9.81814 18.058 9.84336 18.1357 9.79438 18.1719L9.41588 18.4514L9.55786 18.9C9.5763 18.958 9.51011 19.0062 9.46052 18.9707L9.07768 18.6971L8.69492 18.9707C8.64533 19.0061 8.57929 18.958 8.59757 18.9L8.73955 18.4514L8.36105 18.1719C8.31208 18.1356 8.33729 18.058 8.39823 18.0575L8.86874 18.0539L9.01758 17.6075C9.03685 17.5496 9.11858 17.5496 9.13785 17.6075Z" fill="#F5F5F5"/>
<path d="M10.95 9.4122L11.0989 9.85857L11.5694 9.86215C11.6303 9.86268 11.6555 9.94037 11.6066 9.97656L11.2281 10.2561L11.37 10.7047C11.3885 10.7627 11.3223 10.8109 11.2727 10.7754L10.8899 10.5018L10.5072 10.7754C10.4576 10.8108 10.3915 10.7627 10.4098 10.7047L10.5518 10.2561L10.1733 9.97656C10.1243 9.9403 10.1495 9.86268 10.2105 9.86215L10.681 9.85857L10.8298 9.4122C10.8491 9.35446 10.9308 9.35446 10.95 9.4122Z" fill="#F5F5F5"/>
<path d="M10.95 11.7473L11.0989 12.1937L11.5694 12.1973C11.6303 12.1978 11.6555 12.2755 11.6066 12.3117L11.2281 12.5912L11.37 13.0398C11.3885 13.0979 11.3223 13.146 11.2727 13.1105L10.8899 12.8369L10.5072 13.1105C10.4576 13.1459 10.3915 13.0979 10.4098 13.0398L10.5518 12.5912L10.1733 12.3117C10.1243 12.2754 10.1495 12.1978 10.2105 12.1973L10.681 12.1937L10.8298 11.7473C10.8491 11.6895 10.9308 11.6895 10.95 11.7473Z" fill="#F5F5F5"/>
<path d="M10.95 14.0823L11.0989 14.5287L11.5694 14.5322C11.6303 14.5328 11.6555 14.6105 11.6066 14.6467L11.2281 14.9262L11.37 15.3748C11.3885 15.4328 11.3223 15.481 11.2727 15.4455L10.8899 15.1719L10.5072 15.4455C10.4576 15.4809 10.3915 15.4328 10.4098 15.3748L10.5518 14.9262L10.1733 14.6467C10.1243 14.6104 10.1495 14.5328 10.2105 14.5322L10.681 14.5287L10.8298 14.0823C10.8491 14.0245 10.9308 14.0245 10.95 14.0823Z" fill="#F5F5F5"/>
<path d="M10.95 16.4172L11.0989 16.8636L11.5694 16.8672C11.6303 16.8677 11.6555 16.9454 11.6066 16.9816L11.2281 17.2611L11.37 17.7097C11.3885 17.7677 11.3223 17.8159 11.2727 17.7804L10.8899 17.5068L10.5072 17.7804C10.4576 17.8158 10.3915 17.7677 10.4098 17.7097L10.5518 17.2611L10.1733 16.9816C10.1243 16.9453 10.1495 16.8677 10.2105 16.8672L10.681 16.8636L10.8298 16.4172C10.8491 16.3595 10.9308 16.3595 10.95 16.4172Z" fill="#F5F5F5"/>
<path d="M12.7625 8.26748L12.9114 8.71385L13.3819 8.71743C13.4428 8.71796 13.468 8.79566 13.4191 8.83184L13.0406 9.11139L13.1825 9.55996C13.201 9.618 13.1348 9.66614 13.0852 9.63065L12.7024 9.35704L12.3197 9.63065C12.2701 9.66607 12.204 9.618 12.2223 9.55996L12.3643 9.11139L11.9858 8.83184C11.9368 8.79558 11.962 8.71796 12.023 8.71743L12.4935 8.71385L12.6423 8.26748C12.6615 8.20967 12.7433 8.20967 12.7625 8.26748Z" fill="#F5F5F5"/>
<path d="M12.7625 10.6024L12.9114 11.0488L13.3819 11.0523C13.4428 11.0529 13.468 11.1306 13.4191 11.1667L13.0406 11.4463L13.1825 11.8949C13.201 11.9529 13.1348 12.001 13.0852 11.9656L12.7024 11.6919L12.3197 11.9656C12.2701 12.001 12.204 11.9529 12.2223 11.8949L12.3643 11.4463L11.9858 11.1667C11.9368 11.1305 11.962 11.0529 12.023 11.0523L12.4935 11.0488L12.6423 10.6024C12.6615 10.5446 12.7433 10.5446 12.7625 10.6024Z" fill="#F5F5F5"/>
<path d="M12.7625 12.9375L12.9114 13.3838L13.3819 13.3874C13.4428 13.388 13.468 13.4656 13.4191 13.5018L13.0406 13.7814L13.1825 14.23C13.201 14.288 13.1348 14.3361 13.0852 14.3006L12.7024 14.027L12.3197 14.3006C12.2701 14.3361 12.204 14.288 12.2223 14.23L12.3643 13.7814L11.9858 13.5018C11.9368 13.4656 11.962 13.388 12.023 13.3874L12.4935 13.3838L12.6423 12.9375C12.6615 12.8797 12.7433 12.8797 12.7625 12.9375Z" fill="#F5F5F5"/>
<path d="M12.7625 15.2725L12.9114 15.7189L13.3819 15.7224C13.4428 15.723 13.468 15.8007 13.4191 15.8368L13.0406 16.1164L13.1825 16.565C13.201 16.623 13.1348 16.6712 13.0852 16.6357L12.7024 16.362L12.3197 16.6357C12.2701 16.6711 12.204 16.623 12.2223 16.565L12.3643 16.1164L11.9858 15.8368C11.9368 15.8006 11.962 15.723 12.023 15.7224L12.4935 15.7189L12.6423 15.2725C12.6615 15.2147 12.7433 15.2147 12.7625 15.2725Z" fill="#F5F5F5"/>
<path d="M12.7625 17.6075L12.9114 18.0539L13.3819 18.0575C13.4428 18.058 13.468 18.1357 13.4191 18.1719L13.0406 18.4514L13.1825 18.9C13.201 18.958 13.1348 19.0062 13.0852 18.9707L12.7024 18.6971L12.3197 18.9707C12.2701 19.0061 12.204 18.958 12.2223 18.9L12.3643 18.4514L11.9858 18.1719C11.9368 18.1356 11.962 18.058 12.023 18.0575L12.4935 18.0539L12.6423 17.6075C12.6615 17.5496 12.7433 17.5496 12.7625 17.6075Z" fill="#F5F5F5"/>
<path d="M14.5748 9.4122L14.7236 9.85857L15.1941 9.86215C15.2551 9.86268 15.2803 9.94037 15.2313 9.97656L14.8528 10.2561L14.9948 10.7047C15.0132 10.7627 14.947 10.8109 14.8975 10.7754L14.5147 10.5018L14.1319 10.7754C14.0823 10.8108 14.0163 10.7627 14.0346 10.7047L14.1766 10.2561L13.7981 9.97656C13.7491 9.9403 13.7743 9.86268 13.8352 9.86215L14.3057 9.85857L14.4546 9.4122C14.4738 9.35446 14.5556 9.35446 14.5748 9.4122Z" fill="#F5F5F5"/>
<path d="M14.5748 11.7473L14.7236 12.1937L15.1941 12.1973C15.2551 12.1978 15.2803 12.2755 15.2313 12.3117L14.8528 12.5912L14.9948 13.0398C15.0132 13.0979 14.947 13.146 14.8975 13.1105L14.5147 12.8369L14.1319 13.1105C14.0823 13.1459 14.0163 13.0979 14.0346 13.0398L14.1766 12.5912L13.7981 12.3117C13.7491 12.2754 13.7743 12.1978 13.8352 12.1973L14.3057 12.1937L14.4546 11.7473C14.4738 11.6895 14.5556 11.6895 14.5748 11.7473Z" fill="#F5F5F5"/>
<path d="M14.5748 14.0823L14.7236 14.5287L15.1941 14.5322C15.2551 14.5328 15.2803 14.6105 15.2313 14.6467L14.8528 14.9262L14.9948 15.3748C15.0132 15.4328 14.947 15.481 14.8975 15.4455L14.5147 15.1719L14.1319 15.4455C14.0823 15.4809 14.0163 15.4328 14.0346 15.3748L14.1766 14.9262L13.7981 14.6467C13.7491 14.6104 13.7743 14.5328 13.8352 14.5322L14.3057 14.5287L14.4546 14.0823C14.4738 14.0245 14.5556 14.0245 14.5748 14.0823Z" fill="#F5F5F5"/>
<path d="M14.5748 16.4172L14.7236 16.8636L15.1941 16.8672C15.2551 16.8677 15.2803 16.9454 15.2313 16.9816L14.8528 17.2611L14.9948 17.7097C15.0132 17.7677 14.947 17.8159 14.8975 17.7804L14.5147 17.5068L14.1319 17.7804C14.0823 17.8158 14.0163 17.7677 14.0346 17.7097L14.1766 17.2611L13.7981 16.9816C13.7491 16.9453 13.7743 16.8677 13.8352 16.8672L14.3057 16.8636L14.4546 16.4172C14.4738 16.3595 14.5556 16.3595 14.5748 16.4172Z" fill="#F5F5F5"/>
<path d="M16.3873 8.26748L16.5361 8.71385L17.0066 8.71743C17.0676 8.71796 17.0928 8.79566 17.0438 8.83184L16.6653 9.11139L16.8073 9.55996C16.8257 9.618 16.7595 9.66614 16.71 9.63065L16.3272 9.35704L15.9444 9.63065C15.8948 9.66607 15.8288 9.618 15.8471 9.55996L15.9891 9.11139L15.6106 8.83184C15.5616 8.79558 15.5868 8.71796 15.6477 8.71743L16.1183 8.71385L16.2671 8.26748C16.2863 8.20967 16.3679 8.20967 16.3873 8.26748Z" fill="#F5F5F5"/>
<path d="M16.3873 10.6024L16.5361 11.0488L17.0066 11.0523C17.0676 11.0529 17.0928 11.1306 17.0438 11.1667L16.6653 11.4463L16.8073 11.8949C16.8257 11.9529 16.7595 12.001 16.71 11.9656L16.3272 11.6919L15.9444 11.9656C15.8948 12.001 15.8288 11.9529 15.8471 11.8949L15.9891 11.4463L15.6106 11.1667C15.5616 11.1305 15.5868 11.0529 15.6477 11.0523L16.1183 11.0488L16.2671 10.6024C16.2863 10.5446 16.3679 10.5446 16.3873 10.6024Z" fill="#F5F5F5"/>
<path d="M16.3873 12.9375L16.5361 13.3838L17.0066 13.3874C17.0676 13.388 17.0928 13.4656 17.0438 13.5018L16.6653 13.7814L16.8073 14.23C16.8257 14.288 16.7595 14.3361 16.71 14.3006L16.3272 14.027L15.9444 14.3006C15.8948 14.3361 15.8288 14.288 15.8471 14.23L15.9891 13.7814L15.6106 13.5018C15.5616 13.4656 15.5868 13.388 15.6477 13.3874L16.1183 13.3838L16.2671 12.9375C16.2863 12.8797 16.3679 12.8797 16.3873 12.9375Z" fill="#F5F5F5"/>
<path d="M16.3873 15.2725L16.5361 15.7189L17.0066 15.7224C17.0676 15.723 17.0928 15.8007 17.0438 15.8368L16.6653 16.1164L16.8073 16.565C16.8257 16.623 16.7595 16.6712 16.71 16.6357L16.3272 16.362L15.9444 16.6357C15.8948 16.6711 15.8288 16.623 15.8471 16.565L15.9891 16.1164L15.6106 15.8368C15.5616 15.8006 15.5868 15.723 15.6477 15.7224L16.1183 15.7189L16.2671 15.2725C16.2863 15.2147 16.3679 15.2147 16.3873 15.2725Z" fill="#F5F5F5"/>
<path d="M16.3873 17.6075L16.5361 18.0539L17.0066 18.0575C17.0676 18.058 17.0928 18.1357 17.0438 18.1719L16.6653 18.4514L16.8073 18.9C16.8257 18.958 16.7595 19.0062 16.71 18.9707L16.3272 18.6971L15.9444 18.9707C15.8948 19.0061 15.8288 18.958 15.8471 18.9L15.9891 18.4514L15.6106 18.1719C15.5616 18.1356 15.5868 18.058 15.6477 18.0575L16.1183 18.0539L16.2671 17.6075C16.2863 17.5496 16.3679 17.5496 16.3873 17.6075Z" fill="#F5F5F5"/>
</svg>
