<svg width="40" height="40" viewBox="0 0 40 40" fill="none" xmlns="http://www.w3.org/2000/svg">
<g clip-path="url(#clip0)">
<path d="M28.8581 10.7823V14.4877C28.8581 15.4982 28.0389 16.3173 27.0284 16.3173H5.11631C4.10576 16.3173 3.28662 15.4982 3.28662 14.4877V10.7823C3.28662 9.77251 4.10576 8.95337 5.11631 8.95337H27.0283C28.0389 8.95337 28.8581 9.77251 28.8581 10.7823Z" fill="#DD9F3A"/>
<path d="M25.5714 18.1468V21.8522C25.5714 22.8627 24.7523 23.6818 23.7417 23.6818H1.82968C0.819139 23.6818 0 22.8627 0 21.8522V18.1468C0 17.137 0.819139 16.3179 1.82968 16.3179H23.7417C24.7523 16.3179 25.5714 17.137 25.5714 18.1468Z" fill="#DD9F3A"/>
<path d="M26.8039 25.5113V29.2167C26.8039 30.2272 25.9847 31.0463 24.9742 31.0463H3.06211C2.05156 31.0463 1.23242 30.2272 1.23242 29.2167V25.5113C1.23242 24.5015 2.05156 23.6824 3.06211 23.6824H24.9741C25.9847 23.6824 26.8039 24.5015 26.8039 25.5113Z" fill="#DD9F3A"/>
<path d="M25.5714 32.8758V36.5812C25.5714 37.5917 24.7523 38.4108 23.7417 38.4108H1.82968C0.819139 38.4108 0 37.5917 0 36.5812V32.8758C0 31.866 0.819139 31.0469 1.82968 31.0469H23.7417C24.7523 31.0469 25.5714 31.866 25.5714 32.8758Z" fill="#DD9F3A"/>
<path d="M25.5716 32.876V35.4312C25.5716 36.376 24.8552 37.1541 23.9358 37.251C23.8718 37.2576 23.8076 37.2609 23.7419 37.2609H6.33305C5.32329 37.2609 4.50415 36.4417 4.50415 35.4312V32.876C4.50415 31.8663 5.32329 31.0471 6.33305 31.0471H23.7419C24.7525 31.0471 25.5716 31.8663 25.5716 32.876Z" fill="#F4B74A"/>
<path d="M25.5716 32.876V35.4312C25.5716 36.376 24.8552 37.1541 23.9358 37.251C23.8718 37.2576 23.8076 37.2609 23.7419 37.2609H6.33305C5.32329 37.2609 4.50415 36.4417 4.50415 35.4312V32.876C4.50415 31.8663 5.32329 31.0471 6.33305 31.0471H23.7419C24.7525 31.0471 25.5716 31.8663 25.5716 32.876Z" fill="#F4B74A"/>
<path d="M25.5714 25.5113V28.0664C25.5714 29.0113 24.855 29.7893 23.9356 29.8863C23.8715 29.8928 23.8074 29.8961 23.7417 29.8961H6.33281C5.32304 29.8961 4.50391 29.077 4.50391 28.0664V25.5113C4.50391 24.5015 5.32304 23.6824 6.33281 23.6824H23.7417C24.7523 23.6823 25.5714 24.5014 25.5714 25.5113Z" fill="#F4B74A"/>
<path d="M25.5714 18.1473V20.7024C25.5714 21.6473 24.855 22.4253 23.9356 22.5223C23.8715 22.5288 23.8074 22.5321 23.7417 22.5321H6.33281C5.32304 22.5321 4.50391 21.713 4.50391 20.7024V18.1473C4.50391 17.1375 5.32304 16.3184 6.33281 16.3184H23.7417C24.7523 16.3184 25.5714 17.1375 25.5714 18.1473Z" fill="#F4B74A"/>
<path d="M28.8577 10.7825V13.3377C28.8577 14.2825 28.1413 15.0606 27.222 15.1575C27.1579 15.1641 27.0938 15.1674 27.0281 15.1674H9.61919C8.60942 15.1674 7.79028 14.3482 7.79028 13.3377V10.7825C7.79028 9.77275 8.60942 8.95361 9.61919 8.95361H27.0281C28.0387 8.95361 28.8577 9.77275 28.8577 10.7825Z" fill="#F4B74A"/>
<path d="M25.5716 32.8763V36.5816C25.5716 37.5265 24.8552 38.3045 23.9358 38.4015C23.769 38.4081 23.6022 38.4113 23.4354 38.4113C21.6674 38.4113 19.8992 38.0474 18.2528 37.3178C17.1477 36.829 16.0993 36.175 15.1414 35.3575C14.885 35.139 14.6369 34.9089 14.3946 34.6674C13.3125 33.5853 12.4654 32.3578 11.8525 31.0474H23.7419C24.7524 31.0474 25.5716 31.8665 25.5716 32.8763Z" fill="#DD9F3A"/>
<path d="M25.5715 25.5113V29.2167C25.5715 30.2272 24.7524 31.0463 23.7418 31.0463H13.0833C12.0012 28.7335 11.6496 26.1628 12.0291 23.6824H23.7418C24.7524 23.6823 25.5715 24.5015 25.5715 25.5113Z" fill="#DD9F3A"/>
<path d="M25.5714 3.41777V7.12315C25.5714 8.1337 24.7523 8.95284 23.7417 8.95284H1.82968C0.819139 8.95292 0 8.13378 0 7.12323V3.41777C0 2.40801 0.819139 1.58887 1.82968 1.58887H23.7417C24.7523 1.58895 25.5714 2.40808 25.5714 3.41777Z" fill="#DD9F3A"/>
<path d="M25.5716 3.41753V5.97268C25.5716 6.91752 24.8552 7.69556 23.9358 7.79252C23.8718 7.79908 23.8076 7.80236 23.7419 7.80236H6.33305C5.32329 7.80236 4.50415 6.98322 4.50415 5.97268V3.41753C4.50415 2.40776 5.32329 1.58862 6.33305 1.58862H23.7419C24.7525 1.5887 25.5716 2.40784 25.5716 3.41753Z" fill="#F4B74A"/>
<path d="M22.5635 1.58887H19.8801V7.80261H22.5635V1.58887Z" fill="#F9C662"/>
<path d="M17.9083 1.58887H16.5667V7.80261H17.9083V1.58887Z" fill="#F9C662"/>
<path d="M25.796 8.9541H23.1123V16.3189H25.796V8.9541Z" fill="#F9C662"/>
<path d="M21.14 8.9541H19.7981V16.3189H21.14V8.9541Z" fill="#F9C662"/>
<path d="M28.8578 13.2908V14.4879C28.8578 15.4985 28.0386 16.3176 27.0281 16.3176H16.7244C20.0675 13.1658 24.6931 12.157 28.8578 13.2908Z" fill="#DD9F3A"/>
<path d="M25.5714 18.1473V21.8526C25.5714 22.8632 24.7523 23.6823 23.7418 23.6823H10.7966C11.1934 21.0844 12.393 18.5859 14.3936 16.5854C14.4847 16.4942 14.5768 16.4055 14.6697 16.3184H23.7418C24.7523 16.3184 25.5714 17.1375 25.5714 18.1473Z" fill="#DD9F3A"/>
<path d="M36.2555 34.6669C32.4096 38.5121 26.7242 39.3961 22.0324 37.3176C20.9274 36.8286 19.8785 36.1752 18.921 35.3576C18.6646 35.1392 18.4158 34.9085 18.1736 34.6669C13.1808 29.6734 13.1808 21.5784 18.1736 16.5849C23.167 11.5921 31.2621 11.5921 36.2555 16.5849C36.4978 16.8272 36.7278 17.0759 36.9462 17.3324C37.7639 18.2891 38.4172 19.3387 38.9062 20.4438C40.9847 25.1349 40.1007 30.821 36.2555 34.6669Z" fill="#F4B74A"/>
<path d="M38.906 20.4437L22.0323 37.3175C20.9273 36.8285 19.8784 36.1751 18.9209 35.3575L36.9461 17.3323C37.7637 18.2891 38.417 19.3387 38.906 20.4437Z" fill="#F9C662"/>
<path d="M36.2555 25.6258C36.2555 30.6189 32.2077 34.6666 27.2147 34.6666C24.3962 34.6666 21.8793 33.3773 20.2209 31.3557C18.9412 29.796 18.1738 27.8005 18.1738 25.6258C18.1738 20.6327 22.2216 16.585 27.2147 16.585C29.3898 16.585 31.3854 17.3535 32.9451 18.6332C34.9661 20.2909 36.2555 22.8079 36.2555 25.6258Z" fill="#FFD488"/>
<path d="M32.9449 18.633L20.2219 31.356L20.2207 31.3555C19.8472 30.9004 19.5173 30.4078 19.238 29.8847C18.9194 29.2902 18.6662 28.6566 18.4865 27.9917C18.2825 27.2374 18.1736 26.4439 18.1736 25.6256C18.1736 20.6324 22.2214 16.5847 27.2144 16.5847C28.0334 16.5847 28.8269 16.6935 29.5806 16.8976C30.2454 17.0773 30.879 17.3312 31.4736 17.6497C31.9968 17.9292 32.4893 18.2596 32.9449 18.633Z" fill="#F9C662"/>
<path d="M31.4737 17.6498L19.2381 29.8849C18.9195 29.2903 18.6663 28.6567 18.4866 27.9919L29.5808 16.8977C30.2455 17.0774 30.8791 17.3313 31.4737 17.6498Z" fill="#FFD488"/>
<path d="M27.8306 25.0587V21.6653C28.729 21.8747 29.3864 22.529 29.3864 23.3022C29.3864 23.6425 29.6622 23.9184 30.0026 23.9184C30.343 23.9184 30.6188 23.6425 30.6188 23.3022C30.6188 21.8629 29.4145 20.6629 27.8305 20.4117V20.0493C27.8305 19.709 27.5547 19.4331 27.2143 19.4331C26.8739 19.4331 26.5982 19.709 26.5982 20.0493V20.4117C25.0142 20.6629 23.8098 21.863 23.8098 23.3022C23.8098 24.7415 25.0142 25.9416 26.5982 26.1928V29.5862C25.6997 29.3768 25.0422 28.7225 25.0422 27.9493C25.0422 27.609 24.7665 27.3331 24.4261 27.3331C24.0857 27.3331 23.8099 27.609 23.8099 27.9493C23.8099 29.3886 25.0143 30.5886 26.5982 30.8398V31.2022C26.5982 31.5425 26.874 31.8184 27.2144 31.8184C27.5548 31.8184 27.8306 31.5425 27.8306 31.2022V30.8398C29.4146 30.5886 30.6189 29.3885 30.6189 27.9493C30.6189 26.51 29.4146 25.31 27.8306 25.0587ZM25.0423 23.3022C25.0423 22.529 25.6997 21.8746 26.5982 21.6652V24.9391C25.6998 24.7298 25.0423 24.0754 25.0423 23.3022ZM27.8306 29.5862V26.3123C28.729 26.5217 29.3864 27.1761 29.3864 27.9493C29.3864 28.7225 28.729 29.3768 27.8306 29.5862Z" fill="#E0A33F"/>
<path d="M27.2145 35.2829C24.3106 35.2829 21.5879 33.994 19.7442 31.7465C18.3341 30.0279 17.5574 27.8541 17.5574 25.6258C17.5574 20.3009 21.8896 15.9688 27.2145 15.9688C29.4421 15.9688 31.616 16.7459 33.3358 18.1568C35.5828 19.9999 36.8715 22.7223 36.8715 25.6258C36.8714 30.9508 32.5394 35.2829 27.2145 35.2829ZM27.2145 17.2012C22.5691 17.2012 18.7898 20.9805 18.7898 25.6258C18.7898 27.5697 19.4671 29.4659 20.6971 30.9648C22.3056 32.9258 24.6811 34.0505 27.2145 34.0505C31.8598 34.0505 35.6391 30.2712 35.6391 25.6258C35.6391 23.0929 34.5146 20.7178 32.5541 19.1097C31.0542 17.8789 29.1578 17.2012 27.2145 17.2012Z" fill="#E0A33F"/>
</g>
<defs>
<clipPath id="clip0">
<rect width="40" height="40" fill="white"/>
</clipPath>
</defs>
</svg>
