<svg width="98" height="98" viewBox="0 0 98 98" fill="none" xmlns="http://www.w3.org/2000/svg">
<g clip-path="url(#clip0)">
<path fill-rule="evenodd" clip-rule="evenodd" d="M82.4612 13.274C85.6822 13.274 88.2928 10.6657 88.2928 7.45336C88.2928 4.23525 85.6822 1.62695 82.4612 1.62695C79.2402 1.62695 76.6296 4.23525 76.6296 7.45336C76.6296 10.6657 79.2402 13.274 82.4612 13.274Z" fill="#FE76A8"/>
<path fill-rule="evenodd" clip-rule="evenodd" d="M28.7114 53.24L21.9305 42.8407C-1.20365 24.7292 -10.5669 58.372 16.5678 55.154L28.7114 53.24Z" fill="#FE76A8"/>
<path fill-rule="evenodd" clip-rule="evenodd" d="M38.6623 42.8462C55.6653 21.483 22.1057 11.7498 25.3605 40.9324L31.017 50.6711L38.6623 42.8462Z" fill="#FE76A8"/>
<path fill-rule="evenodd" clip-rule="evenodd" d="M41.5782 96.3731L45.7654 77.4149L41.5782 59.4616H33.0229L22.552 58.5583L20.4556 66.4623V92.6583C20.4556 94.7022 22.1283 96.3731 24.1738 96.3731H41.5782Z" fill="#99E6FC"/>
<path fill-rule="evenodd" clip-rule="evenodd" d="M76.6127 92.6582V68.4832V61.5389C76.6127 60.3986 75.6746 59.4614 74.5333 59.4614H55.4902L50.512 77.9229L55.4902 96.3732H72.8944C74.94 96.373 76.6127 94.7018 76.6127 92.6582Z" fill="#99E6FC"/>
<path fill-rule="evenodd" clip-rule="evenodd" d="M38.6623 42.846C50.331 28.1841 38.182 18.9985 30.4688 24.1137C36.8257 24.4693 42.3296 32.0798 34.4469 43.0212L35.3737 44.6753L38.6623 42.846Z" fill="#FE5694"/>
<path fill-rule="evenodd" clip-rule="evenodd" d="M21.9306 42.8406C8.73042 32.509 0.0170352 39.0184 0 45.9232C2.7463 41.9486 9.1542 40.0573 17.8394 45.6692C18.1897 45.1271 18.6701 44.6585 19.2748 44.3255L21.9306 42.8406Z" fill="#FE5694"/>
<path fill-rule="evenodd" clip-rule="evenodd" d="M41.5779 59.4614H55.49V96.373H41.5779V59.4614Z" fill="#FE76A8"/>
<path fill-rule="evenodd" clip-rule="evenodd" d="M76.6126 68.4832V61.5389C76.6126 60.3986 75.6745 59.4614 74.5332 59.4614H66.1419C67.2835 59.4614 68.2214 60.3986 68.2214 61.5389V68.4832V92.658C68.2214 94.7018 66.5431 96.3728 64.4976 96.3728H72.8946C74.9401 96.3728 76.6128 94.7016 76.6128 92.658V68.4832H76.6126Z" fill="#2ED1E2"/>
<path d="M17.2007 49.0111C17.0354 49.0111 16.8673 48.9828 16.7029 48.9231C14.6074 48.1613 12.9563 47.7103 9.74719 47.3593C8.94749 47.2718 8.37002 46.5527 8.45749 45.7532C8.54496 44.9539 9.26389 44.3772 10.0643 44.4643C13.1636 44.8034 15.0901 45.2379 17.6988 46.1862C18.4548 46.461 18.8449 47.2965 18.5701 48.0524C18.3549 48.6438 17.796 49.0111 17.2007 49.0111Z" fill="#FE0263"/>
<path d="M31.8606 41.0337C31.8219 41.0337 31.7831 41.0321 31.7438 41.0291C30.9417 40.9655 30.3429 40.2642 30.4065 39.4624C30.5944 37.0922 31.7061 33.7711 33.05 31.5654C33.4684 30.8786 34.3648 30.6604 35.0519 31.079C35.7392 31.4972 35.9571 32.3932 35.5387 33.08C34.4407 34.8822 33.4623 37.7868 33.3113 39.6925C33.251 40.4548 32.6128 41.0337 31.8606 41.0337Z" fill="#FE0263"/>
<path d="M65.8931 52.5676C65.5399 52.5676 65.1858 52.44 64.9056 52.1818C64.3142 51.6365 64.277 50.7152 64.8225 50.1241C71.0599 43.3662 69.2109 25.5619 69.1916 25.3828C69.1051 24.5833 69.6831 23.8649 70.4832 23.7782C71.2837 23.6925 72.0018 24.2697 72.0885 25.0691C72.1735 25.8538 74.0897 44.3787 66.9644 52.0987C66.6771 52.4099 66.2856 52.5676 65.8931 52.5676Z" fill="#E0D2CE"/>
<path d="M80.6599 32.2758C80.5523 32.2758 80.4432 32.2638 80.3339 32.2389C79.5507 32.0595 79.0603 31.2817 79.2381 30.4986C79.2702 30.3572 80.0533 26.9907 82.5178 23.2189C85.8001 18.1958 90.533 14.8255 96.2047 13.4725C96.9876 13.2859 97.7733 13.7684 97.9601 14.5507C98.1469 15.3329 97.6638 16.1185 96.8813 16.3051C91.9119 17.4907 87.9193 20.3235 85.0145 24.7247C82.807 28.0695 82.086 31.1157 82.0789 31.146C81.9231 31.8191 81.3231 32.2758 80.6599 32.2758Z" fill="#E0D2CE"/>
<path fill-rule="evenodd" clip-rule="evenodd" d="M64.7969 14.3127L67.6562 10.8689C68.2438 10.2026 68.2043 10.0051 67.3398 9.79053L62.8984 8.68956C62.3955 8.56533 62.3672 8.42982 62.1186 8.02327L59.8753 4.28013C59.4232 3.51795 59.1464 3.51795 58.6886 4.28013L56.4453 8.02327C56.2024 8.42982 56.1683 8.56533 55.6655 8.68956L51.2241 9.79053C50.3653 10.0051 50.3199 10.2026 50.9077 10.8689L53.7727 14.3127C54.0778 14.6796 54.123 15.1087 54.0835 15.6282L53.7388 19.8851C53.6427 20.7658 53.8291 20.8731 54.6543 20.5401L58.559 18.9141C58.9659 18.7447 59.6045 18.7447 60.0056 18.9141L63.9159 20.5401C64.7408 20.8731 64.9217 20.766 64.8256 19.8851L64.4867 15.6282C64.4467 15.1087 64.4861 14.6796 64.7969 14.3127Z" fill="#FECE85"/>
<path fill-rule="evenodd" clip-rule="evenodd" d="M59.4458 10.7616C58.8637 14.4877 57.6263 17.734 56.1289 19.9246L58.5588 18.914C58.9657 18.7446 59.6043 18.7446 60.0055 18.914L63.9157 20.54C64.7407 20.873 64.9215 20.7658 64.8255 19.885L64.4865 15.6281C64.4469 15.1086 64.4865 14.6797 64.7973 14.3126L67.6565 10.8688C68.2442 10.2025 68.2047 10.005 67.3401 9.7904L62.8988 8.68943C62.3959 8.56521 62.3676 8.4297 62.119 8.02315L59.8757 4.28001C59.8022 4.15579 59.7344 4.05415 59.6722 3.9751C59.8864 6.00228 59.8299 8.32844 59.4458 10.7616Z" fill="#FDB440"/>
<path fill-rule="evenodd" clip-rule="evenodd" d="M93.2879 47.7861L96.1471 44.3423C96.7405 43.6763 96.6953 43.4785 95.8307 43.264L91.3893 42.163C90.8921 42.0388 90.8582 41.9033 90.6151 41.4969L88.3718 37.7538C87.9142 36.9916 87.6372 36.9916 87.1851 37.7538L84.9361 41.4969C84.6932 41.9035 84.6591 42.039 84.1618 42.163L79.7205 43.264C78.8559 43.4785 78.8107 43.6761 79.4041 44.3423L82.2633 47.7861C82.5741 48.1531 82.6136 48.5822 82.5741 49.1017L82.2294 53.3528C82.1391 54.2392 82.3198 54.3464 83.1449 54.0133L87.0496 52.3873C87.4565 52.2179 88.0951 52.2179 88.5018 52.3873L92.4065 54.0133C93.2314 54.3464 93.4123 54.2392 93.322 53.3528L92.9773 49.1017C92.9376 48.5822 92.9771 48.1532 93.2879 47.7861Z" fill="#FECE85"/>
<path fill-rule="evenodd" clip-rule="evenodd" d="M87.9425 44.2348C87.3549 47.9609 86.123 51.2071 84.6199 53.3978L87.0498 52.3872C87.4567 52.2178 88.0952 52.2178 88.502 52.3872L92.4067 54.0132C93.2316 54.3462 93.4125 54.239 93.3222 53.3526L92.9774 49.1015C92.9378 48.582 92.9774 48.1531 93.2883 47.786L96.1475 44.3422C96.7409 43.6761 96.6957 43.4783 95.8311 43.2638L91.3897 42.1628C90.8924 42.0386 90.8586 41.9031 90.6155 41.4967L88.3722 37.7536C88.2987 37.6294 88.2309 37.5277 88.1632 37.4431C88.3833 39.4755 88.3211 41.8016 87.9425 44.2348Z" fill="#FDB440"/>
<path fill-rule="evenodd" clip-rule="evenodd" d="M88.2927 7.45336C88.2927 4.23525 85.6821 1.62695 82.4611 1.62695C81.3988 1.62695 80.4042 1.90928 79.5454 2.40598C81.2914 3.41086 82.4611 5.29659 82.4611 7.45317C82.4611 9.60419 81.2914 11.4899 79.5454 12.4948C80.4042 12.9917 81.3988 13.2738 82.4611 13.2738C85.6821 13.274 88.2927 10.6657 88.2927 7.45336Z" fill="#FE5694"/>
<path fill-rule="evenodd" clip-rule="evenodd" d="M19.6815 53.415L29.1973 51.6083L35.3736 44.6754L33.3902 41.1242C33.0174 40.4524 32.4805 39.9329 31.8588 39.5773C30.6608 38.8941 29.1351 38.8321 27.8467 39.5491L25.3604 40.9324L21.9304 42.8407L19.2746 44.3255C18.0427 45.0086 17.3081 46.2451 17.2007 47.5549C17.133 48.3284 17.2911 49.13 17.698 49.8583L19.6815 53.415Z" fill="#FECE85"/>
<path fill-rule="evenodd" clip-rule="evenodd" d="M41.109 54.9563L57.756 45.6861C59.1291 44.9183 59.6264 43.1737 58.8635 41.8019L55.9082 36.5062C55.1397 35.1344 53.3937 34.6375 52.0205 35.4052L38.6623 42.8464L35.3735 44.6756V51.6086L41.109 54.9563Z" fill="#01D0FB"/>
<path fill-rule="evenodd" clip-rule="evenodd" d="M8.76996 72.9718L25.4169 63.6959L25.8916 56.7629L19.6815 53.415L16.5678 55.154L3.02872 62.691C1.66132 63.4531 1.16404 65.1976 1.9268 66.5696L4.88211 71.871C5.64525 73.2371 7.397 73.7338 8.76996 72.9718Z" fill="#01D0FB"/>
<path fill-rule="evenodd" clip-rule="evenodd" d="M34.4469 43.0212L33.3901 41.1242C33.0173 40.4524 32.4804 39.9329 31.8587 39.5773C30.6607 38.8941 29.135 38.8321 27.8466 39.5491L25.3602 40.9324L22.9983 42.248C24.2866 41.5309 25.8068 41.593 27.0104 42.2761C27.6319 42.6317 28.1687 43.1568 28.5418 43.823L30.5252 47.3798L35.3735 44.6756L34.4469 43.0212Z" fill="#FDB440"/>
<path fill-rule="evenodd" clip-rule="evenodd" d="M57.7562 45.6861C59.1293 44.9183 59.6266 43.1737 58.8637 41.8019L55.9083 36.5062C55.1398 35.1344 53.3938 34.6375 52.0207 35.4052L45.3416 39.1258C46.7147 38.3581 48.4607 38.8548 49.2237 40.2268L52.179 45.5224C52.9419 46.8944 52.4502 48.6332 51.0883 49.4011L57.7562 45.6861Z" fill="#00B1CD"/>
<path fill-rule="evenodd" clip-rule="evenodd" d="M41.1092 54.9561L35.3737 44.6753L19.6816 53.4149L25.4171 63.6957C30.6553 60.7768 35.871 57.8751 41.1092 54.9561Z" fill="#FE5694"/>
</g>
<defs>
<clipPath id="clip0">
<rect width="98" height="98" fill="white"/>
</clipPath>
</defs>
</svg>
