<svg width="60" height="60" viewBox="0 0 60 60" fill="none" xmlns="http://www.w3.org/2000/svg">
<circle cx="30" cy="30" r="30" fill="#00ACEE"/>
<g clip-path="url(#clip0)">
<path d="M45 21.5082C43.9216 21.9813 42.7724 22.2948 41.5744 22.4471C42.8069 21.7112 43.7476 20.5548 44.1898 19.161C43.0407 19.8461 41.7719 20.3301 40.4198 20.6001C39.3287 19.4383 37.7736 18.7188 36.0771 18.7188C32.7856 18.7188 30.1357 21.3904 30.1357 24.6656C30.1357 25.1368 30.1756 25.5899 30.2734 26.0213C25.3308 25.7802 20.9572 23.4113 18.0191 19.8026C17.5062 20.6926 17.2053 21.7112 17.2053 22.8078C17.2053 24.8668 18.2656 26.6919 19.8461 27.7486C18.8909 27.7305 17.9539 27.4532 17.16 27.0164C17.16 27.0345 17.16 27.0581 17.16 27.0816C17.16 29.9707 19.2208 32.3705 21.9232 32.9233C21.4393 33.0556 20.9119 33.1191 20.3645 33.1191C19.9839 33.1191 19.5996 33.0973 19.2389 33.0176C20.0092 35.372 22.1951 37.1029 24.7943 37.1591C22.7715 38.7414 20.2032 39.6948 17.4228 39.6948C16.9353 39.6948 16.4676 39.6731 16 39.6133C18.6336 41.3116 21.7547 42.2812 25.1205 42.2812C36.0607 42.2812 42.042 33.2188 42.042 25.3634C42.042 25.1006 42.0329 24.8468 42.0203 24.5949C43.2002 23.7575 44.1916 22.7117 45 21.5082Z" fill="#EEEEEE"/>
</g>
<defs>
<clipPath id="clip0">
<rect width="29" height="29" fill="white" transform="translate(16 16)"/>
</clipPath>
</defs>
</svg>
