<svg width="25" height="25" viewBox="0 0 25 25" fill="none" xmlns="http://www.w3.org/2000/svg">
<path d="M1.02332 14.5796V22.3949C1.02332 23.8319 2.19249 25 3.6284 25H22.3851C23.8221 25 24.9902 23.8318 24.9902 22.3949V14.5796H1.02332Z" fill="#20C0E8"/>
<path d="M12.3461 2.38245L8.44678 3.30778L11.7136 8.11473L15.937 7.15399L12.3461 2.38245Z" fill="#20C0E8"/>
<path d="M7.36299 3.56531L3.1604 4.56147L6.39281 9.32363L10.6225 8.36181L7.36299 3.56531Z" fill="#20C0E8"/>
<path d="M24.9735 4.54682L24.0867 1.18311C23.8825 0.365094 23.0447 -0.149642 22.2183 0.0389514L18.717 0.8705L22.0391 5.76811L24.5848 5.18875C24.7234 5.15749 24.8422 5.07098 24.9151 4.95014C24.9881 4.8293 25.0089 4.68437 24.9735 4.54682Z" fill="#20C0E8"/>
<path d="M17.6323 1.12793L13.4526 2.11994L17.0497 6.90188L20.948 6.01508L17.6323 1.12793Z" fill="#20C0E8"/>
<path d="M6.27406 9.37048L4.60681 13.5376H8.69476L10.362 9.37048H6.27406Z" fill="#20C0E8"/>
<path d="M11.4844 9.37048L9.81714 13.5376H13.905L15.5723 9.37048H11.4844Z" fill="#20C0E8"/>
<path d="M24.4692 9.37048H21.9048L20.2375 13.5386H24.9903V9.89147C24.9902 9.60284 24.7579 9.37048 24.4692 9.37048Z" fill="#20C0E8"/>
<path d="M16.6945 9.37048L15.0272 13.5376H19.1141L20.7824 9.37048H16.6945Z" fill="#20C0E8"/>
<path d="M2.07676 4.81982L1.22748 5.02092C0.813811 5.11471 0.463685 5.36582 0.24173 5.7264C0.0197756 6.08801 -0.045873 6.51316 0.0572891 6.92473L1.02326 10.7428V13.5375H3.48455L5.04863 9.62883L5.30288 9.57154L2.07676 4.81982Z" fill="#20C0E8"/>
</svg>
