<svg width="18" height="18" viewBox="0 0 18 18" fill="none" xmlns="http://www.w3.org/2000/svg">
<g clip-path="url(#clip0)">
<path d="M17.0325 1.35532e-06H0.985033C0.70182 -0.000534021 0.442342 0.15758 0.312959 0.409384C0.181793 0.664579 0.204814 0.971884 0.372386 1.20495L6.25151 9.48701C6.25347 9.48987 6.25562 9.49255 6.25758 9.4954C6.47119 9.78379 6.58683 10.1332 6.58737 10.4921V17.2444C6.58612 17.4443 6.66464 17.6365 6.80544 17.7784C6.94643 17.9201 7.13809 18 7.33796 18C7.43951 17.9998 7.54016 17.9797 7.63403 17.9406L10.9376 16.681C11.2335 16.5905 11.43 16.3113 11.43 15.975V10.4921C11.4305 10.1332 11.5462 9.78379 11.7596 9.4954C11.7616 9.49255 11.7637 9.48987 11.7657 9.48701L17.645 1.20477C17.8126 0.971884 17.8356 0.664758 17.7044 0.409563C17.5752 0.15758 17.3156 -0.000534021 17.0325 1.35532e-06Z" fill="#2E363F"/>
</g>
<defs>
<clipPath id="clip0">
<rect width="18" height="18" fill="white"/>
</clipPath>
</defs>
</svg>
