<svg width="10" height="10" viewBox="0 0 10 10" fill="none" xmlns="http://www.w3.org/2000/svg">
<path d="M8.125 6.48438C7.50748 6.48438 6.96331 6.76916 6.62152 7.20225L3.66646 5.78367C3.71552 5.62689 3.75 5.46441 3.75 5.29297C3.75 5.06043 3.69915 4.83936 3.61129 4.63602L6.7039 2.89133C7.04806 3.27 7.55394 3.51562 8.125 3.51562C9.15894 3.51562 10 2.72713 10 1.75781C10 0.788496 9.15894 0 8.125 0C7.09106 0 6.25 0.788496 6.25 1.75781C6.25 1.98119 6.29906 2.19309 6.38046 2.3898L3.27865 4.13961C2.93477 3.77219 2.43619 3.53516 1.875 3.53516C0.841062 3.53516 0 4.32365 0 5.29297C0 6.26229 0.841062 7.05078 1.875 7.05078C2.50271 7.05078 3.05606 6.75764 3.39656 6.31238L6.3419 7.72635C6.28765 7.89053 6.25 8.06152 6.25 8.24219C6.25 9.2115 7.09106 10 8.125 10C9.15894 10 10 9.2115 10 8.24219C10 7.27287 9.15894 6.48438 8.125 6.48438Z" fill="#2E363F"/>
</svg>
