<svg width="27" height="27" viewBox="0 0 27 27" fill="none" xmlns="http://www.w3.org/2000/svg">
<g clip-path="url(#clip0)">
<path d="M18.6695 1.66748H3.05332C1.36951 1.66748 0 3.03699 0 4.7208V18.4054C0 19.0535 0.732955 19.4188 1.25033 19.0493L5.59934 15.9464C5.96426 15.6864 6.39352 15.5487 6.84176 15.5487H16.4072C18.0911 15.5487 19.4606 14.1792 19.4606 12.4954V2.4585C19.4606 2.02186 19.1062 1.66748 18.6695 1.66748ZM14.8273 11.2498H5.68793C5.25129 11.2498 4.89691 10.896 4.89691 10.4588C4.89691 10.0222 5.25129 9.66781 5.68793 9.66781H14.8273C15.264 9.66781 15.6183 10.0222 15.6183 10.4588C15.6183 10.896 15.264 11.2498 14.8273 11.2498ZM14.8273 7.55844H5.68793C5.25129 7.55844 4.89691 7.20459 4.89691 6.76742C4.89691 6.33078 5.25129 5.97641 5.68793 5.97641H14.8273C15.264 5.97641 15.6183 6.33078 15.6183 6.76742C15.6183 7.20459 15.264 7.55844 14.8273 7.55844Z" fill="#20C0E8"/>
<path d="M26.9999 10.8563V24.5404C26.9999 25.1841 26.2706 25.5565 25.7495 25.1843L21.4005 22.0819C21.0356 21.8219 20.6064 21.6843 20.1581 21.6843H10.5926C8.90882 21.6843 7.53931 20.3142 7.53931 18.6304V17.1307H16.4071C18.9632 17.1307 21.0425 15.0514 21.0425 12.4953V7.80249H23.9466C25.6304 7.80249 26.9999 9.17253 26.9999 10.8563Z" fill="#20C0E8"/>
</g>
<defs>
<clipPath id="clip0">
<rect width="27" height="27" fill="white"/>
</clipPath>
</defs>
</svg>
