<svg width="38" height="38" viewBox="0 0 38 38" fill="none" xmlns="http://www.w3.org/2000/svg">
<rect width="38" height="38" rx="5" fill="#D5DBFF"/>
<path d="M18.6204 23.5518H19.379V30H18.6204V23.5518Z" fill="#5568CC"/>
<path d="M12.5515 23.5518H17.8619V30H12.5515V23.5518Z" fill="#5568CC"/>
<path d="M20.1377 30H25.448V23.5518H20.1377V30ZM23.9308 28.4828H24.6894V29.2414H23.9308V28.4828ZM22.4136 28.4828H23.1722V29.2414H22.4136V28.4828ZM20.8963 28.4828H21.6549V29.2414H20.8963V28.4828Z" fill="#5568CC"/>
<path d="M9.51709 13.689H10.2757V14.4476H9.51709V13.689Z" fill="#5568CC"/>
<path d="M9.51709 15.2065H10.2757V19.7583H9.51709V15.2065Z" fill="#5568CC"/>
<path d="M11.0344 21.2764H11.793V22.035H11.0344V21.2764Z" fill="#5568CC"/>
<path d="M11.0344 15.9658H11.793V20.5175H11.0344V15.9658Z" fill="#5568CC"/>
<path d="M26.2063 21.2764H26.9649V22.035H26.2063V21.2764Z" fill="#5568CC"/>
<path d="M26.2063 15.9658H26.9649V20.5175H26.2063V15.9658Z" fill="#5568CC"/>
<path d="M27.7236 13.689H28.4823V14.4476H27.7236V13.689Z" fill="#5568CC"/>
<path d="M27.7236 15.2065H28.4823V19.7583H27.7236V15.2065Z" fill="#5568CC"/>
<path d="M29.2407 11.7935H29.9993V12.5521H29.2407V11.7935Z" fill="#5568CC"/>
<path d="M29.2407 13.311H29.9993V17.8628H29.2407V13.311Z" fill="#5568CC"/>
<path d="M8 11.7935H8.75862V12.5521H8V11.7935Z" fill="#5568CC"/>
<path d="M8 13.311H8.75862V17.8628H8V13.311Z" fill="#5568CC"/>
<path d="M20.1377 10.6548H26.2067V12.172H20.1377V10.6548Z" fill="#5568CC"/>
<path d="M23.5518 9.23017C23.5518 8.55193 23.0003 8 22.322 8C21.9933 8 21.6845 8.12779 21.4526 8.36005L19.9158 9.89655H23.5518V9.23017Z" fill="#5568CC"/>
<path d="M11.7937 10.6548H17.8627V12.172H11.7937V10.6548Z" fill="#5568CC"/>
<path d="M16.548 8.36042C16.3158 8.12779 16.007 8 15.6783 8C15 8 14.4485 8.55193 14.4485 9.23017V9.89655H18.0845L16.548 8.36042Z" fill="#5568CC"/>
<path d="M18.6204 10.6548H19.379V12.172H18.6204V10.6548Z" fill="#5568CC"/>
<path d="M14.8281 17.8614C14.8281 20.1658 16.6962 22.0338 19.0005 22.0338C21.3049 22.0338 23.173 20.1658 23.173 17.8614C23.173 15.557 21.3049 13.689 19.0005 13.689C16.6962 13.689 14.8281 15.557 14.8281 17.8614ZM19.7592 15.5855C20.3865 15.5855 20.8971 16.0961 20.8971 16.7234H20.1385C20.1385 16.5145 19.9684 16.3441 19.7592 16.3441H18.2419C18.0326 16.3441 17.8626 16.5145 17.8626 16.7234V17.1028C17.8626 17.3117 18.0326 17.4821 18.2419 17.4821H19.7592C20.3865 17.4821 20.8971 17.9927 20.8971 18.62V18.9993C20.8971 19.6266 20.3865 20.1372 19.7592 20.1372H19.3798V20.5165H18.6212V20.1372H18.2419C17.6146 20.1372 17.104 19.6266 17.104 18.9993H17.8626C17.8626 19.2082 18.0326 19.3786 18.2419 19.3786H19.7592C19.9684 19.3786 20.1385 19.2082 20.1385 18.9993V18.62C20.1385 18.4111 19.9684 18.2407 19.7592 18.2407H18.2419C17.6146 18.2407 17.104 17.7301 17.104 17.1028V16.7234C17.104 16.0961 17.6146 15.5855 18.2419 15.5855H18.6212V15.2062H19.3798V15.5855H19.7592Z" fill="#5568CC"/>
</svg>
