<svg width="38" height="38" viewBox="0 0 38 38" fill="none" xmlns="http://www.w3.org/2000/svg">
<rect width="38" height="38" rx="5" fill="#FFF0C8"/>
<path d="M21.687 17.1791C22.1891 17.6512 22.6265 18.1912 22.9966 18.7983C23.9324 18.2119 25.0378 17.8723 26.2212 17.8723C26.7224 17.8723 27.2095 17.9336 27.6759 18.0483C26.9261 17.0669 26.0229 16.3403 24.8807 15.8022C24.0242 16.5836 22.9125 17.0896 21.687 17.1791Z" fill="#E1A83A"/>
<path d="M20.1294 23.9636C20.1294 22.2636 20.8298 20.7243 21.9569 19.6183C21.322 18.5179 20.4555 17.6888 19.3299 17.1055C18.4024 17.744 17.2796 18.1184 16.071 18.1184C14.8658 18.1184 13.7461 17.7462 12.8201 17.111C10.4749 18.3793 9 21.0189 9 24.0668V28.7425H22.4483C21.0368 27.6261 20.1294 25.8989 20.1294 23.9636Z" fill="#E1A83A"/>
<path d="M21.834 12.3554C21.834 13.5895 21.4438 14.7341 20.7806 15.6726L20.814 15.8522C20.9735 15.8712 21.1346 15.8808 21.2961 15.8808C23.5085 15.8808 25.3085 14.0808 25.3085 11.8684C25.3085 9.65592 23.5085 7.85596 21.2961 7.85596C20.8297 7.85596 20.373 7.93598 19.9421 8.09029C21.1036 9.14513 21.834 10.6665 21.834 12.3554Z" fill="#E1A83A"/>
<path d="M17.0952 16.6825C19.4863 16.1173 20.9666 13.7207 20.4013 11.3295C19.8361 8.9384 17.4395 7.45821 15.0483 8.02344C12.6572 8.58867 11.177 10.9853 11.7422 13.3764C12.3074 15.7676 14.704 17.2477 17.0952 16.6825Z" fill="#E1A83A"/>
<path d="M30.9989 23.9634C30.9989 21.3284 28.8551 19.1846 26.22 19.1846C23.5849 19.1846 21.4412 21.3284 21.4412 23.9634C21.4412 26.5985 23.5849 28.7423 26.22 28.7423C28.8551 28.7423 30.9989 26.5985 30.9989 23.9634ZM23.4365 24.6193V23.3075H25.5641V21.18H26.8759V23.3075H29.0034V24.6193H26.8759V26.7469H25.5641V24.6193H23.4365Z" fill="#E1A83A"/>
</svg>
