<svg width="23" height="23" viewBox="0 0 23 23" fill="none" xmlns="http://www.w3.org/2000/svg">
<path d="M23 10.0625V0L19.6198 3.3781C17.5413 1.29375 14.6717 0 11.4928 0C5.13508 0 0 5.14622 0 11.5C0 17.8538 5.13508 23 11.4928 23C16.8508 23 21.3386 19.3344 22.6116 14.375H19.6198C18.4331 17.7244 15.2542 20.125 11.4929 20.125C6.72456 20.125 2.86246 16.2653 2.86246 11.5C2.86246 6.7347 6.72456 2.87502 11.4929 2.87502C13.8734 2.87502 16.0094 3.86689 17.5701 5.4266L12.9312 10.0625H23V10.0625Z" fill="white"/>
</svg>
