<svg width="26" height="26" viewBox="0 0 26 26" fill="none" xmlns="http://www.w3.org/2000/svg">
<g clip-path="url(#clip0)">
<path d="M10.0165 16.7388L9.61759 19.1081C9.56322 19.4321 9.69612 19.7585 9.9613 19.9518C10.2269 20.1447 10.5796 20.1705 10.8697 20.0185L12.9999 18.9065L15.1301 20.0187C15.2562 20.0841 15.3943 20.117 15.5309 20.117C15.7099 20.117 15.8884 20.061 16.039 19.952C16.3044 19.7587 16.4377 19.4323 16.3829 19.1083L15.9844 16.739L17.6997 15.0565C17.9342 14.8267 18.0177 14.4838 17.9171 14.1718C17.8161 13.8599 17.5457 13.6316 17.2212 13.5837L14.8443 13.2312L13.7738 11.0796C13.6286 10.7859 13.3278 10.5999 12.9997 10.5999C12.6723 10.5999 12.3717 10.7859 12.2252 11.0796L11.1558 13.2312L8.77892 13.5835C8.45375 13.6314 8.18461 13.8597 8.08337 14.1716C7.98213 14.4836 8.06546 14.8269 8.30043 15.0563L10.0165 16.7388Z" fill="#9BA0A8"/>
<path d="M23.215 2.76409H20.4934V1.25445C20.4934 0.561608 19.9318 0 19.2387 0H19.0398C18.3469 0 17.7855 0.561608 17.7855 1.25445V2.76409H8.18299V1.25445C8.18299 0.561608 7.62138 0 6.92875 0H6.7296C6.03676 0 5.47536 0.561608 5.47536 1.25445V2.76409H2.78543C1.36203 2.76409 0.203613 3.92209 0.203613 5.3459V23.4184C0.203613 24.8414 1.36203 26.0002 2.78543 26.0002H23.2152C24.6384 26.0002 25.797 24.8416 25.797 23.4184V5.3459C25.7968 3.92209 24.6381 2.76409 23.215 2.76409ZM22.8781 23.0816H3.12227V9.01323H22.8781V23.0816Z" fill="#9BA0A8"/>
</g>
<defs>
<clipPath id="clip0">
<rect width="26" height="26" fill="white"/>
</clipPath>
</defs>
</svg>
