<svg width="23" height="23" viewBox="0 0 23 23" fill="none" xmlns="http://www.w3.org/2000/svg">
<path d="M9.41987 18.8482C11.3593 18.8482 13.1509 18.2571 14.647 17.2597L20.0588 22.6715C20.4838 23.0963 21.1857 23.0963 21.6288 22.6715L22.6816 21.6187C23.1064 21.1939 23.1064 20.492 22.6816 20.0487L17.2513 14.6554C18.2485 13.1593 18.8397 11.3677 18.8397 9.42829C18.8397 4.23813 14.61 0.00842285 9.41987 0.00842285C4.22971 0.00842285 0 4.23813 0 9.42829C0 14.6183 4.21124 18.8482 9.41987 18.8482ZM9.41987 3.70249C12.5783 3.70249 15.1457 6.26987 15.1457 9.42829C15.1457 12.5867 12.5783 15.1541 9.41987 15.1541C6.26145 15.1541 3.69407 12.5867 3.69407 9.42829C3.69407 6.26987 6.26145 3.70249 9.41987 3.70249Z" fill="#20C0E8"/>
</svg>
