<svg width="15" height="22" viewBox="0 0 15 22" fill="none" xmlns="http://www.w3.org/2000/svg">
<path d="M7.81368 0.676758C3.86064 0.676758 0.644531 3.89287 0.644531 7.84591C0.644531 12.8145 7.82073 21.3018 7.82073 21.3018C7.82073 21.3018 14.9828 12.5701 14.9828 7.84591C14.9828 3.89287 11.7668 0.676758 7.81368 0.676758ZM9.97676 9.94504C9.38032 10.5414 8.59706 10.8396 7.81368 10.8396C7.03043 10.8396 6.24692 10.5414 5.65073 9.94504C4.45797 8.75241 4.45797 6.81177 5.65073 5.619C6.22829 5.04119 6.99656 4.72295 7.81368 4.72295C8.6308 4.72295 9.39895 5.04132 9.97676 5.619C11.1695 6.81177 11.1695 8.75241 9.97676 9.94504Z" fill="#2E363F"/>
</svg>
