<svg width="23" height="23" viewBox="0 0 23 23" fill="none" xmlns="http://www.w3.org/2000/svg">
<path d="M8.67966 14.8084L8.32678 16.9043C8.27868 17.1908 8.39625 17.4796 8.63083 17.6506C8.86578 17.8213 9.17775 17.8441 9.43445 17.7096L11.3188 16.7259L13.2032 17.7098C13.3147 17.7676 13.4369 17.7967 13.5578 17.7967C13.7161 17.7967 13.874 17.7472 14.0072 17.6508C14.242 17.4798 14.3599 17.191 14.3114 16.9045L13.9589 14.8086L15.4762 13.3202C15.6837 13.1169 15.7576 12.8136 15.6686 12.5376C15.5793 12.2617 15.3401 12.0597 15.053 12.0174L12.9504 11.7056L12.0034 9.80219C11.875 9.54236 11.6089 9.37781 11.3187 9.37781C11.029 9.37781 10.7631 9.54236 10.6335 9.80219L9.68746 11.7056L7.58489 12.0172C7.29724 12.0596 7.05915 12.2615 6.9696 12.5374C6.88004 12.8134 6.95375 13.1171 7.16161 13.32L8.67966 14.8084Z" fill="#2E363F"/>
<path d="M20.356 2.44513H17.9485V1.1097C17.9485 0.496803 17.4517 0 16.8386 0H16.6626C16.0497 0 15.5531 0.496803 15.5531 1.1097V2.44513H7.05862V1.1097C7.05862 0.496803 6.56182 0 5.94911 0H5.77294C5.16005 0 4.66343 0.496803 4.66343 1.1097V2.44513H2.28389C1.02475 2.44513 0 3.46951 0 4.72903V20.7161C0 21.9749 1.02475 23 2.28389 23H20.3562C21.6152 23 22.6401 21.9751 22.6401 20.7161V4.72903C22.6399 3.46951 21.615 2.44513 20.356 2.44513ZM20.0581 20.4181H2.58187V7.97318H20.0581V20.4181Z" fill="#2E363F"/>
</svg>
