<svg width="22" height="22" viewBox="0 0 22 22" fill="none" xmlns="http://www.w3.org/2000/svg">
<g clip-path="url(#clip0)">
<path d="M20.5652 4.28508H18.9638C19.1751 3.95078 19.3145 3.57554 19.3542 3.17868C19.4812 1.91037 18.8132 0.773416 17.6761 0.26935C16.6308 -0.193982 15.4562 -0.00457611 14.6103 0.762588L12.5882 2.59521C12.1944 2.16449 11.6283 1.89378 11 1.89378C10.3706 1.89378 9.80358 2.16535 9.40968 2.5974L7.385 0.762373C6.53778 -0.00479092 5.36362 -0.193467 4.31883 0.269607C3.18196 0.773717 2.51389 1.91106 2.64125 3.17932C2.68108 3.57588 2.82038 3.95095 3.03157 4.28508H1.43477C0.64234 4.28508 0 4.92746 0 5.71985V7.87203C0 8.2682 0.321191 8.58943 0.717406 8.58943H21.2826C21.6788 8.58943 22 8.26824 22 7.87203V5.71985C22 4.92746 21.3577 4.28508 20.5652 4.28508ZM8.84782 4.04596V4.28508H5.47293C4.58124 4.28508 3.87948 3.45381 4.10218 2.52542C4.20028 2.11658 4.49539 1.76806 4.87708 1.59163C5.40121 1.34937 5.98181 1.42714 6.42202 1.82559L8.84843 4.02482C8.8483 4.03191 8.84782 4.03887 8.84782 4.04596ZM17.9306 2.9882C17.8771 3.73383 17.2036 4.28517 16.4561 4.28517H13.1522V4.04604C13.1522 4.03758 13.1517 4.0292 13.1516 4.02074C13.7012 3.52247 14.8937 2.44172 15.5404 1.8555C15.9079 1.52236 16.4222 1.36686 16.8976 1.50865C17.5798 1.71215 17.9805 2.29232 17.9306 2.9882Z" fill="#2E363F"/>
<path d="M1.43481 10.0242V20.546C1.43481 21.3384 2.07715 21.9808 2.86958 21.9808H9.56523V10.0242H1.43481Z" fill="#2E363F"/>
<path d="M12.4346 10.0242V21.9808H19.1302C19.9226 21.9808 20.565 21.3384 20.565 20.546V10.0242H12.4346Z" fill="#2E363F"/>
</g>
<defs>
<clipPath id="clip0">
<rect width="22" height="22" fill="white"/>
</clipPath>
</defs>
</svg>
