<svg width="24" height="21" viewBox="0 0 24 21" fill="none" xmlns="http://www.w3.org/2000/svg">
<path d="M12.4338 17.3934C11.7359 17.3826 11.0631 17.1317 10.5286 16.683L7.00891 13.5831C6.45506 13.0656 5.60813 13.0246 5.00688 13.4862L0.00185838 17.1673V19.5568C-0.0341129 20.1978 0.456444 20.7465 1.09744 20.7825C1.13044 20.7844 1.16357 20.7848 1.19664 20.7838H18.9242C19.6346 20.7838 20.345 20.2672 20.345 19.5568V13.2925L13.9837 16.9736C13.5161 17.2547 12.9794 17.4 12.4338 17.3934Z" fill="#2E363F"/>
<path d="M12.1754 11.1289C12.9601 11.1289 13.5962 10.4928 13.5962 9.7081C13.5962 8.92341 12.9601 8.28729 12.1754 8.28729C11.3908 8.28729 10.7546 8.92341 10.7546 9.7081C10.7546 10.4928 11.3908 11.1289 12.1754 11.1289Z" fill="#2E363F"/>
<path d="M23.7032 2.57196C23.4971 2.29111 23.1787 2.11422 22.8314 2.08758L5.23294 0.0532838C4.88985 0.0245439 4.54744 0.115832 4.26425 0.311634C4.01344 0.52944 3.84291 0.82506 3.77987 1.15121L3.48926 3.66988H18.9242C20.3958 3.70326 21.5857 4.87894 21.6367 6.34999V17.7486C21.6367 17.684 21.9273 17.6194 22.0564 17.4902C22.3238 17.2803 22.4788 16.9583 22.4762 16.6184L23.9938 3.50838C24.0274 3.16975 23.9226 2.83197 23.7032 2.57196Z" fill="#2E363F"/>
<path d="M18.9243 4.96149H1.19673C0.48633 4.96149 0.00195312 5.63956 0.00195312 6.34997V15.5528L4.26431 12.4529C5.34629 11.6503 6.84311 11.7177 7.84858 12.6144L11.4005 15.7143C11.9361 16.169 12.7012 16.2338 13.3056 15.8757L20.345 11.7748V6.34997C20.2962 5.59191 19.6833 4.99295 18.9243 4.96149ZM12.1755 12.4206C10.6775 12.4206 9.46309 11.2062 9.46309 9.70815C9.46309 8.21015 10.6775 6.99572 12.1755 6.99572C13.6735 6.99572 14.888 8.21009 14.888 9.70815C14.888 11.2062 13.6736 12.4206 12.1755 12.4206Z" fill="#2E363F"/>
</svg>
