<svg width="22" height="22" viewBox="0 0 22 22" fill="none" xmlns="http://www.w3.org/2000/svg">
<path d="M21.8602 10.5715C21.6636 10.3026 16.9808 3.9884 10.9999 3.9884C5.01902 3.9884 0.33593 10.3026 0.139606 10.5712C-0.0465352 10.8263 -0.0465352 11.1722 0.139606 11.4273C0.33593 11.6962 5.01902 18.0104 10.9999 18.0104C16.9808 18.0104 21.6636 11.6961 21.8602 11.4275C22.0466 11.1725 22.0466 10.8263 21.8602 10.5715ZM10.9999 16.5598C6.59434 16.5598 2.77867 12.369 1.64914 10.9989C2.7772 9.62763 6.58489 5.43895 10.9999 5.43895C15.4052 5.43895 19.2206 9.62909 20.3506 10.9999C19.2226 12.3711 15.4149 16.5598 10.9999 16.5598Z" fill="#9BA0A8"/>
<path d="M10.9996 6.64734C8.60015 6.64734 6.64795 8.59954 6.64795 10.999C6.64795 13.3985 8.60015 15.3507 10.9996 15.3507C13.3991 15.3507 15.3513 13.3985 15.3513 10.999C15.3513 8.59954 13.3991 6.64734 10.9996 6.64734ZM10.9996 13.9001C9.39989 13.9001 8.09853 12.5987 8.09853 10.999C8.09853 9.39932 9.39993 8.09792 10.9996 8.09792C12.5993 8.09792 13.9007 9.39932 13.9007 10.999C13.9007 12.5987 12.5993 13.9001 10.9996 13.9001Z" fill="#9BA0A8"/>
<path d="M20 2L3.5 18.5" stroke="#9BA0A8" stroke-width="1.5"/>
</svg>
