<svg width="103" height="103" viewBox="0 0 103 103" fill="none" xmlns="http://www.w3.org/2000/svg">
<path d="M13.3262 66.3052C13.3262 66.3052 19.2096 79.5675 33.9777 83.842C48.7459 88.1165 64.4389 82.2413 77.2748 77.8226C90.1107 73.4039 96.8139 62.2326 93.8908 50.8367C90.9676 39.4407 80.1382 40.3162 69.9948 30.2367C59.8513 20.1571 58.6648 15.932 44.6568 13.0109C30.6488 10.0899 15.3636 21.9513 11.6164 38.6641C7.86929 55.3769 13.3262 66.3052 13.3262 66.3052Z" fill="#20C0E8"/>
<path opacity="0.7" d="M13.3262 66.3052C13.3262 66.3052 19.2096 79.5675 33.9777 83.842C48.7459 88.1165 64.4389 82.2413 77.2748 77.8226C90.1107 73.4039 96.8139 62.2326 93.8908 50.8367C90.9676 39.4407 80.1382 40.3162 69.9948 30.2367C59.8513 20.1571 58.6648 15.932 44.6568 13.0109C30.6488 10.0899 15.3636 21.9513 11.6164 38.6641C7.86929 55.3769 13.3262 66.3052 13.3262 66.3052Z" fill="white"/>
<path d="M42.2301 50.4988C42.2301 50.4988 47.2853 50.9974 49.8521 54.1327C49.8521 54.1327 52.561 50.5009 57.4226 50.5771C58.6109 49.1436 59.3676 47.402 59.6045 45.5551C59.8414 43.7083 59.5488 41.8321 58.7607 40.145C57.9726 38.458 56.7215 37.0296 55.1531 36.026C53.5847 35.0225 51.7634 34.4851 49.9014 34.4765C48.0394 34.468 46.2133 34.9885 44.6357 35.9775C43.058 36.9666 41.7938 38.3834 40.9902 40.0631C40.1866 41.7428 39.8767 43.6162 40.0966 45.4652C40.3165 47.3142 41.057 49.0627 42.2321 50.5071L42.2301 50.4988Z" fill="#20C0E8"/>
<path opacity="0.5" d="M42.2301 50.4988C42.2301 50.4988 47.2853 50.9974 49.8521 54.1327C49.8521 54.1327 52.561 50.5009 57.4226 50.5771C58.6109 49.1436 59.3676 47.402 59.6045 45.5551C59.8414 43.7083 59.5488 41.8321 58.7607 40.145C57.9726 38.458 56.7215 37.0296 55.1531 36.026C53.5847 35.0225 51.7634 34.4851 49.9014 34.4765C48.0394 34.468 46.2133 34.9885 44.6357 35.9775C43.058 36.9666 41.7938 38.3834 40.9902 40.0631C40.1866 41.7428 39.8767 43.6162 40.0966 45.4652C40.3165 47.3142 41.057 49.0627 42.2321 50.5071L42.2301 50.4988Z" fill="white"/>
<path d="M49.6812 35.1703L49.5103 86.4663H50.3652L49.6812 35.1703Z" fill="#828282"/>
<path d="M49.9365 53.1769C49.9365 53.1769 51.6442 50.1054 54.7157 49.1661C54.7157 49.1661 51.4733 49.9345 49.8521 52.5795L49.9365 53.1769Z" fill="#828282"/>
<path d="M49.751 44.5557C49.751 44.5557 51.6441 41.3998 54.7156 40.4625C54.7156 40.4625 51.3722 41.4245 49.751 44.0696V44.5557Z" fill="#828282"/>
<path d="M49.8173 49.0445C49.8173 49.0445 51.6445 45.7485 54.716 44.8133C54.716 44.8133 51.3952 45.7341 49.772 48.3812L49.8173 49.0445Z" fill="#828282"/>
<path d="M49.6851 46.6919C49.6851 46.6919 48.0371 43.6183 45.0728 42.681C45.0728 42.681 48.2019 43.4494 49.7675 46.0945L49.6851 46.6919Z" fill="#828282"/>
<path d="M49.6851 50.9581C49.6851 50.9581 48.0371 47.8867 45.0728 46.9473C45.0728 46.9473 48.2019 47.7157 49.7675 50.3607L49.6851 50.9581Z" fill="#828282"/>
<path d="M15.069 43.0189C15.069 43.0189 23.9003 43.8924 28.3746 49.3678C28.3746 49.3678 33.1126 43.0251 41.5956 43.1549C43.6708 40.6514 44.9921 37.6098 45.4057 34.3845C45.8193 31.1591 45.3082 27.8826 43.9318 24.9365C42.5554 21.9903 40.3705 19.4958 37.6313 17.7433C34.8922 15.9909 31.7116 15.0526 28.4599 15.0377C25.2081 15.0228 22.019 15.9319 19.264 17.6592C16.5089 19.3865 14.3011 21.8609 12.8978 24.7943C11.4945 27.7277 10.9534 30.9994 11.3374 34.2284C11.7214 37.4574 13.0148 40.5109 15.067 43.0333L15.069 43.0189Z" fill="#20C0E8"/>
<path opacity="0.3" d="M15.069 43.0189C15.069 43.0189 23.9003 43.8924 28.3746 49.3678C28.3746 49.3678 33.1126 43.0251 41.5956 43.1549C43.6708 40.6514 44.9921 37.6098 45.4057 34.3845C45.8193 31.1591 45.3082 27.8826 43.9318 24.9365C42.5554 21.9903 40.3705 19.4958 37.6313 17.7433C34.8922 15.9909 31.7116 15.0526 28.4599 15.0377C25.2081 15.0228 22.019 15.9319 19.264 17.6592C16.5089 19.3865 14.3011 21.8609 12.8978 24.7943C11.4945 27.7277 10.9534 30.9994 11.3374 34.2284C11.7214 37.4574 13.0148 40.5109 15.067 43.0333L15.069 43.0189Z" fill="white"/>
<path d="M28.0823 16.2512L27.7856 86.4663H29.275L28.0823 16.2512Z" fill="#828282"/>
<path d="M28.5313 47.6993C28.5313 47.6993 31.5183 42.333 36.8743 40.6932C36.8743 40.6932 31.2114 42.0343 28.3789 46.6549L28.5313 47.6993Z" fill="#263238"/>
<path d="M28.3066 32.7952C28.3066 32.7952 31.5182 27.1302 36.8742 25.4904C36.8742 25.4904 31.1577 27.0457 28.3272 31.6704L28.3066 32.7952Z" fill="#828282"/>
<path d="M28.3954 40.2894C28.3954 40.2894 31.5183 34.7315 36.8743 33.0917C36.8743 33.0917 31.2114 34.4328 28.3789 39.0534L28.3954 40.2894Z" fill="#828282"/>
<path d="M28.0882 36.3712C28.0882 36.3712 25.2042 31.0049 20.0356 29.3672C20.0356 29.3672 25.4988 30.7083 28.2324 35.3289L28.0882 36.3712Z" fill="#828282"/>
<path d="M28.0882 43.8244C28.0882 43.8244 25.2042 38.4581 20.0356 36.8204C20.0356 36.8204 25.4988 38.1615 28.2324 42.7821L28.0882 43.8244Z" fill="#828282"/>
<path d="M79.6929 58.1104C79.6826 58.1104 79.8186 57.4409 79.831 57.3997C79.9875 56.9197 80.5684 56.0875 81.1308 56.0875C81.2263 56.0887 81.3203 56.1104 81.4067 56.1511C81.493 56.1918 81.5696 56.2506 81.6313 56.3234C81.693 56.3962 81.7383 56.4815 81.7643 56.5733C81.7903 56.6651 81.7962 56.7615 81.7818 56.8558C81.7426 57.2514 81.3863 57.5892 81.0649 57.7828C80.6776 58.0012 79.695 58.1104 79.6929 58.1104Z" fill="#20C0E8"/>
<path d="M78.6032 53.5971C79.1326 53.7886 79.3963 54.7692 79.3798 55.2718C79.3798 55.3151 79.2789 55.9928 79.2686 55.9887H79.2583C79.3016 56.1432 79.3448 56.3101 79.3901 56.4914C79.4684 56.8292 79.557 57.2124 79.6229 57.6347C79.6991 58.0894 79.7493 58.5482 79.7733 59.0087C79.8011 59.5243 79.7832 60.0413 79.7197 60.5537C79.7197 60.5537 79.7197 60.566 79.7197 60.5722C79.7877 60.4218 79.9978 60.0098 80.0164 59.981C80.2924 59.5587 81.0732 58.9098 81.617 59.0581C81.7059 59.0862 81.788 59.1327 81.8579 59.1944C81.9278 59.2562 81.984 59.332 82.0228 59.4168C82.0616 59.5016 82.0822 59.5936 82.0833 59.6869C82.0844 59.7802 82.0659 59.8726 82.029 59.9583C81.8869 60.3291 81.4543 60.5619 81.0938 60.6629C80.6818 60.7803 79.7774 60.6423 79.7053 60.632C79.6271 61.1517 79.5149 61.6657 79.3695 62.1708C79.2871 62.4654 79.1944 62.7599 79.0956 63.0525C79.1615 62.9247 79.2192 62.8114 79.2295 62.797C79.5055 62.385 80.2862 61.7258 80.828 61.8762C80.9171 61.9038 80.9993 61.9498 81.0694 62.0114C81.1395 62.0729 81.1958 62.1485 81.2346 62.2332C81.2735 62.318 81.2941 62.41 81.295 62.5032C81.2959 62.5965 81.2772 62.6889 81.24 62.7744C81.0958 63.1452 80.6653 63.3779 80.3027 63.4809C79.9402 63.5839 79.1594 63.4809 78.9555 63.4542C78.9163 63.5654 78.8793 63.6787 78.8401 63.7899C78.6547 64.3297 78.4652 64.8653 78.2983 65.3967C78.2386 65.5842 78.1871 65.7717 78.1335 65.9571C78.1912 65.8438 78.2407 65.7511 78.2489 65.7366C78.5249 65.3143 79.3057 64.6654 79.8495 64.8138C79.9385 64.8419 80.0205 64.8883 80.0904 64.9501C80.1603 65.0119 80.2165 65.0876 80.2553 65.1724C80.2941 65.2572 80.3147 65.3493 80.3158 65.4425C80.3169 65.5358 80.2984 65.6283 80.2615 65.714C80.1173 66.0848 79.6847 66.3155 79.3242 66.4185C78.9637 66.5215 78.2571 66.4309 78.012 66.3979C77.9646 66.5915 77.9152 66.7831 77.8781 66.9726C77.8554 67.1024 77.8245 67.226 77.8081 67.3558C77.7916 67.4856 77.773 67.6154 77.7545 67.741C77.7298 67.9882 77.7009 68.2416 77.6824 68.4826C77.668 68.6495 77.6577 68.8102 77.6474 68.9708C77.703 68.7834 77.8225 68.4188 77.8369 68.3899C78.0355 67.9949 78.3319 67.6573 78.698 67.4094C78.7186 67.3639 78.7435 67.3205 78.7721 67.2796C78.8233 67.2012 78.8904 67.1345 78.969 67.0837C79.0476 67.033 79.136 66.9993 79.2285 66.985C79.3209 66.9706 79.4154 66.9758 79.5057 67.0003C79.596 67.0248 79.6802 67.068 79.7527 67.1271C80.1791 67.4959 80.072 68.5053 79.8763 68.9688C79.8639 68.9976 79.7053 69.2798 79.6023 69.4549C79.6785 69.3602 79.7506 69.2675 79.831 69.1727C79.9875 68.9811 80.1503 68.7937 80.3233 68.5918L80.587 68.3055C80.6735 68.2086 80.7765 68.118 80.8713 68.0212C81.0979 67.8028 81.3368 67.5927 81.582 67.3867C81.4151 67.2507 80.826 66.7543 80.657 66.4164C80.4881 66.0786 80.3686 65.6048 80.5437 65.2484C80.5822 65.1631 80.6383 65.0869 80.7083 65.0248C80.7782 64.9626 80.8605 64.9159 80.9497 64.8877C81.039 64.8595 81.1332 64.8505 81.2261 64.8612C81.3191 64.8719 81.4088 64.902 81.4893 64.9497C81.9672 65.2484 82.0146 66.264 81.9013 66.7502C81.9013 66.7811 81.7653 67.121 81.6953 67.3064C81.8436 67.1828 81.9919 67.0612 82.1464 66.9417C82.5914 66.5977 83.0528 66.2619 83.5122 65.9262C83.6523 65.8232 83.7923 65.7202 83.9242 65.6151C83.8644 65.5677 83.1537 64.9971 82.9642 64.6139C82.7953 64.2782 82.6738 63.8044 82.8509 63.448C82.8892 63.3625 82.9452 63.2861 83.015 63.2237C83.0849 63.1614 83.1672 63.1145 83.2564 63.0861C83.3457 63.0577 83.4399 63.0484 83.533 63.059C83.626 63.0695 83.7158 63.0996 83.7965 63.1472C84.2744 63.4459 84.3218 64.4615 84.1982 64.9497C84.1879 64.9868 84.0025 65.475 83.951 65.5966C84.2579 65.3679 84.569 65.1372 84.8512 64.8982C85.2451 64.5799 85.6174 64.2358 85.9656 63.8682C85.9389 63.8476 85.1931 63.2502 84.9995 62.8629C84.8306 62.5272 84.7091 62.0513 84.8862 61.6949C84.9247 61.6096 84.9808 61.5334 85.0507 61.4713C85.1207 61.4091 85.203 61.3624 85.2922 61.3342C85.3815 61.306 85.4756 61.297 85.5686 61.3077C85.6616 61.3184 85.7512 61.3485 85.8318 61.3962C86.3097 61.6949 86.357 62.7105 86.2334 63.1967C86.2334 63.2296 86.0831 63.6087 86.013 63.7776L86.0398 63.7941C86.3819 63.4109 86.688 62.9972 86.9544 62.5581C87.1048 62.3212 87.2367 62.0843 87.3664 61.8515C87.2161 61.7547 86.5424 61.3035 86.32 60.976C86.0975 60.6484 85.945 60.2014 86.081 59.8265C86.1101 59.7377 86.1575 59.656 86.2202 59.5866C86.2829 59.5173 86.3594 59.4619 86.4449 59.4241C86.5303 59.3862 86.6228 59.3667 86.7162 59.3668C86.8097 59.3669 86.9021 59.3867 86.9874 59.4248C87.4942 59.6699 87.6528 60.6752 87.5848 61.1717C87.5848 61.2005 87.5106 61.4704 87.4591 61.6681C87.5127 61.5631 87.5683 61.4621 87.6178 61.3509C87.8032 60.9677 87.9494 60.6052 88.0771 60.2838C88.1472 60.0984 88.2069 59.9316 88.2625 59.775C88.1637 59.602 87.7784 58.9036 87.7414 58.5205C87.7043 58.1373 87.764 57.6594 88.0565 57.3916C88.1234 57.326 88.2032 57.2752 88.2909 57.2424C88.3787 57.2097 88.4723 57.1958 88.5658 57.2016C88.6592 57.2075 88.7504 57.2329 88.8334 57.2763C88.9163 57.3196 88.9893 57.38 89.0474 57.4534C89.3852 57.9045 89.0639 58.8665 88.7714 59.2785C88.7466 59.3136 88.2893 59.8224 88.2852 59.8141V59.8038C88.2358 59.9563 88.1801 60.119 88.1163 60.2962C87.9968 60.6217 87.8588 60.9883 87.6796 61.3777C87.4939 61.8021 87.2827 62.2148 87.0471 62.6137C86.7865 63.0597 86.4866 63.4816 86.151 63.8744L86.1387 63.8868C86.2788 63.8002 86.6805 63.5716 86.7134 63.5572C87.1749 63.3512 88.1863 63.2482 88.5551 63.6725C88.6148 63.7445 88.6587 63.8283 88.6838 63.9184C88.709 64.0085 88.7148 64.1029 88.701 64.1955C88.6872 64.288 88.6541 64.3766 88.6037 64.4554C88.5534 64.5343 88.487 64.6016 88.4088 64.6531C88.0833 64.8838 87.5951 64.8385 87.2387 64.7231C86.8267 64.5954 86.1511 63.9795 86.0975 63.9321C85.7454 64.3221 85.3683 64.6889 84.9686 65.0301C84.7379 65.2361 84.4969 65.4235 84.2538 65.6151C84.3795 65.5451 84.4907 65.4812 84.5072 65.475C84.9686 65.269 85.978 65.164 86.3488 65.5883C86.4085 65.6606 86.4522 65.7447 86.4773 65.8351C86.5023 65.9254 86.508 66.02 86.494 66.1127C86.48 66.2054 86.4466 66.2941 86.396 66.3731C86.3455 66.452 86.2788 66.5195 86.2005 66.5709C85.8771 66.7996 85.3888 66.7543 85.0304 66.641C84.672 66.5277 84.0746 66.0127 83.9201 65.8747L83.6358 66.0786C83.1847 66.4247 82.7315 66.7687 82.2989 67.1189C82.1464 67.2425 82.0002 67.3702 81.8539 67.4959C81.9631 67.4341 82.0599 67.3805 82.0723 67.3743C82.5337 67.1683 83.5431 67.0653 83.9139 67.4897C83.9735 67.5618 84.0173 67.6457 84.0423 67.7359C84.0672 67.8261 84.0729 67.9206 84.0589 68.0131C84.0449 68.1057 84.0116 68.1942 83.961 68.273C83.9105 68.3518 83.8439 68.419 83.7656 68.4703C83.4422 68.701 82.9539 68.6557 82.5955 68.5403C82.2371 68.4249 81.6973 67.9635 81.514 67.7987C81.3677 67.9347 81.2194 68.0686 81.0855 68.2107C80.9949 68.3075 80.9001 68.392 80.8157 68.4929L80.5458 68.7793C80.3892 68.9708 80.2265 69.1665 80.0782 69.3561C79.9731 69.4879 79.8722 69.6156 79.7795 69.7433C79.9299 69.6197 80.2306 69.3808 80.2574 69.3643C80.6838 69.0986 81.6644 68.8349 82.0949 69.1974C82.1646 69.26 82.2203 69.3366 82.2584 69.4221C82.2965 69.5076 82.3163 69.6002 82.3163 69.6939C82.3163 69.7875 82.2965 69.8801 82.2584 69.9657C82.2203 70.0512 82.1646 70.1278 82.0949 70.1904C81.8086 70.4664 81.3183 70.4952 80.9475 70.4376C80.5355 70.3737 79.8001 69.8917 79.7115 69.8319C79.5508 70.0379 79.3943 70.2439 79.2521 70.4499C78.7536 71.138 78.3643 71.7292 78.0985 72.1474C78.0903 72.1622 78.0814 72.1767 78.0717 72.1906L77.7277 72.0217L77.7813 71.9414C78.0594 71.5294 78.4652 70.934 78.9823 70.2501C79.1471 70.0441 79.3242 69.8051 79.5096 69.5744C79.3194 69.3635 79.1413 69.1421 78.9761 68.9111C78.5806 69.0656 77.7566 69.0718 77.6494 69.0718C77.6309 69.3396 77.6165 69.5991 77.6082 69.8422C77.5712 70.6909 77.5753 71.3996 77.5835 71.9022V71.9619L77.2045 71.7766C77.2045 71.2863 77.2251 70.6209 77.2745 69.834C77.291 69.5641 77.3137 69.2737 77.3404 68.9791C77.2354 68.9523 76.3784 68.7319 76.055 68.4723C75.7316 68.2128 75.4514 67.8543 75.4638 67.4609C75.463 67.3673 75.482 67.2746 75.5194 67.1888C75.5569 67.1031 75.6121 67.0262 75.6813 66.9632C75.7505 66.9002 75.8322 66.8526 75.9211 66.8233C76.01 66.794 76.104 66.7838 76.1971 66.7934C76.7554 66.8635 77.2271 67.7657 77.3157 68.2601C77.3157 68.289 77.3446 68.6124 77.3569 68.8163C77.3569 68.6969 77.3775 68.5774 77.3899 68.4538C77.4146 68.2086 77.4476 67.9635 77.4805 67.6998C77.5011 67.5721 77.5217 67.4444 77.5444 67.3146C77.567 67.1848 77.5979 67.053 77.6227 66.9191C77.6906 66.6142 77.7751 66.3011 77.8657 66.0003C77.6494 65.9777 76.8852 65.887 76.5597 65.6996C76.2342 65.5121 75.8696 65.1825 75.8202 64.789C75.8053 64.697 75.8099 64.6029 75.8336 64.5128C75.8573 64.4227 75.8997 64.3385 75.9579 64.2658C76.0161 64.193 76.0889 64.1332 76.1716 64.0903C76.2543 64.0474 76.3451 64.0223 76.4382 64.0165C77.0005 64.0021 77.6 64.822 77.7669 65.2979C77.7772 65.3267 77.8575 65.681 77.8987 65.8767C77.9543 65.6934 78.0099 65.508 78.0717 65.3246C78.2551 64.7911 78.4549 64.2576 78.6527 63.724C78.7124 63.5613 78.7701 63.3985 78.8298 63.2337C78.7536 63.2337 77.8431 63.139 77.4764 62.9289C77.1509 62.7414 76.7863 62.4118 76.7369 62.0183C76.722 61.9263 76.7266 61.8322 76.7503 61.7421C76.774 61.652 76.8164 61.5678 76.8746 61.4951C76.9328 61.4223 77.0056 61.3625 77.0883 61.3196C77.1711 61.2767 77.2618 61.2516 77.3549 61.2458C77.9172 61.2335 78.5188 62.0534 78.6836 62.5272C78.6959 62.5642 78.8113 63.0731 78.8339 63.2049C78.9637 62.8444 79.0914 62.4839 79.2006 62.1255C79.3511 61.6398 79.4709 61.1451 79.5591 60.6443C79.522 60.6443 78.5723 60.5537 78.1953 60.3394C77.8699 60.152 77.5073 59.8224 77.4579 59.4269C77.443 59.335 77.4476 59.241 77.4713 59.151C77.4951 59.061 77.5374 58.9769 77.5957 58.9043C77.6539 58.8317 77.7267 58.7721 77.8095 58.7294C77.8922 58.6867 77.9829 58.6619 78.0759 58.6564C78.6382 58.642 79.2377 59.4619 79.4046 59.9377C79.4149 59.9686 79.5034 60.3497 79.5405 60.5413H79.5735C79.6467 60.0353 79.675 59.5238 79.6579 59.0128C79.6579 58.7306 79.6312 58.4628 79.6044 58.2012C79.4252 58.2012 78.6094 58.2012 78.2489 58.0467C77.8884 57.8922 77.5073 57.6079 77.4249 57.2227C77.4 57.1324 77.3943 57.0378 77.4083 56.9452C77.4223 56.8526 77.4557 56.7639 77.5062 56.685C77.5567 56.6062 77.6233 56.5388 77.7015 56.4873C77.7798 56.4358 77.868 56.4014 77.9605 56.3863C78.5188 56.3101 79.1965 57.0599 79.4231 57.5131C79.4334 57.5378 79.5261 57.8036 79.59 57.9952C79.5776 57.8777 79.5652 57.7562 79.5488 57.645C79.4931 57.2227 79.4149 56.8395 79.3428 56.4996C79.2995 56.308 79.2562 56.135 79.215 55.9743C79.0399 55.8837 78.3334 55.5149 78.0903 55.2142C77.8472 54.9134 77.635 54.4849 77.7298 54.0997C77.7484 54.0061 77.7868 53.9176 77.8425 53.8401C77.8981 53.7625 77.9697 53.6978 78.0524 53.6502C78.1352 53.6026 78.2271 53.5732 78.3221 53.5641C78.4171 53.5549 78.5129 53.5662 78.6032 53.5971Z" fill="#20C0E8"/>
<path d="M88.7859 62.2821C88.3451 62.2635 87.4654 61.8124 87.4634 61.8124C87.4613 61.8124 87.9372 61.3221 87.9722 61.2953C88.3657 60.9822 89.3092 60.6073 89.7788 60.9183C89.8555 60.972 89.9199 61.0413 89.968 61.1216C90.016 61.2019 90.0466 61.2915 90.0576 61.3844C90.0687 61.4773 90.0601 61.5716 90.0323 61.6609C90.0045 61.7503 89.9581 61.8328 89.8963 61.903C89.6449 62.212 89.1629 62.2965 88.7859 62.2821Z" fill="#20C0E8"/>
<g opacity="0.5">
<path opacity="0.5" d="M79.6929 58.1104C79.6826 58.1104 79.8186 57.4409 79.831 57.3997C79.9875 56.9197 80.5684 56.0875 81.1308 56.0875C81.2263 56.0887 81.3203 56.1104 81.4067 56.1511C81.493 56.1918 81.5696 56.2506 81.6313 56.3234C81.693 56.3962 81.7383 56.4815 81.7643 56.5733C81.7903 56.6651 81.7962 56.7615 81.7818 56.8558C81.7426 57.2514 81.3863 57.5892 81.0649 57.7828C80.6776 58.0012 79.695 58.1104 79.6929 58.1104Z" fill="white"/>
<path opacity="0.5" d="M78.6032 53.5971C79.1326 53.7886 79.3963 54.7692 79.3798 55.2718C79.3798 55.3151 79.2789 55.9928 79.2686 55.9887H79.2583C79.3016 56.1432 79.3448 56.3101 79.3901 56.4914C79.4684 56.8292 79.557 57.2124 79.6229 57.6347C79.6991 58.0894 79.7493 58.5482 79.7733 59.0087C79.8011 59.5243 79.7832 60.0413 79.7197 60.5537C79.7197 60.5537 79.7197 60.566 79.7197 60.5722C79.7877 60.4218 79.9978 60.0098 80.0164 59.981C80.2924 59.5587 81.0732 58.9098 81.617 59.0581C81.7059 59.0862 81.788 59.1327 81.8579 59.1944C81.9278 59.2562 81.984 59.332 82.0228 59.4168C82.0616 59.5016 82.0822 59.5936 82.0833 59.6869C82.0844 59.7802 82.0659 59.8726 82.029 59.9583C81.8869 60.3291 81.4543 60.5619 81.0938 60.6629C80.6818 60.7803 79.7774 60.6423 79.7053 60.632C79.6271 61.1517 79.5149 61.6657 79.3695 62.1708C79.2871 62.4654 79.1944 62.7599 79.0956 63.0525C79.1615 62.9247 79.2192 62.8114 79.2295 62.797C79.5055 62.385 80.2862 61.7258 80.828 61.8762C80.9171 61.9038 80.9993 61.9498 81.0694 62.0114C81.1395 62.0729 81.1958 62.1485 81.2346 62.2332C81.2735 62.318 81.2941 62.41 81.295 62.5032C81.2959 62.5965 81.2772 62.6889 81.24 62.7744C81.0958 63.1452 80.6653 63.3779 80.3027 63.4809C79.9402 63.5839 79.1594 63.4809 78.9555 63.4542C78.9163 63.5654 78.8793 63.6787 78.8401 63.7899C78.6547 64.3297 78.4652 64.8653 78.2983 65.3967C78.2386 65.5842 78.1871 65.7717 78.1335 65.9571C78.1912 65.8438 78.2407 65.7511 78.2489 65.7366C78.5249 65.3143 79.3057 64.6654 79.8495 64.8138C79.9385 64.8419 80.0205 64.8883 80.0904 64.9501C80.1603 65.0119 80.2165 65.0876 80.2553 65.1724C80.2941 65.2572 80.3147 65.3493 80.3158 65.4425C80.3169 65.5358 80.2984 65.6283 80.2615 65.714C80.1173 66.0848 79.6847 66.3155 79.3242 66.4185C78.9637 66.5215 78.2571 66.4309 78.012 66.3979C77.9646 66.5915 77.9152 66.7831 77.8781 66.9726C77.8554 67.1024 77.8245 67.226 77.8081 67.3558C77.7916 67.4856 77.773 67.6154 77.7545 67.741C77.7298 67.9882 77.7009 68.2416 77.6824 68.4826C77.668 68.6495 77.6577 68.8102 77.6474 68.9708C77.703 68.7834 77.8225 68.4188 77.8369 68.3899C78.0355 67.9949 78.3319 67.6573 78.698 67.4094C78.7186 67.3639 78.7435 67.3205 78.7721 67.2796C78.8233 67.2012 78.8904 67.1345 78.969 67.0837C79.0476 67.033 79.136 66.9993 79.2285 66.985C79.3209 66.9706 79.4154 66.9758 79.5057 67.0003C79.596 67.0248 79.6802 67.068 79.7527 67.1271C80.1791 67.4959 80.072 68.5053 79.8763 68.9688C79.8639 68.9976 79.7053 69.2798 79.6023 69.4549C79.6785 69.3602 79.7506 69.2675 79.831 69.1727C79.9875 68.9811 80.1503 68.7937 80.3233 68.5918L80.587 68.3055C80.6735 68.2086 80.7765 68.118 80.8713 68.0212C81.0979 67.8028 81.3368 67.5927 81.582 67.3867C81.4151 67.2507 80.826 66.7543 80.657 66.4164C80.4881 66.0786 80.3686 65.6048 80.5437 65.2484C80.5822 65.1631 80.6383 65.0869 80.7083 65.0248C80.7782 64.9626 80.8605 64.9159 80.9497 64.8877C81.039 64.8595 81.1332 64.8505 81.2261 64.8612C81.3191 64.8719 81.4088 64.902 81.4893 64.9497C81.9672 65.2484 82.0146 66.264 81.9013 66.7502C81.9013 66.7811 81.7653 67.121 81.6953 67.3064C81.8436 67.1828 81.9919 67.0612 82.1464 66.9417C82.5914 66.5977 83.0528 66.2619 83.5122 65.9262C83.6523 65.8232 83.7923 65.7202 83.9242 65.6151C83.8644 65.5677 83.1537 64.9971 82.9642 64.6139C82.7953 64.2782 82.6738 63.8044 82.8509 63.448C82.8892 63.3625 82.9452 63.2861 83.015 63.2237C83.0849 63.1614 83.1672 63.1145 83.2564 63.0861C83.3457 63.0577 83.4399 63.0484 83.533 63.059C83.626 63.0695 83.7158 63.0996 83.7965 63.1472C84.2744 63.4459 84.3218 64.4615 84.1982 64.9497C84.1879 64.9868 84.0025 65.475 83.951 65.5966C84.2579 65.3679 84.569 65.1372 84.8512 64.8982C85.2451 64.5799 85.6174 64.2358 85.9656 63.8682C85.9389 63.8476 85.1931 63.2502 84.9995 62.8629C84.8306 62.5272 84.7091 62.0513 84.8862 61.6949C84.9247 61.6096 84.9808 61.5334 85.0507 61.4713C85.1207 61.4091 85.203 61.3624 85.2922 61.3342C85.3815 61.306 85.4756 61.297 85.5686 61.3077C85.6616 61.3184 85.7512 61.3485 85.8318 61.3962C86.3097 61.6949 86.357 62.7105 86.2334 63.1967C86.2334 63.2296 86.0831 63.6087 86.013 63.7776L86.0398 63.7941C86.3819 63.4109 86.688 62.9972 86.9544 62.5581C87.1048 62.3212 87.2367 62.0843 87.3664 61.8515C87.2161 61.7547 86.5424 61.3035 86.32 60.976C86.0975 60.6484 85.945 60.2014 86.081 59.8265C86.1101 59.7377 86.1575 59.656 86.2202 59.5866C86.2829 59.5173 86.3594 59.4619 86.4449 59.4241C86.5303 59.3862 86.6228 59.3667 86.7162 59.3668C86.8097 59.3669 86.9021 59.3867 86.9874 59.4248C87.4942 59.6699 87.6528 60.6752 87.5848 61.1717C87.5848 61.2005 87.5106 61.4704 87.4591 61.6681C87.5127 61.5631 87.5683 61.4621 87.6178 61.3509C87.8032 60.9677 87.9494 60.6052 88.0771 60.2838C88.1472 60.0984 88.2069 59.9316 88.2625 59.775C88.1637 59.602 87.7784 58.9036 87.7414 58.5205C87.7043 58.1373 87.764 57.6594 88.0565 57.3916C88.1234 57.326 88.2032 57.2752 88.2909 57.2424C88.3787 57.2097 88.4723 57.1958 88.5658 57.2016C88.6592 57.2075 88.7504 57.2329 88.8334 57.2763C88.9163 57.3196 88.9893 57.38 89.0474 57.4534C89.3852 57.9045 89.0639 58.8665 88.7714 59.2785C88.7466 59.3136 88.2893 59.8224 88.2852 59.8141V59.8038C88.2358 59.9563 88.1801 60.119 88.1163 60.2962C87.9968 60.6217 87.8588 60.9883 87.6796 61.3777C87.4939 61.8021 87.2827 62.2148 87.0471 62.6137C86.7865 63.0597 86.4866 63.4816 86.151 63.8744L86.1387 63.8868C86.2788 63.8002 86.6805 63.5716 86.7134 63.5572C87.1749 63.3512 88.1863 63.2482 88.5551 63.6725C88.6148 63.7445 88.6587 63.8283 88.6838 63.9184C88.709 64.0085 88.7148 64.1029 88.701 64.1955C88.6872 64.288 88.6541 64.3766 88.6037 64.4554C88.5534 64.5343 88.487 64.6016 88.4088 64.6531C88.0833 64.8838 87.5951 64.8385 87.2387 64.7231C86.8267 64.5954 86.1511 63.9795 86.0975 63.9321C85.7454 64.3221 85.3683 64.6889 84.9686 65.0301C84.7379 65.2361 84.4969 65.4235 84.2538 65.6151C84.3795 65.5451 84.4907 65.4812 84.5072 65.475C84.9686 65.269 85.978 65.164 86.3488 65.5883C86.4085 65.6606 86.4522 65.7447 86.4773 65.8351C86.5023 65.9254 86.508 66.02 86.494 66.1127C86.48 66.2054 86.4466 66.2941 86.396 66.3731C86.3455 66.452 86.2788 66.5195 86.2005 66.5709C85.8771 66.7996 85.3888 66.7543 85.0304 66.641C84.672 66.5277 84.0746 66.0127 83.9201 65.8747L83.6358 66.0786C83.1847 66.4247 82.7315 66.7687 82.2989 67.1189C82.1464 67.2425 82.0002 67.3702 81.8539 67.4959C81.9631 67.4341 82.0599 67.3805 82.0723 67.3743C82.5337 67.1683 83.5431 67.0653 83.9139 67.4897C83.9735 67.5618 84.0173 67.6457 84.0423 67.7359C84.0672 67.8261 84.0729 67.9206 84.0589 68.0131C84.0449 68.1057 84.0116 68.1942 83.961 68.273C83.9105 68.3518 83.8439 68.419 83.7656 68.4703C83.4422 68.701 82.9539 68.6557 82.5955 68.5403C82.2371 68.4249 81.6973 67.9635 81.514 67.7987C81.3677 67.9347 81.2194 68.0686 81.0855 68.2107C80.9949 68.3075 80.9001 68.392 80.8157 68.4929L80.5458 68.7793C80.3892 68.9708 80.2265 69.1665 80.0782 69.3561C79.9731 69.4879 79.8722 69.6156 79.7795 69.7433C79.9299 69.6197 80.2306 69.3808 80.2574 69.3643C80.6838 69.0986 81.6644 68.8349 82.0949 69.1974C82.1646 69.26 82.2203 69.3366 82.2584 69.4221C82.2965 69.5076 82.3163 69.6002 82.3163 69.6939C82.3163 69.7875 82.2965 69.8801 82.2584 69.9657C82.2203 70.0512 82.1646 70.1278 82.0949 70.1904C81.8086 70.4664 81.3183 70.4952 80.9475 70.4376C80.5355 70.3737 79.8001 69.8917 79.7115 69.8319C79.5508 70.0379 79.3943 70.2439 79.2521 70.4499C78.7536 71.138 78.3643 71.7292 78.0985 72.1474C78.0903 72.1622 78.0814 72.1767 78.0717 72.1906L77.7277 72.0217L77.7813 71.9414C78.0594 71.5294 78.4652 70.934 78.9823 70.2501C79.1471 70.0441 79.3242 69.8051 79.5096 69.5744C79.3194 69.3635 79.1413 69.1421 78.9761 68.9111C78.5806 69.0656 77.7566 69.0718 77.6494 69.0718C77.6309 69.3396 77.6165 69.5991 77.6082 69.8422C77.5712 70.6909 77.5753 71.3996 77.5835 71.9022V71.9619L77.2045 71.7766C77.2045 71.2863 77.2251 70.6209 77.2745 69.834C77.291 69.5641 77.3137 69.2737 77.3404 68.9791C77.2354 68.9523 76.3784 68.7319 76.055 68.4723C75.7316 68.2128 75.4514 67.8543 75.4638 67.4609C75.463 67.3673 75.482 67.2746 75.5194 67.1888C75.5569 67.1031 75.6121 67.0262 75.6813 66.9632C75.7505 66.9002 75.8322 66.8526 75.9211 66.8233C76.01 66.794 76.104 66.7838 76.1971 66.7934C76.7554 66.8635 77.2271 67.7657 77.3157 68.2601C77.3157 68.289 77.3446 68.6124 77.3569 68.8163C77.3569 68.6969 77.3775 68.5774 77.3899 68.4538C77.4146 68.2086 77.4476 67.9635 77.4805 67.6998C77.5011 67.5721 77.5217 67.4444 77.5444 67.3146C77.567 67.1848 77.5979 67.053 77.6227 66.9191C77.6906 66.6142 77.7751 66.3011 77.8657 66.0003C77.6494 65.9777 76.8852 65.887 76.5597 65.6996C76.2342 65.5121 75.8696 65.1825 75.8202 64.789C75.8053 64.697 75.8099 64.6029 75.8336 64.5128C75.8573 64.4227 75.8997 64.3385 75.9579 64.2658C76.0161 64.193 76.0889 64.1332 76.1716 64.0903C76.2543 64.0474 76.3451 64.0223 76.4382 64.0165C77.0005 64.0021 77.6 64.822 77.7669 65.2979C77.7772 65.3267 77.8575 65.681 77.8987 65.8767C77.9543 65.6934 78.0099 65.508 78.0717 65.3246C78.2551 64.7911 78.4549 64.2576 78.6527 63.724C78.7124 63.5613 78.7701 63.3985 78.8298 63.2337C78.7536 63.2337 77.8431 63.139 77.4764 62.9289C77.1509 62.7414 76.7863 62.4118 76.7369 62.0183C76.722 61.9263 76.7266 61.8322 76.7503 61.7421C76.774 61.652 76.8164 61.5678 76.8746 61.4951C76.9328 61.4223 77.0056 61.3625 77.0883 61.3196C77.1711 61.2767 77.2618 61.2516 77.3549 61.2458C77.9172 61.2335 78.5188 62.0534 78.6836 62.5272C78.6959 62.5642 78.8113 63.0731 78.8339 63.2049C78.9637 62.8444 79.0914 62.4839 79.2006 62.1255C79.3511 61.6398 79.4709 61.1451 79.5591 60.6443C79.522 60.6443 78.5723 60.5537 78.1953 60.3394C77.8699 60.152 77.5073 59.8224 77.4579 59.4269C77.443 59.335 77.4476 59.241 77.4713 59.151C77.4951 59.061 77.5374 58.9769 77.5957 58.9043C77.6539 58.8317 77.7267 58.7721 77.8095 58.7294C77.8922 58.6867 77.9829 58.6619 78.0759 58.6564C78.6382 58.642 79.2377 59.4619 79.4046 59.9377C79.4149 59.9686 79.5034 60.3497 79.5405 60.5413H79.5735C79.6467 60.0353 79.675 59.5238 79.6579 59.0128C79.6579 58.7306 79.6312 58.4628 79.6044 58.2012C79.4252 58.2012 78.6094 58.2012 78.2489 58.0467C77.8884 57.8922 77.5073 57.6079 77.4249 57.2227C77.4 57.1324 77.3943 57.0378 77.4083 56.9452C77.4223 56.8526 77.4557 56.7639 77.5062 56.685C77.5567 56.6062 77.6233 56.5388 77.7015 56.4873C77.7798 56.4358 77.868 56.4014 77.9605 56.3863C78.5188 56.3101 79.1965 57.0599 79.4231 57.5131C79.4334 57.5378 79.5261 57.8036 79.59 57.9952C79.5776 57.8777 79.5652 57.7562 79.5488 57.645C79.4931 57.2227 79.4149 56.8395 79.3428 56.4996C79.2995 56.308 79.2562 56.135 79.215 55.9743C79.0399 55.8837 78.3334 55.5149 78.0903 55.2142C77.8472 54.9134 77.635 54.4849 77.7298 54.0997C77.7484 54.0061 77.7868 53.9176 77.8425 53.8401C77.8981 53.7625 77.9697 53.6978 78.0524 53.6502C78.1352 53.6026 78.2271 53.5732 78.3221 53.5641C78.4171 53.5549 78.5129 53.5662 78.6032 53.5971Z" fill="white"/>
<path opacity="0.5" d="M88.7859 62.2821C88.3451 62.2635 87.4654 61.8124 87.4634 61.8124C87.4613 61.8124 87.9372 61.3221 87.9722 61.2953C88.3657 60.9822 89.3091 60.6073 89.7788 60.9183C89.8555 60.972 89.9199 61.0413 89.968 61.1216C90.016 61.2019 90.0466 61.2915 90.0576 61.3844C90.0687 61.4773 90.0601 61.5716 90.0323 61.6609C90.0045 61.7503 89.9581 61.8328 89.8962 61.903C89.6449 62.212 89.1629 62.2965 88.7859 62.2821Z" fill="white"/>
</g>
<path d="M83.6463 73.305C83.6463 73.305 80.9683 66.8654 79.481 67.1456C77.9937 67.4258 82.0437 77.4126 82.0437 77.4126C82.0437 77.4126 77.3427 68.5546 74.1374 68.5546C70.932 68.5546 75.3136 78.3541 79.3739 81.6212C79.3739 81.6212 72.9632 74.714 69.2243 76.2075C65.4854 77.701 76.7021 84.7009 76.7021 84.7009C76.7021 84.7009 70.1863 82.6409 70.9341 84.2333C71.6819 85.8257 73.711 86.0997 73.711 86.0997L66.332 86.4663H91.979L86.211 85.906C86.211 85.906 92.185 82.919 90.5906 81.7057C88.9962 80.4923 85.4633 83.1065 85.4633 83.1065C85.4633 83.1065 91.5526 76.3847 90.3784 73.8653C89.2042 71.3459 83.9677 78.4385 83.9677 78.4385C83.9677 78.4385 88.2401 69.3848 87.3852 67.7986C86.5303 66.2124 83.6463 73.305 83.6463 73.305Z" fill="#20C0E8"/>
<path opacity="0.4" d="M83.6463 73.305C83.6463 73.305 80.9683 66.8654 79.481 67.1456C77.9937 67.4258 82.0437 77.4126 82.0437 77.4126C82.0437 77.4126 77.3427 68.5546 74.1374 68.5546C70.932 68.5546 75.3136 78.3541 79.3739 81.6212C79.3739 81.6212 72.9632 74.714 69.2243 76.2075C65.4854 77.701 76.7021 84.7009 76.7021 84.7009C76.7021 84.7009 70.1863 82.6409 70.9341 84.2333C71.6819 85.8257 73.711 86.0997 73.711 86.0997L66.332 86.4663H91.979L86.211 85.906C86.211 85.906 92.185 82.919 90.5906 81.7057C88.9962 80.4923 85.4633 83.1065 85.4633 83.1065C85.4633 83.1065 91.5526 76.3847 90.3784 73.8653C89.2042 71.3459 83.9677 78.4385 83.9677 78.4385C83.9677 78.4385 88.2401 69.3848 87.3852 67.7986C86.5303 66.2124 83.6463 73.305 83.6463 73.305Z" fill="white"/>
<path d="M84.5013 73.645C82.1509 80.5892 82.1509 85.5044 82.1509 85.5044C82.1509 85.5044 84.9298 85.6115 87.8138 83.4732" stroke="#787878" stroke-linecap="round" stroke-linejoin="round"/>
<path d="M83.3269 77.3839C82.8417 75.3081 82.1985 73.2723 81.4028 71.2946" stroke="#787878" stroke-linecap="round" stroke-linejoin="round"/>
<path d="M76.3828 73.336L82.3568 82.194C82.3568 82.194 86.4171 78.7765 87.8055 76.8524" stroke="#787878" stroke-linecap="round" stroke-linejoin="round"/>
<path d="M82.2579 84.3282C82.2579 84.3282 75.9543 81.3371 73.3896 79.6273" stroke="#787878" stroke-linecap="round" stroke-linejoin="round"/>
<path d="M41.9004 68.252C41.9004 68.252 41.9807 67.8215 41.989 67.7947C42.0879 67.4878 42.4628 66.9521 42.813 66.9521C42.873 66.9539 42.9321 66.9683 42.9862 66.9944C43.0404 67.0204 43.0884 67.0576 43.1273 67.1034C43.1662 67.1493 43.1949 67.2028 43.2118 67.2605C43.2286 67.3182 43.2331 67.3788 43.225 67.4383C43.1963 67.5655 43.1401 67.6849 43.0604 67.7881C42.9807 67.8913 42.8794 67.9758 42.7635 68.0357C42.4879 68.1494 42.1971 68.2223 41.9004 68.252Z" fill="#20C0E8"/>
<path d="M41.2003 65.3535C41.5402 65.475 41.7091 66.1054 41.6988 66.4288C41.6988 66.4556 41.6329 66.8902 41.6288 66.8882C41.6576 66.9891 41.6844 67.0941 41.7132 67.2116C41.7647 67.4299 41.8204 67.6751 41.8636 67.947C41.9126 68.2388 41.9449 68.5332 41.9604 68.8287C41.9782 69.16 41.9664 69.4923 41.9254 69.8216C41.9264 69.8257 41.9264 69.8299 41.9254 69.834C41.9707 69.7371 42.1046 69.4714 42.117 69.4529C42.2942 69.183 42.7947 68.7648 43.147 68.8616C43.2044 68.8791 43.2576 68.9084 43.3029 68.9478C43.3482 68.9872 43.3847 69.0357 43.4099 69.0901C43.4352 69.1446 43.4487 69.2037 43.4496 69.2638C43.4504 69.3238 43.4385 69.3833 43.4148 69.4384C43.3536 69.5533 43.2681 69.6533 43.1642 69.7316C43.0603 69.8099 42.9405 69.8645 42.8133 69.8916C42.5166 69.9299 42.2159 69.9229 41.9213 69.871C41.8739 70.2047 41.8051 70.535 41.7153 70.8598C41.6617 71.0494 41.602 71.2389 41.5381 71.4263C41.5793 71.3439 41.6185 71.2718 41.6247 71.2615C41.8018 70.9917 42.3024 70.5735 42.6547 70.6703C42.7122 70.688 42.7653 70.7176 42.8106 70.7571C42.856 70.7967 42.8924 70.8454 42.9177 70.9C42.943 70.9546 42.9564 71.0139 42.9573 71.0741C42.9581 71.1342 42.9462 71.1939 42.9225 71.2492C42.8606 71.3633 42.7749 71.4627 42.671 71.5406C42.5672 71.6184 42.4478 71.6729 42.3209 71.7003C42.0327 71.7394 41.7402 71.7339 41.4537 71.6838C41.429 71.7559 41.4063 71.828 41.3795 71.9001C41.26 72.2462 41.1406 72.5902 41.0314 72.9301C40.9943 73.0496 40.9613 73.1712 40.9263 73.2906C40.9634 73.2185 40.9943 73.1567 41.0005 73.1485C41.1776 72.8786 41.6803 72.4605 42.0305 72.5552C42.088 72.5729 42.1411 72.6025 42.1865 72.642C42.2318 72.6816 42.2683 72.7303 42.2935 72.7849C42.3188 72.8395 42.3323 72.8988 42.3331 72.959C42.3339 73.0191 42.322 73.0788 42.2983 73.1341C42.2374 73.2491 42.1519 73.3493 42.0479 73.4276C41.944 73.5059 41.8241 73.5604 41.6968 73.5873C41.4169 73.6265 41.1326 73.6216 40.8542 73.5729C40.8233 73.6965 40.7924 73.8201 40.7677 73.9416C40.7533 74.0261 40.7347 74.1043 40.7244 74.1888C40.7141 74.2733 40.6997 74.3557 40.6894 74.436C40.6729 74.5946 40.6544 74.7574 40.642 74.9119C40.642 75.019 40.6276 75.1179 40.6194 75.225C40.6565 75.1055 40.7327 74.8727 40.7409 74.8521C40.8698 74.5988 41.0604 74.382 41.2951 74.2218C41.3088 74.1932 41.3247 74.1656 41.3424 74.1394C41.3754 74.089 41.4185 74.0461 41.4691 74.0136C41.5197 73.981 41.5765 73.9595 41.636 73.9503C41.6955 73.9412 41.7562 73.9447 41.8142 73.9606C41.8722 73.9765 41.9263 74.0044 41.9728 74.0425C42.2468 74.2774 42.1788 74.9283 42.0511 75.225C42.0511 75.2435 41.9419 75.431 41.876 75.5381L42.0222 75.3548C42.1232 75.2312 42.2282 75.1117 42.3395 74.9819L42.5084 74.7986C42.564 74.7368 42.6299 74.677 42.6917 74.6152C42.8359 74.4751 42.9904 74.3412 43.147 74.2032C42.9193 74.0282 42.7193 73.8199 42.5537 73.5852C42.4877 73.4731 42.4471 73.3478 42.4346 73.2183C42.4222 73.0887 42.4382 72.9581 42.4816 72.8354C42.5061 72.7791 42.5424 72.7287 42.5881 72.6876C42.6338 72.6466 42.6878 72.6158 42.7464 72.5974C42.805 72.5791 42.8669 72.5735 42.9278 72.5812C42.9888 72.5888 43.0474 72.6095 43.0996 72.6417C43.4045 72.8354 43.4354 73.4863 43.3571 73.7995C43.3571 73.8201 43.2685 74.0384 43.2212 74.1558C43.318 74.0776 43.4127 73.9993 43.5116 73.9231C43.798 73.7006 44.0946 73.4863 44.3892 73.27L44.657 73.064C44.4196 72.8824 44.2112 72.6657 44.039 72.4213C43.9726 72.3093 43.9316 72.1841 43.9188 72.0546C43.906 71.9251 43.9217 71.7943 43.9648 71.6715C43.9892 71.6151 44.0256 71.5647 44.0713 71.5236C44.1171 71.4826 44.1711 71.4519 44.2298 71.4337C44.2885 71.4155 44.3504 71.4102 44.4114 71.4182C44.4723 71.4262 44.5308 71.4472 44.5828 71.4799C44.8898 71.6715 44.9207 72.3224 44.8403 72.6356C44.8403 72.6603 44.7167 72.9734 44.6817 73.0476C44.8877 72.9013 45.0752 72.753 45.2606 72.6005C45.5135 72.3936 45.7529 72.1706 45.9774 71.9331C45.7405 71.7493 45.5322 71.5313 45.3594 71.2863C45.2938 71.1739 45.2534 71.0487 45.241 70.9193C45.2285 70.7898 45.2443 70.6592 45.2873 70.5364C45.3122 70.4817 45.3483 70.4329 45.3933 70.393C45.4383 70.3532 45.4912 70.3233 45.5485 70.3052C45.6058 70.2872 45.6663 70.2814 45.726 70.2882C45.7857 70.295 45.8433 70.3143 45.895 70.3448C46.202 70.5364 46.2308 71.1894 46.1525 71.5026C46.1525 71.5232 46.0578 71.7621 46.0104 71.8754L46.0289 71.8857C46.2478 71.6408 46.4442 71.3767 46.616 71.0967C46.7129 70.9443 46.7973 70.7919 46.8756 70.6435C46.6243 70.4907 46.3978 70.3004 46.204 70.0791C46.1258 69.975 46.0714 69.855 46.0447 69.7276C46.018 69.6001 46.0196 69.4683 46.0495 69.3416C46.0682 69.2845 46.0987 69.2319 46.1391 69.1874C46.1794 69.1428 46.2287 69.1072 46.2836 69.0829C46.3386 69.0587 46.3981 69.0462 46.4582 69.0464C46.5183 69.0466 46.5777 69.0595 46.6325 69.0841C46.958 69.2427 47.0589 69.8855 47.0157 70.2068C47.0157 70.2233 46.9683 70.3984 46.9353 70.5241C46.9683 70.4561 47.0054 70.3881 47.0363 70.3181C47.1558 70.0709 47.2423 69.8381 47.3309 69.63C47.3762 69.5126 47.4153 69.4055 47.4503 69.3045C47.2989 69.0545 47.1864 68.7829 47.1166 68.4991C47.0964 68.3705 47.1043 68.2391 47.1399 68.1139C47.1754 67.9887 47.2378 67.8727 47.3226 67.774C47.3653 67.7314 47.4165 67.6984 47.4729 67.6772C47.5293 67.6559 47.5895 67.6468 47.6497 67.6505C47.7098 67.6542 47.7685 67.6706 47.8218 67.6986C47.8752 67.7266 47.922 67.7657 47.9592 67.8131C48.1755 68.1036 47.9695 68.7216 47.782 68.9852C47.7655 69.0079 47.473 69.3354 47.4689 69.3293C47.438 69.4261 47.403 69.5353 47.3618 69.6444C47.2835 69.8504 47.1949 70.0894 47.0816 70.3407C46.9594 70.6113 46.8218 70.8748 46.6696 71.1297C46.5015 71.416 46.3085 71.6869 46.0928 71.9393C46.1834 71.8837 46.4409 71.7333 46.4615 71.7333C46.7582 71.6056 47.4071 71.5273 47.646 71.8074C47.6842 71.8536 47.7123 71.9074 47.7283 71.9652C47.7443 72.023 47.748 72.0835 47.7391 72.1428C47.7301 72.2021 47.7088 72.2588 47.6764 72.3093C47.6441 72.3598 47.6014 72.4029 47.5513 72.4357C47.4369 72.4977 47.3104 72.5341 47.1805 72.5423C47.0507 72.5505 46.9206 72.5303 46.7994 72.4831C46.5304 72.351 46.2831 72.1787 46.066 71.9722C45.8408 72.2241 45.5985 72.4602 45.3409 72.6788C45.1926 72.8065 45.0381 72.9322 44.8836 73.0558C44.9619 73.0084 45.034 72.9693 45.0443 72.9652C45.3409 72.8374 45.9898 72.7592 46.2288 73.0373C46.267 73.0836 46.2951 73.1376 46.3111 73.1955C46.3272 73.2534 46.3308 73.3141 46.3219 73.3736C46.313 73.433 46.2916 73.4899 46.2592 73.5406C46.2269 73.5912 46.1842 73.6345 46.134 73.6676C46.0196 73.7297 45.893 73.7659 45.7631 73.7738C45.6332 73.7816 45.5031 73.7608 45.3821 73.7129C45.1198 73.5876 44.8786 73.4222 44.6673 73.2227L44.4881 73.3627C44.1976 73.5852 43.9051 73.8056 43.627 74.0302C43.5302 74.1085 43.4354 74.1909 43.3406 74.2733L43.4807 74.195C43.7794 74.0673 44.4283 73.989 44.6652 74.2671C44.7035 74.3135 44.7315 74.3674 44.7476 74.4253C44.7636 74.4833 44.7673 74.5439 44.7584 74.6034C44.7494 74.6628 44.7281 74.7197 44.6957 74.7704C44.6633 74.8211 44.6207 74.8643 44.5705 74.8974C44.4561 74.9596 44.3295 74.996 44.1995 75.0038C44.0696 75.0116 43.9395 74.9908 43.8186 74.9428C43.5632 74.8211 43.3283 74.6606 43.1223 74.4669C43.0296 74.5534 42.9348 74.6399 42.8483 74.7285C42.7618 74.8171 42.7288 74.8439 42.6753 74.9098L42.5084 75.0952C42.4075 75.2188 42.3024 75.3445 42.2076 75.4681L42.0161 75.7173C42.1129 75.637 42.3045 75.4845 42.323 75.4722C42.597 75.3012 43.2273 75.1323 43.5034 75.3651C43.548 75.4054 43.5837 75.4547 43.6081 75.5097C43.6325 75.5647 43.6451 75.6242 43.6451 75.6844C43.6451 75.7445 43.6325 75.804 43.6081 75.859C43.5837 75.914 43.548 75.9633 43.5034 76.0037C43.3996 76.0818 43.2801 76.1365 43.1531 76.1639C43.0261 76.1913 42.8947 76.1907 42.768 76.1623C42.4839 76.0741 42.215 75.9427 41.9707 75.7729C41.8657 75.9089 41.7647 76.0428 41.6741 76.1705C41.3548 76.6134 41.1055 76.9945 40.9346 77.2603L40.9181 77.2891L40.6956 77.182L40.7306 77.1284C40.9098 76.8606 41.1694 76.4816 41.5031 76.0428C41.6082 75.9048 41.7215 75.7565 41.841 75.6081C41.7181 75.4728 41.6032 75.3304 41.4969 75.1817C41.2196 75.2561 40.9332 75.2915 40.6462 75.2868C40.6338 75.4578 40.6256 75.6246 40.6194 75.7812C40.5967 76.3271 40.5967 76.7823 40.6029 77.0996C40.6019 77.1119 40.6019 77.1243 40.6029 77.1367L40.3578 77.0192C40.3578 76.702 40.3701 76.2756 40.4031 75.7709C40.4031 75.5958 40.4278 75.4104 40.4463 75.2209C40.1567 75.155 39.8788 75.0453 39.6223 74.8954C39.5154 74.8215 39.4258 74.7252 39.36 74.6131C39.2942 74.501 39.2536 74.3759 39.2412 74.2465C39.2406 74.1862 39.2528 74.1265 39.2768 74.0712C39.3009 74.0159 39.3363 73.9664 39.3808 73.9257C39.4254 73.8851 39.478 73.8543 39.5352 73.8354C39.5924 73.8165 39.653 73.8098 39.713 73.8159C40.0714 73.8633 40.3722 74.4339 40.4319 74.7594C40.4319 74.778 40.4505 74.986 40.4566 75.1158C40.4566 75.0396 40.4711 74.9634 40.4793 74.883C40.4958 74.7244 40.5164 74.5678 40.537 74.3989C40.5514 74.3165 40.5638 74.2341 40.5782 74.1517C40.5926 74.0693 40.6111 73.9828 40.6297 73.8983C40.6729 73.6923 40.7265 73.5049 40.7842 73.3071C40.4964 73.2862 40.2136 73.2209 39.9458 73.1135C39.8287 73.0566 39.7256 72.9748 39.6438 72.8737C39.5619 72.7726 39.5032 72.6547 39.472 72.5284C39.462 72.4692 39.4647 72.4085 39.4799 72.3503C39.4952 72.2922 39.5226 72.2379 39.5604 72.1912C39.5982 72.1445 39.6455 72.1063 39.6991 72.0792C39.7528 72.0521 39.8115 72.0367 39.8716 72.034C40.2342 72.0237 40.6194 72.5511 40.7244 72.858C40.7244 72.8766 40.7842 73.1052 40.8089 73.2309C40.846 73.1114 40.881 72.994 40.9222 72.8745C41.0376 72.5326 41.1673 72.1906 41.293 71.8445C41.3321 71.7415 41.3692 71.6385 41.4084 71.5314C41.1106 71.5087 40.8178 71.4428 40.539 71.3357C40.4221 71.2779 40.319 71.1956 40.2368 71.0942C40.1547 70.9929 40.0955 70.875 40.0632 70.7486C40.0539 70.6893 40.0571 70.6286 40.0728 70.5706C40.0884 70.5126 40.116 70.4586 40.1539 70.4119C40.1918 70.3653 40.2391 70.3272 40.2926 70.3C40.3462 70.2728 40.4049 70.2572 40.4649 70.2542C40.8254 70.2439 41.2106 70.7713 41.3177 71.0782C41.3177 71.1009 41.4001 71.4284 41.4145 71.5129C41.499 71.2821 41.5793 71.0514 41.6494 70.8207C41.7258 70.5094 41.7822 70.1936 41.8183 69.8752C41.5184 69.8536 41.2233 69.7876 40.9428 69.6795C40.8262 69.622 40.7234 69.54 40.6416 69.439C40.5598 69.338 40.5009 69.2204 40.469 69.0944C40.4594 69.0351 40.4623 68.9744 40.4777 68.9163C40.4931 68.8582 40.5205 68.8039 40.5582 68.7571C40.5959 68.7103 40.643 68.6719 40.6965 68.6445C40.75 68.6171 40.8086 68.6012 40.8686 68.598C41.2312 68.598 41.6164 69.115 41.7235 69.422C41.7235 69.4405 41.7874 69.6898 41.8101 69.8092H41.8307C41.8782 69.484 41.8968 69.1552 41.8863 68.8266C41.8863 68.6453 41.8698 68.4744 41.8513 68.3054C41.5581 68.3176 41.2649 68.2842 40.9819 68.2066C40.8596 68.1625 40.7483 68.0923 40.6558 68.0008C40.5633 67.9094 40.4918 67.799 40.4463 67.6771C40.4302 67.6192 40.4264 67.5586 40.4352 67.4992C40.4441 67.4397 40.4653 67.3828 40.4975 67.3321C40.5298 67.2814 40.5723 67.2381 40.6224 67.2049C40.6725 67.1717 40.729 67.1494 40.7883 67.1395C41.1488 67.0921 41.5876 67.5721 41.7277 67.8646C41.7277 67.8811 41.7956 68.05 41.8368 68.1736C41.8265 68.0994 41.8204 68.0212 41.8101 67.9491C41.773 67.6771 41.7235 67.432 41.6762 67.2136C41.6494 67.09 41.6226 66.9788 41.5958 66.8758C41.3314 66.7507 41.0876 66.586 40.8728 66.3876C40.7843 66.2921 40.7179 66.1785 40.678 66.0547C40.6382 65.9308 40.6259 65.7998 40.642 65.6707C40.6542 65.6111 40.679 65.5548 40.7147 65.5056C40.7504 65.4564 40.7963 65.4154 40.8491 65.3853C40.902 65.3553 40.9607 65.3369 41.0213 65.3314C41.0818 65.3259 41.1429 65.3334 41.2003 65.3535Z" fill="#20C0E8"/>
<path d="M47.7429 70.932C47.4461 70.8727 47.1595 70.7707 46.8921 70.6292C46.8921 70.6292 47.197 70.314 47.2196 70.2975C47.4709 70.0915 48.0786 69.8546 48.3794 70.0565C48.4288 70.0908 48.4704 70.1352 48.5014 70.1868C48.5324 70.2383 48.5522 70.2959 48.5594 70.3556C48.5666 70.4153 48.561 70.4759 48.5432 70.5333C48.5253 70.5908 48.4955 70.6438 48.4556 70.6889C48.3614 70.7785 48.2489 70.8466 48.1259 70.8885C48.0028 70.9305 47.8722 70.9453 47.7429 70.932Z" fill="#20C0E8"/>
<g opacity="0.5">
<path opacity="0.5" d="M41.9009 68.2518C41.9009 68.2518 41.9812 67.8212 41.9895 67.7944C42.0883 67.4875 42.4633 66.9519 42.8135 66.9519C42.8735 66.9537 42.9326 66.968 42.9867 66.9941C43.0409 67.0202 43.0889 67.0573 43.1278 67.1032C43.1666 67.149 43.1954 67.2025 43.2123 67.2602C43.2291 67.3179 43.2336 67.3785 43.2255 67.4381C43.1968 67.5653 43.1406 67.6846 43.0609 67.7878C42.9812 67.891 42.8798 67.9756 42.764 68.0355C42.4884 68.1491 42.1976 68.222 41.9009 68.2518Z" fill="white"/>
<path opacity="0.5" d="M41.2003 65.3535C41.5402 65.475 41.7091 66.1054 41.6988 66.4288C41.6988 66.4556 41.6329 66.8902 41.6288 66.8882C41.6576 66.9891 41.6844 67.0941 41.7132 67.2116C41.7647 67.4299 41.8204 67.6751 41.8636 67.947C41.9126 68.2388 41.9449 68.5332 41.9604 68.8287C41.9782 69.16 41.9664 69.4923 41.9254 69.8216C41.9264 69.8257 41.9264 69.8299 41.9254 69.834C41.9707 69.7371 42.1046 69.4714 42.117 69.4529C42.2942 69.183 42.7947 68.7648 43.147 68.8616C43.2044 68.8791 43.2576 68.9084 43.3029 68.9478C43.3482 68.9872 43.3847 69.0357 43.4099 69.0901C43.4352 69.1446 43.4487 69.2037 43.4496 69.2638C43.4504 69.3238 43.4385 69.3833 43.4148 69.4384C43.3536 69.5533 43.2681 69.6533 43.1642 69.7316C43.0603 69.8099 42.9405 69.8645 42.8133 69.8916C42.5166 69.9299 42.2159 69.9229 41.9213 69.871C41.8739 70.2047 41.8051 70.535 41.7153 70.8598C41.6617 71.0494 41.602 71.2389 41.5381 71.4263C41.5793 71.3439 41.6185 71.2718 41.6247 71.2615C41.8018 70.9917 42.3024 70.5735 42.6547 70.6703C42.7122 70.688 42.7653 70.7176 42.8106 70.7571C42.856 70.7967 42.8924 70.8454 42.9177 70.9C42.943 70.9546 42.9564 71.0139 42.9573 71.0741C42.9581 71.1342 42.9462 71.1939 42.9225 71.2492C42.8606 71.3633 42.7749 71.4627 42.671 71.5406C42.5672 71.6184 42.4478 71.6729 42.3209 71.7003C42.0327 71.7394 41.7402 71.7339 41.4537 71.6838C41.429 71.7559 41.4063 71.828 41.3795 71.9001C41.26 72.2462 41.1406 72.5902 41.0314 72.9301C40.9943 73.0496 40.9613 73.1712 40.9263 73.2906C40.9634 73.2185 40.9943 73.1567 41.0005 73.1485C41.1776 72.8786 41.6803 72.4605 42.0305 72.5552C42.088 72.5729 42.1411 72.6025 42.1865 72.642C42.2318 72.6816 42.2683 72.7303 42.2935 72.7849C42.3188 72.8395 42.3323 72.8988 42.3331 72.959C42.3339 73.0191 42.322 73.0788 42.2983 73.1341C42.2374 73.2491 42.1519 73.3493 42.0479 73.4276C41.944 73.5059 41.8241 73.5604 41.6968 73.5873C41.4169 73.6265 41.1326 73.6216 40.8542 73.5729C40.8233 73.6965 40.7924 73.8201 40.7677 73.9416C40.7533 74.0261 40.7347 74.1043 40.7244 74.1888C40.7141 74.2733 40.6997 74.3557 40.6894 74.436C40.6729 74.5946 40.6544 74.7574 40.642 74.9119C40.642 75.019 40.6276 75.1179 40.6194 75.225C40.6565 75.1055 40.7327 74.8727 40.7409 74.8521C40.8698 74.5988 41.0604 74.382 41.2951 74.2218C41.3088 74.1932 41.3247 74.1656 41.3424 74.1394C41.3754 74.089 41.4185 74.0461 41.4691 74.0136C41.5197 73.981 41.5765 73.9595 41.636 73.9503C41.6955 73.9412 41.7562 73.9447 41.8142 73.9606C41.8722 73.9765 41.9263 74.0044 41.9728 74.0425C42.2468 74.2774 42.1788 74.9283 42.0511 75.225C42.0511 75.2435 41.9419 75.431 41.876 75.5381L42.0222 75.3548C42.1232 75.2312 42.2282 75.1117 42.3395 74.9819L42.5084 74.7986C42.564 74.7368 42.6299 74.677 42.6917 74.6152C42.8359 74.4751 42.9904 74.3412 43.147 74.2032C42.9193 74.0282 42.7193 73.8199 42.5537 73.5852C42.4877 73.4731 42.4471 73.3478 42.4346 73.2183C42.4222 73.0887 42.4382 72.9581 42.4816 72.8354C42.5061 72.7791 42.5424 72.7287 42.5881 72.6876C42.6338 72.6466 42.6878 72.6158 42.7464 72.5974C42.805 72.5791 42.8669 72.5735 42.9278 72.5812C42.9888 72.5888 43.0474 72.6095 43.0996 72.6417C43.4045 72.8354 43.4354 73.4863 43.3571 73.7995C43.3571 73.8201 43.2685 74.0384 43.2212 74.1558C43.318 74.0776 43.4127 73.9993 43.5116 73.9231C43.798 73.7006 44.0946 73.4863 44.3892 73.27L44.657 73.064C44.4196 72.8824 44.2112 72.6657 44.039 72.4213C43.9726 72.3093 43.9316 72.1841 43.9188 72.0546C43.906 71.9251 43.9217 71.7943 43.9648 71.6715C43.9892 71.6151 44.0256 71.5647 44.0713 71.5236C44.1171 71.4826 44.1711 71.4519 44.2298 71.4337C44.2885 71.4155 44.3504 71.4102 44.4114 71.4182C44.4723 71.4262 44.5308 71.4472 44.5828 71.4799C44.8898 71.6715 44.9207 72.3224 44.8403 72.6356C44.8403 72.6603 44.7167 72.9734 44.6817 73.0476C44.8877 72.9013 45.0752 72.753 45.2606 72.6005C45.5135 72.3936 45.7529 72.1706 45.9774 71.9331C45.7405 71.7493 45.5322 71.5313 45.3594 71.2863C45.2938 71.1739 45.2534 71.0487 45.241 70.9193C45.2285 70.7898 45.2443 70.6592 45.2873 70.5364C45.3122 70.4817 45.3483 70.4329 45.3933 70.393C45.4383 70.3532 45.4912 70.3233 45.5485 70.3052C45.6058 70.2872 45.6663 70.2814 45.726 70.2882C45.7857 70.295 45.8433 70.3143 45.895 70.3448C46.202 70.5364 46.2308 71.1894 46.1525 71.5026C46.1525 71.5232 46.0578 71.7621 46.0104 71.8754L46.0289 71.8857C46.2478 71.6408 46.4442 71.3767 46.616 71.0967C46.7129 70.9443 46.7973 70.7919 46.8756 70.6435C46.6243 70.4907 46.3978 70.3004 46.204 70.0791C46.1258 69.975 46.0714 69.855 46.0447 69.7276C46.018 69.6001 46.0196 69.4683 46.0495 69.3416C46.0682 69.2845 46.0987 69.2319 46.1391 69.1874C46.1794 69.1428 46.2287 69.1072 46.2836 69.0829C46.3386 69.0587 46.3981 69.0462 46.4582 69.0464C46.5183 69.0466 46.5777 69.0595 46.6325 69.0841C46.958 69.2427 47.0589 69.8855 47.0157 70.2068C47.0157 70.2233 46.9683 70.3984 46.9353 70.5241C46.9683 70.4561 47.0054 70.3881 47.0363 70.3181C47.1558 70.0709 47.2423 69.8381 47.3309 69.63C47.3762 69.5126 47.4153 69.4055 47.4503 69.3045C47.2989 69.0545 47.1864 68.7829 47.1166 68.4991C47.0964 68.3705 47.1043 68.2391 47.1399 68.1139C47.1754 67.9887 47.2378 67.8727 47.3226 67.774C47.3653 67.7314 47.4165 67.6984 47.4729 67.6772C47.5293 67.6559 47.5895 67.6468 47.6497 67.6505C47.7098 67.6542 47.7685 67.6706 47.8218 67.6986C47.8752 67.7266 47.922 67.7657 47.9592 67.8131C48.1755 68.1036 47.9695 68.7216 47.782 68.9852C47.7655 69.0079 47.473 69.3354 47.4689 69.3293C47.438 69.4261 47.403 69.5353 47.3618 69.6444C47.2835 69.8504 47.1949 70.0894 47.0816 70.3407C46.9594 70.6113 46.8218 70.8748 46.6696 71.1297C46.5015 71.416 46.3085 71.6869 46.0928 71.9393C46.1834 71.8837 46.4409 71.7333 46.4615 71.7333C46.7582 71.6056 47.4071 71.5273 47.646 71.8074C47.6842 71.8536 47.7123 71.9074 47.7283 71.9652C47.7443 72.023 47.748 72.0835 47.7391 72.1428C47.7301 72.2021 47.7088 72.2588 47.6764 72.3093C47.6441 72.3598 47.6014 72.4029 47.5513 72.4357C47.4369 72.4977 47.3104 72.5341 47.1805 72.5423C47.0507 72.5505 46.9206 72.5303 46.7994 72.4831C46.5304 72.351 46.2831 72.1787 46.066 71.9722C45.8408 72.2241 45.5985 72.4602 45.3409 72.6788C45.1926 72.8065 45.0381 72.9322 44.8836 73.0558C44.9619 73.0084 45.034 72.9693 45.0443 72.9652C45.3409 72.8374 45.9898 72.7592 46.2288 73.0373C46.267 73.0836 46.2951 73.1376 46.3111 73.1955C46.3272 73.2534 46.3308 73.3141 46.3219 73.3736C46.313 73.433 46.2916 73.4899 46.2592 73.5406C46.2269 73.5912 46.1842 73.6345 46.134 73.6676C46.0196 73.7297 45.893 73.7659 45.7631 73.7738C45.6332 73.7816 45.5031 73.7608 45.3821 73.7129C45.1198 73.5876 44.8786 73.4222 44.6673 73.2227L44.4881 73.3627C44.1976 73.5852 43.9051 73.8056 43.627 74.0302C43.5302 74.1085 43.4354 74.1909 43.3406 74.2733L43.4807 74.195C43.7794 74.0673 44.4283 73.989 44.6652 74.2671C44.7035 74.3135 44.7315 74.3674 44.7476 74.4253C44.7636 74.4833 44.7673 74.5439 44.7584 74.6034C44.7494 74.6628 44.7281 74.7197 44.6957 74.7704C44.6633 74.8211 44.6207 74.8643 44.5705 74.8974C44.4561 74.9596 44.3295 74.996 44.1995 75.0038C44.0696 75.0116 43.9395 74.9908 43.8186 74.9428C43.5632 74.8211 43.3283 74.6606 43.1223 74.4669C43.0296 74.5534 42.9348 74.6399 42.8483 74.7285C42.7618 74.8171 42.7288 74.8439 42.6753 74.9098L42.5084 75.0952C42.4075 75.2188 42.3024 75.3445 42.2076 75.4681L42.0161 75.7173C42.1129 75.637 42.3045 75.4845 42.323 75.4722C42.597 75.3012 43.2273 75.1323 43.5034 75.3651C43.548 75.4054 43.5837 75.4547 43.6081 75.5097C43.6325 75.5647 43.6451 75.6242 43.6451 75.6844C43.6451 75.7445 43.6325 75.804 43.6081 75.859C43.5837 75.914 43.548 75.9633 43.5034 76.0037C43.3996 76.0818 43.2801 76.1365 43.1531 76.1639C43.0261 76.1913 42.8947 76.1907 42.768 76.1623C42.4839 76.0741 42.215 75.9427 41.9707 75.7729C41.8657 75.9089 41.7647 76.0428 41.6741 76.1705C41.3548 76.6134 41.1055 76.9945 40.9346 77.2603L40.9181 77.2891L40.6956 77.182L40.7306 77.1284C40.9098 76.8606 41.1694 76.4816 41.5031 76.0428C41.6082 75.9048 41.7215 75.7565 41.841 75.6081C41.7181 75.4728 41.6032 75.3304 41.4969 75.1817C41.2196 75.2561 40.9332 75.2915 40.6462 75.2868C40.6338 75.4578 40.6256 75.6246 40.6194 75.7812C40.5967 76.3271 40.5967 76.7823 40.6029 77.0996C40.6019 77.1119 40.6019 77.1243 40.6029 77.1367L40.3578 77.0192C40.3578 76.702 40.3701 76.2756 40.4031 75.7709C40.4031 75.5958 40.4278 75.4104 40.4463 75.2209C40.1567 75.155 39.8788 75.0453 39.6223 74.8954C39.5154 74.8215 39.4258 74.7252 39.36 74.6131C39.2942 74.501 39.2536 74.3759 39.2412 74.2465C39.2406 74.1862 39.2528 74.1265 39.2768 74.0712C39.3009 74.0159 39.3363 73.9664 39.3808 73.9257C39.4254 73.8851 39.478 73.8543 39.5352 73.8354C39.5924 73.8165 39.653 73.8098 39.713 73.8159C40.0714 73.8633 40.3722 74.4339 40.4319 74.7594C40.4319 74.778 40.4505 74.986 40.4566 75.1158C40.4566 75.0396 40.4711 74.9634 40.4793 74.883C40.4958 74.7244 40.5164 74.5678 40.537 74.3989C40.5514 74.3165 40.5638 74.2341 40.5782 74.1517C40.5926 74.0693 40.6111 73.9828 40.6297 73.8983C40.6729 73.6923 40.7265 73.5049 40.7842 73.3071C40.4964 73.2862 40.2136 73.2209 39.9458 73.1135C39.8287 73.0566 39.7256 72.9748 39.6438 72.8737C39.5619 72.7726 39.5032 72.6547 39.472 72.5284C39.462 72.4692 39.4647 72.4085 39.4799 72.3503C39.4952 72.2922 39.5226 72.2379 39.5604 72.1912C39.5982 72.1445 39.6455 72.1063 39.6991 72.0792C39.7528 72.0521 39.8115 72.0367 39.8716 72.034C40.2342 72.0237 40.6194 72.5511 40.7244 72.858C40.7244 72.8766 40.7842 73.1052 40.8089 73.2309C40.846 73.1114 40.881 72.994 40.9222 72.8745C41.0376 72.5326 41.1673 72.1906 41.293 71.8445C41.3321 71.7415 41.3692 71.6385 41.4084 71.5314C41.1106 71.5087 40.8178 71.4428 40.539 71.3357C40.4221 71.2779 40.319 71.1956 40.2368 71.0942C40.1547 70.9929 40.0955 70.875 40.0632 70.7486C40.0539 70.6893 40.0571 70.6286 40.0728 70.5706C40.0884 70.5126 40.116 70.4586 40.1539 70.4119C40.1918 70.3653 40.2391 70.3272 40.2926 70.3C40.3462 70.2728 40.4049 70.2572 40.4649 70.2542C40.8254 70.2439 41.2106 70.7713 41.3177 71.0782C41.3177 71.1009 41.4001 71.4284 41.4145 71.5129C41.499 71.2821 41.5793 71.0514 41.6494 70.8207C41.7258 70.5094 41.7822 70.1936 41.8183 69.8752C41.5184 69.8536 41.2233 69.7876 40.9428 69.6795C40.8262 69.622 40.7234 69.54 40.6416 69.439C40.5598 69.338 40.5009 69.2204 40.469 69.0944C40.4594 69.0351 40.4623 68.9744 40.4777 68.9163C40.4931 68.8582 40.5205 68.8039 40.5582 68.7571C40.5959 68.7103 40.643 68.6719 40.6965 68.6445C40.75 68.6171 40.8086 68.6012 40.8686 68.598C41.2312 68.598 41.6164 69.115 41.7235 69.422C41.7235 69.4405 41.7874 69.6898 41.8101 69.8092H41.8307C41.8782 69.484 41.8968 69.1552 41.8863 68.8266C41.8863 68.6453 41.8698 68.4744 41.8513 68.3054C41.5581 68.3176 41.2649 68.2842 40.9819 68.2066C40.8596 68.1625 40.7483 68.0923 40.6558 68.0008C40.5633 67.9094 40.4918 67.799 40.4463 67.6771C40.4302 67.6192 40.4264 67.5586 40.4352 67.4992C40.4441 67.4397 40.4653 67.3828 40.4975 67.3321C40.5298 67.2814 40.5723 67.2381 40.6224 67.2049C40.6725 67.1717 40.729 67.1494 40.7883 67.1395C41.1488 67.0921 41.5876 67.5721 41.7277 67.8646C41.7277 67.8811 41.7956 68.05 41.8368 68.1736C41.8265 68.0994 41.8204 68.0212 41.8101 67.9491C41.773 67.6771 41.7235 67.432 41.6762 67.2136C41.6494 67.09 41.6226 66.9788 41.5958 66.8758C41.3314 66.7507 41.0876 66.586 40.8728 66.3876C40.7843 66.2921 40.7179 66.1785 40.678 66.0547C40.6382 65.9308 40.6259 65.7998 40.642 65.6707C40.6542 65.6111 40.679 65.5548 40.7147 65.5056C40.7504 65.4564 40.7963 65.4154 40.8491 65.3853C40.902 65.3553 40.9607 65.3369 41.0213 65.3314C41.0818 65.3259 41.1429 65.3334 41.2003 65.3535Z" fill="white"/>
<path opacity="0.5" d="M47.7429 70.932C47.4461 70.8728 47.1595 70.7708 46.8921 70.6292C46.8921 70.6292 47.197 70.314 47.2196 70.2976C47.4709 70.0916 48.0786 69.8547 48.3794 70.0565C48.4288 70.0909 48.4704 70.1353 48.5014 70.1868C48.5324 70.2384 48.5522 70.2959 48.5594 70.3557C48.5666 70.4154 48.561 70.476 48.5432 70.5334C48.5253 70.5909 48.4955 70.6439 48.4556 70.689C48.3614 70.7785 48.2489 70.8467 48.1259 70.8886C48.0028 70.9306 47.8722 70.9454 47.7429 70.932Z" fill="white"/>
</g>
<path d="M44.4404 78.0121C44.4404 78.0121 42.7244 73.8756 41.7624 74.0549C40.8004 74.2341 43.4104 80.6469 43.4104 80.6469C43.4104 80.6469 40.3904 74.951 38.3325 74.951C36.2746 74.951 39.0865 81.2463 41.6944 83.3434C41.6944 83.3434 37.5744 78.9082 35.1745 79.8661C32.7746 80.824 39.9784 85.3231 39.9784 85.3231C39.9784 85.3231 35.7925 84.0026 36.2704 85.0223C36.7484 86.042 38.0544 86.2212 38.0544 86.2212L33.3164 86.4623H49.7964L46.0884 86.1018C46.0884 86.1018 49.9324 84.1839 48.9024 83.4032C47.8724 82.6224 45.6064 84.3034 45.6064 84.3034C45.6064 84.3034 49.5204 79.9877 48.7623 78.3685C48.0042 76.7493 44.6423 81.3061 44.6423 81.3061C44.6423 81.3061 47.3883 75.4907 46.8403 74.471C46.2923 73.4513 44.4404 78.0121 44.4404 78.0121Z" fill="#20C0E8"/>
<path opacity="0.4" d="M44.4404 78.0121C44.4404 78.0121 42.7244 73.8756 41.7624 74.0549C40.8004 74.2341 43.4104 80.6469 43.4104 80.6469C43.4104 80.6469 40.3904 74.951 38.3325 74.951C36.2746 74.951 39.0865 81.2463 41.6944 83.3434C41.6944 83.3434 37.5744 78.9082 35.1745 79.8661C32.7746 80.824 39.9784 85.3231 39.9784 85.3231C39.9784 85.3231 35.7925 84.0026 36.2704 85.0223C36.7484 86.042 38.0544 86.2212 38.0544 86.2212L33.3164 86.4623H49.7964L46.0884 86.1018C46.0884 86.1018 49.9324 84.1839 48.9024 83.4032C47.8724 82.6224 45.6064 84.3034 45.6064 84.3034C45.6064 84.3034 49.5204 79.9877 48.7623 78.3685C48.0042 76.7493 44.6423 81.3061 44.6423 81.3061C44.6423 81.3061 47.3883 75.4907 46.8403 74.471C46.2923 73.4513 44.4404 78.0121 44.4404 78.0121Z" fill="white"/>
<path d="M44.9885 78.2307C43.4785 82.6906 43.4785 85.8527 43.4785 85.8527C43.4785 85.8527 45.2625 85.9206 47.1165 84.5487" stroke="#787878" stroke-linecap="round" stroke-linejoin="round"/>
<path d="M44.2345 80.6326C43.9232 79.2982 43.51 77.9897 42.9985 76.7186" stroke="#787878" stroke-linecap="round" stroke-linejoin="round"/>
<path d="M39.7725 78.0246L43.6164 83.7205C43.6164 83.7205 46.2244 81.5245 47.1184 80.2885" stroke="#787878" stroke-linecap="round" stroke-linejoin="round"/>
<path d="M43.5465 85.0924C43.5465 85.0924 39.4986 83.1725 37.8506 82.0745" stroke="#787878" stroke-linecap="round" stroke-linejoin="round"/>
<path d="M15.4499 74.7058C16.011 76.0896 16.2891 77.5718 16.2679 79.0649C16.2467 80.558 15.9265 82.0317 15.3263 83.399L14.0511 86.283C14.0251 86.3418 14.0058 86.4033 13.9935 86.4664H15.18L16.21 84.1159C16.9058 82.5305 17.277 80.8219 17.3018 79.0907C17.3266 77.3595 17.0044 75.641 16.3542 74.0363L14.0347 68.3384C13.9589 68.1511 13.9302 67.9481 13.9511 67.7472C13.9719 67.5463 14.0417 67.3535 14.1543 67.1858C14.267 67.0181 14.419 66.8806 14.597 66.7852C14.7751 66.6899 14.9739 66.6396 15.1759 66.6389H20.4742C20.9624 66.6389 21.36 67.1456 21.36 66.6574C21.3595 66.4226 21.266 66.1977 21.1 66.0317C20.934 65.8657 20.709 65.7722 20.4742 65.7716H15.9051C15.4121 65.771 14.9266 65.8919 14.4915 66.1237C14.0564 66.3554 13.6851 66.6909 13.4105 67.1003C12.8502 67.9243 12.743 68.0788 13.1221 69.0079L15.4499 74.7058Z" fill="#A3A3A3"/>
<path d="M20.4739 61.0132H19.7715V86.4006H20.4739V61.0132Z" fill="#A3A3A3"/>
<path d="M71.0701 61.0132H70.3677V86.4006H71.0701V61.0132Z" fill="#A3A3A3"/>
<path d="M70.6762 59.2579H19.4214V62.9433H70.6762V59.2579Z" fill="#BDBDBD"/>
<path d="M70.6762 63.6458H19.4214V67.3311H70.6762V63.6458Z" fill="#BDBDBD"/>
<path d="M70.6784 72.2484H15.627V73.4762H70.6784V72.2484Z" fill="#BDBDBD"/>
<path d="M70.6764 72.2484H61.9214V73.4762H70.6764V72.2484Z" fill="#878787"/>
<path d="M63.1122 68.3384C63.0364 68.1509 63.0077 67.9478 63.0287 67.7467C63.0496 67.5456 63.1196 67.3527 63.2325 67.185C63.3453 67.0172 63.4976 66.8797 63.676 66.7845C63.8543 66.6893 64.0533 66.6393 64.2555 66.6389H70.6745V65.7716H64.9827C64.4897 65.7712 64.0042 65.8922 63.5691 66.1239C63.1341 66.3557 62.7627 66.691 62.488 67.1003C61.9298 67.9243 61.8206 68.0788 62.1996 69.0079L64.5233 74.7058C65.085 76.0895 65.3635 77.5718 65.3422 79.065C65.321 80.5581 65.0005 82.0319 64.3997 83.399L63.1246 86.283C63.1001 86.3422 63.0815 86.4036 63.0689 86.4664H64.2534L65.2834 84.1159C65.9797 82.5307 66.3512 80.8219 66.3759 79.0907C66.4007 77.3595 66.0782 75.6408 65.4276 74.0363L63.1122 68.3384Z" fill="#A3A3A3"/>
<path d="M90.1084 23.8796C89.1423 23.3523 88.7014 23.791 88.3492 23.3523C87.9969 22.9135 89.3174 21.7681 86.6785 20.6248C86.6785 20.6248 86.5014 18.1528 82.8943 18.0725C79.2872 17.9921 80.2554 20.5445 79.2872 21.1625C78.319 21.7805 78.0512 20.8102 77.0871 21.4262C76.1231 22.0421 76.5598 23.2802 75.7667 23.4491C74.9736 23.618 73.9127 22.658 72.9527 23.274C71.9928 23.8899 71.9845 24.4173 71.5437 24.4173C71.1028 24.4173 70.2253 24.065 69.6897 24.4173C69.1541 24.7695 68.5464 25.2104 68.5464 25.2104H90.8129C90.8129 25.2104 91.0766 24.407 90.1084 23.8796Z" fill="#20C0E8"/>
<g opacity="0.5">
<path opacity="0.5" d="M90.1084 23.8796C89.1423 23.3523 88.7014 23.791 88.3492 23.3523C87.9969 22.9135 89.3174 21.7681 86.6785 20.6248C86.6785 20.6248 86.5014 18.1528 82.8943 18.0725C79.2872 17.9921 80.2554 20.5445 79.2872 21.1625C78.319 21.7805 78.0512 20.8102 77.0871 21.4262C76.1231 22.0421 76.5598 23.2802 75.7667 23.4491C74.9736 23.618 73.9127 22.658 72.9527 23.274C71.9928 23.8899 71.9845 24.4173 71.5437 24.4173C71.1028 24.4173 70.2253 24.065 69.6897 24.4173C69.1541 24.7695 68.5464 25.2104 68.5464 25.2104H90.8129C90.8129 25.2104 91.0766 24.407 90.1084 23.8796Z" fill="white"/>
</g>
<path d="M73.7087 38.3162C73.1175 37.9948 72.8476 38.2626 72.6313 37.9948C72.415 37.727 73.2246 37.0245 71.6013 36.3262C71.6013 36.3262 71.4942 34.8183 69.2859 34.7647C67.0775 34.7112 67.6708 36.2706 67.0796 36.6476C66.4884 37.0245 66.3256 36.4416 65.7324 36.8103C65.1391 37.179 65.4089 37.9412 64.9248 38.0463C64.4407 38.1514 63.7939 37.5622 63.2027 37.9392C62.6115 38.3162 62.6094 38.6375 62.3416 38.6375C62.0738 38.6375 61.5341 38.4315 61.2107 38.6375C60.8872 38.8435 60.5103 39.1237 60.5103 39.1237H74.1392C74.1392 39.1237 74.302 38.6334 73.7087 38.3162Z" fill="#20C0E8"/>
<g opacity="0.5">
<path opacity="0.5" d="M73.7087 38.3162C73.1175 37.9948 72.8476 38.2626 72.6313 37.9948C72.415 37.727 73.2246 37.0245 71.6013 36.3262C71.6013 36.3262 71.4942 34.8183 69.2859 34.7647C67.0775 34.7112 67.6708 36.2706 67.0796 36.6476C66.4884 37.0245 66.3256 36.4416 65.7324 36.8103C65.1391 37.179 65.4089 37.9412 64.9248 38.0463C64.4407 38.1514 63.7939 37.5622 63.2027 37.9392C62.6115 38.3162 62.6094 38.6375 62.3416 38.6375C62.0738 38.6375 61.5341 38.4315 61.2107 38.6375C60.8872 38.8435 60.5103 39.1237 60.5103 39.1237H74.1392C74.1392 39.1237 74.302 38.6334 73.7087 38.3162Z" fill="white"/>
</g>
<path d="M46.385 50.0455C46.385 50.0455 46.076 53.29 47.106 55.867C48.136 58.4441 48.342 59.369 48.6016 60.6051C48.791 61.6235 48.843 62.6628 48.7561 63.6951C48.7046 64.0061 48.3441 64.0061 48.1896 63.6951C48.0351 63.384 47.518 63.0771 47.3656 62.3561C47.2705 61.8296 47.2359 61.2939 47.2626 60.7596C47.2626 60.7596 46.3871 57.513 45.3056 55.2964C44.2241 53.0799 44.119 51.4319 44.531 50.6594C44.943 49.8869 45.8185 49.2709 46.385 50.0455Z" fill="white" stroke="#263238" stroke-linecap="round" stroke-linejoin="round"/>
<path d="M41.1671 35.7574C41.1671 35.7574 40.8972 37.3044 39.8919 39.7002C38.8866 42.096 38.2295 42.5986 38.2295 43.9129C38.2295 45.2272 42.057 46.5786 45.1861 46.5023C48.3153 46.4261 48.511 44.2219 47.8641 42.6378C47.2173 41.0536 46.589 41.1298 46.5107 39.3129C46.4915 37.9796 46.5949 36.6474 46.8197 35.333L41.1671 35.7574Z" fill="#263238" stroke="#263238" stroke-linecap="round" stroke-linejoin="round"/>
<path d="M41.6121 36.841C41.6121 36.841 41.266 36.1448 41.0333 36.6083C40.8005 37.0718 40.9179 37.7289 41.1878 38.1533C41.2727 38.2784 41.3884 38.3797 41.5236 38.4475C41.6588 38.5153 41.8091 38.5473 41.9603 38.5405C41.9603 38.5405 41.7234 37.6135 41.6121 36.841Z" fill="white" stroke="#263238" stroke-linecap="round" stroke-linejoin="round"/>
<path d="M46.6936 36.9563C46.6936 36.9563 47.2354 36.6473 47.1571 37.3807C47.0788 38.114 46.5391 38.8494 46.3063 38.8886C46.0736 38.9277 45.9973 38.5013 46.0756 38.3859C46.1539 38.2706 46.6936 36.9563 46.6936 36.9563Z" fill="white" stroke="#263238" stroke-linecap="round" stroke-linejoin="round"/>
<path d="M37.9204 61.5754C37.9204 61.5754 37.9204 61.6414 37.9204 61.767C37.9204 62.385 37.9204 64.3976 38.1264 66.676C38.3592 69.4199 38.5137 70.4643 38.5137 70.4643C38.5137 70.4643 35.8068 72.4728 34.9952 74.057C34.1835 75.6411 32.896 78.28 32.1627 79.4295C31.4293 80.5789 29.2251 81.782 29.1098 82.1342C28.9944 82.4865 29.4579 82.4453 29.8431 83.7967C30.2283 85.148 30.3066 85.8072 31.0791 86.1554C31.8516 86.5035 33.3204 86.2707 33.203 85.8834C33.0856 85.4962 32.3934 85.3437 32.3934 84.9173C32.3934 84.4909 32.4305 82.8305 32.4305 82.2517C32.4305 81.6728 33.203 80.8982 33.514 80.4739C33.8251 80.0495 37.7638 75.9893 39.5045 74.0199C41.2452 72.0505 41.4739 71.1215 41.7458 70.3861C42.0177 69.6506 42.8273 63.1987 42.9035 63.0813C42.9797 62.9639 37.9183 61.6393 37.9183 61.6393" fill="white"/>
<path d="M37.9204 61.5754C37.9204 61.5754 37.9204 61.6414 37.9204 61.767C37.9204 62.385 37.9204 64.3976 38.1264 66.676C38.3592 69.4199 38.5137 70.4643 38.5137 70.4643C38.5137 70.4643 35.8068 72.4728 34.9952 74.057C34.1835 75.6411 32.896 78.28 32.1627 79.4295C31.4293 80.5789 29.2251 81.782 29.1098 82.1342C28.9944 82.4865 29.4579 82.4453 29.8431 83.7967C30.2283 85.148 30.3066 85.8072 31.0791 86.1554C31.8516 86.5035 33.3204 86.2707 33.203 85.8834C33.0856 85.4962 32.3934 85.3437 32.3934 84.9173C32.3934 84.4909 32.4305 82.8305 32.4305 82.2517C32.4305 81.6728 33.203 80.8982 33.514 80.4739C33.8251 80.0495 37.7638 75.9893 39.5045 74.0199C41.2452 72.0505 41.4739 71.1215 41.7458 70.3861C42.0177 69.6506 42.8273 63.1987 42.9035 63.0813C42.9797 62.9639 37.9183 61.6393 37.9183 61.6393" stroke="#263238" stroke-linecap="round" stroke-linejoin="round"/>
<path d="M33.205 85.8834C33.0897 85.4981 32.3954 85.3436 32.3954 84.9172C32.3954 84.4908 32.4325 82.8304 32.4325 82.2516C32.4334 82.2073 32.4382 82.1632 32.4469 82.1197C32.3259 82.1162 32.2048 82.121 32.0844 82.1342C31.4664 82.2124 31.2727 82.8696 31.2727 82.8696L30.6053 80.9352C29.8699 81.4935 29.1736 81.9426 29.1098 82.1342C28.9944 82.4823 29.4579 82.4452 29.8431 83.7966C30.2283 85.1479 30.3066 85.8071 31.0791 86.1553C31.8516 86.5034 33.3224 86.2706 33.205 85.8834Z" fill="#20C0E8" stroke="#263238" stroke-linecap="round" stroke-linejoin="round"/>
<path d="M31.0812 86.1552C31.7383 86.4498 32.9002 86.3262 33.1597 86.044C30.5991 86.3344 30.7413 84.7936 30.3066 83.5267C30.1009 82.9169 29.772 82.356 29.3405 81.8787C29.246 81.9452 29.1672 82.0317 29.1098 82.132C28.9944 82.4802 29.4579 82.4431 29.8431 83.7945C30.2283 85.1458 30.3066 85.8071 31.0812 86.1552Z" fill="white" stroke="#263238" stroke-linecap="round" stroke-linejoin="round"/>
<path d="M43.7954 63.0051C43.7954 63.0051 45.9069 68.5671 46.4878 69.9988C47.0687 71.4305 46.9122 70.8887 46.7577 72.6665C46.6032 74.4443 47.3757 77.3036 48.381 78.8877C49.3863 80.4718 50.8159 82.1734 51.164 83.1395C51.5122 84.1057 51.782 85.3417 52.091 85.4982C52.4 85.6548 52.9418 85.5353 53.5207 85.1872C54.0995 84.839 53.7535 84.4538 55.1069 84.3385C56.4603 84.2231 57.1154 82.5978 57.309 82.1734C57.5027 81.749 57.0762 81.7099 56.5736 81.8644C56.071 82.0189 54.3323 82.5978 53.2117 82.5607C52.091 82.5236 51.4339 79.3141 50.855 76.4528C50.4014 74.1699 50.104 71.8587 49.9651 69.5353C49.8498 67.8358 49.207 63.6993 48.278 61.421L43.7954 63.0051Z" fill="white" stroke="#263238" stroke-linecap="round" stroke-linejoin="round"/>
<path d="M56.5736 81.8643C56.073 82.0188 54.3323 82.5976 53.2117 82.5606C53.1532 82.5581 53.0955 82.5462 53.0407 82.5255C53.0435 82.563 53.049 82.6002 53.0572 82.6368C53.1725 83.1786 53.5598 83.4484 53.6752 83.4093C52.9432 83.6652 52.1819 83.8279 51.4092 83.8934C51.6481 84.6556 51.8583 85.3807 52.089 85.4981C52.398 85.6526 52.9398 85.5352 53.5186 85.1871C54.0975 84.8389 53.7514 84.4537 55.1048 84.3383C56.4582 84.223 57.1133 82.5976 57.3069 82.1733C57.5006 81.7489 57.0762 81.7098 56.5736 81.8643Z" fill="#20C0E8" stroke="#263238" stroke-linecap="round" stroke-linejoin="round"/>
<path d="M57.3092 82.1732C57.406 81.9672 57.3462 81.8436 57.1979 81.8004C56.8271 83.0178 55.7168 83.7347 55.107 83.951C54.4499 84.1838 54.3716 83.9901 53.5208 84.6864C53.0442 85.046 52.4542 85.2222 51.8584 85.1829C51.9035 85.3084 51.9844 85.418 52.0912 85.4981C52.4002 85.6526 52.942 85.5351 53.5208 85.187C54.0997 84.8389 53.7536 84.4536 55.107 84.3383C56.4604 84.2229 57.1155 82.6058 57.3092 82.1732Z" fill="white" stroke="#263238" stroke-linecap="round" stroke-linejoin="round"/>
<path d="M38.7281 56.1247L37.2593 61.767C37.2593 61.767 37.9556 62.1934 39.7313 62.4242C41.507 62.6549 43.1715 62.9659 43.1715 62.9659L48.4265 61.0337L46.9969 57.3257L38.7281 56.1247Z" fill="#263238" stroke="#263238" stroke-linecap="round" stroke-linejoin="round"/>
<path d="M42.2874 38.8104C42.2874 38.8104 42.5202 40.8971 42.1721 41.6326C41.8239 42.368 41.0123 42.2114 39.5064 42.6378C38.0006 43.0643 37.1869 44.3765 37.3414 47.2358C37.4959 50.0951 39.0038 53.9988 39.0038 54.5797C39.0038 55.1606 38.3858 57.7933 38.1139 58.2115C37.8832 58.5596 39.7619 59.6638 43.2165 59.4866C47.7485 59.2559 47.4168 58.3309 47.3118 57.9807C47.1964 57.5935 45.9975 54.695 45.843 53.2263C45.7471 52.4311 45.7347 51.6282 45.8059 50.8305C45.8059 50.8305 47.1573 50.058 47.2356 48.8982C47.3138 47.7384 46.7721 46.8876 46.6938 46.1543C46.6155 45.4209 46.5001 44.0283 46.0366 43.4103C45.5731 42.7923 45.0314 42.7532 44.7615 42.1352C44.4916 41.5172 44.8006 39.931 44.8006 39.931L42.2874 38.8104Z" fill="#20C0E8" stroke="#263238" stroke-linecap="round" stroke-linejoin="round"/>
<path d="M40.5552 50.4554C40.5552 50.4554 41.7912 51.026 43.6926 50.3607" stroke="#263238" stroke-linecap="round" stroke-linejoin="round"/>
<path d="M40.3078 44.364C40.3078 44.364 40.0462 43.093 38.5568 43.2083C37.0674 43.3237 35.6378 47.0585 34.8138 47.8681C33.9898 48.6776 32.5704 49.8395 32.6528 50.8056C32.7352 51.7718 34.0949 52.1508 34.8056 51.1311C35.5163 50.1114 37.4032 48.1338 37.4032 48.1338C37.4032 48.1338 40.899 48.5561 40.3078 44.364Z" fill="white" stroke="#263238" stroke-linecap="round" stroke-linejoin="round"/>
<path d="M37.4077 48.1339L39.066 46.4323" stroke="#263238" stroke-linecap="round" stroke-linejoin="round"/>
<path d="M43.5258 45.5754C44.8669 45.5754 45.0811 43.6452 45.11 42.6008C44.9595 42.4746 44.8403 42.3152 44.7618 42.1352C44.492 41.5172 44.801 39.931 44.801 39.931L42.2878 38.8104C42.2878 38.8104 42.5205 40.8971 42.1724 41.6326C41.9273 42.1517 41.4473 42.2258 40.6562 42.3762C41.1094 43.4165 42.2054 45.5754 43.5258 45.5754Z" fill="white" stroke="#263238" stroke-linecap="round" stroke-linejoin="round"/>
<path d="M41.4058 35.8748C41.4058 35.8748 41.5211 37.8833 41.9455 39.1585C42.3698 40.4336 43.1444 41.2844 44.0714 41.169C44.9984 41.0537 46.6608 39.4675 46.8153 35.9119L41.4058 35.8748Z" fill="white" stroke="#263238" stroke-linecap="round" stroke-linejoin="round"/>
<path d="M41.1997 35.4876C41.1997 35.4876 41.7786 32.6654 42.0113 32.241C42.2441 31.8167 43.5193 31.623 43.8283 31.7775C44.1373 31.932 44.368 32.0865 44.5225 32.0865C44.677 32.0865 45.4515 31.623 45.8759 32.0474C46.3003 32.4717 47.1902 35.8749 47.1902 35.8749C47.1902 35.8749 46.9574 35.9511 44.7944 35.9511C43.5802 35.9682 42.3698 35.8122 41.1997 35.4876Z" fill="white" stroke="#263238" stroke-linecap="round" stroke-linejoin="round"/>
<path d="M46.7001 34.1238C44.8172 34.5358 42.4318 34.2804 41.4945 34.1547C41.3338 34.8613 41.2061 35.4876 41.2061 35.4876C42.3762 35.8122 43.5866 35.9682 44.8008 35.9511C46.9638 35.9511 47.1965 35.8748 47.1965 35.8748C47.1965 35.8748 46.9679 35.0199 46.7001 34.1238Z" fill="#263238" stroke="#263238" stroke-linecap="round" stroke-linejoin="round"/>
<path d="M41.0519 35.951L40.7471 37.3827C42.1077 37.1153 43.4286 36.675 44.6776 36.0726L41.0519 35.951Z" fill="#263238" stroke="#263238" stroke-linecap="round" stroke-linejoin="round"/>
<path d="M46.2305 36.1633L46.8093 37.047C46.8093 37.047 47.4479 36.5608 47.0153 36.1035C46.5827 35.6462 46.2305 36.1633 46.2305 36.1633Z" fill="#263238" stroke="#263238" stroke-linecap="round" stroke-linejoin="round"/>
<path d="M40.4337 35.6379C40.6205 35.7755 40.8295 35.88 41.0517 35.9469C41.3607 36.0252 46.8094 36.4104 47.6602 36.2559C48.1312 36.1867 48.5731 35.9861 48.9353 35.6771C48.9353 35.6771 44.4033 35.7162 42.5493 35.5226C40.6953 35.3289 39.9599 35.0962 40.0361 35.2507C40.1475 35.3998 40.2816 35.5305 40.4337 35.6379Z" fill="white" stroke="#263238" stroke-linecap="round" stroke-linejoin="round"/>
<path d="M43.9275 36.9976L43.8842 37.4096C43.8796 37.4644 43.8641 37.5176 43.8385 37.5663C43.813 37.615 43.778 37.6581 43.7356 37.693C43.6932 37.7279 43.6442 37.754 43.5915 37.7697C43.5388 37.7855 43.4836 37.7905 43.4289 37.7845L41.9869 37.6383C41.8802 37.6293 41.7811 37.5791 41.7108 37.4984C41.6404 37.4176 41.6042 37.3126 41.61 37.2057L41.6203 36.8081C41.6199 36.7501 41.6319 36.6928 41.6552 36.6397C41.6786 36.5867 41.7128 36.5392 41.7558 36.5003C41.7988 36.4614 41.8495 36.4321 41.9045 36.4141C41.9596 36.3961 42.0179 36.39 42.0755 36.3961L43.5546 36.5382C43.6643 36.5512 43.7647 36.6064 43.8343 36.6922C43.9039 36.778 43.9373 36.8876 43.9275 36.9976Z" fill="#263238" stroke="#263238" stroke-linecap="round" stroke-linejoin="round"/>
<path d="M46.7004 37.2529L46.651 37.6546C46.6456 37.7094 46.6294 37.7625 46.6031 37.8109C46.5768 37.8593 46.5412 37.902 46.4981 37.9364C46.4551 37.9707 46.4056 37.9961 46.3526 38.0111C46.2996 38.026 46.2442 38.0302 46.1895 38.0233L44.7476 37.8564C44.6422 37.8422 44.546 37.789 44.4778 37.7075C44.4095 37.6259 44.3743 37.5218 44.3788 37.4156L44.3953 37.0201C44.3949 36.9616 44.4069 36.9036 44.4306 36.8501C44.4544 36.7966 44.4892 36.7488 44.5329 36.7098C44.5765 36.6708 44.628 36.6416 44.6838 36.624C44.7397 36.6065 44.7986 36.6011 44.8567 36.6081L46.3337 36.7729C46.3896 36.7797 46.4435 36.7976 46.4924 36.8256C46.5412 36.8535 46.5839 36.891 46.6181 36.9357C46.6523 36.9804 46.6771 37.0315 46.6913 37.086C46.7054 37.1404 46.7085 37.1972 46.7004 37.2529Z" fill="#263238" stroke="#263238" stroke-linecap="round" stroke-linejoin="round"/>
<path d="M44.29 37.6259C44.2457 37.7044 44.22 37.792 44.215 37.8821C44.21 37.9721 44.2258 38.062 44.2612 38.145C44.3827 38.419 44.3518 38.9051 44.1087 38.9051C43.8656 38.9051 43.7729 38.6002 43.7729 38.6002" stroke="#263238" stroke-linecap="round" stroke-linejoin="round"/>
<path d="M43.3672 39.2098C43.3672 39.2098 43.7627 39.5765 44.5537 39.3932" stroke="#263238" stroke-linecap="round" stroke-linejoin="round"/>
<path d="M43.6719 36.5401L44.7719 36.6287" stroke="#263238" stroke-linecap="round" stroke-linejoin="round"/>
<path d="M37.1872 60.8792L37.0327 62.0781L43.2539 63.4686L43.293 62.4242L37.1872 60.8792Z" fill="white" stroke="#263238" stroke-linecap="round" stroke-linejoin="round"/>
<path d="M43.293 62.424L43.5257 63.5838L48.82 61.6124L48.3956 60.5309L43.293 62.424Z" fill="white" stroke="#263238" stroke-linecap="round" stroke-linejoin="round"/>
<path d="M43.293 62.4241L43.602 60.5701" stroke="#263238" stroke-linecap="round" stroke-linejoin="round"/>
<path d="M83.2507 74.3536C83.2507 74.3536 84.4867 78.9906 85.1047 80.3441C85.7227 81.6975 86.4973 82.8552 86.3407 83.397C86.1842 83.9388 85.5662 85.0594 85.2572 84.9811C84.9482 84.9028 84.6392 84.5176 84.7175 83.9388C84.7957 83.3599 85.4117 82.9726 85.2963 82.47C85.181 81.9673 84.2148 81.5801 82.9397 79.8806C81.6645 78.1811 80.9683 75.7441 80.9683 75.7441L83.2507 74.3536Z" fill="#263238" stroke="#263238" stroke-linecap="round" stroke-linejoin="round"/>
<path d="M84.909 79.8662C84.7555 79.896 84.597 79.8875 84.4476 79.8415C83.5989 79.5716 82.8635 77.9875 82.2846 77.561C82.0395 77.3818 81.8499 77.5137 81.7119 77.7238C82.0443 78.4855 82.4587 79.2087 82.9479 79.8806C84.2231 81.5801 85.1892 81.9674 85.3046 82.47C85.4199 82.9727 84.8019 83.3579 84.7257 83.9388C84.6495 84.5197 84.9564 84.9049 85.2654 84.9812C85.5744 85.0574 86.1945 83.9388 86.349 83.397C86.5035 82.8552 85.731 81.6975 85.113 80.3441C85.045 80.2123 84.9791 80.0516 84.909 79.8662Z" fill="white" stroke="#263238" stroke-linecap="round" stroke-linejoin="round"/>
<path d="M73.1447 75.5133C73.1447 75.5133 72.8357 77.87 71.7542 79.0689C70.6727 80.2678 68.4685 81.3884 68.0462 82.3154C67.6239 83.2424 67.7743 85.0985 67.8896 85.2839C68.005 85.4693 68.7404 85.5558 68.7404 86.0955C68.7404 86.3283 68.6621 86.4828 67.8113 86.4066C66.9605 86.3304 66.9626 86.2892 66.8452 85.2839C66.7278 84.2786 66.6907 81.8849 67.2716 81.1495C67.8525 80.4141 68.7775 79.0236 68.9711 77.3241C69.1648 75.6246 70.0547 74.1166 71.8325 74.3082C73.6102 74.4998 73.1447 75.5133 73.1447 75.5133Z" fill="white" stroke="#263238" stroke-linecap="round" stroke-linejoin="round"/>
<path d="M84.6804 60.943C84.6804 60.943 84.8741 59.0108 85.0286 58.5473C85.1831 58.0838 85.8793 59.9378 85.9947 60.7885C86.1101 61.6393 85.1048 61.3303 84.8741 61.2912C84.6433 61.252 84.6804 60.943 84.6804 60.943Z" fill="#263238" stroke="#263238" stroke-linecap="round" stroke-linejoin="round"/>
<path d="M78.146 74.881C78.146 74.881 78.2243 76.8133 78.146 79.6726C78.0677 82.5319 78.5333 83.6134 78.7269 84.116C78.9205 84.6187 79.4211 86.0874 79.6148 86.2811C79.8084 86.4747 80.7745 86.6292 80.929 86.2811C81.0835 85.9329 81.1618 85.6631 80.7745 85.5086C80.3873 85.3541 80.1957 85.3541 80.1174 85.2367C80.0391 85.1192 79.4211 83.4218 79.7693 82.3012C80.1174 81.1805 81.4317 75.3816 81.4317 75.2271" fill="#263238"/>
<path d="M78.146 74.881C78.146 74.881 78.2243 76.8133 78.146 79.6726C78.0677 82.5319 78.5333 83.6134 78.7269 84.116C78.9205 84.6187 79.4211 86.0874 79.6148 86.2811C79.8084 86.4747 80.7745 86.6292 80.929 86.2811C81.0835 85.9329 81.1618 85.6631 80.7745 85.5086C80.3873 85.3541 80.1957 85.3541 80.1174 85.2367C80.0391 85.1192 79.4211 83.4218 79.7693 82.3012C80.1174 81.1805 81.4317 75.3816 81.4317 75.2271" stroke="#263238" stroke-linecap="round" stroke-linejoin="round"/>
<path d="M80.7749 85.5084C80.3876 85.3539 80.1961 85.3539 80.1178 85.2365C80.0395 85.119 79.4215 83.4216 79.7696 82.301C79.8005 82.2 79.8397 82.062 79.885 81.889C79.6727 81.8975 79.4653 81.8237 79.3061 81.683C78.6099 81.0649 79.3453 78.9782 78.8035 77.5877C78.5975 77.0356 78.3688 76.8976 78.1855 76.9305C78.1855 77.6845 78.1855 78.6156 78.1505 79.6744C78.0743 82.5337 78.5378 83.6152 78.7314 84.1179C78.925 84.6205 79.4256 86.0893 79.6193 86.2829C79.8129 86.4766 80.779 86.6311 80.9335 86.2829C81.088 85.9348 81.1643 85.6629 80.7749 85.5084Z" fill="white" stroke="#263238" stroke-linecap="round" stroke-linejoin="round"/>
<path d="M84.4104 60.8277C84.4104 60.8277 82.7089 58.3145 82.5935 58.8562C82.4781 59.398 82.8634 61.9874 82.8634 61.9874C82.8634 61.9874 82.7871 64.6531 80.9311 66.2764C79.075 67.8996 75.8305 69.216 72.7776 69.2901C69.7247 69.3643 68.4516 69.4446 67.6276 69.0985C66.8036 68.7525 66.1217 68.5176 66.198 69.0594C66.2742 69.6012 67.0879 70.4108 67.0879 70.4108C67.0879 70.4108 67.2032 74.2774 65.9672 76.8277C64.7312 79.378 63.8599 79.4171 63.6539 80.5769C63.4479 81.7367 63.4211 85.7928 63.6147 86.1389C63.8083 86.4849 64.6983 86.6024 65.0073 86.3325C65.3163 86.0626 65.1989 85.6362 64.9681 85.2881C64.7374 84.9399 64.5417 84.9029 64.5417 84.6309C64.5417 84.359 64.7354 82.0807 65.1226 81.5018C65.5099 80.923 68.9089 78.0225 69.838 76.8648C70.767 75.707 70.9195 75.1241 70.9195 75.1241C70.9195 75.1241 74.1269 75.3568 76.1375 75.9357C78.148 76.5146 80.002 77.5198 81.9343 76.2447C83.8666 74.9696 84.9089 73.1547 84.9089 71.0288C84.9089 68.9028 84.8719 67.2013 84.9481 66.3897C85.0243 65.578 84.9872 65.3473 85.529 65.1537C86.0708 64.96 86.9586 65.3473 88.1555 65.1145C89.3524 64.8817 89.8962 63.5695 89.8962 63.1822C89.8962 62.795 89.2782 62.9886 88.2729 62.5251C87.2676 62.0616 86.9586 61.4045 86.147 61.0563C85.5939 60.8456 84.9992 60.7672 84.4104 60.8277Z" fill="#263238" stroke="#263238" stroke-linecap="round" stroke-linejoin="round"/>
<path d="M89.8965 63.1719C89.707 63.3038 89.3567 63.4171 88.3906 63.4171C87.0001 63.4171 86.1885 63.9568 85.3768 63.8806C84.5652 63.8044 83.9451 62.5663 83.4816 63.8414C83.187 64.6551 84.2438 65.2649 85.0493 65.5986C85.1111 65.3803 85.2326 65.2608 85.5313 65.1557C86.071 64.9621 86.961 65.3494 88.1578 65.1166C89.3547 64.8838 89.8985 63.5716 89.8985 63.1843C89.8985 63.1802 89.8965 63.1761 89.8965 63.1719Z" fill="white" stroke="#263238" stroke-linecap="round" stroke-linejoin="round"/>
<path d="M84.9112 71.0307C84.9112 70.2314 84.9112 69.494 84.9112 68.8409C84.6528 69.6183 84.2634 70.3456 83.7597 70.9916C82.0272 73.2782 80.7006 75.3773 82.2826 76.0098C83.9904 74.7511 84.9112 73.0269 84.9112 71.0307Z" fill="white" stroke="#263238" stroke-linecap="round" stroke-linejoin="round"/>
<path d="M86.0337 62.2964C86.0342 62.358 86.0163 62.4184 85.9823 62.4698C85.9484 62.5212 85.9 62.5614 85.8432 62.5853C85.7863 62.6091 85.7237 62.6156 85.6633 62.6038C85.6028 62.592 85.5472 62.5626 85.5035 62.5192C85.4598 62.4757 85.4299 62.4203 85.4178 62.3599C85.4056 62.2995 85.4116 62.2369 85.4351 62.1799C85.4586 62.123 85.4985 62.0743 85.5497 62.04C85.6008 62.0057 85.6611 61.9874 85.7227 61.9874C85.8048 61.9874 85.8836 62.0199 85.9419 62.0778C86.0002 62.1357 86.0332 62.2143 86.0337 62.2964Z" fill="white" stroke="#263238" stroke-linecap="round" stroke-linejoin="round"/>
<path d="M82.8637 61.9875C82.8637 61.9875 82.8637 62.076 82.8451 62.2305C83.1253 62.3541 83.3931 62.0245 83.6362 61.4848C84.0626 60.5558 82.5938 58.8563 82.5938 58.8563C82.4785 59.398 82.8637 61.9875 82.8637 61.9875Z" fill="white" stroke="#263238" stroke-linecap="round" stroke-linejoin="round"/>
<path d="M89.5504 62.8752C89.5504 62.8752 89.1631 62.7599 89.1631 63.2625C89.1631 63.7652 89.4721 64.1504 89.744 63.8805C90.0159 63.6107 90.0901 62.9535 89.5504 62.8752Z" fill="#263238" stroke="#263238" stroke-linecap="round" stroke-linejoin="round"/>
<path d="M68.3917 78.354C67.978 78.4558 67.5547 78.5138 67.1289 78.527C66.3708 78.527 65.8455 78.0347 65.5448 77.6371C64.5312 79.4025 63.8226 79.5549 63.6516 80.5767C63.458 81.7344 63.4188 85.7926 63.6125 86.1387C63.8061 86.4848 64.696 86.6022 65.005 86.3324C65.314 86.0625 65.1966 85.6361 64.9659 85.2879C64.7352 84.9398 64.5395 84.9027 64.5395 84.6308C64.5395 84.3589 64.7331 82.0805 65.1204 81.5017C65.3882 81.1061 67.065 79.6229 68.3917 78.354Z" fill="white" stroke="#263238" stroke-linecap="round" stroke-linejoin="round"/>
<path d="M85.0554 67.4773L80.921 66.0456C80.8393 66.0179 80.7719 65.959 80.7333 65.8819C80.6947 65.8048 80.6882 65.7155 80.715 65.6336C80.7431 65.5522 80.802 65.4852 80.879 65.4467C80.956 65.4082 81.045 65.4013 81.127 65.4276L85.2593 66.8696C85.3403 66.8982 85.4071 66.9571 85.4455 67.034C85.4839 67.1108 85.491 67.1996 85.4653 67.2816C85.4351 67.3606 85.3758 67.4249 85.2995 67.4613C85.2232 67.4978 85.1358 67.5035 85.0554 67.4773Z" fill="white" stroke="#263238" stroke-linecap="round" stroke-linejoin="round"/>
<path d="M35.3827 50.882L36.0481 51.9821C36.9746 52.6195 37.7943 53.3996 38.4768 54.2934C39.4595 55.653 40.5368 56.9261 41.1363 57.3834C41.7358 57.8407 43.0748 58.0488 43.1963 58.3392C43.3178 58.6297 42.8482 59.8121 42.5886 60.1314C42.329 60.4507 41.4041 60.2756 40.8829 59.8121C40.3617 59.3486 40.2175 58.5988 39.6964 58.2795C39.1752 57.9602 36.4622 55.8919 35.6134 55.208C35.1798 54.8561 34.7671 54.4792 34.3774 54.0791L35.3827 50.882Z" fill="white" stroke="#263238" stroke-linecap="round" stroke-linejoin="round"/>
<path d="M34.7069 50.8573C35.2939 50.7686 35.8894 50.7513 36.4805 50.8058C37.2613 50.9108 38.5653 52.3714 38.7218 52.839C38.8784 53.3066 38.8784 54.248 38.7218 54.3531C38.5653 54.4581 38.4087 53.7783 38.4087 53.7783C38.4087 53.7783 37.3148 53.8834 36.8452 53.3087C36.5286 52.902 36.261 52.4595 36.0479 51.9903L34.6533 52.324L34.7069 50.8573Z" fill="white" stroke="#263238" stroke-linecap="round" stroke-linejoin="round"/>
<path d="M31.5941 37.5619C31.5941 37.5619 31.5653 39.8156 31.2769 40.481C30.9885 41.1463 30.6115 41.6675 29.8349 41.8694C29.0583 42.0713 26.885 42.1578 25.9889 42.9674C25.0928 43.777 26.5677 48.4326 27.0312 50.4864C27.4947 52.5402 27.3979 53.3539 27.1713 54.7959C26.9447 56.2379 27.1713 56.7344 28.2404 57.1093C29.3096 57.4842 31.6518 57.8035 32.9537 57.6305C34.2556 57.4574 34.6882 57.5439 34.8324 56.5592C34.9766 55.5746 35.7018 52.0499 35.8748 49.4461C36.0478 46.8422 36.5402 45.9441 35.9613 44.7081C35.3825 43.4721 33.7921 42.8005 33.6479 42.2793C33.5037 41.7582 33.9075 39.8506 33.9075 39.8506C33.9075 39.8506 34.4575 38.4354 33.7345 37.597C33.0114 36.7585 31.9711 36.4907 31.5941 37.5619Z" fill="white" stroke="#263238" stroke-linecap="round" stroke-linejoin="round"/>
<path d="M34.1426 42.8253C34.1137 43.7646 33.8521 45.0913 32.579 44.8482C30.966 44.5351 29.9566 42.5616 29.6621 41.9086C28.7742 42.0857 26.8234 42.2114 25.985 42.9674C25.0889 43.777 26.5638 48.4326 27.0273 50.4864C27.4908 52.5402 27.3981 53.3539 27.1715 54.7959C26.9449 56.2379 27.1715 56.7344 28.2407 57.1093C29.3098 57.4842 31.652 57.8035 32.9539 57.6305C34.2559 57.4575 34.6885 57.544 34.8327 56.5593C34.9769 55.5746 35.702 52.05 35.875 49.4461C36.0481 46.8423 36.5404 45.9441 35.9615 44.7081C35.566 43.8532 34.6988 43.2743 34.1426 42.8253Z" fill="#20C0E8" stroke="#263238" stroke-linecap="round" stroke-linejoin="round"/>
<path d="M38.4213 36.3611C38.4213 36.8225 37.9722 37.6136 37.416 37.6136C36.8598 37.6136 36.4087 36.9956 36.4087 36.5341C36.4087 36.0727 36.8598 35.6978 37.416 35.6978C37.9722 35.6978 38.4213 35.8996 38.4213 36.3611Z" fill="#263238" stroke="#263238" stroke-linecap="round" stroke-linejoin="round"/>
<path d="M37.2612 35.1332C37.3292 35.2995 37.3292 35.486 37.2612 35.6523C37.1459 35.9139 37.2612 36.6638 37.3787 36.8677C37.4961 37.0716 37.9843 37.7638 37.7907 37.9369C37.597 38.1099 36.7792 38.1676 36.7792 38.1676C36.7792 38.1676 36.3672 40.2585 35.7925 40.8353C35.2177 41.4121 35.022 41.3894 34.1445 41.0681C33.0465 40.6561 32.5294 38.4869 32.5294 38.4869C32.2157 38.532 31.8955 38.4922 31.6024 38.3715C31.0833 38.1655 30.5333 37.3291 30.7063 36.8677C30.8794 36.4063 31.0545 36.3754 31.0545 36.3754L30.9391 35.7965C30.9391 35.7965 33.1351 35.0734 34.9005 34.9869C36.6659 34.9004 37.2612 35.1332 37.2612 35.1332Z" fill="white" stroke="#263238" stroke-linecap="round" stroke-linejoin="round"/>
<path d="M34.136 41.0681C35.0136 41.3895 35.2072 41.4142 35.784 40.8353C36.3608 40.2565 36.7708 38.1676 36.7708 38.1676C36.3835 38.1042 35.9866 38.1338 35.613 38.2542C35.1228 38.4602 34.8323 39.4119 34.8323 39.4119C34.8323 39.4119 34.169 39.1523 33.5036 38.2253C32.8382 37.2983 32.694 37.3004 32.6075 36.7833C32.521 36.2663 33.1555 36.4063 33.5036 35.8563C33.8517 35.3063 33.8785 35.193 33.8785 35.1044C33.8785 35.1044 33.8785 35.1044 33.8682 35.1044C32.8733 35.2659 31.8914 35.5 30.9307 35.8048L31.046 36.3837C31.1672 36.3201 31.3056 36.2969 31.4409 36.3177C31.5763 36.3385 31.7014 36.402 31.7979 36.499C32.1152 36.8472 32.3459 37.5126 32.4324 37.8586C32.4858 38.0668 32.5155 38.2804 32.521 38.4952C32.521 38.4952 33.038 40.6623 34.136 41.0681Z" fill="#263238" stroke="#263238" stroke-linecap="round" stroke-linejoin="round"/>
<path d="M36.3118 39.2738C36.3118 39.2738 35.6629 39.4263 35.5723 38.8618" stroke="white" stroke-linecap="round" stroke-linejoin="round"/>
<path d="M36.9234 36.3611C36.9234 36.8225 36.4722 37.4426 35.916 37.4426C35.3598 37.4426 34.9087 36.8246 34.9087 36.3611C34.9087 35.8976 35.3598 35.6978 35.916 35.6978C36.4722 35.6978 36.9234 35.8996 36.9234 36.3611Z" fill="#263238" stroke="#263238" stroke-linecap="round" stroke-linejoin="round"/>
<path d="M34.9089 36.2396L31.7983 36.4909" stroke="#263238" stroke-linecap="round" stroke-linejoin="round"/>
<path d="M36.874 36.1159H37.3169" stroke="#263238" stroke-linecap="round" stroke-linejoin="round"/>
<path d="M30.3232 35.3351C30.3232 35.3351 30.4386 32.5005 30.9598 32.0679C31.481 31.6353 34.7461 30.9391 35.3249 31.143C35.9038 31.3469 37.4653 34.5544 37.4653 34.5544L30.3521 35.5658L30.3232 35.3351Z" fill="white" stroke="#263238" stroke-linecap="round" stroke-linejoin="round"/>
<path d="M36.8905 33.4359C34.2475 33.3185 31.7405 33.8665 30.4036 34.2373C30.3438 34.8429 30.3232 35.3352 30.3232 35.3352L30.3521 35.566L37.4653 34.5545C37.4653 34.5545 37.2201 34.0539 36.8905 33.4359Z" fill="#263238" stroke="#263238" stroke-linecap="round" stroke-linejoin="round"/>
<path d="M29.3695 36.6351C29.3695 36.6351 30.9598 35.9429 33.6769 35.6236C36.3941 35.3043 38.3902 35.2487 38.3902 35.2487L38.8805 34.2352C38.8805 34.2352 37.146 34.0621 33.6481 34.5545C30.1502 35.0468 28.7041 35.7905 28.7041 35.7905L29.3695 36.6351Z" fill="white" stroke="#263238" stroke-linecap="round" stroke-linejoin="round"/>
<path d="M27.6924 42.2154C27.6924 42.2154 26.1886 42.1577 25.4078 42.9961C24.6271 43.8345 22.1695 51.267 21.7349 52.1343C21.3002 53.0015 21.9409 61.9646 22.0233 62.6588C22.1057 63.353 22.1407 64.7992 22.4579 65.1452C22.7752 65.4913 23.5271 66.1567 23.7887 66.0702C24.0503 65.9837 23.904 65.8971 23.7598 65.6582C23.5928 65.2856 23.5132 64.8797 23.5271 64.4716C23.5521 64.1245 23.6306 63.7833 23.7598 63.4602C23.7598 63.4602 23.8464 64.6735 23.9329 64.8486C24.0194 65.0237 24.279 65.1947 24.3078 64.7621C24.3366 64.3295 24.1636 64.587 24.4232 63.662C24.6827 62.7371 23.4117 61.9275 23.3932 60.5102C23.3746 59.093 24.0297 55.5951 24.0297 54.1242C24.0297 52.6534 23.8237 52.1302 23.8237 52.1302L27.5523 45.7977" fill="#20C0E8"/>
<path d="M27.6924 42.2154C27.6924 42.2154 26.1886 42.1577 25.4078 42.9961C24.6271 43.8345 22.1695 51.267 21.7349 52.1343C21.3002 53.0015 21.9409 61.9646 22.0233 62.6588C22.1057 63.353 22.1407 64.7992 22.4579 65.1452C22.7752 65.4913 23.5271 66.1567 23.7887 66.0702C24.0503 65.9837 23.904 65.8971 23.7598 65.6582C23.5928 65.2856 23.5132 64.8797 23.5271 64.4716C23.5521 64.1245 23.6306 63.7833 23.7598 63.4602C23.7598 63.4602 23.8464 64.6735 23.9329 64.8486C24.0194 65.0237 24.279 65.1947 24.3078 64.7621C24.3366 64.3295 24.1636 64.587 24.4232 63.662C24.6827 62.7371 23.4117 61.9275 23.3932 60.5102C23.3746 59.093 24.0297 55.5951 24.0297 54.1242C24.0297 52.6534 23.8237 52.1302 23.8237 52.1302L27.5523 45.7977" stroke="#263238" stroke-linecap="round" stroke-linejoin="round"/>
<path d="M23.4365 47.5696C22.6723 49.6296 21.9513 51.7019 21.735 52.1345C21.3024 53.0018 21.941 61.9649 22.0234 62.6591C22.1058 63.3533 22.1408 64.7994 22.458 65.1455C22.7753 65.4916 23.5272 66.157 23.7888 66.0704C24.0504 65.9839 23.9041 65.8974 23.7599 65.6584C23.5929 65.2858 23.5133 64.88 23.5272 64.4719C23.5522 64.1247 23.6307 63.7836 23.7599 63.4604C23.7599 63.4604 23.8465 64.6737 23.933 64.8488C24.0195 65.0239 24.2791 65.1949 24.3079 64.7623C24.3367 64.3297 24.1637 64.5872 24.4233 63.6623C24.6828 62.7374 23.4118 61.9278 23.3933 60.5105C23.3747 59.0932 24.0298 55.5953 24.0298 54.1245C24.0298 52.6537 23.8238 52.1304 23.8238 52.1304L25.8096 48.7582C25.1649 48.4245 24.141 47.9157 23.4365 47.5696Z" fill="white" stroke="#263238" stroke-linecap="round" stroke-linejoin="round"/>
<path d="M42.5654 58.71C42.5654 58.71 62.5722 65.9901 80.694 65.7676" stroke="#263238" stroke-linecap="round" stroke-linejoin="round"/>
<path d="M42.6686 58.1187C42.6686 58.1187 42.5532 59.536 42.3225 59.8244C42.0918 60.1128 41.859 60.2014 41.859 59.8821C41.859 59.5628 41.9167 58.8706 41.9167 58.8706C41.9167 58.8706 41.4264 59.363 41.1071 58.8418C40.7878 58.3206 40.8187 58.0899 40.8187 58.0899" stroke="#263238" stroke-linecap="round" stroke-linejoin="round"/>
<path d="M41.7725 58.9859C41.7725 58.9859 41.4264 59.8243 41.5129 60.2013" stroke="#263238" stroke-linecap="round" stroke-linejoin="round"/>
<path d="M42.0031 60.2879C42.0031 60.2879 42.0608 64.9435 41.7724 65.6439C41.484 66.3443 40.8186 66.4246 40.5879 65.615C40.3572 64.8055 41.7147 60.259 41.7147 60.259" stroke="#263238" stroke-linecap="round" stroke-linejoin="round"/>
<path d="M42.23 60.3167C42.23 60.3167 42.642 64.1338 42.3454 65.0876C42.0487 66.0414 41.4204 65.7818 41.4204 64.3645C41.4204 62.9473 41.853 60.3167 41.853 60.3167H42.23Z" stroke="#263238" stroke-linecap="round" stroke-linejoin="round"/>
<path d="M27.1426 55.6323C27.1426 55.6323 26.3619 56.3265 26.1126 58.7223C26.0191 59.4145 26.07 60.1185 26.2622 60.79C26.4543 61.4616 26.7836 62.086 27.2291 62.6239C27.3733 62.8546 28.8483 64.3296 28.8483 64.3296L30.179 70.489C30.179 70.489 27.258 72.6561 25.647 75.26C24.7324 76.7287 22.4087 78.4118 21.9164 78.6713C21.424 78.9309 21.3973 79.0833 21.0203 78.8773C20.6433 78.6713 19.6916 78.0389 19.43 78.5312C19.1683 79.0236 19.1704 80.4676 18.9397 80.8158C18.5994 81.2691 18.3983 81.8116 18.3608 82.3773C18.3031 83.158 18.2743 85.1809 18.5339 85.0944C18.7934 85.0079 19.7204 83.0983 20.9049 82.058C22.0894 81.0177 25.3586 78.556 26.6585 77.5775C27.9584 76.599 31.1411 75.0313 32.7025 73.4987C34.264 71.966 34.9294 70.868 34.9294 70.2027C34.9294 69.5373 34.7234 63.0895 34.7234 61.5506C34.7234 60.0118 34.8676 57.1258 34.8676 56.7797V56.172C34.8676 56.172 33.3659 56.7797 30.589 56.3162C27.8121 55.8527 27.1426 55.6323 27.1426 55.6323Z" fill="white" stroke="#263238" stroke-linecap="round" stroke-linejoin="round"/>
<path d="M30.5826 56.3265C27.8078 55.863 27.1424 55.6323 27.1424 55.6323C27.1424 55.6323 26.3617 56.3265 26.1124 58.7223C26.0189 59.4145 26.0698 60.1185 26.262 60.79C26.4541 61.4616 26.7834 62.086 27.2289 62.6239C27.3731 62.8546 28.8481 64.3296 28.8481 64.3296L29.3466 66.6368C30.2191 66.2819 31.1535 66.1042 32.0953 66.1141C33.0372 66.124 33.9676 66.3213 34.8324 66.6945C34.7768 64.6736 34.717 62.387 34.717 61.5445C34.717 60.0118 34.8612 57.1196 34.8612 56.7735V56.1658C34.8612 56.1658 33.3595 56.79 30.5826 56.3265Z" fill="#263238" stroke="#263238" stroke-linecap="round" stroke-linejoin="round"/>
<path d="M27.2866 61.7339C27.2866 61.7339 28.4711 65.5511 29.6639 67.5678C30.8566 69.5845 32.8445 71.3561 33.1659 72.4253C33.4872 73.4944 32.9351 75.2887 33.6582 77.1633C34.3813 79.0379 37.1602 83.265 37.4177 84.0457C37.6752 84.8265 38.1984 86.4168 38.5445 86.4456C38.8906 86.4745 43.229 83.7264 43.4885 83.4957C43.7481 83.265 43.1713 83.1785 42.7943 83.2362C42.4173 83.2938 39.4983 83.5534 39.2923 83.4957C39.0863 83.438 38.8288 82.888 38.6558 82.4554C38.4827 82.0228 37.0078 75.6018 36.227 73.4326C35.4463 71.2634 35.3309 68.6946 35.0137 67.4195C34.6964 66.1443 33.7406 62.389 32.2945 60.3928" fill="#263238"/>
<path d="M27.2866 61.7339C27.2866 61.7339 28.4711 65.5511 29.6639 67.5678C30.8566 69.5845 32.8445 71.3561 33.1659 72.4253C33.4872 73.4944 32.9351 75.2887 33.6582 77.1633C34.3813 79.0379 37.1602 83.265 37.4177 84.0457C37.6752 84.8265 38.1984 86.4168 38.5445 86.4456C38.8906 86.4745 43.229 83.7264 43.4885 83.4957C43.7481 83.265 43.1713 83.1785 42.7943 83.2362C42.4173 83.2938 39.4983 83.5534 39.2923 83.4957C39.0863 83.438 38.8288 82.888 38.6558 82.4554C38.4827 82.0228 37.0078 75.6018 36.227 73.4326C35.4463 71.2634 35.3309 68.6946 35.0137 67.4195C34.6964 66.1443 33.7406 62.389 32.2945 60.3928" stroke="white" stroke-linecap="round" stroke-linejoin="round"/>
<path d="M42.7838 83.2465C42.4089 83.3041 39.4878 83.5637 39.2818 83.506C39.0758 83.4483 38.8183 82.8983 38.6453 82.4657C38.4723 82.0331 36.9973 75.6121 36.2166 73.4429C35.4358 71.2737 35.3205 68.7049 35.0032 67.4298C34.9311 67.1476 34.8302 66.7417 34.6983 66.2597C32.9121 66.1751 31.1354 66.5646 29.5483 67.3886C29.5854 67.4504 29.6204 67.5142 29.6555 67.574C30.84 69.599 32.8361 71.3623 33.1575 72.4315C33.4788 73.5006 32.9267 75.2949 33.6498 77.1695C34.3729 79.0441 37.1518 83.2712 37.4093 84.0519C37.6668 84.8327 38.19 86.423 38.5361 86.4518C38.8822 86.4807 43.2206 83.7326 43.4801 83.5019C43.7397 83.2712 43.1608 83.1888 42.7838 83.2465Z" fill="white" stroke="#263238" stroke-linecap="round" stroke-linejoin="round"/>
<path d="M42.7842 83.2466C42.4382 83.2981 39.9332 83.5247 39.3832 83.5144C39.3326 83.5609 39.2926 83.6176 39.266 83.6809C39.2393 83.7442 39.2266 83.8125 39.2287 83.8811C39.227 84.0491 39.2563 84.216 39.3152 84.3734C39.3152 84.3734 38.4067 84.8555 37.7949 85.1727C38.0401 85.8237 38.3202 86.4376 38.5345 86.4561C38.8805 86.4849 43.2189 83.7369 43.4785 83.5062C43.738 83.2755 43.1612 83.1889 42.7842 83.2466Z" fill="#20C0E8" stroke="#263238" stroke-linecap="round" stroke-linejoin="round"/>
<path d="M21.389 81.1062C20.977 80.4697 20.5505 80.6139 20.5505 80.6139L21.3436 78.9659C21.2259 78.9725 21.1092 78.9399 21.012 78.8732C20.6371 78.6672 19.6833 78.0348 19.4217 78.5271C19.16 79.0194 19.1621 80.4635 18.9314 80.8116C18.5911 81.265 18.39 81.8075 18.3525 82.3731C18.2948 83.1539 18.266 85.1768 18.5256 85.0903C18.7851 85.0037 19.7121 83.0941 20.8966 82.0538C21.0861 81.887 21.3313 81.683 21.6135 81.4544L21.389 81.1062Z" fill="#20C0E8" stroke="#263238" stroke-linecap="round" stroke-linejoin="round"/>
<path d="M33.2422 61.8783L34.198 60.4321" stroke="white" stroke-linecap="round" stroke-linejoin="round"/>
<path d="M9.80957 86.4664H95.8846" stroke="#263238" stroke-linecap="round" stroke-linejoin="round"/>
</svg>
