<svg width="113" height="113" viewBox="0 0 113 113" fill="none" xmlns="http://www.w3.org/2000/svg">
<path d="M101.678 90.0586H94.1924V90.1151H101.678V90.0586Z" fill="#EBEBEB"/>
<path d="M74.8555 90.6733H72.8916V90.7299H74.8555V90.6733Z" fill="#EBEBEB"/>
<path d="M93.9663 87.9614H89.6294V88.0179H93.9663V87.9614Z" fill="#EBEBEB"/>
<path d="M21.6169 88.3411H11.856V88.3976H21.6169V88.3411Z" fill="#EBEBEB"/>
<path d="M25.061 88.3411H23.6304V88.3976H25.061V88.3411Z" fill="#EBEBEB"/>
<path d="M50.8841 89.2948H29.7124V89.3513H50.8841V89.2948Z" fill="#EBEBEB"/>
<path d="M53.8783 76.3427H10.2377C9.89547 76.3427 9.56724 76.2068 9.32523 75.9648C9.08322 75.7228 8.94727 75.3945 8.94727 75.0523V13.7091C8.95025 13.3688 9.08752 13.0435 9.3292 12.8039C9.57089 12.5643 9.89742 12.4299 10.2377 12.4299H53.8783C54.0478 12.4299 54.2156 12.4633 54.3722 12.5282C54.5287 12.593 54.671 12.6881 54.7908 12.8079C54.9106 12.9277 55.0057 13.07 55.0706 13.2266C55.1354 13.3831 55.1688 13.5509 55.1688 13.7204V75.0523C55.1688 75.2217 55.1354 75.3895 55.0706 75.5461C55.0057 75.7027 54.9106 75.8449 54.7908 75.9648C54.671 76.0846 54.5287 76.1796 54.3722 76.2445C54.2156 76.3094 54.0478 76.3427 53.8783 76.3427ZM10.2377 12.4751C9.91064 12.4757 9.59713 12.6059 9.36584 12.8372C9.13456 13.0685 9.00436 13.382 9.00377 13.7091V75.0523C9.00436 75.3794 9.13456 75.6929 9.36584 75.9242C9.59713 76.1554 9.91064 76.2856 10.2377 76.2862H53.8783C54.2054 76.2856 54.5189 76.1554 54.7502 75.9242C54.9815 75.6929 55.1117 75.3794 55.1123 75.0523V13.7091C55.1117 13.382 54.9815 13.0685 54.7502 12.8372C54.5189 12.6059 54.2054 12.4757 53.8783 12.4751H10.2377Z" fill="#EBEBEB"/>
<path d="M102.763 76.3427H59.122C58.7798 76.3427 58.4515 76.2068 58.2095 75.9648C57.9675 75.7228 57.8315 75.3945 57.8315 75.0523V13.7091C57.8345 13.3688 57.9718 13.0435 58.2135 12.8039C58.4552 12.5643 58.7817 12.4299 59.122 12.4299H102.763C103.105 12.4299 103.433 12.5659 103.675 12.8079C103.917 13.0499 104.053 13.3781 104.053 13.7204V75.0523C104.053 75.3945 103.917 75.7228 103.675 75.9648C103.433 76.2068 103.105 76.3427 102.763 76.3427ZM59.122 12.4751C58.7949 12.4757 58.4814 12.6059 58.2501 12.8372C58.0188 13.0685 57.8886 13.382 57.888 13.7091V75.0523C57.8886 75.3794 58.0188 75.6929 58.2501 75.9242C58.4814 76.1554 58.7949 76.2856 59.122 76.2862H102.763C103.09 76.2856 103.403 76.1554 103.634 75.9242C103.866 75.6929 103.996 75.3794 103.997 75.0523V13.7091C103.996 13.382 103.866 13.0685 103.634 12.8372C103.403 12.6059 103.09 12.4757 102.763 12.4751H59.122Z" fill="#EBEBEB"/>
<path d="M113 86.4224H0V86.4789H113V86.4224Z" fill="#EBEBEB"/>
<path d="M89.5635 74.7019H95.27C95.5138 74.7022 95.7553 74.6544 95.9807 74.5613C96.2061 74.4682 96.4109 74.3316 96.5834 74.1592C96.756 73.9869 96.8928 73.7823 96.9862 73.557C97.0796 73.3317 97.1277 73.0903 97.1277 72.8464V64.5048C97.1277 64.4149 97.092 64.3286 97.0284 64.2651C96.9648 64.2015 96.8786 64.1658 96.7887 64.1658C96.6988 64.1658 96.6126 64.2015 96.549 64.2651C96.4854 64.3286 96.4497 64.4149 96.4497 64.5048V72.8464C96.4491 73.1589 96.3245 73.4584 96.1034 73.6792C95.8822 73.8999 95.5825 74.0239 95.27 74.0239H89.5635V74.7019Z" fill="#E0E0E0"/>
<path d="M87.9321 82.7001V74.9302L87.4801 74.7856C87.2298 74.7071 87.0111 74.5508 86.8558 74.3394C86.7005 74.1281 86.6168 73.8726 86.6168 73.6104H90.9198C90.9198 73.8726 90.836 74.1281 90.6807 74.3394C90.5255 74.5508 90.3068 74.7071 90.0565 74.7856L89.6045 74.9302V82.7001L93.1798 84.2979V84.9759L88.766 83.4346L84.3545 84.9759V84.2979L87.9321 82.7001Z" fill="#E0E0E0"/>
<path d="M83.1387 74.024H94.3957C94.7196 74.024 95.0303 73.8955 95.2595 73.6667C95.4887 73.4379 95.6178 73.1275 95.6184 72.8036C95.6184 72.4793 95.4896 72.1683 95.2603 71.939C95.031 71.7097 94.72 71.5809 94.3957 71.5809H83.1387C82.8144 71.5809 82.5034 71.7097 82.2741 71.939C82.0448 72.1683 81.916 72.4793 81.916 72.8036C81.9166 73.1275 82.0457 73.4379 82.2749 73.6667C82.5042 73.8955 82.8148 74.024 83.1387 74.024Z" fill="#F0F0F0"/>
<path d="M96.3821 67.4406L96.9901 58.76C97.0124 58.4373 96.9061 58.119 96.6943 57.8746C96.4825 57.6302 96.1826 57.4797 95.8601 57.4559C95.5377 57.4336 95.2196 57.54 94.9755 57.7518C94.7315 57.9636 94.5815 58.2636 94.5583 58.5859L93.9504 67.2734C93.9274 67.5961 94.0335 67.9148 94.2454 68.1593C94.4573 68.4039 94.7576 68.5542 95.0804 68.5774C95.4037 68.5991 95.7224 68.4916 95.9665 68.2784C96.2106 68.0653 96.3601 67.7639 96.3821 67.4406Z" fill="#EBEBEB"/>
<path d="M92.4087 85.4619C92.4087 85.6148 92.4541 85.7644 92.5391 85.8915C92.6241 86.0187 92.745 86.1177 92.8863 86.1762C93.0277 86.2346 93.1832 86.2498 93.3332 86.2198C93.4832 86.1898 93.6209 86.1159 93.7289 86.0076C93.8369 85.8993 93.9104 85.7614 93.9399 85.6113C93.9695 85.4612 93.9539 85.3057 93.895 85.1645C93.8362 85.0233 93.7368 84.9028 93.6094 84.8181C93.482 84.7335 93.3323 84.6885 93.1793 84.689C92.9747 84.6896 92.7787 84.7713 92.6343 84.9161C92.4898 85.061 92.4087 85.2573 92.4087 85.4619Z" fill="#E0E0E0"/>
<path d="M83.5815 85.4619C83.5815 85.6148 83.6269 85.7642 83.7118 85.8913C83.7967 86.0184 83.9175 86.1175 84.0587 86.176C84.1999 86.2345 84.3553 86.2498 84.5053 86.22C84.6552 86.1901 84.7929 86.1165 84.901 86.0084C85.0091 85.9003 85.0827 85.7626 85.1125 85.6127C85.1424 85.4627 85.1271 85.3073 85.0686 85.1661C85.0101 85.0249 84.911 84.9042 84.7839 84.8192C84.6568 84.7343 84.5073 84.689 84.3545 84.689C84.1495 84.689 83.9529 84.7704 83.8079 84.9153C83.663 85.0603 83.5815 85.2569 83.5815 85.4619Z" fill="#E0E0E0"/>
<path d="M22.6588 74.7019H16.95C16.7062 74.7022 16.4646 74.6544 16.2393 74.5613C16.0139 74.4682 15.8091 74.3316 15.6365 74.1592C15.464 73.9869 15.3271 73.7823 15.2337 73.557C15.1404 73.3317 15.0923 73.0903 15.0923 72.8464V64.5048C15.0923 64.4149 15.128 64.3286 15.1916 64.2651C15.2552 64.2015 15.3414 64.1658 15.4313 64.1658C15.5212 64.1658 15.6074 64.2015 15.671 64.2651C15.7346 64.3286 15.7703 64.4149 15.7703 64.5048V72.8464C15.7709 73.1589 15.8954 73.4584 16.1166 73.6792C16.3378 73.8999 16.6375 74.0239 16.95 74.0239H22.6565L22.6588 74.7019Z" fill="#E0E0E0"/>
<path d="M24.2907 82.7001V74.9302L24.7427 74.7856C24.993 74.7071 25.2117 74.5508 25.3669 74.3394C25.5222 74.1281 25.606 73.8726 25.606 73.6104H21.312C21.312 73.8726 21.3958 74.1281 21.5511 74.3394C21.7063 74.5508 21.9251 74.7071 22.1753 74.7856L22.6273 74.9302V82.7001L19.043 84.2979V84.9759L23.4567 83.4346L27.8705 84.9759V84.2979L24.2907 82.7001Z" fill="#E0E0E0"/>
<path d="M29.0842 74.024H17.8272C17.5033 74.024 17.1926 73.8955 16.9634 73.6667C16.7342 73.4379 16.6051 73.1275 16.6045 72.8036C16.6045 72.4793 16.7333 72.1683 16.9626 71.939C17.1919 71.7097 17.5029 71.5809 17.8272 71.5809H29.0842C29.4085 71.5809 29.7195 71.7097 29.9488 71.939C30.1781 72.1683 30.3069 72.4793 30.3069 72.8036C30.3063 73.1275 30.1772 73.4379 29.948 73.6667C29.7187 73.8955 29.4081 74.024 29.0842 74.024Z" fill="#F0F0F0"/>
<path d="M15.8404 67.4406L15.2324 58.76C15.21 58.4373 15.3164 58.119 15.5282 57.8746C15.7399 57.6302 16.0399 57.4797 16.3624 57.4559C16.6848 57.4336 17.0029 57.54 17.2469 57.7518C17.491 57.9636 17.641 58.2636 17.6642 58.5859L18.2721 67.2734C18.2951 67.5961 18.189 67.9148 17.9771 68.1593C17.7652 68.4039 17.4649 68.5542 17.1421 68.5774C16.8188 68.5991 16.5001 68.4916 16.256 68.2784C16.0119 68.0653 15.8624 67.7639 15.8404 67.4406Z" fill="#EBEBEB"/>
<path d="M19.8134 85.4619C19.8134 85.6148 19.768 85.7644 19.683 85.8915C19.598 86.0187 19.4771 86.1177 19.3358 86.1762C19.1944 86.2346 19.0389 86.2498 18.8889 86.2198C18.7389 86.1898 18.6012 86.1159 18.4932 86.0076C18.3852 85.8993 18.3117 85.7614 18.2822 85.6113C18.2526 85.4612 18.2682 85.3057 18.3271 85.1645C18.3859 85.0233 18.4853 84.9028 18.6127 84.8181C18.7401 84.7335 18.8898 84.6885 19.0428 84.689C19.2474 84.6896 19.4434 84.7713 19.5878 84.9161C19.7323 85.061 19.8134 85.2573 19.8134 85.4619Z" fill="#E0E0E0"/>
<path d="M28.6411 85.4619C28.6411 85.6148 28.5957 85.7644 28.5106 85.8915C28.4256 86.0187 28.3048 86.1177 28.1634 86.1762C28.022 86.2346 27.8665 86.2498 27.7165 86.2198C27.5665 86.1898 27.4288 86.1159 27.3208 86.0076C27.2128 85.8993 27.1394 85.7614 27.1098 85.6113C27.0802 85.4612 27.0959 85.3057 27.1547 85.1645C27.2135 85.0233 27.313 84.9028 27.4404 84.8181C27.5678 84.7335 27.7174 84.6885 27.8704 84.689C28.075 84.6896 28.271 84.7713 28.4155 84.9161C28.5599 85.061 28.6411 85.2573 28.6411 85.4619Z" fill="#E0E0E0"/>
<path d="M46.9111 86.488H42.5018L42.0498 78.1305H47.3631L46.9111 86.488Z" fill="#EBEBEB"/>
<path d="M43.5189 86.488H41.7109V86.1174L43.5189 85.8914V86.488Z" fill="#E0E0E0"/>
<path d="M42.7142 77.4524H46.6828C46.8626 77.4524 47.0351 77.5238 47.1622 77.651C47.2894 77.7781 47.3608 77.9506 47.3608 78.1304H42.0498C42.0498 77.9506 42.1212 77.7781 42.2484 77.651C42.3755 77.5238 42.548 77.4524 42.7278 77.4524H42.7142Z" fill="#E0E0E0"/>
<path d="M37.8689 64.8146H30.8154V63.9693L37.8689 63.5173V64.8146Z" fill="#E0E0E0"/>
<path d="M48.3031 65.6755H27.4365V68.5638H48.3031V65.6755Z" fill="#F0F0F0"/>
<path d="M52.6283 64.8146H23.1851V66.5367H52.6283V64.8146Z" fill="#FAFAFA"/>
<path d="M49.894 86.4879H51.2229L48.9222 66.5366H47.3628L49.894 86.4879Z" fill="#E6E6E6"/>
<path d="M28.4512 66.5366H26.8918L24.5889 86.4879H25.92L28.4512 66.5366Z" fill="#E6E6E6"/>
<path d="M45.0148 64.3851C44.4122 61.3913 43.8095 58.3976 43.2068 55.4038C43.1187 54.9744 42.4656 55.1575 42.5514 55.5824L44.2736 64.1365H40.5446C40.4547 64.1365 40.3684 64.1722 40.3049 64.2358C40.2413 64.2993 40.2056 64.3856 40.2056 64.4755C40.2056 64.5654 40.2413 64.6516 40.3049 64.7152C40.3684 64.7788 40.4547 64.8145 40.5446 64.8145H44.6871C44.739 64.8133 44.7899 64.8005 44.8362 64.777C44.8824 64.7534 44.9228 64.7198 44.9542 64.6786C44.9857 64.6373 45.0075 64.5895 45.018 64.5387C45.0285 64.4879 45.0274 64.4354 45.0148 64.3851Z" fill="#E0E0E0"/>
<path d="M40.793 61.9758L41.9546 45.3671C42.3833 45.674 42.7262 46.0857 42.9505 46.5628C43.1749 47.04 43.2732 47.5667 43.236 48.0926L42.4428 59.4559C42.4056 59.9818 42.2345 60.4894 41.9458 60.9305C41.657 61.3716 41.2601 61.7314 40.793 61.9758Z" fill="#FAFAFA"/>
<path d="M49.8446 59.9871H47.9552C47.5932 59.9871 47.2998 60.2805 47.2998 60.6425V64.159C47.2998 64.521 47.5932 64.8144 47.9552 64.8144H49.8446C50.2065 64.8144 50.5 64.521 50.5 64.159V60.6425C50.5 60.2805 50.2065 59.9871 49.8446 59.9871Z" fill="#F5F5F5"/>
<path d="M48.5651 58.1881C48.0657 58.1881 47.6611 58.3124 47.6611 58.4661C47.6611 58.6198 48.0679 58.4118 48.5651 58.4118C48.6307 58.4118 48.694 58.4118 48.7572 58.4118V59.5079H49.042V58.4548C49.2996 58.5045 49.4691 58.5542 49.4691 58.4548C49.4691 58.3079 49.0646 58.1881 48.5651 58.1881Z" fill="#E0E0E0"/>
<path d="M49.4079 59.1599H48.3887V60.1792H49.4079V59.1599Z" fill="#F0F0F0"/>
<path d="M63.9195 68.5638H84.7861V65.6756H63.9195V68.5638Z" fill="#F0F0F0"/>
<path d="M59.5963 66.5366H89.0396V64.8145H59.5963V66.5366Z" fill="#FAFAFA"/>
<path d="M62.3284 86.4879H60.9995L63.3002 66.5366H64.8596L62.3284 86.4879Z" fill="#E6E6E6"/>
<path d="M83.7734 66.5366H85.3306L87.6335 86.4879H86.3024L83.7734 66.5366Z" fill="#E6E6E6"/>
<path d="M78.7656 64.8146H85.8191V63.9693L78.7656 63.5173V64.8146Z" fill="#E0E0E0"/>
<path d="M64.5747 49.6544V64.8145H65.5533L65.7793 63.4585C65.8208 63.2206 65.9448 63.005 66.1296 62.8496C66.3144 62.6942 66.548 62.6089 66.7895 62.6087H75.9131C76.1546 62.6089 76.3883 62.6942 76.573 62.8496C76.7578 63.005 76.8819 63.2206 76.9234 63.4585L77.1494 64.8145H78.1279V49.6544H64.5747Z" fill="#F5F5F5"/>
<path d="M68.9595 64.3851C69.5622 61.3913 70.1648 58.3976 70.7675 55.4038C70.8556 54.9744 71.5088 55.1575 71.4229 55.5824L69.7008 64.1365H73.4298C73.5197 64.1365 73.6059 64.1722 73.6695 64.2358C73.7331 64.2993 73.7688 64.3856 73.7688 64.4755C73.7688 64.5654 73.7331 64.6516 73.6695 64.7152C73.6059 64.7788 73.5197 64.8145 73.4298 64.8145H69.2872C69.2353 64.8133 69.1844 64.8005 69.1382 64.777C69.0919 64.7534 69.0516 64.7198 69.0201 64.6786C68.9886 64.6373 68.9669 64.5895 68.9564 64.5387C68.9459 64.4879 68.9469 64.4354 68.9595 64.3851Z" fill="#E0E0E0"/>
<path d="M73.1807 61.9758L72.0191 45.3671C71.5904 45.674 71.2475 46.0857 71.0231 46.5628C70.7988 47.04 70.7005 47.5667 70.7376 48.0926L71.5309 59.4559C71.5676 59.9819 71.7385 60.4897 72.0274 60.9309C72.3162 61.372 72.7133 61.7318 73.1807 61.9758Z" fill="#E0E0E0"/>
<path d="M49.1911 33.4344H12.1655V55.996H49.1911V33.4344Z" fill="#EBEBEB"/>
<path d="M49.467 33.4253H49.1958V55.9869H49.467V33.4253Z" fill="#E0E0E0"/>
<path d="M13.5104 34.413H13.2866V54.7145H13.5104V34.413Z" fill="#E0E0E0"/>
<path d="M47.9845 34.413H13.2642V54.7145H47.9845V34.413Z" fill="white"/>
<path d="M25.563 43.3557V44.323H27.8185V43.3557H25.563Z" fill="#F5F5F5"/>
<path d="M26.0034 50.6352V51.3878H28.2589V50.6352H26.0034Z" fill="#F5F5F5"/>
<path d="M26.3699 43.0394H19.043V53.336H26.3699V43.0394Z" fill="#F0F0F0"/>
<path d="M25.4976 52.2986V53.0511H27.753V52.2986H25.4976Z" fill="#F5F5F5"/>
<path d="M25.8721 45.4147V46.1672H28.1275V45.4147H25.8721Z" fill="#F5F5F5"/>
<path d="M25.3774 47.2837V48.0363H27.6329V47.2837H25.3774Z" fill="#F5F5F5"/>
<path d="M24.9009 44.3049H19.9062V45.1909H24.9009V44.3049Z" fill="#E6E6E6"/>
<path d="M24.9799 48.0905H19.9853L19.9062 47.6882H24.8986L24.9799 48.0905Z" fill="#E6E6E6"/>
<path d="M21.6781 46.0769H19.9062V46.9628H21.6781V46.0769Z" fill="#E6E6E6"/>
<path d="M36.7679 41.1793H33.9067V45.288H36.7679V41.1793Z" fill="#F5F5F5"/>
<path d="M17.7972 47.6904H14.936V51.7991H17.7972V47.6904Z" fill="#F5F5F5"/>
<path d="M18.1864 35.8843H15.3252V38.7454H18.1864V35.8843Z" fill="#F5F5F5"/>
<path d="M31.7508 49.0013H28.8896V51.8625H31.7508V49.0013Z" fill="#F5F5F5"/>
<path d="M45.8035 41.5343H38.4766V51.8309H45.8035V41.5343Z" fill="#F5F5F5"/>
<path d="M44.7435 43.0236H39.48V43.1366H44.7435V43.0236Z" fill="#E0E0E0"/>
<path d="M42.1672 43.1343H42.0542V50.7595H42.1672V43.1343Z" fill="#E0E0E0"/>
<path d="M44.5852 43.1343H44.4722V50.7595H44.5852V43.1343Z" fill="#E0E0E0"/>
<path d="M40.0202 43.1343H39.9072V50.7595H40.0202V43.1343Z" fill="#E0E0E0"/>
<path d="M39.6428 43.1343H39.5298V50.7595H39.6428V43.1343Z" fill="#E0E0E0"/>
<path d="M44.4725 43.5366H39.5864V43.6496H44.4725V43.5366Z" fill="#E0E0E0"/>
<path d="M55.4105 95.7585C79.6111 95.7585 99.2296 94.6131 99.2296 93.2002C99.2296 91.7872 79.6111 90.6418 55.4105 90.6418C31.2098 90.6418 11.5913 91.7872 11.5913 93.2002C11.5913 94.6131 31.2098 95.7585 55.4105 95.7585Z" fill="#F5F5F5"/>
<path d="M62.1955 46.3458C62.1955 47.6771 61.6671 48.9539 60.7264 49.8959C59.7857 50.8379 58.5096 51.368 57.1783 51.3698H55.3522V56.1565H50.3983V58.1204C50.3704 59.4341 49.829 60.6846 48.8901 61.6038C47.9511 62.5231 46.6894 63.0379 45.3754 63.0379C44.0614 63.0379 42.7998 62.5231 41.8608 61.6038C40.9219 60.6846 40.3805 59.4341 40.3526 58.1204V56.1565H35.7264V51.3698H33.6246C32.2921 51.3698 31.0143 50.8405 30.0721 49.8983C29.1299 48.9561 28.6006 47.6783 28.6006 46.3458C28.6006 45.0134 29.1299 43.7355 30.0721 42.7933C31.0143 41.8511 32.2921 41.3218 33.6246 41.3218H35.7264V36.5352H40.513V38.646C40.4989 39.3146 40.6183 39.9792 40.8643 40.6011C41.1104 41.2229 41.4781 41.7893 41.9459 42.2672C42.4138 42.745 42.9723 43.1247 43.5887 43.3838C44.2052 43.643 44.8672 43.7765 45.5359 43.7765C46.2046 43.7765 46.8666 43.643 47.4831 43.3838C48.0995 43.1247 48.658 42.745 49.1259 42.2672C49.5937 41.7893 49.9614 41.2229 50.2074 40.6011C50.4535 39.9792 50.5729 39.3146 50.5587 38.646V36.5442H55.3454V41.3309H57.1783C58.508 41.3327 59.7827 41.8615 60.7232 42.8016C61.6637 43.7416 62.1931 45.0161 62.1955 46.3458Z" fill="#20C0E8"/>
<g opacity="0.5">
<path opacity="0.5" d="M62.1955 46.3458C62.1955 47.6771 61.6671 48.9539 60.7264 49.8959C59.7857 50.8379 58.5096 51.368 57.1783 51.3698H55.3522V56.1565H50.3983V58.1204C50.3704 59.4341 49.829 60.6846 48.8901 61.6038C47.9511 62.5231 46.6894 63.0379 45.3754 63.0379C44.0614 63.0379 42.7998 62.5231 41.8608 61.6038C40.9219 60.6846 40.3805 59.4341 40.3526 58.1204V56.1565H35.7264V51.3698H33.6246C32.2921 51.3698 31.0143 50.8405 30.0721 49.8983C29.1299 48.9561 28.6006 47.6783 28.6006 46.3458C28.6006 45.0134 29.1299 43.7355 30.0721 42.7933C31.0143 41.8511 32.2921 41.3218 33.6246 41.3218H35.7264V36.5352H40.513V38.646C40.4989 39.3146 40.6183 39.9792 40.8643 40.6011C41.1104 41.2229 41.4781 41.7893 41.9459 42.2672C42.4138 42.745 42.9723 43.1247 43.5887 43.3838C44.2052 43.643 44.8672 43.7765 45.5359 43.7765C46.2046 43.7765 46.8666 43.643 47.4831 43.3838C48.0995 43.1247 48.658 42.745 49.1259 42.2672C49.5937 41.7893 49.9614 41.2229 50.2074 40.6011C50.4535 39.9792 50.5729 39.3146 50.5587 38.646V36.5442H55.3454V41.3309H57.1783C58.508 41.3327 59.7827 41.8615 60.7232 42.8016C61.6637 43.7416 62.1931 45.0161 62.1955 46.3458Z" fill="white"/>
</g>
<path d="M57.1965 51.3449H55.0947V56.1316H74.716V51.3449H76.5399C77.8723 51.3449 79.1502 50.8156 80.0924 49.8734C81.0345 48.9313 81.5638 47.6534 81.5638 46.321C81.5638 44.9885 81.0345 43.7106 80.0924 42.7685C79.1502 41.8263 77.8723 41.297 76.5399 41.297H74.716V36.5103H69.9294V34.4085C69.9294 33.0761 69.4001 31.7982 68.4579 30.856C67.5157 29.9138 66.2378 29.3845 64.9054 29.3845C63.5729 29.3845 62.2951 29.9138 61.3529 30.856C60.4107 31.7982 59.8814 33.0761 59.8814 34.4085V36.5103H55.0947V41.297H57.1965C58.529 41.297 59.8068 41.8263 60.749 42.7685C61.6912 43.7106 62.2205 44.9885 62.2205 46.321C62.2205 47.6534 61.6912 48.9313 60.749 49.8734C59.8068 50.8156 58.529 51.3449 57.1965 51.3449Z" fill="#20C0E8"/>
<g opacity="0.3">
<path opacity="0.3" d="M57.1965 51.3449H55.0947V56.1316H74.716V51.3449H76.5399C77.8723 51.3449 79.1502 50.8156 80.0924 49.8734C81.0345 48.9313 81.5638 47.6534 81.5638 46.321C81.5638 44.9885 81.0345 43.7106 80.0924 42.7685C79.1502 41.8263 77.8723 41.297 76.5399 41.297H74.716V36.5103H69.9294V34.4085C69.9294 33.0761 69.4001 31.7982 68.4579 30.856C67.5157 29.9138 66.2378 29.3845 64.9054 29.3845C63.5729 29.3845 62.2951 29.9138 61.3529 30.856C60.4107 31.7982 59.8814 33.0761 59.8814 34.4085V36.5103H55.0947V41.297H57.1965C58.529 41.297 59.8068 41.8263 60.749 42.7685C61.6912 43.7106 62.2205 44.9885 62.2205 46.321C62.2205 47.6534 61.6912 48.9313 60.749 49.8734C59.8068 50.8156 58.529 51.3449 57.1965 51.3449Z" fill="white"/>
</g>
<path d="M58.394 34.291L57.9714 34.1847C57.5164 34.0912 57.073 33.9479 56.6493 33.7576L56.5928 33.7305C56.1769 33.5293 55.6571 33.2785 55.5464 32.4039C55.5444 32.3487 55.5232 32.2959 55.4865 32.2547C55.4498 32.2134 55.3998 32.1863 55.3452 32.1779C51.4716 31.9903 50.1224 29.9405 50.1201 27.6579C50.1201 25.4205 51.5914 23.3074 55.7701 23.2577C59.6438 23.2102 61.5828 25.5945 61.4653 28.0511C61.3885 29.6196 60.159 31.7688 57.8199 32.257C57.5329 32.3541 57.0222 32.3722 56.8436 32.6299C56.8038 32.6923 56.7826 32.7648 56.7826 32.8389C56.7826 32.913 56.8038 32.9855 56.8436 33.048C56.9276 33.1764 57.0305 33.2914 57.1487 33.3892C57.5646 33.7463 58.394 34.291 58.394 34.291Z" fill="white"/>
<path d="M58.3942 34.404H58.3671L57.9444 34.3001C57.4817 34.2038 57.0309 34.0576 56.5997 33.8639L56.5455 33.8368C56.1274 33.6356 55.5534 33.3599 55.4358 32.422C55.4358 32.4017 55.4155 32.2909 55.3387 32.2864C50.7034 32.0604 50.0096 29.2919 50.0073 27.6625C50.0073 26.3268 50.5655 23.2125 55.7703 23.1425C58.2269 23.1176 59.6123 24.0193 60.3536 24.7877C60.7721 25.2186 61.0972 25.7313 61.3084 26.2936C61.5195 26.856 61.6123 27.4559 61.5808 28.0557C61.5033 29.0785 61.0996 30.0493 60.4292 30.8256C59.7587 31.6018 58.8569 32.1424 57.8563 32.3678C57.7616 32.3983 57.6649 32.4225 57.567 32.4401C57.3252 32.4898 57.0517 32.5463 56.95 32.6955C56.9223 32.739 56.9075 32.7896 56.9075 32.8413C56.9075 32.8929 56.9223 32.9435 56.95 32.987C57.0281 33.1059 57.1233 33.2125 57.2325 33.3034C57.6371 33.6515 58.4575 34.1893 58.4665 34.1961C58.4886 34.2105 58.5048 34.2323 58.5122 34.2576C58.5197 34.2828 58.5179 34.3099 58.5072 34.334C58.4982 34.3561 58.4824 34.3748 58.4621 34.3874C58.4418 34.4 58.418 34.4058 58.3942 34.404ZM55.8878 23.3685H55.7726C50.7689 23.4295 50.2311 26.3856 50.2333 27.6625C50.2333 29.2128 50.9 31.8457 55.35 32.0604C55.4334 32.0692 55.5107 32.1079 55.5677 32.1694C55.6246 32.231 55.6573 32.3111 55.6596 32.3949C55.7635 33.2085 56.2291 33.4345 56.6427 33.6334L56.6992 33.6605C57.0555 33.8241 57.4282 33.9491 57.8111 34.0334C57.5602 33.8594 57.2732 33.6492 57.0766 33.4797C56.95 33.3742 56.8402 33.25 56.7512 33.1113C56.698 33.0313 56.6696 32.9373 56.6696 32.8413C56.6696 32.7452 56.698 32.6512 56.7512 32.5712C56.9026 32.3452 57.2235 32.2819 57.5083 32.2231C57.61 32.2005 57.7094 32.1802 57.784 32.1553C58.7405 31.9448 59.6039 31.4321 60.2465 30.693C60.8892 29.9539 61.2769 29.0277 61.3525 28.0512C61.3828 27.482 61.295 26.9128 61.0947 26.3792C60.8944 25.8456 60.5859 25.3591 60.1886 24.9505C59.4925 24.2228 58.1817 23.3685 55.8878 23.3685Z" fill="#20C0E8"/>
<path d="M53.7879 33.3418C54.0569 33.0367 54.1834 32.7316 54.1156 32.4514C53.9755 31.8615 53.4535 31.8705 53.1167 31.7575C50.7776 31.2671 49.5482 29.5721 49.4713 28.0037C49.3538 25.5471 51.2929 23.1605 55.1665 23.208C59.3475 23.26 60.8165 25.3731 60.8165 27.6082C60.8165 29.884 59.4605 31.9338 55.5914 32.1282C55.4626 32.1282 55.4038 32.2525 55.388 32.3542C55.2795 33.2288 54.7597 33.4842 54.3439 33.6808L54.2874 33.7079C53.8633 33.8972 53.42 34.0404 52.9653 34.1351L52.5427 34.239C52.5427 34.239 53.4196 33.7531 53.7879 33.3418Z" fill="white"/>
<path d="M52.536 34.352C52.5133 34.3524 52.491 34.3459 52.472 34.3334C52.4531 34.3209 52.4384 34.303 52.4297 34.282C52.4197 34.2566 52.4192 34.2283 52.4283 34.2026C52.4374 34.1768 52.4556 34.1552 52.4795 34.1419C52.4795 34.1419 53.3518 33.656 53.6953 33.265C53.9507 32.9712 54.0524 32.7068 53.9982 32.4762C53.901 32.0672 53.6049 31.9971 53.2931 31.9225C53.2162 31.9045 53.1394 31.8864 53.0671 31.8638C50.6037 31.3485 49.4194 29.5541 49.3448 28.0082C49.3134 27.408 49.4062 26.8078 49.6174 26.2451C49.8285 25.6824 50.1535 25.1694 50.572 24.738C51.3133 23.9719 52.6987 23.0611 55.1553 23.0927C60.3533 23.1583 60.9206 26.2703 60.9183 27.6127C60.9183 29.2422 60.2222 32.0129 55.587 32.2367C55.5101 32.2367 55.492 32.3497 55.4898 32.3723C55.3723 33.3079 54.7982 33.5859 54.3801 33.787L54.3259 33.8142C53.8908 34.0076 53.4362 34.1538 52.9699 34.2503L52.545 34.3543L52.536 34.352ZM55.0423 23.3187C52.7461 23.3187 51.4263 24.173 50.7483 24.9007C50.351 25.3094 50.0425 25.7958 49.8422 26.3294C49.6419 26.863 49.5541 27.4323 49.5844 28.0014C49.6545 29.4614 50.7822 31.1654 53.1394 31.6491C53.214 31.6739 53.284 31.6898 53.3654 31.7078C53.6773 31.7824 54.1067 31.8841 54.2355 32.4265C54.3078 32.7339 54.1903 33.0661 53.8829 33.4187C53.6846 33.625 53.4632 33.8078 53.223 33.9633C53.576 33.8805 53.9197 33.7624 54.249 33.6108L54.3055 33.5836C54.7169 33.3848 55.1847 33.1588 55.2886 32.3452C55.2899 32.261 55.3223 32.1804 55.3794 32.1186C55.4366 32.0569 55.5145 32.0185 55.5983 32.0107C60.0459 31.796 60.7126 29.1631 60.7149 27.6105C60.7149 26.3426 60.1793 23.3865 55.1734 23.3165L55.0423 23.3187Z" fill="#20C0E8"/>
<path d="M53.876 27.8319L54.8613 28.8173L57.0874 27.0138" fill="white"/>
<path d="M54.8615 29.0433C54.8318 29.0435 54.8023 29.0378 54.7748 29.0265C54.7472 29.0153 54.7222 28.9987 54.7011 28.9778L53.7157 27.9924C53.6921 27.9721 53.6728 27.9472 53.6593 27.9192C53.6457 27.8911 53.6381 27.8606 53.6369 27.8295C53.6357 27.7983 53.6409 27.7673 53.6523 27.7383C53.6637 27.7093 53.6809 27.683 53.7029 27.6609C53.7249 27.6389 53.7513 27.6217 53.7803 27.6103C53.8093 27.599 53.8403 27.5937 53.8714 27.5949C53.9026 27.5961 53.9331 27.6037 53.9611 27.6173C53.9892 27.6309 54.0141 27.6501 54.0344 27.6737L54.8774 28.5145L56.9452 26.8398C56.968 26.8193 56.9947 26.8037 57.0237 26.7939C57.0527 26.784 57.0834 26.7802 57.1139 26.7825C57.1445 26.7849 57.1742 26.7935 57.2013 26.8077C57.2285 26.822 57.2524 26.8415 57.2717 26.8653C57.291 26.8891 57.3053 26.9165 57.3137 26.946C57.3221 26.9754 57.3244 27.0063 57.3205 27.0366C57.3166 27.067 57.3066 27.0963 57.291 27.1227C57.2755 27.149 57.2547 27.172 57.23 27.1901L55.0039 28.9981C54.9629 29.0289 54.9127 29.0448 54.8615 29.0433Z" fill="#20C0E8"/>
<path d="M83.6473 22.4713C83.7058 22.4924 83.7697 22.4939 83.8292 22.4756C83.8888 22.4572 83.9407 22.42 83.9772 22.3696L85.6903 19.9785C85.7124 19.9484 85.7282 19.9141 85.7369 19.8778C85.7456 19.8415 85.7469 19.8038 85.7408 19.7669C85.7347 19.7301 85.7213 19.6948 85.7013 19.6632C85.6814 19.6316 85.6554 19.6044 85.6247 19.583C85.5635 19.5396 85.4876 19.5221 85.4135 19.5343C85.3394 19.5466 85.2732 19.5877 85.2292 19.6485L83.5162 22.0396C83.4941 22.0697 83.4782 22.1039 83.4696 22.1403C83.4609 22.1766 83.4596 22.2143 83.4657 22.2511C83.4718 22.288 83.4852 22.3232 83.5051 22.3548C83.5251 22.3864 83.5511 22.4137 83.5817 22.4351C83.6017 22.4502 83.6238 22.4623 83.6473 22.4713Z" fill="#20C0E8"/>
<path d="M85.6723 25.6193C85.7186 25.6363 85.7684 25.6409 85.817 25.6329L88.6578 25.1628C88.7279 25.146 88.789 25.1033 88.8288 25.0433C88.8686 24.9833 88.8843 24.9105 88.8725 24.8394C88.8608 24.7683 88.8225 24.7044 88.7655 24.6604C88.7085 24.6164 88.6369 24.5956 88.5651 24.6023L85.7243 25.0724C85.6628 25.0831 85.6065 25.1137 85.5641 25.1595C85.5216 25.2053 85.4955 25.2638 85.4896 25.326C85.4837 25.3882 85.4983 25.4506 85.5314 25.5035C85.5644 25.5565 85.6139 25.5972 85.6723 25.6193Z" fill="#20C0E8"/>
<path d="M76.9442 23.6419C77.0084 23.6646 77.0787 23.6634 77.1422 23.6387C77.2057 23.6139 77.2582 23.5672 77.2902 23.507C77.3223 23.4469 77.3316 23.3772 77.3166 23.3107C77.3016 23.2442 77.2633 23.1853 77.2086 23.1447L74.7452 21.3796C74.6851 21.3474 74.6154 21.338 74.5489 21.3531C74.4824 21.3683 74.4236 21.4069 74.3834 21.462C74.3432 21.5171 74.3243 21.5848 74.3301 21.6528C74.336 21.7207 74.3662 21.7842 74.4152 21.8316L76.8786 23.5967C76.8981 23.615 76.9202 23.6302 76.9442 23.6419Z" fill="#20C0E8"/>
<path d="M87.1548 30.9621C87.2193 30.986 87.2903 30.9858 87.3546 30.9615C87.419 30.9372 87.4723 30.8904 87.5049 30.8297C87.5374 30.7691 87.5469 30.6987 87.5315 30.6317C87.5162 30.5646 87.4771 30.5054 87.4215 30.4649L85.105 28.8038C85.0746 28.782 85.0401 28.7663 85.0037 28.7578C84.9672 28.7493 84.9295 28.7481 84.8925 28.7542C84.8556 28.7602 84.8202 28.7735 84.7884 28.7933C84.7566 28.8131 84.729 28.8389 84.7072 28.8693C84.6854 28.8997 84.6698 28.9341 84.6613 28.9706C84.6528 29.0071 84.6515 29.0448 84.6576 29.0818C84.6637 29.1187 84.677 29.1541 84.6967 29.1859C84.7165 29.2177 84.7423 29.2453 84.7728 29.2671L87.0892 30.9259C87.1096 30.9405 87.1316 30.9527 87.1548 30.9621Z" fill="#20C0E8"/>
<path d="M80.0384 21.696C80.085 21.7132 80.1353 21.7179 80.1843 21.7096C80.2333 21.7014 80.2792 21.6804 80.3176 21.6489C80.356 21.6174 80.3855 21.5763 80.4031 21.5299C80.4207 21.4835 80.4259 21.4332 80.4181 21.3842L79.9277 18.4213C79.924 18.3824 79.9124 18.3446 79.8936 18.3104C79.8747 18.2761 79.849 18.2461 79.8181 18.2222C79.7871 18.1984 79.7516 18.1811 79.7137 18.1716C79.6757 18.162 79.6363 18.1604 79.5977 18.1668C79.5591 18.1732 79.5223 18.1874 79.4894 18.2086C79.4566 18.2299 79.4285 18.2577 79.4069 18.2902C79.3853 18.3228 79.3706 18.3595 79.3638 18.398C79.3569 18.4365 79.3581 18.4759 79.3672 18.514L79.8576 21.47C79.8646 21.5205 79.885 21.5682 79.9169 21.608C79.9487 21.6477 79.9907 21.6782 80.0384 21.696Z" fill="#20C0E8"/>
<g opacity="0.5">
<path opacity="0.5" d="M83.6473 22.4713C83.7058 22.4924 83.7697 22.4939 83.8292 22.4756C83.8888 22.4572 83.9407 22.42 83.9772 22.3696L85.6903 19.9785C85.7124 19.9484 85.7282 19.9141 85.7369 19.8778C85.7456 19.8415 85.7469 19.8038 85.7408 19.7669C85.7347 19.7301 85.7213 19.6948 85.7013 19.6632C85.6814 19.6316 85.6554 19.6044 85.6247 19.583C85.5635 19.5396 85.4876 19.5221 85.4135 19.5343C85.3394 19.5466 85.2732 19.5877 85.2292 19.6485L83.5162 22.0396C83.4941 22.0697 83.4782 22.1039 83.4696 22.1403C83.4609 22.1766 83.4596 22.2143 83.4657 22.2511C83.4718 22.288 83.4852 22.3232 83.5051 22.3548C83.5251 22.3864 83.5511 22.4137 83.5817 22.4351C83.6017 22.4502 83.6238 22.4623 83.6473 22.4713Z" fill="white"/>
<path opacity="0.5" d="M85.6723 25.6193C85.7186 25.6363 85.7684 25.6409 85.817 25.6329L88.6578 25.1628C88.7279 25.146 88.789 25.1033 88.8288 25.0433C88.8686 24.9833 88.8843 24.9105 88.8725 24.8394C88.8608 24.7683 88.8225 24.7044 88.7655 24.6604C88.7085 24.6164 88.6369 24.5956 88.5651 24.6023L85.7243 25.0724C85.6628 25.0831 85.6065 25.1137 85.5641 25.1595C85.5216 25.2053 85.4955 25.2638 85.4896 25.326C85.4837 25.3882 85.4983 25.4506 85.5314 25.5035C85.5644 25.5565 85.6139 25.5972 85.6723 25.6193Z" fill="white"/>
<path opacity="0.5" d="M76.9442 23.6419C77.0084 23.6646 77.0787 23.6634 77.1422 23.6387C77.2057 23.6139 77.2582 23.5672 77.2902 23.507C77.3223 23.4469 77.3316 23.3772 77.3166 23.3107C77.3016 23.2442 77.2633 23.1853 77.2086 23.1447L74.7452 21.3796C74.6851 21.3474 74.6154 21.338 74.5489 21.3531C74.4824 21.3683 74.4236 21.4069 74.3834 21.462C74.3432 21.5171 74.3243 21.5848 74.3301 21.6528C74.336 21.7207 74.3662 21.7842 74.4152 21.8316L76.8786 23.5967C76.8981 23.615 76.9202 23.6302 76.9442 23.6419Z" fill="white"/>
<path opacity="0.5" d="M87.1548 30.9621C87.2193 30.986 87.2903 30.9858 87.3546 30.9615C87.419 30.9372 87.4723 30.8904 87.5049 30.8297C87.5374 30.7691 87.5469 30.6987 87.5315 30.6317C87.5162 30.5646 87.4771 30.5054 87.4215 30.4649L85.105 28.8038C85.0746 28.782 85.0401 28.7663 85.0037 28.7578C84.9672 28.7493 84.9295 28.7481 84.8925 28.7542C84.8556 28.7602 84.8202 28.7735 84.7884 28.7933C84.7566 28.8131 84.729 28.8389 84.7072 28.8693C84.6854 28.8997 84.6698 28.9341 84.6613 28.9706C84.6528 29.0071 84.6515 29.0448 84.6576 29.0818C84.6637 29.1187 84.677 29.1541 84.6967 29.1859C84.7165 29.2177 84.7423 29.2453 84.7728 29.2671L87.0892 30.9259C87.1096 30.9405 87.1316 30.9527 87.1548 30.9621Z" fill="white"/>
<path opacity="0.5" d="M80.0384 21.696C80.085 21.7132 80.1353 21.7179 80.1843 21.7096C80.2333 21.7014 80.2792 21.6804 80.3176 21.6489C80.356 21.6174 80.3855 21.5763 80.4031 21.5299C80.4207 21.4835 80.4259 21.4332 80.4181 21.3842L79.9277 18.4213C79.924 18.3824 79.9124 18.3446 79.8936 18.3104C79.8747 18.2761 79.849 18.2461 79.8181 18.2222C79.7871 18.1984 79.7516 18.1811 79.7137 18.1716C79.6757 18.162 79.6363 18.1604 79.5977 18.1668C79.5591 18.1732 79.5223 18.1874 79.4894 18.2086C79.4566 18.2299 79.4285 18.2577 79.4069 18.2902C79.3853 18.3228 79.3706 18.3595 79.3638 18.398C79.3569 18.4365 79.3581 18.4759 79.3672 18.514L79.8576 21.47C79.8646 21.5205 79.885 21.5682 79.9169 21.608C79.9487 21.6477 79.9907 21.6782 80.0384 21.696Z" fill="white"/>
</g>
<path d="M77.57 24.451C78.1885 23.6867 79.0765 23.1887 80.0512 23.0595C81.0259 22.9302 82.013 23.1796 82.8094 23.7561C83.6058 24.3327 84.1508 25.1927 84.3323 26.159C84.5138 27.1253 84.3179 28.1244 83.785 28.9506C82.881 30.1959 81.2831 30.3202 79.943 30.8536C79.5271 31.0185 78.7226 32.1757 78.7226 32.1757L76.0874 30.266C76.0874 30.266 76.9349 29.136 76.962 28.6953C77.0502 27.2556 76.6682 25.6962 77.57 24.451Z" fill="#20C0E8"/>
<path opacity="0.4" d="M77.57 24.451C78.1885 23.6867 79.0765 23.1887 80.0512 23.0595C81.0259 22.9302 82.013 23.1796 82.8094 23.7561C83.6058 24.3327 84.1508 25.1927 84.3323 26.159C84.5138 27.1253 84.3179 28.1244 83.785 28.9506C82.881 30.1959 81.2831 30.3202 79.943 30.8536C79.5271 31.0185 78.7226 32.1757 78.7226 32.1757L76.0874 30.266C76.0874 30.266 76.9349 29.136 76.962 28.6953C77.0502 27.2556 76.6682 25.6962 77.57 24.451Z" fill="white"/>
<path d="M76.1622 31.7462L77.2922 32.5598C77.3914 32.6318 77.5039 32.6836 77.6232 32.7121C77.7424 32.7406 77.8662 32.7454 77.9873 32.7261C78.1084 32.7068 78.2245 32.6638 78.3289 32.5996C78.4334 32.5354 78.5242 32.4512 78.5962 32.3519L75.9588 30.4445C75.8141 30.6444 75.7544 30.8934 75.7925 31.1372C75.8306 31.381 75.9634 31.5999 76.1622 31.7462Z" fill="#263238"/>
<path d="M76.162 32.9464C76.3254 33.0645 76.529 33.1129 76.7281 33.0812C76.9273 33.0494 77.1057 32.94 77.2242 32.7769L75.9925 31.8842C75.8744 32.0476 75.8259 32.2512 75.8577 32.4503C75.8894 32.6494 75.9989 32.8278 76.162 32.9464Z" fill="#263238"/>
<path opacity="0.5" d="M76.162 32.9464C76.3254 33.0645 76.529 33.1129 76.7281 33.0812C76.9273 33.0494 77.1057 32.94 77.2242 32.7769L75.9925 31.8842C75.8744 32.0476 75.8259 32.2512 75.8577 32.4503C75.8894 32.6494 75.9989 32.8278 76.162 32.9464Z" fill="white"/>
<g opacity="0.7">
<path opacity="0.7" d="M76.1622 31.7462L77.2922 32.5598C77.3914 32.6318 77.5039 32.6836 77.6232 32.7121C77.7424 32.7406 77.8662 32.7454 77.9873 32.7261C78.1084 32.7068 78.2245 32.6638 78.3289 32.5996C78.4334 32.5354 78.5242 32.4512 78.5962 32.3519L75.9588 30.4445C75.8141 30.6444 75.7544 30.8934 75.7925 31.1372C75.8306 31.381 75.9634 31.5999 76.1622 31.7462Z" fill="white"/>
</g>
<path opacity="0.3" d="M78.3542 24.1391C76.9462 26.1031 76.5824 29.2083 78.0988 30.2931C79.6153 31.3779 82.6188 29.7733 83.8437 28.0738C84.5941 27.0274 83.9748 25.2963 82.4584 24.2115C80.9419 23.1267 79.1 23.0928 78.3542 24.1391Z" fill="white"/>
<path opacity="0.4" d="M77.9498 26.7426C77.6986 27.0923 77.5568 27.5087 77.5423 27.939C77.5277 28.3693 77.6412 28.7942 77.8683 29.1601C78.0953 29.5259 78.4258 29.8161 78.8178 29.9941C79.2099 30.1721 79.6459 30.2297 80.0708 30.1598C80.4956 30.0899 80.8902 29.8956 81.2046 29.6013C81.5189 29.3071 81.7389 28.9263 81.8368 28.507C81.9347 28.0877 81.906 27.6488 81.7543 27.2458C81.6027 26.8429 81.335 26.4939 80.985 26.2432C80.5161 25.9073 79.9331 25.7712 79.364 25.8648C78.7949 25.9585 78.2863 26.2742 77.9498 26.7426Z" fill="white"/>
<path opacity="0.4" d="M78.1715 27.572C77.6788 28.25 78.0856 28.8647 78.7726 29.3574C79.4596 29.8501 80.1625 30.0354 80.6552 29.3574C81.1479 28.6794 80.732 28.0738 80.0472 27.5811C79.3625 27.0884 78.6619 26.894 78.1715 27.572Z" fill="white"/>
<path d="M24.1055 32.3745L24.8761 33.0163L29.3328 29.2082L35.0235 30.3585L39.3605 26.2679L39.7492 26.8013L40.7775 24.4825L38.2553 24.7515L38.644 25.2848L34.8382 29.4997L29.1407 28.3923L24.1055 32.3745Z" fill="#20C0E8"/>
<g opacity="0.3">
<path opacity="0.3" d="M24.1055 32.3745L24.8761 33.0163L29.3328 29.2082L35.0235 30.3585L39.3605 26.2679L39.7492 26.8013L40.7775 24.4825L38.2553 24.7515L38.644 25.2848L34.8382 29.4997L29.1407 28.3923L24.1055 32.3745Z" fill="white"/>
</g>
<path d="M66.2405 65.7026C66.3716 67.7502 65.8654 70.3854 65.3817 72.3493C64.9817 73.972 64.7037 74.4195 64.5975 75.1381C64.4823 75.9563 64.7309 77.1721 64.6676 78.2004C64.4258 82.2684 62.7714 90.4948 62.7714 90.4948L61.3838 90.4067L61.4199 74.4805L62.324 59.0492L67.7999 60.5092C68.3469 63.5059 66.2405 65.7026 66.2405 65.7026Z" fill="#DD8C6A"/>
<path d="M73.2873 90.7774L72.0262 90.7413L68.5255 75.1925L64.9863 60.1476L70.6612 59.9781C72.0172 62.6901 70.6408 65.4021 70.6408 65.4021C71.3482 67.3299 71.6172 69.999 71.7143 72.0217C71.7957 73.6896 71.6488 74.2003 71.7573 74.9167C71.8838 75.7349 72.2816 76.8219 72.5189 77.8321C73.45 81.8414 73.2873 90.7774 73.2873 90.7774Z" fill="#DD8C6A"/>
<path d="M54.8049 46.2373L55.4648 47.1052C56.1225 47.3086 56.1089 48.2871 56.1089 48.2871C56.2513 48.3979 57.5892 49.2431 57.9011 49.5166L57.1124 50.3663C56.7711 49.8443 55.5846 48.9606 55.5846 48.9606C55.5846 48.9606 53.971 47.973 53.7066 47.6204C53.4421 47.2679 53.8828 46.2192 53.8828 46.2192L54.8049 46.2373Z" fill="#DD8C6A"/>
<path d="M56.631 48.3753C57.7135 49.164 59.3114 50.3731 59.3114 50.3731C60.1622 49.4329 61.0598 48.536 62.0008 47.686C62.5841 47.1323 63.2516 46.6746 63.9783 46.33L63.7003 49.5821C62.8437 50.3189 60.1589 52.5472 59.1102 52.4568C58.2446 52.3822 56.6378 50.5268 55.7202 49.3787L56.631 48.3753Z" fill="#263238"/>
<path opacity="0.2" d="M61.0537 51.5981C61.6255 50.6331 63.1939 48.0996 63.1939 48.0996L63.5691 48.9516L63.316 49.8873C62.9182 50.2217 61.6278 51.18 61.0537 51.5981Z" fill="black"/>
<path d="M71.3503 47.9752C71.1204 50.9533 70.6931 53.9129 70.0711 56.8344C70.0711 56.8344 73.382 59.5464 72.3085 70.686C72.3085 70.686 68.9592 72.1685 61.0537 70.4057L62.5566 56.7847C62.5566 56.7847 62.2086 47.9323 63.1487 46.9447C63.9804 46.0678 67.6077 44.9107 70.3807 46.2847C70.692 46.4383 70.9504 46.6812 71.1231 46.9822C71.2958 47.2833 71.3749 47.629 71.3503 47.9752Z" fill="#20C0E8"/>
<path opacity="0.4" d="M71.3503 47.9752C71.1204 50.9533 70.6931 53.9129 70.0711 56.8344C70.0711 56.8344 73.382 59.5464 72.3085 70.686C72.3085 70.686 68.9592 72.1685 61.0537 70.4057L62.5566 56.7847C62.5566 56.7847 62.2086 47.9323 63.1487 46.9447C63.9804 46.0678 67.6077 44.9107 70.3807 46.2847C70.692 46.4383 70.9504 46.6812 71.1231 46.9822C71.2958 47.2833 71.3749 47.629 71.3503 47.9752Z" fill="black"/>
<path opacity="0.3" d="M67.5016 56.5361C67.5016 56.5361 65.0766 56.9565 63.3726 56.5361V57.5757C63.3726 57.5757 64.6404 57.7588 67.5016 57.5757V56.5361Z" fill="black"/>
<path d="M68.9122 42.488C68.5913 43.392 68.1732 45.0079 68.5167 45.9368C68.5576 46.0447 68.5604 46.1634 68.5247 46.2731C68.4889 46.3829 68.4167 46.4771 68.3201 46.5402C67.6217 47.0442 66.4849 47.4442 65.6307 47.3606C64.5346 47.2408 64.8193 46.4566 65.0996 46.0385C65.1741 45.9255 65.2917 45.765 65.425 45.7402C66.503 45.5571 66.7087 44.748 66.6251 43.9322L68.9122 42.488Z" fill="#DD8C6A"/>
<path opacity="0.3" d="M67.981 43.0778L66.625 43.9253C66.6431 44.1252 66.6431 44.3264 66.625 44.5264C66.8967 44.5182 67.1623 44.4437 67.3986 44.3094C67.635 44.175 67.8349 43.985 67.981 43.7558C68.1392 43.4687 68.0917 43.1297 67.981 43.0778Z" fill="black"/>
<path d="M65.3527 42.9513L64.7402 44.0519C64.9301 44.0677 65.1018 44.131 65.2917 44.1468C65.3866 43.9977 65.4996 43.8508 65.5945 43.6948C65.5584 43.8485 65.4341 44.0135 65.3956 44.1649C65.7327 44.2269 66.0745 44.2594 66.4172 44.2621C66.4344 44.2115 66.4411 44.158 66.4368 44.1047C66.4325 44.0515 66.4174 43.9996 66.3923 43.9525C66.2107 43.5437 65.8905 43.2123 65.4883 43.0168L65.3527 42.9513Z" fill="#263238"/>
<path d="M69.3392 41.0031C68.9437 42.4111 68.7833 43.2631 67.9041 43.8326C66.582 44.7004 64.9661 43.6631 64.9277 42.167C64.8983 40.811 65.5515 38.7408 67.0702 38.4764C67.5897 38.3842 68.1246 38.5015 68.5579 38.8026C68.9911 39.1037 69.2875 39.5642 69.3822 40.0833C69.4383 40.3891 69.4237 40.7038 69.3392 41.0031Z" fill="#DD8C6A"/>
<path d="M66.0374 41.0032C65.8674 41.2685 65.6621 41.5095 65.4272 41.7196C65.483 41.7779 65.5505 41.8236 65.6254 41.8536C65.7002 41.8836 65.7806 41.8973 65.8612 41.8936L66.0374 41.0032Z" fill="#FF5652"/>
<path d="M67.5851 40.4855C67.5962 40.4877 67.6078 40.4877 67.619 40.4855C67.6353 40.4772 67.6479 40.463 67.6542 40.4458C67.6605 40.4286 67.66 40.4097 67.6529 40.3928C67.6082 40.2913 67.5401 40.2019 67.454 40.1319C67.3679 40.0619 67.2664 40.0135 67.1579 39.9906C67.1397 39.988 67.1211 39.9927 67.1063 40.0037C67.0915 40.0147 67.0816 40.0311 67.0788 40.0493C67.0762 40.0676 67.0809 40.0861 67.0919 40.1009C67.1029 40.1158 67.1193 40.1256 67.1376 40.1284C67.2232 40.1481 67.3029 40.1876 67.3704 40.2437C67.438 40.2998 67.4914 40.371 67.5263 40.4516C67.5323 40.4619 67.5408 40.4705 67.5511 40.4764C67.5615 40.4824 67.5731 40.4855 67.5851 40.4855Z" fill="#263238"/>
<path d="M65.3637 39.8211C65.374 39.8273 65.3857 39.8306 65.3976 39.8306C65.4096 39.8306 65.4213 39.8273 65.4315 39.8211C65.5058 39.7756 65.5898 39.7484 65.6766 39.7417C65.7635 39.735 65.8507 39.7491 65.931 39.7827C65.9475 39.7906 65.9665 39.7917 65.9838 39.7858C66.0011 39.7799 66.0154 39.7674 66.0237 39.7511C66.0279 39.7431 66.0306 39.7343 66.0314 39.7253C66.0323 39.7163 66.0313 39.7072 66.0285 39.6985C66.0258 39.6899 66.0213 39.6819 66.0155 39.675C66.0096 39.6681 66.0024 39.6625 65.9943 39.6584C65.8925 39.614 65.7815 39.5946 65.6707 39.6016C65.5599 39.6087 65.4523 39.6421 65.357 39.6991C65.349 39.7034 65.3421 39.7091 65.3364 39.7161C65.3308 39.7231 65.3265 39.7311 65.324 39.7398C65.3215 39.7484 65.3207 39.7574 65.3217 39.7663C65.3227 39.7753 65.3255 39.7839 65.3298 39.7918C65.3383 39.8045 65.35 39.8146 65.3637 39.8211Z" fill="#263238"/>
<path d="M68.4642 45.4757L66.8822 46.7006C66.8148 46.753 66.7363 46.7892 66.6527 46.8062C66.5691 46.8233 66.4826 46.8207 66.4001 46.7989C66.3177 46.777 66.2413 46.7363 66.1772 46.6801C66.113 46.6238 66.0627 46.5535 66.0302 46.4746L65.6708 45.652L65.2505 45.7605C65.2024 45.7719 65.1585 45.7966 65.1237 45.8318C65.089 45.8669 65.0647 45.9111 65.0538 45.9593C64.9702 46.3458 64.6629 47.2905 64.6809 48.138C64.6809 48.138 65.6505 46.8407 66.1974 47.7741C66.1974 47.7741 66.9116 46.9311 67.4879 48.3888C67.8568 47.8587 68.1833 47.3003 68.4642 46.7187C68.7602 46.0271 68.9591 45.652 68.9591 45.652L68.4642 45.4757Z" fill="white"/>
<path d="M68.6539 45.5458C67.961 48.5385 67.4889 51.5781 67.2414 54.64C66.9227 59.2233 66.8572 60.6087 68.6697 60.4098C70.4823 60.2109 71.9671 59.9826 71.7027 59.3227C71.4382 58.6628 70.4506 57.178 70.5116 56.4209C70.5727 55.6638 71.2032 49.7629 71.2755 48.8702C71.3478 47.9775 71.8857 46.104 68.6539 45.5458Z" fill="#263238"/>
<path d="M68.9637 58.0278C68.9411 57.9058 69.3751 57.4651 69.8677 57.1577C70.1961 56.9618 70.5446 56.8019 70.9073 56.6808C70.9073 56.6808 71.9198 55.4898 72.2001 55.1666L72.982 55.8446C72.4726 56.3137 71.9876 56.8085 71.5288 57.3272L71.1085 58.2154C70.9573 58.4297 70.7544 58.6023 70.5186 58.7171C70.2535 58.8402 69.9773 58.9378 69.6937 59.0086C69.6392 59.023 69.5815 59.0196 69.529 58.9989C69.4766 58.9781 69.4321 58.9412 69.4022 58.8934C69.2135 58.6285 69.0656 58.3367 68.9637 58.0278Z" fill="#DD8C6A"/>
<path d="M65.4746 45.6995C65.4746 45.6995 63.9898 48.4928 63.8926 53.1575C63.7954 57.8221 63.9988 60.2945 63.1355 60.4369C62.2722 60.5793 62.0801 59.9849 62.0801 59.9849C62.0801 59.9849 62.3355 57.4537 62.3355 56.8367C62.3355 56.2198 62.0643 52.484 62.3355 49.8149C62.6067 47.1459 62.3355 47.3086 62.7875 47.0103C63.2395 46.7119 64.2632 45.9458 65.4746 45.6995Z" fill="#263238"/>
<path opacity="0.2" d="M70.7718 53.8987L69.8813 48.7888C69.8813 48.7888 70.6158 49.5369 71.1605 50.1109C71.0565 51.155 70.9029 52.6286 70.7718 53.8987Z" fill="black"/>
<path d="M70.3673 46.1311C70.3673 46.1311 69.7639 47.6702 69.8814 48.7889C69.9311 49.2635 73.303 52.8795 73.303 52.8795L70.7605 56.2514L72.0713 57.3814C72.0713 57.3814 75.6873 53.8015 75.7167 52.832C75.7461 51.8625 71.7255 46.5402 70.3673 46.1311Z" fill="#263238"/>
<path d="M67.0719 40.836C67.0493 40.9535 66.968 41.0349 66.8911 41.0213C66.8143 41.0077 66.7691 40.8993 66.794 40.7795C66.8188 40.6597 66.8979 40.5806 66.9748 40.5942C67.0516 40.6077 67.0945 40.7162 67.0719 40.836Z" fill="#263238"/>
<path d="M65.741 40.5738C65.7184 40.6913 65.6371 40.7749 65.5602 40.7591C65.4834 40.7433 65.4404 40.637 65.463 40.5195C65.4857 40.402 65.567 40.3184 65.6439 40.3342C65.7207 40.35 65.7659 40.454 65.741 40.5738Z" fill="#263238"/>
<path d="M65.6759 40.3456L65.4092 40.21C65.4092 40.21 65.5131 40.4541 65.6759 40.3456Z" fill="#263238"/>
<path d="M67.0069 40.6076L66.7402 40.472C66.7402 40.472 66.8442 40.7206 67.0069 40.6076Z" fill="#263238"/>
<path d="M66.2473 42.549C66.1721 42.555 66.0965 42.555 66.0213 42.549C66.0162 42.549 66.0111 42.548 66.0063 42.5459C66.0016 42.5438 65.9974 42.5407 65.994 42.5369C65.9906 42.533 65.988 42.5285 65.9865 42.5235C65.985 42.5186 65.9845 42.5134 65.9851 42.5083C65.9857 42.4985 65.99 42.4893 65.9972 42.4826C66.0043 42.4759 66.0138 42.4721 66.0236 42.4722C66.1858 42.4862 66.3492 42.4623 66.5006 42.4023C66.652 42.3423 66.7874 42.2478 66.8959 42.1264C66.8993 42.1225 66.9035 42.1195 66.9082 42.1173C66.9128 42.1152 66.9179 42.1141 66.923 42.1141C66.9282 42.1141 66.9332 42.1152 66.9379 42.1173C66.9426 42.1195 66.9468 42.1225 66.9501 42.1264C66.9573 42.1336 66.9614 42.1433 66.9614 42.1535C66.9614 42.1637 66.9573 42.1734 66.9501 42.1806C66.7709 42.388 66.5198 42.5196 66.2473 42.549Z" fill="#263238"/>
<path d="M68.4984 38.2505C69.1919 40.2347 69.0932 42.4099 68.2227 44.3231C68.4193 44.2644 68.6295 44.2192 68.8238 44.1627C68.9187 43.9118 68.9933 43.6542 69.0882 43.4056C69.0566 43.6316 68.9956 43.9118 68.9639 44.1491L69.495 44.0519C69.5877 43.8101 69.6645 43.5389 69.7572 43.2971C69.7165 43.5118 69.6713 43.8124 69.6284 44.0271C70.2443 43.6071 70.6793 42.9704 70.8465 42.2439C71.0175 41.4397 70.9124 40.6013 70.5482 39.8641C70.1098 39.098 69.3436 38.7838 68.4984 38.2505Z" fill="#263238"/>
<path d="M69.8339 42.1557C69.7249 42.5085 69.4813 42.804 69.1559 42.9784C68.7242 43.2044 68.4056 42.8473 68.4395 42.3863C68.4666 41.9727 68.7265 41.3534 69.2011 41.3128C69.306 41.3044 69.4112 41.3227 69.5071 41.3659C69.603 41.4092 69.6864 41.476 69.7495 41.5601C69.8127 41.6442 69.8535 41.7429 69.8683 41.8471C69.883 41.9512 69.8712 42.0574 69.8339 42.1557Z" fill="#DD8C6A"/>
<path d="M65.4838 49.2318C65.4147 49.2314 65.3467 49.2151 65.2849 49.1843C65.2144 49.1491 65.1531 49.0979 65.106 49.0347C65.0589 48.9715 65.0273 48.8981 65.0137 48.8205C65.0004 48.689 65.0258 48.5564 65.0869 48.4392C65.1479 48.322 65.2419 48.2251 65.3572 48.1606C65.5604 48.0431 65.7846 47.9664 66.0171 47.9346H66.0443H66.2273C66.2567 47.9363 66.2843 47.9492 66.3045 47.9706C66.3246 47.9921 66.3358 48.0204 66.3358 48.0498C66.3352 48.079 66.3234 48.1069 66.3027 48.1275C66.2821 48.1481 66.2542 48.16 66.225 48.1606C66.1143 48.1606 65.981 48.3866 65.9538 48.5696V48.5967C65.9539 48.7085 65.9281 48.8187 65.8782 48.9187C65.8284 49.0187 65.7561 49.1058 65.6668 49.173C65.6118 49.2078 65.5488 49.228 65.4838 49.2318ZM65.8612 48.2058C65.7262 48.2307 65.5969 48.2797 65.4793 48.3504C65.4027 48.394 65.3395 48.4577 65.2965 48.5345C65.2535 48.6114 65.2323 48.6985 65.2352 48.7866C65.2438 48.8284 65.2619 48.8677 65.2882 48.9015C65.3144 48.9352 65.3481 48.9624 65.3866 48.9809C65.4123 48.9948 65.441 49.002 65.4702 49.002C65.4994 49.002 65.5281 48.9948 65.5538 48.9809C65.6713 48.9199 65.6985 48.7414 65.7256 48.5696V48.5425C65.7485 48.4225 65.7945 48.3081 65.8612 48.2058Z" fill="white"/>
<path d="M66.8641 49.3064C66.7876 49.3066 66.7128 49.2837 66.6494 49.2409C66.5667 49.1654 66.503 49.0713 66.4638 48.9664C66.4245 48.8615 66.4106 48.7488 66.4234 48.6375V48.6103C66.4234 48.4318 66.3059 48.19 66.1974 48.1742C66.1684 48.1708 66.1419 48.156 66.1237 48.1332C66.1055 48.1103 66.0971 48.0812 66.1003 48.0521C66.1026 48.0231 66.1162 47.9962 66.1382 47.9772C66.1602 47.9582 66.1888 47.9486 66.2178 47.9504H66.4008H66.428C66.6561 48.0056 66.8717 48.1037 67.063 48.2397C67.1702 48.3164 67.2527 48.4226 67.3005 48.5454C67.3483 48.6683 67.3592 48.8023 67.332 48.9313C67.3108 49.0074 67.2716 49.0774 67.2177 49.1352C67.1638 49.193 67.0968 49.237 67.0223 49.2635C66.9728 49.2877 66.9191 49.3022 66.8641 49.3064ZM66.5568 48.242C66.6104 48.3539 66.6419 48.4752 66.6494 48.599V48.6284C66.6494 48.8002 66.6675 48.9787 66.776 49.0556C66.801 49.0705 66.8292 49.0792 66.8583 49.0812C66.8873 49.0832 66.9164 49.0783 66.9432 49.0669C66.9836 49.0523 67.0201 49.0286 67.0499 48.9976C67.0797 48.9666 67.102 48.9293 67.115 48.8883C67.1268 48.8024 67.1149 48.715 67.0806 48.6353C67.0464 48.5557 66.9911 48.4869 66.9206 48.4363C66.8111 48.3516 66.6881 48.2859 66.5568 48.242Z" fill="white"/>
<path d="M65.5398 50.4523C65.5279 50.4546 65.5156 50.4546 65.5037 50.4523C65.4752 50.4429 65.4516 50.4227 65.438 50.396C65.4245 50.3693 65.4221 50.3383 65.4313 50.3099C65.6563 49.6111 65.8078 48.8908 65.8833 48.1606C65.8863 48.1306 65.9011 48.1031 65.9244 48.084C65.9477 48.0649 65.9777 48.0559 66.0076 48.0589C66.0376 48.0619 66.0652 48.0767 66.0842 48.1C66.1033 48.1233 66.1123 48.1532 66.1093 48.1832C66.0345 48.929 65.8831 49.6652 65.6573 50.3799C65.6485 50.4033 65.6322 50.423 65.6109 50.4361C65.5896 50.4492 65.5646 50.4549 65.5398 50.4523Z" fill="white"/>
<path d="M66.4442 51.015C66.4218 51.0149 66.4001 51.0082 66.3816 50.9957C66.3631 50.9832 66.3487 50.9656 66.3402 50.9449C66.2523 50.7182 66.2026 50.4784 66.1933 50.2353C66.1929 49.9884 66.2133 49.742 66.2543 49.4985C66.2724 49.3765 66.2905 49.2545 66.3018 49.1324C66.359 48.7945 66.2975 48.4471 66.1278 48.1493C66.1194 48.137 66.1136 48.1232 66.1107 48.1086C66.1077 48.0941 66.1076 48.0791 66.1105 48.0645C66.1133 48.0499 66.119 48.036 66.1272 48.0236C66.1354 48.0112 66.1459 48.0006 66.1583 47.9923C66.1706 47.9839 66.1844 47.9781 66.199 47.9752C66.2135 47.9722 66.2285 47.9721 66.2431 47.975C66.2577 47.9778 66.2716 47.9835 66.284 47.9917C66.2964 47.9999 66.307 48.0104 66.3153 48.0228C66.5152 48.3633 66.5896 48.7631 66.5255 49.1528C66.5142 49.2793 66.4961 49.4059 66.4781 49.5302C66.4388 49.7601 66.4191 49.993 66.4193 50.2263C66.4275 50.4437 66.4718 50.6584 66.5504 50.8613C66.5609 50.8892 66.5602 50.9201 66.5484 50.9475C66.5366 50.9749 66.5146 50.9967 66.4871 51.0082C66.4733 51.0129 66.4587 51.0152 66.4442 51.015Z" fill="white"/>
<path d="M68.3898 40.8427C68.2678 40.732 68.096 40.5941 67.974 40.4811C68.0317 40.2355 68.0515 39.9824 68.0327 39.7308C67.9762 39.9297 67.9581 40.1331 67.9016 40.3319L67.4858 40.0562C67.3868 39.975 67.2654 39.9261 67.1378 39.9161C67.1604 39.7104 67.1694 39.5003 67.1943 39.2946C67.1468 39.4777 67.0926 39.6811 67.0474 39.8641C66.8846 39.8415 66.6971 39.8031 66.5366 39.7805C66.5547 39.5545 66.5818 39.3466 66.6021 39.1274C66.5321 39.2991 66.4824 39.5929 66.4123 39.7647L66.3648 39.6991C65.9022 39.5859 65.4225 39.559 64.9501 39.62C64.7919 38.9985 64.9817 38.1194 65.5919 37.9183C67.6598 37.229 69.3526 38.8426 69.4 38.9759C69.7096 39.828 69.1379 40.393 68.3898 40.8427Z" fill="#263238"/>
<path d="M69.1559 42.5783C69.1559 42.6172 69.1444 42.6552 69.1228 42.6876C69.1012 42.7199 69.0705 42.7451 69.0346 42.76C68.9986 42.7749 68.9591 42.7788 68.921 42.7712C68.8828 42.7636 68.8478 42.7449 68.8203 42.7174C68.7928 42.6899 68.7741 42.6548 68.7665 42.6167C68.7589 42.5786 68.7628 42.539 68.7777 42.5031C68.7925 42.4672 68.8178 42.4365 68.8501 42.4148C68.8824 42.3932 68.9204 42.3817 68.9593 42.3817C69.0115 42.3817 69.0615 42.4024 69.0983 42.4393C69.1352 42.4762 69.1559 42.5262 69.1559 42.5783Z" fill="#20C0E8"/>
<path d="M60.9112 90.1242C59.8197 90.7231 59.6976 90.7344 58.493 90.9627C58.2286 91.0124 58.3213 91.6407 58.945 91.6542C59.9643 91.6859 59.8784 91.6542 60.753 91.6723C61.4943 91.6904 62.387 91.7537 62.9769 91.7785H62.9972C63.0616 91.7739 63.1215 91.744 63.1639 91.6952C63.2062 91.6465 63.2276 91.583 63.2232 91.5186L63.0944 90.1762C63.0907 90.1478 63.0771 90.1216 63.0561 90.1021C63.035 90.0827 63.0077 90.0713 62.9791 90.07L61.2977 90.0225C61.162 90.0208 61.0284 90.0559 60.9112 90.1242Z" fill="#263238"/>
<path d="M60.9184 90.2259C60.9216 90.2204 60.9232 90.2141 60.9232 90.2078C60.9232 90.2014 60.9216 90.1952 60.9184 90.1897C60.9127 90.1858 60.906 90.1837 60.8992 90.1837C60.8923 90.1837 60.8856 90.1858 60.88 90.1897C60.8076 90.2145 60.1794 90.4632 60.1319 90.6643C60.1275 90.6834 60.1279 90.7033 60.1331 90.7222C60.1382 90.7411 60.1479 90.7585 60.1613 90.7728C60.1832 90.7965 60.2103 90.8147 60.2406 90.8261C60.2708 90.8375 60.3032 90.8417 60.3353 90.8383C60.5613 90.8135 60.7986 90.4541 60.9229 90.2417L60.9184 90.2259ZM60.1974 90.6575C60.2426 90.5468 60.5568 90.3886 60.7986 90.2846C60.6201 90.5694 60.4415 90.7366 60.3195 90.757C60.2983 90.76 60.2768 90.7574 60.2569 90.7495C60.2371 90.7415 60.2197 90.7285 60.2065 90.7118C60.2004 90.7071 60.1959 90.7007 60.1935 90.6935C60.1911 90.6862 60.1909 90.6784 60.1929 90.6711L60.1974 90.6575Z" fill="#20C0E8"/>
<path d="M60.9186 90.2259C60.9201 90.2195 60.9196 90.2129 60.9172 90.2068C60.9148 90.2007 60.9105 90.1955 60.905 90.192C60.7375 90.0605 60.5326 89.9854 60.3197 89.9773C60.2842 89.9818 60.2501 89.9935 60.2194 90.0118C60.1886 90.0301 60.162 90.0545 60.1412 90.0835C60.0847 90.1626 60.1005 90.2168 60.1276 90.2485C60.2384 90.3863 60.7175 90.3321 60.8983 90.2485C60.9033 90.2467 60.9078 90.2437 60.9113 90.2398C60.9149 90.2358 60.9174 90.2311 60.9186 90.2259ZM60.1819 90.1513L60.2067 90.1242C60.2215 90.1028 60.2406 90.0847 60.2628 90.0711C60.285 90.0575 60.3097 90.0486 60.3355 90.0451C60.5081 90.0493 60.6752 90.106 60.8147 90.2078C60.6067 90.2711 60.2542 90.2824 60.1886 90.2078C60.1886 90.2078 60.1728 90.1897 60.1886 90.1626L60.1819 90.1513Z" fill="#20C0E8"/>
<path d="M71.4407 90.2305C70.8242 90.7353 70.1008 91.0931 69.3254 91.2769C69.0045 91.3673 69.2056 91.9549 69.974 91.9549C71.2464 91.9345 70.7401 91.9142 71.8272 91.8893C72.7561 91.8712 73.0024 91.8645 73.7392 91.8599H73.764C73.8013 91.8591 73.8381 91.8507 73.8721 91.8354C73.9061 91.82 73.9366 91.798 73.9619 91.7706C73.9873 91.7432 74.0068 91.7109 74.0194 91.6758C74.032 91.6407 74.0373 91.6034 74.0352 91.5661L73.7889 90.1243C73.7809 90.0914 73.7616 90.0625 73.7342 90.0426C73.7069 90.0227 73.6734 90.0132 73.6397 90.0158L71.6984 90.0678C71.5289 90.0474 71.5718 90.1378 71.4407 90.2305Z" fill="#263238"/>
<path d="M71.4319 90.3434C71.4363 90.3376 71.4387 90.3304 71.4387 90.3231C71.4387 90.3158 71.4363 90.3086 71.4319 90.3028C71.429 90.2953 71.4241 90.2888 71.4177 90.284C71.4113 90.2793 71.4037 90.2763 71.3958 90.2756C71.2986 90.2756 70.4556 90.3028 70.3223 90.5016C70.3108 90.5195 70.3047 90.5403 70.3047 90.5615C70.3047 90.5828 70.3108 90.6036 70.3223 90.6214C70.3405 90.6549 70.3661 90.6838 70.397 90.7061C70.4278 90.7283 70.4633 90.7434 70.5008 90.7502C70.7675 90.8045 71.2014 90.5242 71.441 90.3502L71.4319 90.3434ZM70.4014 90.5242C70.4986 90.4248 70.9347 90.3751 71.2624 90.3593C70.9325 90.5853 70.65 90.696 70.5031 90.6711C70.4785 90.6669 70.4552 90.657 70.4351 90.642C70.4151 90.6271 70.3989 90.6077 70.3878 90.5853C70.3829 90.5783 70.3802 90.57 70.3802 90.5615C70.3802 90.553 70.3829 90.5447 70.3878 90.5378L70.4014 90.5242Z" fill="#20C0E8"/>
<path d="M71.4317 90.3436C71.4356 90.3379 71.4377 90.3312 71.4377 90.3243C71.4377 90.3175 71.4356 90.3108 71.4317 90.3051C71.4159 90.2938 71.1334 89.9255 70.8306 89.878C70.7435 89.8615 70.6534 89.8776 70.5775 89.9232C70.4758 89.9842 70.4735 90.0452 70.4916 90.0859C70.5639 90.2622 71.1515 90.382 71.3956 90.3662C71.403 90.3655 71.4101 90.3631 71.4163 90.3591C71.4226 90.3552 71.4279 90.3499 71.4317 90.3436ZM70.5933 90.0023L70.6227 89.9729C70.6785 89.94 70.7444 89.9288 70.808 89.9413C71.0033 90.0008 71.1764 90.1173 71.3052 90.2758C71.0317 90.2645 70.6136 90.1537 70.5707 90.0498C70.5707 90.0498 70.5707 90.0249 70.6001 90L70.5933 90.0023Z" fill="#20C0E8"/>
<path d="M51.5461 54.5316C51.2274 55.1599 52.2873 55.9305 52.2873 55.9305L52.7891 56.4435C52.8713 56.5331 52.9837 56.5891 53.1046 56.6007C53.2256 56.6124 53.3467 56.579 53.4445 56.5068L53.9394 56.1543L53.9552 56.143C54.0569 56.0653 54.1244 55.9511 54.1433 55.8246C54.1623 55.698 54.1313 55.5691 54.0569 55.465L53.7247 55.013C53.5902 54.8279 53.4175 54.6738 53.2185 54.561L52.267 54.014L51.5461 54.5316Z" fill="#FFC3BD"/>
<path d="M47.4125 40.7659C47.5325 40.501 47.7278 40.2772 47.974 40.1225C48.2203 39.9677 48.5066 39.8888 48.7973 39.8955C49.0881 39.9023 49.3704 39.9944 49.6092 40.1604C49.848 40.3264 50.0327 40.559 50.1403 40.8292L50.1719 40.9083C50.3674 41.4609 50.4444 42.0484 50.3979 42.6327C50.3844 43.209 50.3663 43.7943 50.3753 44.3526C50.3844 44.9108 50.3753 46.9267 50.3934 47.4736C50.4115 47.9799 51.4353 50.2692 52.4274 53.5756C52.4476 53.6392 52.4725 53.7011 52.502 53.7609L52.6851 54.1248C52.6851 54.1248 52.4116 54.2988 52.1314 54.4661C51.9045 54.6367 51.656 54.7765 51.3923 54.8819C51.245 54.7483 51.1232 54.589 51.033 54.4118C50.242 53.1643 47.6588 48.5358 47.5232 47.8578C47.3899 47.2295 47.2972 45.1458 47.2385 44.513C47.1797 43.8802 47.1345 43.2632 47.1164 42.6395C47.1025 42.3264 47.1146 42.0127 47.1526 41.7016C47.1925 41.3778 47.2801 41.0618 47.4125 40.7637V40.7659Z" fill="#263238"/>
<path opacity="0.3" d="M47.4125 40.7659C47.5325 40.501 47.7278 40.2772 47.974 40.1225C48.2203 39.9677 48.5066 39.8888 48.7973 39.8955C49.0881 39.9023 49.3704 39.9944 49.6092 40.1604C49.848 40.3264 50.0327 40.559 50.1403 40.8292L50.1719 40.9083C50.3674 41.4609 50.4444 42.0484 50.3979 42.6327C50.3844 43.209 50.3663 43.7943 50.3753 44.3526C50.3844 44.9108 50.3753 46.9267 50.3934 47.4736C50.4115 47.9799 51.4353 50.2692 52.4274 53.5756C52.4476 53.6392 52.4725 53.7011 52.502 53.7609L52.6851 54.1248C52.6851 54.1248 52.4116 54.2988 52.1314 54.4661C51.9045 54.6367 51.656 54.7765 51.3923 54.8819C51.245 54.7483 51.1232 54.589 51.033 54.4118C50.242 53.1643 47.6588 48.5358 47.5232 47.8578C47.3899 47.2295 47.2972 45.1458 47.2385 44.513C47.1797 43.8802 47.1345 43.2632 47.1164 42.6395C47.1025 42.3264 47.1146 42.0127 47.1526 41.7016C47.1925 41.3778 47.2801 41.0618 47.4125 40.7637V40.7659Z" fill="black"/>
<path d="M39.2963 41.5456C39.6827 45.9978 41.1608 48.5064 40.9619 52.0636C40.9619 52.0636 48.9849 52.2218 49.2606 52.2218C49.3781 45.6678 50.3138 46.1673 50.0268 42.0179C50.0765 40.6619 49.3013 39.8144 48.5171 39.6788L45.1 38.9714L40.6952 39.7285C40.2763 39.8001 39.8998 40.0269 39.6406 40.3636C39.3813 40.7003 39.2584 41.1223 39.2963 41.5456Z" fill="#20C0E8"/>
<path d="M45.5977 82.3093L46.6373 90.5244L48.6622 90.3798L48.1153 82.3093H45.5977Z" fill="#FFC3BD"/>
<path d="M49.1546 73.6105C49.3377 81.3578 48.8902 87.9977 48.8902 87.9977L46.1578 88.183C46.1578 88.183 44.6188 78.1305 45.2403 74.0241C45.2109 73.1608 44.212 62.3648 43.8685 60.324C43.247 56.6605 42.5825 54.1474 42.5825 54.1474L49.0122 53.7881C49.0122 53.7881 49.0416 68.7335 49.1546 73.6105Z" fill="#20C0E8"/>
<g opacity="0.2">
<path opacity="0.2" d="M45.4868 56.9634C45.4868 56.9634 45.2789 65.4497 44.9083 70.103C44.7162 67.5876 44.2122 62.3648 43.8687 60.324L45.4868 56.9634Z" fill="black"/>
</g>
<path d="M37.0434 82.4607L36.2095 90.2464L38.2276 90.0272L39.6921 82.3635L37.0434 82.4607Z" fill="#FFC3BD"/>
<path d="M35.9565 87.9706L39.055 87.8576C39.055 87.8576 41.6947 78.3452 42.8089 73.319C43.8891 67.7164 45.9051 53.7338 45.9051 53.7338L40.7545 53.3361C38.0109 58.2922 38.9985 70.1572 38.5126 73.4794C36.1848 77.6311 35.9565 87.9706 35.9565 87.9706Z" fill="#20C0E8"/>
<path d="M48.9603 51.302H41.4187C41.4187 51.302 40.1802 55.6661 40.1915 55.6231C40.2028 55.5802 49.0416 56.048 49.0416 56.048L48.9603 51.302Z" fill="#20C0E8"/>
<path d="M49.0419 89.7221C50.3798 90.4001 50.5267 90.4136 51.9799 90.6441C52.3008 90.6961 52.2059 91.4555 51.4668 91.4962C50.2397 91.5707 50.3368 91.521 49.295 91.5798C48.4023 91.6295 47.1096 91.7357 46.3977 91.7877H46.3751C46.3362 91.7865 46.2979 91.7777 46.2624 91.7617C46.2269 91.7458 46.195 91.723 46.1683 91.6946C46.1417 91.6663 46.1209 91.633 46.1071 91.5966C46.0933 91.5602 46.0868 91.5215 46.088 91.4826L46.1965 89.8577C46.1997 89.8232 46.2151 89.791 46.24 89.767C46.2649 89.7429 46.2976 89.7286 46.3321 89.7266L48.5763 89.6113C48.7389 89.6026 48.9006 89.6411 49.0419 89.7221Z" fill="#263238"/>
<path d="M49.0416 89.8396C49.1998 90.0927 49.5071 90.5176 49.7715 90.538C49.8105 90.5414 49.8498 90.5354 49.886 90.5204C49.9222 90.5055 49.9542 90.482 49.9794 90.4521C49.9955 90.4348 50.0068 90.4136 50.0124 90.3907C50.0179 90.3677 50.0175 90.3437 50.0111 90.321C49.9455 90.0792 49.1794 89.8035 49.0935 89.7763C49.0851 89.773 49.0758 89.7723 49.0669 89.7743C49.0581 89.7763 49.05 89.781 49.0438 89.7877C49.0401 89.7946 49.0381 89.8024 49.0381 89.8103C49.0381 89.8181 49.0401 89.8259 49.0438 89.8328L49.0416 89.8396ZM49.9297 90.3436C49.932 90.3524 49.9319 90.3616 49.9295 90.3703C49.9272 90.379 49.9226 90.3869 49.9162 90.3933C49.9007 90.414 49.8799 90.4301 49.8561 90.4401C49.8322 90.45 49.8062 90.4534 49.7806 90.4498C49.6314 90.4385 49.4122 90.2238 49.1839 89.8984C49.4823 90.0137 49.8619 90.1945 49.9252 90.3255L49.9297 90.3436Z" fill="#20C0E8"/>
<path d="M49.0416 89.8576C49.2676 89.948 49.8439 89.9955 49.9727 89.826C50.0021 89.7876 50.0224 89.7198 49.9501 89.6271C49.9226 89.5926 49.8884 89.564 49.8496 89.543C49.8107 89.5221 49.7681 89.5091 49.7241 89.5051C49.428 89.4689 49.0461 89.7718 49.0258 89.7831C49.0202 89.7882 49.0159 89.7945 49.0131 89.8016C49.0104 89.8086 49.0093 89.8162 49.0099 89.8237C49.0099 89.8324 49.0132 89.8406 49.0191 89.8469C49.0249 89.8532 49.033 89.8571 49.0416 89.8576ZM49.9049 89.7198C49.9106 89.7281 49.9137 89.7379 49.9137 89.748C49.9137 89.7581 49.9106 89.768 49.9049 89.7763C49.8281 89.8757 49.4032 89.8757 49.1501 89.8057C49.3148 89.6788 49.5142 89.6047 49.7218 89.5932C49.753 89.5965 49.7832 89.6062 49.8105 89.6218C49.8377 89.6373 49.8614 89.6584 49.88 89.6836L49.9117 89.7153L49.9049 89.7198Z" fill="#20C0E8"/>
<path d="M38.7249 89.6384C39.2718 90.1175 40.056 90.5559 41.281 90.8994C41.6674 91.0079 41.4233 91.7266 40.4967 91.7063C38.9622 91.6837 39.5724 91.6566 38.2616 91.6294C37.1316 91.6068 36.8446 91.5978 35.9541 91.591H35.9338C35.8888 91.5905 35.8443 91.5808 35.8032 91.5626C35.762 91.5444 35.725 91.518 35.6944 91.485C35.6637 91.452 35.6401 91.4132 35.6249 91.3708C35.6097 91.3284 35.6033 91.2834 35.6061 91.2384L35.9022 89.4982C35.9122 89.4583 35.9361 89.4231 35.9696 89.3991C36.0032 89.3751 36.0441 89.3638 36.0852 89.3672L38.4266 89.4304C38.6209 89.4169 38.5712 89.5254 38.7249 89.6384Z" fill="#263238"/>
<path d="M38.7319 89.7808C39.019 89.991 39.541 90.3255 39.8619 90.2622C39.9093 90.256 39.9545 90.2386 39.9938 90.2115C40.0331 90.1844 40.0654 90.1483 40.0879 90.1062C40.1024 90.0849 40.1101 90.0597 40.1101 90.0339C40.1101 90.0081 40.1024 89.9829 40.0879 89.9616C39.9275 89.7243 38.9082 89.6926 38.793 89.6926C38.7827 89.6923 38.7726 89.6955 38.7644 89.7017C38.7562 89.7078 38.7503 89.7166 38.7478 89.7265C38.7424 89.7333 38.7395 89.7417 38.7395 89.7503C38.7395 89.7589 38.7424 89.7672 38.7478 89.774L38.7319 89.7808ZM39.9975 90.0068C40.0036 90.015 40.0069 90.0249 40.0069 90.035C40.0069 90.0452 40.0036 90.0551 39.9975 90.0633C39.9836 90.0901 39.9638 90.1134 39.9395 90.1315C39.9152 90.1495 39.8871 90.1617 39.8574 90.1673C39.6811 90.1966 39.3376 90.061 38.9399 89.7898C39.3354 89.8102 39.8619 89.8712 39.9794 89.991L39.9975 90.0068Z" fill="#20C0E8"/>
<path d="M38.7723 89.7921C39.0707 89.8124 39.7803 89.6678 39.8662 89.4553C39.891 89.4056 39.8865 89.331 39.7645 89.2587C39.6726 89.2045 39.5646 89.1845 39.4594 89.2022C39.0933 89.261 38.752 89.7039 38.7339 89.7198C38.7291 89.7263 38.7266 89.7342 38.7266 89.7424C38.7266 89.7505 38.7291 89.7584 38.7339 89.765C38.7428 89.7786 38.7565 89.7883 38.7723 89.7921ZM39.7419 89.3559C39.7735 89.3875 39.7645 89.4079 39.778 89.4169C39.7261 89.5435 39.2221 89.6768 38.8921 89.6926C39.0469 89.501 39.2555 89.3602 39.491 89.2881C39.5685 89.2718 39.6493 89.2855 39.717 89.3265L39.7532 89.3627L39.7419 89.3559Z" fill="#20C0E8"/>
<path opacity="0.8" d="M39.2969 41.5456C39.6834 45.9978 41.1614 48.5064 40.9625 52.0636C40.9625 52.0636 48.9855 52.2218 49.2613 52.2218C49.3788 45.6678 50.3144 46.1673 50.0274 42.0179C50.0771 40.6619 49.2658 39.8054 48.4816 39.6698L45.0916 38.9714L40.6868 39.7285C40.2696 39.8021 39.8952 40.0297 39.6378 40.3662C39.3804 40.7027 39.2588 41.1236 39.2969 41.5456Z" fill="white"/>
<path d="M47.6296 48.1696L46.7256 49.7787L45.0894 48.0363C45.0894 47.9933 45.79 40.68 45.79 40.68L46.2126 40.6483C46.1719 41.5365 47.6296 48.1696 47.6296 48.1696Z" fill="#20C0E8"/>
<path d="M47.358 40.3704C47.7452 43.4961 47.4255 46.6689 46.4224 49.6545L47.1004 56.9634C47.2337 58.0233 47.914 58.2312 48.5219 58.2877L49.7694 58.1883L49.3174 51.2139C49.3174 51.2139 50.3367 43.5299 50.1016 41.7897C49.9457 40.6416 49.566 40.1942 49.2948 39.9614C49.1785 39.8636 49.0393 39.7968 48.8903 39.767C48.4157 39.6676 47.019 39.2902 47.0823 39.315C47.1456 39.3399 47.358 40.3704 47.358 40.3704Z" fill="#263238"/>
<path d="M46.6957 37.168C46.524 37.9839 46.2595 39.0958 47.1477 39.4755C47.5342 39.6427 47.7172 40.1851 47.3466 40.3591C46.976 40.5332 44.5758 40.3591 44.3657 40.2597C43.8459 39.993 43.4797 39.8077 43.76 39.2879C44.2481 38.3997 43.9385 36.542 43.873 35.6493L46.6957 37.168Z" fill="#FFC3BD"/>
<path d="M46.4514 40.2733L46.3407 40.6236C46.3329 40.6638 46.3132 40.7008 46.2842 40.7298C46.2552 40.7588 46.2182 40.7785 46.178 40.7863L45.7553 40.8179C45.7213 40.8182 45.688 40.8076 45.6604 40.7877C45.6328 40.7677 45.6122 40.7396 45.6017 40.7072L45.396 40.3953L45.9226 40.0857L46.4514 40.2733Z" fill="#20C0E8"/>
<path opacity="0.2" d="M44.4336 36.9397C44.5619 37.2532 44.7457 37.5411 44.976 37.7895C45.3037 38.1646 45.9207 38.3296 46.5173 38.3296C46.5375 37.9345 46.5966 37.5424 46.6936 37.1589L46.5693 37.0934L44.4336 36.9397Z" fill="black"/>
<path d="M43.3918 58.2606C45.4258 58.3984 45.9908 58.1882 46.2733 56.6017C46.2733 56.6017 46.8112 50.9133 46.705 49.6545C46.705 49.6545 45.349 47.0103 45.0823 45.1729C44.793 43.1186 43.5319 39.0054 43.1681 39.0325C42.4697 39.0799 39.864 39.993 39.4413 40.5512C38.8809 41.2947 39.2447 42.1535 39.3781 43.0756C39.8029 46.0294 40.1216 47.0464 40.2821 50.0251C40.2821 50.0251 38.9261 57.7091 39.134 57.7362C39.2922 57.7521 41.7691 58.1498 43.3918 58.2606Z" fill="#263238"/>
<path opacity="0.2" d="M40.9619 52.0637H44.4333V52.2197C44.4333 52.4402 44.3457 52.6518 44.1897 52.8077C44.0337 52.9637 43.8222 53.0513 43.6016 53.0513H41.7936C41.573 53.0513 41.3615 52.9637 41.2055 52.8077C41.0495 52.6518 40.9619 52.4402 40.9619 52.2197V52.0637Z" fill="white"/>
<path opacity="0.2" d="M49.3965 53.0897H48.9084C48.6877 53.0983 48.4726 53.0193 48.31 52.8698C48.1474 52.7203 48.0505 52.5126 48.0405 52.292V52.1383L49.383 52.0818L49.3965 53.0897Z" fill="white"/>
<path d="M48.0633 36.0244C47.8373 37.6403 45.9638 38.5715 44.6485 37.4821C43.8869 36.8539 43.7445 36.0719 43.5456 34.8492C43.5162 34.6639 43.4868 34.4696 43.4529 34.2616C43.3984 33.9392 43.417 33.6087 43.5072 33.2944C43.5429 33.1631 43.5922 33.0358 43.6541 32.9147C43.8803 32.4573 44.2598 32.0938 44.7264 31.8873C45.193 31.6809 45.7173 31.6445 46.2079 31.7847C47.8193 32.2548 48.2645 34.578 48.0633 36.0244Z" fill="#FFC3BD"/>
<path d="M44.1943 33.0457C44.4137 33.4043 44.5991 33.7826 44.748 34.1757C44.6038 34.2086 44.4651 34.2626 44.3367 34.3362C44.2192 34.4108 44.3367 34.7633 44.3977 34.8944C44.5077 35.1588 44.6353 35.4155 44.7797 35.6628C44.5703 35.7518 44.351 35.8155 44.1265 35.8526C44.0651 35.6812 43.9645 35.5264 43.8327 35.4006C43.7564 35.3072 43.6537 35.239 43.538 35.2047C43.4223 35.1704 43.299 35.1718 43.1841 35.2085C43.1434 35.0074 41.9615 34.0989 42.9468 33.4909C43.0912 33.3764 43.25 33.2814 43.4192 33.2084L43.6452 33.1248C43.8224 33.0676 44.0081 33.0409 44.1943 33.0457Z" fill="#263238"/>
<path d="M43.238 34.804C43.7419 34.6888 44.2098 35.2425 44.368 35.6628C44.5533 36.1284 44.3318 36.6052 43.812 36.5126C43.6184 36.4756 43.434 36.4007 43.2695 36.2921C43.1051 36.1835 42.9638 36.0433 42.8538 35.8798C42.7841 35.7898 42.7382 35.6837 42.7203 35.5714C42.7025 35.459 42.7131 35.3439 42.7514 35.2367C42.7897 35.1296 42.8543 35.0338 42.9393 34.9582C43.0244 34.8825 43.1271 34.8295 43.238 34.804Z" fill="#FFC3BD"/>
<path d="M46.2617 34.1261C46.3453 34.1261 46.4244 34.2142 46.4379 34.3521C46.4515 34.49 46.404 34.5917 46.3091 34.6007C46.2142 34.6097 46.1374 34.5126 46.1238 34.3747C46.1102 34.2368 46.178 34.1442 46.2617 34.1261Z" fill="#263238"/>
<path d="M47.7104 34.0311C47.794 34.0311 47.8731 34.1193 47.8866 34.2571C47.9002 34.395 47.8437 34.4967 47.7578 34.5057C47.6719 34.5148 47.5951 34.4176 47.5815 34.291C47.568 34.1645 47.6267 34.0424 47.7104 34.0311Z" fill="#263238"/>
<path d="M47.3447 35.6425C47.4537 35.6468 47.5623 35.627 47.6627 35.5844C47.7631 35.5418 47.8529 35.4775 47.9255 35.3962C47.6076 35.1189 47.33 34.7987 47.1006 34.4447L47.3447 35.6425Z" fill="#F98C8C"/>
<path d="M45.9159 33.9136C45.9623 33.8311 46.0273 33.7605 46.1058 33.7076C46.1843 33.6546 46.274 33.6207 46.3679 33.6085H46.3928C46.4129 33.6052 46.4308 33.5941 46.4427 33.5775C46.4545 33.561 46.4593 33.5405 46.4561 33.5204C46.4522 33.5006 46.441 33.483 46.4246 33.4713C46.4082 33.4595 46.3879 33.4544 46.3679 33.4571C46.2481 33.4685 46.1327 33.5082 46.0313 33.573C45.9299 33.6379 45.8454 33.726 45.7849 33.83C45.7752 33.8473 45.7725 33.8676 45.7771 33.8868C45.7817 33.9061 45.7933 33.9229 45.8097 33.934C45.8223 33.9372 45.8355 33.9372 45.8481 33.934C45.8725 33.9362 45.8968 33.9289 45.9159 33.9136Z" fill="#263238"/>
<path d="M47.9976 33.7826C48.0133 33.7701 48.0234 33.752 48.026 33.7322C48.0285 33.7124 48.0232 33.6923 48.0112 33.6763C47.9385 33.5805 47.844 33.5035 47.7355 33.4516C47.627 33.3997 47.5076 33.3745 47.3874 33.378C47.3777 33.3789 47.3682 33.3816 47.3596 33.3862C47.351 33.3908 47.3434 33.3971 47.3373 33.4047C47.3312 33.4123 47.3266 33.4211 47.324 33.4305C47.3214 33.4399 47.3206 33.4497 47.3219 33.4594C47.3247 33.4784 47.3347 33.4955 47.3499 33.5073C47.365 33.5191 47.3842 33.5246 47.4033 33.5227C47.4983 33.5211 47.5924 33.5423 47.6777 33.5843C47.7629 33.6264 47.837 33.6881 47.8937 33.7645C47.9012 33.7745 47.9112 33.7824 47.9227 33.7876C47.9341 33.7927 47.9467 33.7949 47.9592 33.7939C47.9726 33.7925 47.9856 33.7887 47.9976 33.7826Z" fill="#263238"/>
<path d="M45.4758 48.4002C45.1933 47.4058 44.8679 46.4024 44.278 45.5549C44.0656 45.2475 43.826 44.965 43.6 44.6509C43.297 44.2507 43.0185 43.8326 42.7661 43.3988C43.0147 43.1728 43.3424 42.9468 43.609 42.7389L42.6011 41.905C42.8545 40.9469 42.9709 39.9577 42.9469 38.967C43.0575 38.8881 43.1946 38.8556 43.3288 38.8766C43.8106 39.6246 44.1614 40.4492 44.3661 41.3151C44.9449 43.6393 45.3163 46.0103 45.4758 48.4002Z" fill="#263238"/>
<path opacity="0.2" d="M46.5854 49.4059C46.5696 49.3856 46.556 49.3607 46.5402 49.3359C45.8983 48.3369 42.9784 43.7763 42.775 43.3966C43.0259 43.1706 43.3536 42.9446 43.6203 42.7367L42.6123 41.9027C42.8646 40.9444 42.981 39.9554 42.9581 38.9647C43.068 38.8862 43.2043 38.8538 43.3378 38.8743C43.6419 39.3463 43.895 39.8494 44.0926 40.375C44.2069 40.6812 44.3012 40.9945 44.3751 41.3129C44.9469 43.5593 45.5435 47.2205 46.5492 49.3065L46.5854 49.4059Z" fill="white"/>
<path d="M48.0406 48.8815C48.0248 47.8464 48.0406 46.7933 48.3638 45.8102C48.4791 45.4553 48.6328 45.1141 48.7525 44.7593C48.9062 44.3073 49.374 43.7468 49.469 43.2722C49.1661 43.1343 48.791 42.9942 48.47 42.8835L49.1955 41.7941C48.6757 40.9512 47.8824 40.2641 47.6135 39.3081C47.4852 39.2647 47.345 39.2728 47.2225 39.3307C47.0621 39.8618 47.3152 41.4077 47.3287 41.7331C47.4417 44.1355 47.5118 46.5379 48.0406 48.8815Z" fill="#263238"/>
<path opacity="0.2" d="M49.469 43.2723C48.9062 44.8136 47.7333 48.0182 46.5852 49.4059C46.5491 49.4488 46.5152 49.4895 46.479 49.5279L46.54 49.3358C46.5393 49.3253 46.5393 49.3147 46.54 49.3042C47.5864 45.9142 47.444 44.0723 47.3333 41.7242C47.3197 41.3987 47.0666 39.8099 47.2271 39.2811C47.2875 39.2518 47.3532 39.2347 47.4203 39.2308C47.4874 39.227 47.5546 39.2364 47.618 39.2585C47.8825 40.2122 48.6757 40.9399 49.2 41.7829C48.9605 42.1468 48.7187 42.5084 48.4768 42.8722C48.7819 42.9943 49.1661 43.1344 49.469 43.2723Z" fill="white"/>
<path opacity="0.3" d="M39.2017 42.1989C39.2017 42.1989 39.8955 43.7583 41.5702 46.0612C43.2719 48.4003 44.2279 48.4003 44.2279 48.4003L45.4754 48.7755C45.4754 48.7755 45.1545 42.8769 41.5295 41.9955C40.4537 41.7265 38.9712 42.2057 39.2017 42.1989Z" fill="black"/>
<path d="M53.3806 46.0386L51.5161 46.1245V47.1505L53.3806 46.8883V46.0386Z" fill="#FFC3BD"/>
<path d="M52.8457 46.7143C52.8073 47.6183 53.9102 47.824 53.9102 47.824L54.4842 48.2941C54.576 48.373 54.6931 48.4164 54.8142 48.4164C54.9352 48.4164 55.0523 48.373 55.1441 48.2941L55.6187 47.8895L55.6323 47.8782C55.731 47.7876 55.7898 47.6615 55.7957 47.5277C55.8016 47.3938 55.7542 47.263 55.6639 47.1641L55.2775 46.7369C55.1212 46.5625 54.9293 46.4238 54.7147 46.3301L53.3813 46.0386L52.8457 46.7143Z" fill="#FFC3BD"/>
<path d="M39.3851 40.9558C39.0009 41.7062 39.1727 42.574 39.6337 43.2791C40.6824 44.8747 44.1402 46.9946 44.8317 47.4624C46.3956 48.5291 52.7417 47.2861 52.7417 47.2861L52.8344 45.7199L46.0544 45.3809C46.0544 45.3809 43.7786 41.5909 42.2124 40.4338C41.4236 39.8552 39.923 39.9049 39.3851 40.9558Z" fill="#263238"/>
<path d="M44.4042 31.579C44.2989 31.5669 44.1923 31.5774 44.0913 31.6097C43.9904 31.6421 43.8975 31.6956 43.8189 31.7666C43.3697 32.1048 43.0556 32.592 42.933 33.1407C42.9039 33.2526 42.9039 33.3701 42.933 33.482C42.9453 33.5391 42.9745 33.5912 43.0168 33.6315C43.0592 33.6718 43.1126 33.6984 43.1703 33.708C43.329 33.5421 43.5273 33.4192 43.7466 33.3509C44.1883 33.2059 44.6421 33.1008 45.1026 33.0367C45.9388 32.9096 46.7644 32.7207 47.5727 32.4717C47.7332 32.4243 47.9163 32.352 47.9592 32.1915C48.0021 32.031 47.6564 31.7689 47.7129 31.7169C47.801 31.631 47.923 31.5542 47.923 31.4321C47.9218 31.3837 47.9086 31.3364 47.8846 31.2943C47.851 31.2153 47.8022 31.1437 47.7409 31.0836C47.6797 31.0235 47.6072 30.976 47.5275 30.944C47.4466 30.9163 47.358 30.9213 47.2807 30.9581C47.2034 30.9948 47.1436 31.0603 47.114 31.1406C47.0891 30.9942 47.0559 30.8493 47.0145 30.7067C46.9747 30.6411 46.9119 30.5927 46.8382 30.5711C46.7255 30.5388 46.6066 30.5348 46.4919 30.5592C46.3773 30.5836 46.2704 30.6358 46.1806 30.7112C46.0014 30.8636 45.8486 31.0446 45.7286 31.2468C45.4935 31.5903 44.8155 31.674 44.4042 31.579Z" fill="#263238"/>
<path d="M46.5154 35.8888C46.5119 35.8854 46.5092 35.8814 46.5073 35.8769C46.5054 35.8725 46.5044 35.8677 46.5044 35.8628C46.5044 35.858 46.5054 35.8532 46.5073 35.8487C46.5092 35.8443 46.5119 35.8402 46.5154 35.8368C46.5218 35.8306 46.5303 35.8271 46.5391 35.8271C46.548 35.8271 46.5565 35.8306 46.5629 35.8368C46.6662 35.9457 46.7937 36.0286 46.9351 36.0788C47.0764 36.1291 47.2277 36.1453 47.3765 36.1261C47.3863 36.1255 47.396 36.1286 47.4036 36.1349C47.4112 36.1412 47.416 36.1502 47.4172 36.16C47.4178 36.1693 47.4149 36.1784 47.409 36.1855C47.4031 36.1927 47.3947 36.1973 47.3855 36.1984C47.2263 36.2195 47.0644 36.2024 46.9131 36.1486C46.7618 36.0948 46.6255 36.0057 46.5154 35.8888Z" fill="#263238"/>
<path d="M43.3264 38.9489L43.9005 38.7681C44.4854 39.4116 45.213 39.9093 46.0248 40.2212C45.658 40.4428 45.3654 40.7685 45.1841 41.1569C43.2631 40.3975 43.3264 38.9489 43.3264 38.9489Z" fill="white"/>
<path d="M47.1524 39.0484L46.6303 38.9105C46.6303 38.9105 46.3636 39.9976 45.8145 40.1264C46.7433 40.54 46.8767 41.0146 46.8767 41.0146C48.2598 40.6417 47.1524 39.0484 47.1524 39.0484Z" fill="white"/>
<path opacity="0.3" d="M46.0677 49.9235C46.0645 49.9648 46.0493 50.0041 46.0238 50.0367C45.9984 50.0693 45.9639 50.0937 45.9247 50.1068C45.8855 50.1199 45.8433 50.1211 45.8034 50.1104C45.7635 50.0996 45.7277 50.0773 45.7003 50.0463C45.673 50.0153 45.6555 49.9769 45.6499 49.9359C45.6443 49.895 45.6509 49.8533 45.6689 49.816C45.6869 49.7788 45.7154 49.7477 45.751 49.7266C45.7865 49.7056 45.8275 49.6954 45.8688 49.6975C45.8967 49.6993 45.924 49.7065 45.9491 49.7188C45.9743 49.7311 45.9967 49.7482 46.0152 49.7692C46.0337 49.7902 46.0478 49.8147 46.0568 49.8412C46.0658 49.8676 46.0695 49.8956 46.0677 49.9235Z" fill="white"/>
</svg>
