<svg width="109" height="109" viewBox="0 0 109 109" fill="none" xmlns="http://www.w3.org/2000/svg">
<path d="M109 83.3632H0V83.4177H109V83.3632Z" fill="#EBEBEB"/>
<path d="M98.0786 86.8707H90.8584V86.9252H98.0786V86.8707Z" fill="#EBEBEB"/>
<path d="M72.2059 87.4637H70.3115V87.5183H72.2059V87.4637Z" fill="#EBEBEB"/>
<path d="M90.64 84.8478H86.4565V84.9023H90.64V84.8478Z" fill="#EBEBEB"/>
<path d="M20.8515 85.214H11.436V85.2685H20.8515V85.214Z" fill="#EBEBEB"/>
<path d="M24.1744 85.214H22.7944V85.2685H24.1744V85.214Z" fill="#EBEBEB"/>
<path d="M49.0829 86.134H28.6606V86.1885H49.0829V86.134Z" fill="#EBEBEB"/>
<path d="M51.6663 73.6404H9.57268C9.24292 73.6398 8.92687 73.5084 8.69389 73.275C8.46092 73.0417 8.33008 72.7254 8.33008 72.3956V13.2239C8.33295 12.896 8.46506 12.5825 8.69772 12.3515C8.93038 12.1205 9.2448 11.9906 9.57268 11.99H51.6663C51.9964 11.99 52.313 12.1211 52.5465 12.3546C52.7799 12.588 52.9111 12.9046 52.9111 13.2348V72.3956C52.9111 72.7257 52.7799 73.0424 52.5465 73.2758C52.313 73.5092 51.9964 73.6404 51.6663 73.6404ZM9.57268 12.0336C9.25737 12.0342 8.95518 12.1598 8.73243 12.383C8.50968 12.6061 8.38458 12.9086 8.38458 13.2239V72.3956C8.38458 72.7109 8.50968 73.0133 8.73243 73.2365C8.95518 73.4597 9.25737 73.5853 9.57268 73.5859H51.6663C51.9818 73.5853 52.2842 73.4597 52.5073 73.2366C52.7304 73.0135 52.856 72.7111 52.8566 72.3956V13.2239C52.856 12.9084 52.7304 12.6059 52.5073 12.3829C52.2842 12.1598 51.9818 12.0342 51.6663 12.0336H9.57268Z" fill="#EBEBEB"/>
<path d="M98.8215 73.6404H56.7257C56.3958 73.6398 56.0795 73.5085 55.8462 73.2752C55.6129 73.0418 55.4815 72.7256 55.481 72.3956V13.2239C55.4844 12.8958 55.617 12.5823 55.85 12.3513C56.083 12.1204 56.3977 11.9905 56.7257 11.99H98.8215C99.149 11.9911 99.4629 12.1213 99.6951 12.3522C99.9273 12.5832 100.059 12.8964 100.062 13.2239V72.3956C100.062 72.725 99.9314 73.0409 99.6989 73.2743C99.4664 73.5076 99.1509 73.6392 98.8215 73.6404ZM56.7257 12.0336C56.4102 12.0342 56.1078 12.1598 55.8847 12.3829C55.6616 12.6059 55.536 12.9084 55.5355 13.2239V72.3956C55.536 72.7111 55.6616 73.0135 55.8847 73.2366C56.1078 73.4597 56.4102 73.5853 56.7257 73.5859H98.8215C99.137 73.5853 99.4395 73.4597 99.6626 73.2366C99.8857 73.0135 100.011 72.7111 100.012 72.3956V13.2239C100.011 12.9084 99.8857 12.6059 99.6626 12.3829C99.4395 12.1598 99.137 12.0342 98.8215 12.0336H56.7257Z" fill="#EBEBEB"/>
<path d="M50.0444 47.6395V20.2675L14.82 20.2675V47.6395H50.0444Z" fill="#E0E0E0"/>
<path d="M15.3079 47.1512L49.5557 47.1512V20.7557L15.3079 20.7557V47.1512Z" fill="#EBEBEB"/>
<path d="M31.9656 25.5234H31.7476V29.2033H31.9656V25.5234Z" fill="#E0E0E0"/>
<path d="M23.5964 41.0537H23.3784V29.0964H39.1311V36.0026H38.9131V29.3144H23.5964V41.0537Z" fill="#E0E0E0"/>
<path d="M43.6526 39.7458H43.4346V36.1117H35.1135V39.6194H34.8955V35.8937H43.6526V39.7458Z" fill="#E0E0E0"/>
<path d="M35.7849 24.1719H27.9282V26.8773H35.7849V24.1719Z" fill="#F5F5F5"/>
<path d="M42.8828 30.6617H35.3945V33.6003H42.8828V30.6617Z" fill="#F5F5F5"/>
<path d="M37.5743 38.1042H32.4316V41.1344H37.5743V38.1042Z" fill="#F5F5F5"/>
<path d="M46.2989 38.5947H40.79V40.8968H46.2989V38.5947Z" fill="#F5F5F5"/>
<path d="M28.3811 31.283H19.8726V35.2091H28.3811V31.283Z" fill="#F5F5F5"/>
<path d="M26.2036 39.6193H20.771V42.4881H26.2036V39.6193Z" fill="#F5F5F5"/>
<path d="M33.0305 29.2996L31.8574 28.1265L30.6843 29.2996L31.8574 30.4727L33.0305 29.2996Z" fill="#F5F5F5"/>
<path d="M40.197 36.0007L39.0239 34.8276L37.8509 36.0007L39.0239 37.1737L40.197 36.0007Z" fill="#F5F5F5"/>
<path d="M86.1012 24.8781H64.3906V25.9943H86.1012V24.8781Z" fill="#E0E0E0"/>
<path d="M66.3462 20.7667H65.3892V24.8782H66.3462V20.7667Z" fill="#EBEBEB"/>
<path d="M70.9722 20.7667H70.0151V24.8782H70.9722V20.7667Z" fill="#EBEBEB"/>
<path d="M76.2224 20.6595L75.2793 20.8221L75.9777 24.8738L76.9208 24.7113L76.2224 20.6595Z" fill="#EBEBEB"/>
<path d="M67.5317 21.3073H66.5747V24.8781H67.5317V21.3073Z" fill="#EBEBEB"/>
<path d="M69.7295 21.3073H68.7725V24.8781H69.7295V21.3073Z" fill="#EBEBEB"/>
<path d="M75.2798 21.3073H74.3228V24.8781H75.2798V21.3073Z" fill="#EBEBEB"/>
<path d="M72.2277 21.179L71.2935 21.3867L72.0682 24.8724L73.0024 24.6648L72.2277 21.179Z" fill="#EBEBEB"/>
<path d="M68.3583 20.5618H67.8809V24.8782H68.3583V20.5618Z" fill="#EBEBEB"/>
<path d="M74.0458 20.5618H73.5684V24.8782H74.0458V20.5618Z" fill="#EBEBEB"/>
<path d="M84.0192 21.6234H79.3584V24.8411H84.0192V21.6234Z" fill="#EBEBEB"/>
<path d="M64.3909 34.3219H86.1016V33.2057H64.3909V34.3219Z" fill="#E0E0E0"/>
<path d="M84.146 33.2057H85.103V29.0943H84.146V33.2057Z" fill="#EBEBEB"/>
<path d="M79.52 33.2057H80.4771V29.0943H79.52V33.2057Z" fill="#EBEBEB"/>
<path d="M73.5725 33.0417L74.5156 33.2043L75.214 29.1526L74.2709 28.99L73.5725 33.0417Z" fill="#EBEBEB"/>
<path d="M82.96 33.2057H83.917V29.6349H82.96V33.2057Z" fill="#EBEBEB"/>
<path d="M80.7603 33.2057H81.7173V29.6349H80.7603V33.2057Z" fill="#EBEBEB"/>
<path d="M75.2124 33.2057H76.1694V29.6349H75.2124V33.2057Z" fill="#EBEBEB"/>
<path d="M77.493 32.9939L78.4272 33.2015L79.2019 29.7157L78.2677 29.5081L77.493 32.9939Z" fill="#EBEBEB"/>
<path d="M82.1334 33.2057H82.6108V28.8893H82.1334V33.2057Z" fill="#EBEBEB"/>
<path d="M76.4459 33.2057H76.9233V28.8893H76.4459V33.2057Z" fill="#EBEBEB"/>
<path d="M66.4744 33.1687H71.1353V29.951H66.4744V33.1687Z" fill="#EBEBEB"/>
<path d="M81.3469 39.7916H69.1694V83.2041H81.3469V39.7916Z" fill="#F5F5F5"/>
<path d="M80.2962 41.0298H70.2202V82.2187H80.2962V41.0298Z" fill="#EBEBEB"/>
<path d="M78.4603 42.2418H72.0532V42.6669H78.4603V42.2418Z" fill="#E0E0E0"/>
<path d="M78.4603 44.0752H72.0532V44.5003H78.4603V44.0752Z" fill="#E0E0E0"/>
<path d="M78.4603 45.9108H72.0532V46.3359H78.4603V45.9108Z" fill="#E0E0E0"/>
<path d="M78.4603 47.7463H72.0532V48.1714H78.4603V47.7463Z" fill="#E0E0E0"/>
<path d="M78.4603 49.5819H72.0532V50.007H78.4603V49.5819Z" fill="#E0E0E0"/>
<path d="M78.4603 51.4153H72.0532V51.8404H78.4603V51.4153Z" fill="#E0E0E0"/>
<path d="M78.4603 53.2509H72.0532V53.6759H78.4603V53.2509Z" fill="#E0E0E0"/>
<path d="M78.4603 68.1752H72.0532V68.6003H78.4603V68.1752Z" fill="#E0E0E0"/>
<path d="M78.4603 70.0107H72.0532V70.4358H78.4603V70.0107Z" fill="#E0E0E0"/>
<path d="M78.4603 71.8463H72.0532V72.2714H78.4603V71.8463Z" fill="#E0E0E0"/>
<path d="M78.4603 73.6797H72.0532V74.1048H78.4603V73.6797Z" fill="#E0E0E0"/>
<path d="M78.4603 75.5153H72.0532V75.9404H78.4603V75.5153Z" fill="#E0E0E0"/>
<path d="M78.4603 77.3508H72.0532V77.7759H78.4603V77.3508Z" fill="#E0E0E0"/>
<path d="M78.4603 79.1863H72.0532V79.6114H78.4603V79.1863Z" fill="#E0E0E0"/>
<path d="M78.7764 59.5336C78.7764 59.6738 78.7348 59.8108 78.657 59.9273C78.5791 60.0438 78.4685 60.1346 78.339 60.1882C78.2095 60.2418 78.0671 60.2559 77.9296 60.2285C77.7922 60.2012 77.666 60.1337 77.5669 60.0346C77.4678 59.9355 77.4003 59.8093 77.373 59.6719C77.3457 59.5344 77.3597 59.392 77.4133 59.2625C77.4669 59.133 77.5577 59.0224 77.6742 58.9445C77.7908 58.8667 77.9277 58.8251 78.0679 58.8251C78.161 58.8248 78.2533 58.843 78.3393 58.8785C78.4254 58.914 78.5036 58.9662 78.5695 59.032C78.6353 59.0979 78.6875 59.1761 78.723 59.2622C78.7585 59.3483 78.7767 59.4405 78.7764 59.5336Z" fill="#E0E0E0"/>
<path d="M68.8118 39.7916H56.6343V83.2041H68.8118V39.7916Z" fill="#F5F5F5"/>
<path d="M67.761 41.0298H57.6851V82.2187H67.761V41.0298Z" fill="#EBEBEB"/>
<path d="M65.9251 42.2418H59.5181V42.6669H65.9251V42.2418Z" fill="#E0E0E0"/>
<path d="M65.9251 44.0752H59.5181V44.5003H65.9251V44.0752Z" fill="#E0E0E0"/>
<path d="M65.9251 45.9108H59.5181V46.3359H65.9251V45.9108Z" fill="#E0E0E0"/>
<path d="M65.9251 47.7463H59.5181V48.1714H65.9251V47.7463Z" fill="#E0E0E0"/>
<path d="M65.9251 49.5819H59.5181V50.007H65.9251V49.5819Z" fill="#E0E0E0"/>
<path d="M65.9251 51.4153H59.5181V51.8404H65.9251V51.4153Z" fill="#E0E0E0"/>
<path d="M65.9251 53.2509H59.5181V53.6759H65.9251V53.2509Z" fill="#E0E0E0"/>
<path d="M65.9251 68.1752H59.5181V68.6003H65.9251V68.1752Z" fill="#E0E0E0"/>
<path d="M65.9251 70.0107H59.5181V70.4358H65.9251V70.0107Z" fill="#E0E0E0"/>
<path d="M65.9251 71.8463H59.5181V72.2714H65.9251V71.8463Z" fill="#E0E0E0"/>
<path d="M65.9251 73.6797H59.5181V74.1048H65.9251V73.6797Z" fill="#E0E0E0"/>
<path d="M65.9251 75.5153H59.5181V75.9404H65.9251V75.5153Z" fill="#E0E0E0"/>
<path d="M65.9251 77.3508H59.5181V77.7759H65.9251V77.3508Z" fill="#E0E0E0"/>
<path d="M65.9251 79.1863H59.5181V79.6114H65.9251V79.1863Z" fill="#E0E0E0"/>
<path d="M66.2412 59.5336C66.2412 59.6738 66.1997 59.8108 66.1218 59.9273C66.044 60.0438 65.9333 60.1346 65.8038 60.1882C65.6744 60.2418 65.5319 60.2559 65.3945 60.2285C65.2571 60.2012 65.1308 60.1337 65.0317 60.0346C64.9326 59.9355 64.8652 59.8093 64.8378 59.6719C64.8105 59.5344 64.8245 59.392 64.8781 59.2625C64.9318 59.133 65.0226 59.0224 65.1391 58.9445C65.2556 58.8667 65.3926 58.8251 65.5327 58.8251C65.6258 58.8248 65.7181 58.843 65.8042 58.8785C65.8903 58.914 65.9685 58.9662 66.0343 59.032C66.1002 59.0979 66.1524 59.1761 66.1879 59.2622C66.2234 59.3483 66.2415 59.4405 66.2412 59.5336Z" fill="#E0E0E0"/>
<path d="M93.8816 39.7916H81.7041V83.2041H93.8816V39.7916Z" fill="#F5F5F5"/>
<path d="M92.8313 41.0298H82.7554V82.2187H92.8313V41.0298Z" fill="#EBEBEB"/>
<path d="M90.9954 42.2418H84.5884V42.6669H90.9954V42.2418Z" fill="#E0E0E0"/>
<path d="M90.9954 44.0752H84.5884V44.5003H90.9954V44.0752Z" fill="#E0E0E0"/>
<path d="M90.9954 45.9108H84.5884V46.3359H90.9954V45.9108Z" fill="#E0E0E0"/>
<path d="M90.9954 47.7463H84.5884V48.1714H90.9954V47.7463Z" fill="#E0E0E0"/>
<path d="M90.9954 49.5819H84.5884V50.007H90.9954V49.5819Z" fill="#E0E0E0"/>
<path d="M90.9954 51.4153H84.5884V51.8404H90.9954V51.4153Z" fill="#E0E0E0"/>
<path d="M90.9954 53.2509H84.5884V53.6759H90.9954V53.2509Z" fill="#E0E0E0"/>
<path d="M90.9954 68.1752H84.5884V68.6003H90.9954V68.1752Z" fill="#E0E0E0"/>
<path d="M90.9954 70.0107H84.5884V70.4358H90.9954V70.0107Z" fill="#E0E0E0"/>
<path d="M90.9954 71.8463H84.5884V72.2714H90.9954V71.8463Z" fill="#E0E0E0"/>
<path d="M90.9954 73.6797H84.5884V74.1048H90.9954V73.6797Z" fill="#E0E0E0"/>
<path d="M90.9954 75.5153H84.5884V75.9404H90.9954V75.5153Z" fill="#E0E0E0"/>
<path d="M90.9954 77.3508H84.5884V77.7759H90.9954V77.3508Z" fill="#E0E0E0"/>
<path d="M90.9954 79.1863H84.5884V79.6114H90.9954V79.1863Z" fill="#E0E0E0"/>
<path d="M91.3115 59.5336C91.3115 59.6738 91.27 59.8108 91.1921 59.9273C91.1143 60.0438 91.0036 60.1346 90.8742 60.1882C90.7447 60.2418 90.6022 60.2559 90.4648 60.2285C90.3274 60.2012 90.2011 60.1337 90.102 60.0346C90.003 59.9355 89.9355 59.8093 89.9081 59.6719C89.8808 59.5344 89.8948 59.392 89.9485 59.2625C90.0021 59.133 90.0929 59.0224 90.2094 58.9445C90.3259 58.8667 90.4629 58.8251 90.603 58.8251C90.6961 58.8248 90.7884 58.843 90.8745 58.8785C90.9606 58.914 91.0388 58.9662 91.1047 59.032C91.1705 59.0979 91.2227 59.1761 91.2582 59.2622C91.2937 59.3483 91.3118 59.4405 91.3115 59.5336Z" fill="#E0E0E0"/>
<path d="M54.5 93.2081C77.8439 93.2081 96.768 92.1032 96.768 90.7403C96.768 89.3774 77.8439 88.2726 54.5 88.2726C31.156 88.2726 12.2319 89.3774 12.2319 90.7403C12.2319 92.1032 31.156 93.2081 54.5 93.2081Z" fill="#F5F5F5"/>
<path d="M20.4728 87.7951C20.4728 87.7951 19.3239 82.3691 21.4146 79.4305C23.5052 76.4918 19.5267 79.3978 19.0689 82.1489C19.0689 82.1489 18.3822 77.2287 20.4096 73.769C22.437 70.3093 18.6438 73.1499 18.3211 76.7142C18.3211 76.7142 17.6998 72.328 18.6329 69.8603C19.5659 67.3925 17.9418 68.9883 17.3249 70.5273C16.7079 72.0664 17.5189 75.901 17.5189 75.901C17.5189 75.901 15.8926 68.8226 14.3535 69.385C12.8145 69.9475 16.6534 74.5865 17.1875 76.9976C17.1875 76.9976 15.3716 73.7516 13.9938 74.4274C12.6161 75.1032 16.1281 75.4389 17.7347 80.2807L18.2993 82.55C18.2993 82.55 16.6251 79.352 15.5329 80.357C14.4407 81.3619 18.7702 83.1125 19.7774 87.9673L20.4728 87.7951Z" fill="#20C0E8"/>
<path d="M20.2485 88.1069C20.2485 88.1069 20.0065 81.266 16.6275 78.371C13.2485 75.476 18.8794 77.7671 20.2485 80.926C20.2485 80.926 19.6054 74.822 16.1435 71.2882C12.6817 67.7544 18.075 70.0216 19.5247 74.1963C19.5247 74.1963 18.9601 68.7463 17.1093 66.0802C15.2585 63.414 17.6739 64.8201 18.8794 66.4856C20.085 68.1512 20.2485 72.9799 20.2485 72.9799C20.2485 72.9799 20.0872 64.0179 22.0993 64.2337C24.1114 64.4495 20.8916 71.1487 20.9722 74.1963C20.9722 74.1963 22.1799 69.7665 24.0242 70.1655C25.8685 70.5644 21.7701 72.0141 21.2883 78.2903V81.1767C21.2883 81.1767 22.3347 76.8406 23.9436 77.7257C25.5524 78.6108 20.8916 81.992 21.127 88.1069H20.2485Z" fill="#20C0E8"/>
<path opacity="0.2" d="M20.2485 88.1069C20.2485 88.1069 20.0065 81.266 16.6275 78.371C13.2485 75.476 18.8794 77.7671 20.2485 80.926C20.2485 80.926 19.6054 74.822 16.1435 71.2882C12.6817 67.7544 18.075 70.0216 19.5247 74.1963C19.5247 74.1963 18.9601 68.7463 17.1093 66.0802C15.2585 63.414 17.6739 64.8201 18.8794 66.4856C20.085 68.1512 20.2485 72.9799 20.2485 72.9799C20.2485 72.9799 20.0872 64.0179 22.0993 64.2337C24.1114 64.4495 20.8916 71.1487 20.9722 74.1963C20.9722 74.1963 22.1799 69.7665 24.0242 70.1655C25.8685 70.5644 21.7701 72.0141 21.2883 78.2903V81.1767C21.2883 81.1767 22.3347 76.8406 23.9436 77.7257C25.5524 78.6108 20.8916 81.992 21.127 88.1069H20.2485Z" fill="white"/>
<path d="M15.6597 87.7079H25.5961V88.7805C25.5961 89.4164 25.3435 90.0264 24.8938 90.4761C24.444 90.9258 23.8341 91.1785 23.1981 91.1785H18.0577C17.4217 91.1785 16.8117 90.9258 16.362 90.4761C15.9123 90.0264 15.6597 89.4164 15.6597 88.7805V87.7079Z" fill="#263238"/>
<path d="M14.3579 87.1345V87.8932C14.3585 88.1368 14.4557 88.3702 14.6281 88.5423C14.8006 88.7143 15.0343 88.8109 15.2779 88.8109H25.9795C26.2229 88.8109 26.4563 88.7142 26.6285 88.5421C26.8006 88.37 26.8973 88.1366 26.8973 87.8932V87.1345H14.3579Z" fill="#263238"/>
<path opacity="0.2" d="M14.3579 87.1345V87.8932C14.3585 88.1368 14.4557 88.3702 14.6281 88.5423C14.8006 88.7143 15.0343 88.8109 15.2779 88.8109H25.9795C26.2229 88.8109 26.4563 88.7142 26.6285 88.5421C26.8006 88.37 26.8973 88.1366 26.8973 87.8932V87.1345H14.3579Z" fill="white"/>
<path d="M91.4309 86.9166C91.4671 86.8423 91.4849 86.7604 91.4827 86.6777C91.4804 86.5951 91.4582 86.5143 91.418 86.4421C91.3777 86.3699 91.3206 86.3086 91.2514 86.2633C91.1823 86.218 91.1033 86.19 91.021 86.1819C91.092 85.9712 91.0968 85.7438 91.0349 85.5303C90.9729 85.3167 90.8471 85.1273 90.6744 84.9873C90.6331 84.9488 90.5802 84.9251 90.524 84.9197C90.464 84.926 90.4075 84.9512 90.3627 84.9916L89.4035 85.6783C89.3264 85.726 89.2615 85.7909 89.2138 85.868C89.0176 86.2473 89.7239 86.74 89.4318 87.0452C89.349 87.1346 89.2138 87.1542 89.1092 87.2196C88.8912 87.3613 88.8541 87.6752 88.7473 87.9215C88.6405 88.1679 88.2721 88.3575 88.1304 88.1395C88.235 87.9041 87.9124 87.7035 87.6595 87.6687C87.4066 87.6338 87.1341 87.6251 86.9924 87.3831C86.6283 87.7035 85.8108 86.8119 85.8283 86.4544C85.6844 86.4804 85.5522 86.5507 85.4502 86.6554C85.3482 86.7602 85.2815 86.8941 85.2593 87.0386C85.2175 87.3346 85.2072 87.6343 85.2288 87.9324C85.2288 88.5145 85.0326 89.0835 85.0413 89.6633C85.0413 90.1168 85.2244 90.6182 85.6386 90.7991C85.8436 90.8737 86.0621 90.9034 86.2795 90.8863L90.9927 90.8558C91.1059 90.8645 91.2196 90.8458 91.3241 90.8013C91.5421 90.6901 91.5835 90.4111 91.6031 90.1713C91.6859 89.1467 91.7702 88.1228 91.856 87.0997L91.4309 86.9166Z" fill="#20C0E8"/>
<path opacity="0.3" d="M91.4309 86.9166C91.4671 86.8423 91.4849 86.7604 91.4827 86.6777C91.4804 86.5951 91.4582 86.5143 91.418 86.4421C91.3777 86.3699 91.3206 86.3086 91.2514 86.2633C91.1823 86.218 91.1033 86.19 91.021 86.1819C91.092 85.9712 91.0968 85.7438 91.0349 85.5303C90.9729 85.3167 90.8471 85.1273 90.6744 84.9873C90.6331 84.9488 90.5802 84.9251 90.524 84.9197C90.464 84.926 90.4075 84.9512 90.3627 84.9916L89.4035 85.6783C89.3264 85.726 89.2615 85.7909 89.2138 85.868C89.0176 86.2473 89.7239 86.74 89.4318 87.0452C89.349 87.1346 89.2138 87.1542 89.1092 87.2196C88.8912 87.3613 88.8541 87.6752 88.7473 87.9215C88.6405 88.1679 88.2721 88.3575 88.1304 88.1395C88.235 87.9041 87.9124 87.7035 87.6595 87.6687C87.4066 87.6338 87.1341 87.6251 86.9924 87.3831C86.6283 87.7035 85.8108 86.8119 85.8283 86.4544C85.6844 86.4804 85.5522 86.5507 85.4502 86.6554C85.3482 86.7602 85.2815 86.8941 85.2593 87.0386C85.2175 87.3346 85.2072 87.6343 85.2288 87.9324C85.2288 88.5145 85.0326 89.0835 85.0413 89.6633C85.0413 90.1168 85.2244 90.6182 85.6386 90.7991C85.8436 90.8737 86.0621 90.9034 86.2795 90.8863L90.9927 90.8558C91.1059 90.8645 91.2196 90.8458 91.3241 90.8013C91.5421 90.6901 91.5835 90.4111 91.6031 90.1713C91.6859 89.1467 91.7702 88.1228 91.856 87.0997L91.4309 86.9166Z" fill="white"/>
<path d="M91.7058 81.9353H84.394L84.4529 82.6743L84.4965 83.2019L84.6077 84.5753L84.6709 85.3623L84.7559 86.413L84.7908 86.8621L84.8039 86.9973L84.8475 87.527L84.9042 88.2508L84.9412 88.702L84.9783 89.1598L85.0219 89.6874L85.0546 90.0885L85.0916 90.5397L85.1069 90.7338H91.8191L91.8344 90.5397L91.8693 90.0907L91.902 89.6874L91.9456 89.1576L91.9826 88.702L92.0197 88.2508L92.0785 87.5248L92.12 86.9973L92.1309 86.8621L92.1679 86.413L92.2529 85.3623L92.3162 84.5753L92.4273 83.2019L92.4688 82.6743L92.5298 81.9353H91.7058ZM92.1418 82.4193L92.0001 82.2776H92.1548L92.1418 82.4193ZM92.1069 82.8683L92.0916 83.0471L91.4376 83.7011L90.6877 82.9512L91.3613 82.2776H91.5183L92.1069 82.8683ZM91.9172 85.2075L91.4376 85.6871L90.6877 84.9372L91.4398 84.1872L91.9586 84.7061L91.9172 85.2075ZM84.9587 84.7061L85.4775 84.1872L86.2274 84.9372L85.4775 85.6871L84.9979 85.2075L84.9587 84.7061ZM91.1956 83.9431L90.4435 84.6952L89.6936 83.9431L90.4435 83.1932L91.1956 83.9431ZM90.0141 82.2776H90.873L90.437 82.7136L90.0141 82.2776ZM90.1994 84.9372L89.4516 85.6871L88.6995 84.9372L89.4516 84.1872L90.1994 84.9372ZM87.7076 85.9291L88.4576 85.1813L89.2075 85.9291L88.4576 86.6812L87.7076 85.9291ZM88.2134 86.9231L87.4635 87.6752L86.7136 86.9253L87.4657 86.1732L88.2134 86.9231ZM89.4516 86.1732L90.1994 86.9253L89.4516 87.6752L88.6995 86.9231L89.4516 86.1732ZM88.4576 84.6952L87.7076 83.9431L88.4576 83.1932L89.2075 83.9431L88.4576 84.6952ZM88.2134 84.9372L87.4657 85.6871L86.7136 84.9372L87.4657 84.1872L88.2134 84.9372ZM86.4694 84.6952L85.7195 83.9431L86.4694 83.1932L87.2215 83.9431L86.4694 84.6952ZM86.4694 85.1813L87.2215 85.9291L86.4694 86.6812L85.7195 85.9291L86.4694 85.1813ZM87.2215 87.9172L86.4694 88.6671L85.7195 87.9172L86.4694 87.1673L87.2215 87.9172ZM87.4635 88.1614L88.2134 88.9113L87.4657 89.6634L86.7136 88.9113L87.4635 88.1614ZM87.7076 87.9172L88.4576 87.1673L89.2075 87.9172L88.4576 88.6671L87.7076 87.9172ZM89.4516 88.1614L90.1994 88.9113L89.4516 89.6634L88.6995 88.9113L89.4516 88.1614ZM90.4479 89.162L91.2 89.9141L90.7139 90.4002H90.1841L89.698 89.9141L90.4479 89.162ZM89.698 87.9259L90.4479 87.176L91.2 87.9259L90.4479 88.6758L89.698 87.9259ZM89.698 85.9378L90.4479 85.19L91.2 85.9378L90.4479 86.6899L89.698 85.9378ZM90.2037 82.9599L89.456 83.712L88.7039 82.9621L89.3753 82.2885H89.5345L90.2037 82.9599ZM88.4597 82.7179L88.0237 82.2819H88.8805L88.4597 82.7179ZM88.2156 82.9599L87.47 83.712L86.7179 82.9621L87.3894 82.2885H87.5485L88.2156 82.9599ZM86.9076 82.2863L86.4716 82.7223L86.0356 82.2863H86.9076ZM85.5647 82.2863L86.2361 82.9599L85.4819 83.712L84.8279 83.058L84.8148 82.8792L85.4012 82.2885L85.5647 82.2863ZM84.9107 82.2863L84.7712 82.4258L84.7603 82.2863H84.9107ZM84.8649 83.5943L85.2312 83.9605L84.9194 84.2744L84.8649 83.5943ZM85.0698 86.11L85.0393 85.7547L85.2312 85.9465L85.0698 86.11ZM85.1047 86.5634L85.4753 86.1907L86.2252 86.9428L85.4753 87.6927L85.1723 87.3897L85.1047 86.5634ZM85.2159 87.9521V87.9194L85.2312 87.9347L85.2159 87.9521ZM85.3467 89.55L85.253 88.399L85.471 88.181L86.2209 88.9309L85.471 89.6808L85.3423 89.5522L85.3467 89.55ZM85.4165 90.4089L85.4012 90.2367L85.4753 90.1648L85.7173 90.4089H85.4165ZM85.7173 89.9228L86.4672 89.1707L87.2193 89.9228L86.7332 90.4089H86.2034L85.7173 89.9228ZM87.2193 90.4089L87.4635 90.1648L87.7055 90.4089H87.2193ZM88.1916 90.4089L87.7055 89.9228L88.4554 89.1707L89.2053 89.9228L88.7257 90.3915L88.1916 90.4089ZM89.2053 90.4089L89.4495 90.1648L89.6936 90.4089H89.2053ZM91.4943 90.4089H91.1913L91.4354 90.1648L91.5074 90.2367L91.4943 90.4089ZM91.5641 89.55L91.4354 89.6786L90.6877 88.9113L91.4398 88.1614L91.6578 88.3794L91.5641 89.55ZM91.697 87.9172V87.9521L91.6818 87.9347L91.7014 87.9172H91.697ZM91.7385 87.3897L91.4354 87.6927L90.6877 86.9253L91.4398 86.1732L91.8104 86.546L91.7385 87.3897ZM91.8431 86.1122L91.6774 85.9465L91.8714 85.7547L91.8431 86.1122ZM92.048 83.5921L91.9913 84.2766L91.6774 83.9605L92.048 83.5921Z" fill="#20C0E8"/>
<g opacity="0.6">
<path opacity="0.6" d="M91.7058 81.9353H84.394L84.4529 82.6743L84.4965 83.2019L84.6077 84.5753L84.6709 85.3623L84.7559 86.413L84.7908 86.8621L84.8039 86.9973L84.8475 87.527L84.9042 88.2508L84.9412 88.702L84.9783 89.1598L85.0219 89.6874L85.0546 90.0885L85.0916 90.5397L85.1069 90.7338H91.8191L91.8344 90.5397L91.8693 90.0907L91.902 89.6874L91.9456 89.1576L91.9826 88.702L92.0197 88.2508L92.0785 87.5248L92.12 86.9973L92.1309 86.8621L92.1679 86.413L92.2529 85.3623L92.3162 84.5753L92.4273 83.2019L92.4688 82.6743L92.5298 81.9353H91.7058ZM92.1418 82.4193L92.0001 82.2776H92.1548L92.1418 82.4193ZM92.1069 82.8683L92.0916 83.0471L91.4376 83.7011L90.6877 82.9512L91.3613 82.2776H91.5183L92.1069 82.8683ZM91.9172 85.2075L91.4376 85.6871L90.6877 84.9372L91.4398 84.1872L91.9586 84.7061L91.9172 85.2075ZM84.9587 84.7061L85.4775 84.1872L86.2274 84.9372L85.4775 85.6871L84.9979 85.2075L84.9587 84.7061ZM91.1956 83.9431L90.4435 84.6952L89.6936 83.9431L90.4435 83.1932L91.1956 83.9431ZM90.0141 82.2776H90.873L90.437 82.7136L90.0141 82.2776ZM90.1994 84.9372L89.4516 85.6871L88.6995 84.9372L89.4516 84.1872L90.1994 84.9372ZM87.7076 85.9291L88.4576 85.1813L89.2075 85.9291L88.4576 86.6812L87.7076 85.9291ZM88.2134 86.9231L87.4635 87.6752L86.7136 86.9253L87.4657 86.1732L88.2134 86.9231ZM89.4516 86.1732L90.1994 86.9253L89.4516 87.6752L88.6995 86.9231L89.4516 86.1732ZM88.4576 84.6952L87.7076 83.9431L88.4576 83.1932L89.2075 83.9431L88.4576 84.6952ZM88.2134 84.9372L87.4657 85.6871L86.7136 84.9372L87.4657 84.1872L88.2134 84.9372ZM86.4694 84.6952L85.7195 83.9431L86.4694 83.1932L87.2215 83.9431L86.4694 84.6952ZM86.4694 85.1813L87.2215 85.9291L86.4694 86.6812L85.7195 85.9291L86.4694 85.1813ZM87.2215 87.9172L86.4694 88.6671L85.7195 87.9172L86.4694 87.1673L87.2215 87.9172ZM87.4635 88.1614L88.2134 88.9113L87.4657 89.6634L86.7136 88.9113L87.4635 88.1614ZM87.7076 87.9172L88.4576 87.1673L89.2075 87.9172L88.4576 88.6671L87.7076 87.9172ZM89.4516 88.1614L90.1994 88.9113L89.4516 89.6634L88.6995 88.9113L89.4516 88.1614ZM90.4479 89.162L91.2 89.9141L90.7139 90.4002H90.1841L89.698 89.9141L90.4479 89.162ZM89.698 87.9259L90.4479 87.176L91.2 87.9259L90.4479 88.6758L89.698 87.9259ZM89.698 85.9378L90.4479 85.19L91.2 85.9378L90.4479 86.6899L89.698 85.9378ZM90.2037 82.9599L89.456 83.712L88.7039 82.9621L89.3753 82.2885H89.5345L90.2037 82.9599ZM88.4597 82.7179L88.0237 82.2819H88.8805L88.4597 82.7179ZM88.2156 82.9599L87.47 83.712L86.7179 82.9621L87.3894 82.2885H87.5485L88.2156 82.9599ZM86.9076 82.2863L86.4716 82.7223L86.0356 82.2863H86.9076ZM85.5647 82.2863L86.2361 82.9599L85.4819 83.712L84.8279 83.058L84.8148 82.8792L85.4012 82.2885L85.5647 82.2863ZM84.9107 82.2863L84.7712 82.4258L84.7603 82.2863H84.9107ZM84.8649 83.5943L85.2312 83.9605L84.9194 84.2744L84.8649 83.5943ZM85.0698 86.11L85.0393 85.7547L85.2312 85.9465L85.0698 86.11ZM85.1047 86.5634L85.4753 86.1907L86.2252 86.9428L85.4753 87.6927L85.1723 87.3897L85.1047 86.5634ZM85.2159 87.9521V87.9194L85.2312 87.9347L85.2159 87.9521ZM85.3467 89.55L85.253 88.399L85.471 88.181L86.2209 88.9309L85.471 89.6808L85.3423 89.5522L85.3467 89.55ZM85.4165 90.4089L85.4012 90.2367L85.4753 90.1648L85.7173 90.4089H85.4165ZM85.7173 89.9228L86.4672 89.1707L87.2193 89.9228L86.7332 90.4089H86.2034L85.7173 89.9228ZM87.2193 90.4089L87.4635 90.1648L87.7055 90.4089H87.2193ZM88.1916 90.4089L87.7055 89.9228L88.4554 89.1707L89.2053 89.9228L88.7257 90.3915L88.1916 90.4089ZM89.2053 90.4089L89.4495 90.1648L89.6936 90.4089H89.2053ZM91.4943 90.4089H91.1913L91.4354 90.1648L91.5074 90.2367L91.4943 90.4089ZM91.5641 89.55L91.4354 89.6786L90.6877 88.9113L91.4398 88.1614L91.6578 88.3794L91.5641 89.55ZM91.697 87.9172V87.9521L91.6818 87.9347L91.7014 87.9172H91.697ZM91.7385 87.3897L91.4354 87.6927L90.6877 86.9253L91.4398 86.1732L91.8104 86.546L91.7385 87.3897ZM91.8431 86.1122L91.6774 85.9465L91.8714 85.7547L91.8431 86.1122ZM92.048 83.5921L91.9913 84.2766L91.6774 83.9605L92.048 83.5921Z" fill="white"/>
</g>
<path d="M84.2829 82.585H92.641C92.8385 82.585 92.9985 82.4249 92.9985 82.2274V81.9855C92.9985 81.788 92.8385 81.6279 92.641 81.6279H84.2829C84.0855 81.6279 83.9254 81.788 83.9254 81.9855V82.2274C83.9254 82.4249 84.0855 82.585 84.2829 82.585Z" fill="#20C0E8"/>
<path d="M91.9872 90.2194H84.9371C84.7397 90.2194 84.5796 90.3794 84.5796 90.5769V90.8189C84.5796 91.0163 84.7397 91.1764 84.9371 91.1764H91.9872C92.1847 91.1764 92.3447 91.0163 92.3447 90.8189V90.5769C92.3447 90.3794 92.1847 90.2194 91.9872 90.2194Z" fill="#20C0E8"/>
<path d="M79.9905 86.3803L73.9126 85.783V78.9291H71.5037V85.7808L65.3997 86.3803C65.1074 86.409 64.8361 86.5454 64.6387 86.7629C64.4412 86.9805 64.3318 87.2637 64.3315 87.5575V88.4709H81.0543V87.5575C81.0542 87.2644 80.9454 86.9818 80.7488 86.7643C80.5523 86.5468 80.2821 86.41 79.9905 86.3803Z" fill="#263238"/>
<path opacity="0.1" d="M79.9905 86.3803L73.9126 85.783V78.9291H71.5037V85.7808L65.3997 86.3803C65.1074 86.409 64.8361 86.5454 64.6387 86.7629C64.4412 86.9805 64.3318 87.2637 64.3315 87.5575V88.4709H81.0543V87.5575C81.0542 87.2644 80.9454 86.9818 80.7488 86.7643C80.5523 86.5468 80.2821 86.41 79.9905 86.3803Z" fill="white"/>
<path d="M64.9768 91.1762C65.8461 91.1762 66.5508 90.4716 66.5508 89.6023C66.5508 88.733 65.8461 88.0283 64.9768 88.0283C64.1075 88.0283 63.4028 88.733 63.4028 89.6023C63.4028 90.4716 64.1075 91.1762 64.9768 91.1762Z" fill="#263238"/>
<path d="M80.4133 91.1762C81.2826 91.1762 81.9873 90.4716 81.9873 89.6023C81.9873 88.733 81.2826 88.0283 80.4133 88.0283C79.544 88.0283 78.8394 88.733 78.8394 89.6023C78.8394 90.4716 79.544 91.1762 80.4133 91.1762Z" fill="#263238"/>
<path d="M71.0894 73.1564H74.3376V79.862C74.3376 80.1008 74.2427 80.3298 74.0739 80.4987C73.905 80.6675 73.676 80.7624 73.4372 80.7624H72.0006C71.7618 80.7624 71.5328 80.6675 71.364 80.4987C71.1951 80.3298 71.1003 80.1008 71.1003 79.862V73.1564H71.0894Z" fill="#263238"/>
<path opacity="0.2" d="M71.0894 73.1564H74.3376V79.862C74.3376 80.1008 74.2427 80.3298 74.0739 80.4987C73.905 80.6675 73.676 80.7624 73.4372 80.7624H72.0006C71.7618 80.7624 71.5328 80.6675 71.364 80.4987C71.1951 80.3298 71.1003 80.1008 71.1003 79.862V73.1564H71.0894Z" fill="white"/>
<path d="M81.1194 59.9501C81.1194 59.9501 79.3143 71.2163 75.7544 73.1543H79.3732C79.3732 73.1543 82.9506 69.3241 84.0406 59.9501H81.1194Z" fill="#263238"/>
<path opacity="0.1" d="M81.1194 59.9501C81.1194 59.9501 79.3143 71.2163 75.7544 73.1543H79.3732C79.3732 73.1543 82.9506 69.3241 84.0406 59.9501H81.1194Z" fill="white"/>
<path d="M80.6074 74.0305H64.3817V72.6549C64.3817 72.3659 64.4965 72.0886 64.7009 71.8842C64.9053 71.6798 65.1826 71.5649 65.4717 71.5649H79.5174C79.8065 71.5649 80.0838 71.6798 80.2882 71.8842C80.4926 72.0886 80.6074 72.3659 80.6074 72.6549V74.0305Z" fill="#20C0E8"/>
<path d="M64.144 74.0305H80.845C81.087 74.0305 81.2832 73.8343 81.2832 73.5923V73.2348C81.2832 72.9928 81.087 72.7966 80.845 72.7966H64.144C63.902 72.7966 63.7059 72.9928 63.7059 73.2348V73.5923C63.7059 73.8343 63.902 74.0305 64.144 74.0305Z" fill="#263238"/>
<path opacity="0.6" d="M64.144 74.0305H80.845C81.087 74.0305 81.2832 73.8343 81.2832 73.5923V73.2348C81.2832 72.9928 81.087 72.7966 80.845 72.7966H64.144C63.902 72.7966 63.7059 72.9928 63.7059 73.2348V73.5923C63.7059 73.8343 63.902 74.0305 64.144 74.0305Z" fill="white"/>
<path d="M84.4678 62.2412H78.6668C76.9686 62.2412 75.8655 60.8787 76.2034 59.1891L76.6547 56.9459C76.9904 55.2651 78.6429 53.8939 80.3411 53.8939H86.1399C87.8403 53.8939 88.9434 55.2564 88.6055 56.9459L88.1542 59.1891C87.8163 60.8787 86.166 62.2412 84.4678 62.2412Z" fill="#20C0E8"/>
<path d="M55.0924 54.694L53.5904 53.846C53.3559 53.6566 53.0792 53.5265 52.7838 53.4666C51.9547 53.4529 51.1263 53.5179 50.3095 53.6607C50.0915 53.7457 50.17 55.4962 50.3095 55.5246C50.449 55.5529 52.6181 55.5791 52.8121 55.5246C53.0061 55.4701 53.4792 54.9403 53.4792 54.9403L54.5932 55.6859L55.0924 54.694Z" fill="#EBB376"/>
<path d="M61.8897 52.3483C61.1006 53.0546 58.6197 56.0129 58.2317 56.1197C57.8437 56.2265 54.2161 53.9397 54.2161 53.9397L53.7017 55.3807C53.7017 55.3807 57.1155 58.1907 58.2317 58.3847C59.4416 58.6027 63.4746 55.3327 63.4746 55.3327L61.8897 52.3483Z" fill="#20C0E8"/>
<path opacity="0.5" d="M63.4746 55.3328C63.4746 55.3328 62.5655 56.0696 61.4755 56.8195C60.2765 57.6479 58.8595 58.4959 58.2295 58.3848C57.1111 58.1929 53.6973 55.3829 53.6973 55.3829L54.2117 53.9419C54.2117 53.9419 57.8436 56.2244 58.2295 56.1219C58.6153 56.0195 61.0984 53.0568 61.8832 52.3505L62.9209 54.2994L63.4746 55.3328Z" fill="white"/>
<path opacity="0.2" d="M63.4747 55.3327C63.4747 55.3327 62.5656 56.0695 61.4756 56.8194C61.6609 55.7927 62.498 54.7615 62.9209 54.2972L63.4747 55.3327Z" fill="black"/>
<path d="M65.733 61.5936C65.733 61.5936 62.0684 55.1888 61.8896 52.3483C61.8896 52.3483 63.1475 50.0222 64.7978 49.5143C66.448 49.0063 70.8168 49.2963 70.8168 49.2963C70.8168 49.2963 74.2721 52.8409 76.1425 60.9048L65.733 61.5936Z" fill="#20C0E8"/>
<path opacity="0.7" d="M65.733 61.5936C65.733 61.5936 62.0684 55.1888 61.8896 52.3483C61.8896 52.3483 63.1475 50.0222 64.7978 49.5143C66.448 49.0063 70.8168 49.2963 70.8168 49.2963C70.8168 49.2963 74.2721 52.8409 76.1425 60.9048L65.733 61.5936Z" fill="white"/>
<path opacity="0.1" d="M68.3184 54.1751L70.4896 53.665L71.281 55.6728L70.446 56.5644L69.0857 56.1196L68.3184 54.1751Z" fill="black"/>
<path d="M67.6733 89.0094L65.8116 89.356L64.1592 85.2075L66.0187 84.863L67.6733 89.0094Z" fill="#EBB376"/>
<path opacity="0.2" d="M66.019 84.863L64.1616 85.2097L65.1056 87.5815L66.9324 87.1477L66.019 84.863Z" fill="black"/>
<path d="M47.8747 89.7202L46.3247 88.6345L48.1297 84.5514L49.6775 85.637L47.8747 89.7202Z" fill="#EBB376"/>
<path opacity="0.2" d="M49.6776 85.6369L48.1298 84.5535L47.0986 86.8882L48.6857 87.8889L49.6776 85.6369Z" fill="black"/>
<path d="M73.773 67.896L67.8325 69.7163L55.982 73.3526C53.2505 79.6964 49.9042 86.3279 49.9042 86.3279L46.8042 85.0548C46.8042 85.0548 50.1418 73.9172 51.1162 71.1333C52.6728 66.6905 69.3018 63.7213 69.3018 63.7213L73.773 67.896Z" fill="#263238"/>
<path d="M49.7498 87.4921L45.9326 85.8397L46.4297 84.0957L50.5804 85.9901L49.7498 87.4921Z" fill="#20C0E8"/>
<path opacity="0.2" d="M49.7498 87.4921L45.9326 85.8397L46.4297 84.0957L50.5804 85.9901L49.7498 87.4921Z" fill="white"/>
<path d="M46.0869 88.5232C46.0869 88.5232 46.0651 88.5014 46.0651 88.4992L46.0411 88.4752L46.0672 88.497C46.0803 88.4709 46.3441 88.0043 46.246 87.7624C46.2335 87.732 46.2142 87.7048 46.1896 87.6829C46.1651 87.661 46.1359 87.6449 46.1043 87.6359C46.0695 87.6225 46.0312 87.6213 45.9956 87.6324C45.96 87.6434 45.9292 87.6662 45.9081 87.697C45.8443 87.8467 45.835 88.0141 45.8819 88.17C45.7555 88.0109 45.5964 87.8517 45.4634 87.8452C45.4352 87.8452 45.4075 87.8519 45.3824 87.8648C45.3574 87.8777 45.3358 87.8964 45.3195 87.9193C45.2889 87.952 45.2682 87.9927 45.2597 88.0367C45.2512 88.0806 45.2553 88.1261 45.2715 88.1678C45.3369 88.2739 45.4395 88.3516 45.5593 88.3859C45.7143 88.4498 45.8759 88.4965 46.0411 88.5254H46.0563H46.0694L46.0869 88.5232ZM45.98 87.7558C45.9953 87.734 46.0215 87.7122 46.0825 87.7318H46.1021C46.1182 87.7388 46.1327 87.749 46.1446 87.7617C46.1566 87.7745 46.1659 87.7895 46.1719 87.806C46.2329 87.9498 46.1261 88.2311 46.0498 88.3946C46.0426 88.3817 46.0346 88.3694 46.0258 88.3575C45.9423 88.1681 45.9262 87.9557 45.98 87.7558ZM45.3435 88.1351C45.3348 88.1082 45.3335 88.0795 45.3396 88.0519C45.3458 88.0243 45.3591 87.9989 45.3784 87.9782C45.3858 87.9665 45.3962 87.957 45.4084 87.9505C45.4206 87.944 45.4343 87.9408 45.4481 87.9411C45.5811 87.9411 45.8056 88.218 45.9495 88.4338C45.6225 88.3597 45.4002 88.2507 45.3435 88.1351Z" fill="#20C0E8"/>
<path d="M46.3029 88.3684L48.2475 89.2186C48.2641 89.2249 48.2792 89.2344 48.2921 89.2466C48.305 89.2588 48.3153 89.2735 48.3224 89.2897C48.3295 89.306 48.3333 89.3235 48.3335 89.3412C48.3338 89.359 48.3304 89.3766 48.3238 89.393L47.7417 90.9757C47.7063 91.056 47.6408 91.1192 47.5593 91.1518C47.4778 91.1844 47.3868 91.1838 47.3057 91.1501C46.6321 90.8427 46.3269 90.6618 45.4745 90.2781C44.9491 90.047 43.8896 89.6415 43.2226 89.2121C42.5555 88.7826 43.0046 88.1352 43.3185 88.2572C44.0793 88.545 45.3023 88.5058 45.9585 88.3357C46.0737 88.3076 46.195 88.3191 46.3029 88.3684Z" fill="#263238"/>
<path d="M65.5807 89.1619C65.5807 89.1292 65.548 88.593 65.3518 88.4229C65.3208 88.4001 65.2854 88.3841 65.2478 88.3758C65.2103 88.3675 65.1714 88.3673 65.1338 88.375C65.095 88.3776 65.0582 88.3929 65.0291 88.4185C64.9999 88.4441 64.98 88.4786 64.9724 88.5167C64.9798 88.6795 65.0456 88.8343 65.1577 88.9527C65.0004 88.8593 64.815 88.8246 64.6345 88.8546C64.6087 88.867 64.5865 88.8857 64.5697 88.9089C64.553 88.9321 64.5423 88.9591 64.5386 88.9875C64.5267 89.0304 64.5269 89.0757 64.5392 89.1184C64.5515 89.1612 64.5754 89.1996 64.6084 89.2295C64.7154 89.2967 64.8437 89.3216 64.9681 89.2993C65.1355 89.2851 65.3007 89.2522 65.4608 89.2012C65.4632 89.2022 65.4658 89.2027 65.4684 89.2027C65.471 89.2027 65.4736 89.2022 65.476 89.2012C65.476 89.2012 65.476 89.2012 65.476 89.1881C65.476 89.175 65.5218 89.1772 65.524 89.1707H65.5632L65.5807 89.1619ZM65.0596 88.5341C65.0596 88.5079 65.0771 88.4774 65.1381 88.4665H65.1599C65.1774 88.4655 65.195 88.468 65.2115 88.474C65.228 88.48 65.2431 88.4893 65.2558 88.5014C65.3757 88.6017 65.4084 88.9003 65.4172 89.0791L65.3779 89.0573C65.2128 88.9265 65.0999 88.7409 65.0596 88.5341ZM64.6738 89.1619C64.6542 89.1419 64.6401 89.1171 64.6328 89.09C64.6255 89.0629 64.6254 89.0343 64.6324 89.0072C64.6332 88.9931 64.6379 88.9795 64.646 88.968C64.6541 88.9565 64.6652 88.9474 64.6781 88.9418C64.798 88.8851 65.1141 89.0246 65.3496 89.1489C65.016 89.2361 64.7675 89.2404 64.6738 89.1619Z" fill="#20C0E8"/>
<path d="M65.6177 88.9439L67.7367 88.8109C67.7542 88.8091 67.7718 88.8108 67.7886 88.8158C67.8055 88.8209 67.8211 88.8292 67.8347 88.8404C67.8483 88.8515 67.8595 88.8653 67.8678 88.8808C67.876 88.8963 67.8811 88.9133 67.8827 88.9308L68.1007 90.6007C68.1062 90.6887 68.0767 90.7753 68.0188 90.8418C67.9609 90.9083 67.8791 90.9493 67.7912 90.956C67.0522 90.9887 66.7012 90.9691 65.7638 91.0192C65.1926 91.0541 64.0634 91.1762 63.2742 91.0999C62.4851 91.0236 62.581 90.2431 62.9232 90.2061C63.732 90.1145 64.8024 89.5216 65.3082 89.0703C65.3947 88.9954 65.5035 88.951 65.6177 88.9439Z" fill="#263238"/>
<path d="M62.1079 50.5367C62.4324 50.4222 62.7863 50.4222 63.1107 50.5367C63.1852 50.8538 63.3637 51.1368 63.6177 51.3407C63.8718 51.5446 64.1867 51.6575 64.5125 51.6616C64.6733 51.6697 64.8346 51.6632 64.9942 51.6419C66.6271 51.4239 66.4483 48.9889 66.4483 48.9889C65.853 49.0314 65.2592 48.889 64.7479 48.5812C64.314 48.3266 63.9352 47.9879 63.6339 47.585L62.1079 50.5367Z" fill="#EBB376"/>
<path opacity="0.2" d="M62.1079 50.5367C62.4324 50.4222 62.7863 50.4222 63.1107 50.5367C63.1852 50.8538 63.3637 51.1368 63.6177 51.3407C63.8718 51.5446 64.1867 51.6575 64.5125 51.6616C64.9332 50.6217 64.8787 49.4314 64.7479 48.5812C64.314 48.3266 63.9352 47.9879 63.6339 47.585L62.1079 50.5367Z" fill="black"/>
<path d="M60.9696 45.1696C61.7762 45.5184 61.6062 46.4013 60.2328 48.0036C59.4153 47.2777 58.9924 45.6448 59.4349 45.1304C59.8774 44.6159 60.2655 44.8666 60.9696 45.1696Z" fill="#263238"/>
<path d="M64.2947 45.9173C64.5476 47.6788 64.783 48.6968 64.092 49.7716C63.0499 51.3869 60.7391 51.036 59.963 49.3835C59.2698 47.9011 58.9711 45.2699 60.5298 44.2278C60.8723 43.9968 61.2681 43.857 61.6798 43.8216C62.0914 43.7862 62.5052 43.8563 62.8821 44.0255C63.2591 44.1946 63.5866 44.4572 63.8338 44.7882C64.081 45.1192 64.2396 45.5079 64.2947 45.9173Z" fill="#EBB376"/>
<path d="M61.7957 46.9332C61.8263 47.0749 61.7739 47.2035 61.6802 47.2232C61.5865 47.2428 61.4905 47.1447 61.4622 47.0052C61.4339 46.8656 61.4818 46.7327 61.5756 46.713C61.6693 46.6934 61.7565 46.7959 61.7957 46.9332Z" fill="#263238"/>
<path d="M60.1876 47.2689C60.2181 47.4084 60.1658 47.5392 60.0742 47.5588C59.9826 47.5785 59.8824 47.4804 59.8562 47.3409C59.8301 47.2013 59.878 47.0684 59.9717 47.0509C60.0655 47.0335 60.1679 47.1272 60.1876 47.2689Z" fill="#263238"/>
<path d="M60.7259 47.2253C60.647 47.6932 60.504 48.148 60.3008 48.5769C60.4122 48.6258 60.5329 48.6498 60.6545 48.6471C60.7762 48.6445 60.8957 48.6153 61.0049 48.5616L60.7259 47.2253Z" fill="#D58745"/>
<path d="M63.2832 44.52C62.5268 44.9669 62.808 45.828 64.3732 47.2275C65.0926 46.4013 65.3063 44.7271 64.8092 44.2758C64.3122 43.8245 63.9438 44.1319 63.2832 44.52Z" fill="#263238"/>
<path d="M65.4106 47.1381C65.377 47.5844 65.1676 47.9992 64.8285 48.2913C64.3751 48.6728 63.9042 48.3284 63.8235 47.7725C63.7516 47.2711 63.8998 46.4645 64.4536 46.3032C65.0073 46.1418 65.4498 46.5909 65.4106 47.1381Z" fill="#EBB376"/>
<path d="M62.5177 46.1004C62.5055 46.1114 62.4906 46.119 62.4745 46.1224C62.4584 46.1259 62.4417 46.125 62.4261 46.12C62.3194 46.0793 62.2047 46.0643 62.0911 46.076C61.9775 46.0878 61.8682 46.126 61.7721 46.1876C61.7533 46.2023 61.7294 46.209 61.7057 46.2061C61.682 46.2033 61.6604 46.1911 61.6457 46.1723C61.6309 46.1535 61.6243 46.1296 61.6271 46.1059C61.63 46.0822 61.6421 46.0606 61.6609 46.0459C61.7798 45.966 61.9159 45.9157 62.0581 45.899C62.2002 45.8823 62.3443 45.8998 62.4784 45.9499C62.4895 45.9534 62.4998 45.959 62.5087 45.9665C62.5176 45.974 62.5249 45.9832 62.5302 45.9936C62.5355 46.004 62.5386 46.0153 62.5395 46.0269C62.5403 46.0385 62.5388 46.0501 62.5351 46.0611C62.5314 46.0751 62.5255 46.0883 62.5177 46.1004Z" fill="#263238"/>
<path d="M59.313 46.5343C59.2949 46.5317 59.2781 46.5233 59.2651 46.5103C59.2523 46.4905 59.2477 46.4665 59.2521 46.4434C59.2566 46.4202 59.2698 46.3997 59.2891 46.3861C59.4077 46.3057 59.5438 46.2551 59.6861 46.2384C59.8284 46.2217 59.9726 46.2394 60.1066 46.2901C60.1175 46.2946 60.1274 46.3013 60.1357 46.3097C60.1439 46.3181 60.1504 46.3282 60.1547 46.3392C60.159 46.3502 60.161 46.362 60.1606 46.3738C60.1602 46.3856 60.1574 46.3972 60.1523 46.4079C60.1428 46.4295 60.125 46.4465 60.103 46.4551C60.0809 46.4637 60.0563 46.4632 60.0346 46.4536C59.9264 46.416 59.8108 46.4043 59.6973 46.4194C59.5837 46.4346 59.4752 46.4762 59.3806 46.5408C59.3695 46.5444 59.3578 46.5457 59.3462 46.5446C59.3345 46.5435 59.3233 46.54 59.313 46.5343Z" fill="#263238"/>
<path d="M64.6106 44.472C64.6106 44.472 64.9987 43.7003 63.9784 43.031C62.9582 42.3617 59.8713 42.8849 58.7661 44.2845C57.6608 45.6841 58.62 46.5364 58.62 46.5364C58.5735 46.3047 58.6097 46.064 58.7225 45.8563C58.8381 46.0912 59.025 46.2835 59.2566 46.4056C59.6075 46.5626 59.3743 46.5125 59.3743 46.5125C59.3594 46.1437 59.4787 45.782 59.71 45.4944C59.9753 45.7544 60.2978 45.9485 60.6518 46.0612C60.7287 45.7568 60.91 45.4891 61.1641 45.3047C61.1641 45.3047 61.3559 45.9217 61.6502 45.9805C61.6502 45.9805 61.624 45.477 62.3042 45.1085C62.3042 45.1085 62.3805 45.5881 62.5723 45.7146C62.5789 45.732 62.9037 44.6464 64.6106 44.472Z" fill="#263238"/>
<path d="M61.4584 49.1546C61.4429 49.1546 61.4277 49.1501 61.4148 49.1415C61.4055 49.1359 61.3973 49.1285 61.391 49.1197C61.3846 49.111 61.38 49.101 61.3776 49.0904C61.3751 49.0798 61.3748 49.0688 61.3767 49.0581C61.3786 49.0474 61.3827 49.0372 61.3886 49.0281C61.6421 48.6675 62.0114 48.4044 62.435 48.2826C62.4452 48.2793 62.4559 48.278 62.4665 48.279C62.4772 48.28 62.4875 48.2831 62.4969 48.2882C62.5063 48.2933 62.5145 48.3003 62.5211 48.3087C62.5277 48.3171 62.5326 48.3267 62.5353 48.3371C62.5414 48.3579 62.5392 48.3803 62.529 48.3994C62.5188 48.4186 62.5015 48.433 62.4808 48.4395C62.096 48.5518 61.7598 48.7897 61.526 49.1153C61.5191 49.1272 61.5093 49.1371 61.4974 49.144C61.4855 49.1509 61.4721 49.1545 61.4584 49.1546Z" fill="#263238"/>
<path d="M61.5343 47.96C61.3386 47.9423 61.1546 47.8591 61.0122 47.7238C60.8697 47.5884 60.7772 47.409 60.7495 47.2145C60.6579 46.7327 60.9151 46.2771 61.3228 46.1986C61.7305 46.1201 62.1359 46.4515 62.2275 46.9332C62.2727 47.1558 62.2388 47.3871 62.1316 47.5872C62.0835 47.6787 62.0157 47.7584 61.9332 47.8206C61.8507 47.8828 61.7554 47.926 61.6542 47.947C61.6146 47.9546 61.5745 47.959 61.5343 47.96ZM61.4427 46.3032C61.4101 46.3 61.3772 46.3 61.3446 46.3032C61.0002 46.3686 60.7822 46.7632 60.8628 47.1752C60.9413 47.5938 61.2857 47.8859 61.6324 47.8183C61.7172 47.8007 61.7971 47.7644 61.8661 47.7119C61.9351 47.6595 61.9915 47.5923 62.0313 47.5153C62.1258 47.3384 62.1552 47.1339 62.1141 46.9376C62.0916 46.7702 62.0129 46.6154 61.8909 46.4986C61.769 46.3817 61.6109 46.3098 61.4427 46.2945V46.3032Z" fill="#263238"/>
<path d="M59.6595 48.2761C59.4929 48.2736 59.3324 48.2127 59.2061 48.1039C59.0326 47.9563 58.9162 47.7527 58.8769 47.5283C58.7853 47.0466 59.0426 46.5931 59.4502 46.5146C59.5521 46.4972 59.6566 46.5026 59.7562 46.5305C59.8557 46.5584 59.9478 46.6081 60.0258 46.6759C60.1991 46.8227 60.3156 47.0256 60.3549 47.2493C60.3989 47.4718 60.365 47.7027 60.259 47.9033C60.211 47.9946 60.1432 48.074 60.0606 48.1358C59.978 48.1977 59.8827 48.2404 59.7816 48.2608C59.7416 48.2702 59.7006 48.2753 59.6595 48.2761ZM58.9903 47.5087C59.0242 47.7057 59.126 47.8846 59.278 48.0145C59.3421 48.0714 59.4184 48.1129 59.5011 48.1357C59.5837 48.1586 59.6705 48.1621 59.7548 48.1461C59.839 48.1301 59.9185 48.095 59.987 48.0434C60.0555 47.9919 60.1113 47.9253 60.15 47.8488C60.2422 47.6701 60.2719 47.4656 60.2343 47.2681C60.1968 47.0706 60.0942 46.8913 59.9429 46.7588C59.8781 46.7019 59.8014 46.6602 59.7184 46.6368C59.6355 46.6135 59.5483 46.6089 59.4633 46.6236C59.1167 46.689 58.9009 47.0836 58.9815 47.4956L58.9903 47.5087Z" fill="#263238"/>
<path d="M60.2986 47.317C60.2862 47.317 60.274 47.3132 60.2638 47.3061C60.2576 47.3015 60.2525 47.2959 60.2486 47.2893C60.2448 47.2828 60.2422 47.2755 60.2412 47.268C60.2402 47.2605 60.2407 47.2529 60.2427 47.2455C60.2447 47.2382 60.2482 47.2314 60.2529 47.2254C60.3238 47.1433 60.4223 47.0898 60.5298 47.075C60.6373 47.0602 60.7465 47.0849 60.8371 47.1447C60.8498 47.1528 60.8589 47.1655 60.8625 47.1801C60.8662 47.1947 60.8641 47.2101 60.8567 47.2232C60.8529 47.23 60.8477 47.2359 60.8415 47.2407C60.8353 47.2454 60.8282 47.2487 60.8207 47.2506C60.8131 47.2524 60.8052 47.2527 60.7975 47.2514C60.7899 47.25 60.7826 47.2471 60.7761 47.2428C60.7091 47.1982 60.6283 47.1789 60.5484 47.1885C60.4685 47.1981 60.3946 47.2359 60.3401 47.2952C60.3351 47.3015 60.3288 47.3068 60.3217 47.3105C60.3146 47.3143 60.3067 47.3165 60.2986 47.317Z" fill="#263238"/>
<path d="M62.1708 46.9942C62.1582 46.9941 62.146 46.9897 62.1361 46.9818C62.1262 46.9739 62.1193 46.9629 62.1163 46.9506C62.1123 46.9362 62.1142 46.9207 62.1215 46.9076C62.1289 46.8945 62.1411 46.8849 62.1556 46.8809L63.7906 46.4231C63.8056 46.4196 63.8213 46.422 63.8347 46.4297C63.848 46.4373 63.858 46.4498 63.8625 46.4645C63.8659 46.4792 63.8635 46.4946 63.8557 46.5076C63.848 46.5206 63.8356 46.5301 63.8211 46.5342L62.1861 46.992L62.1708 46.9942Z" fill="#263238"/>
<path opacity="0.2" d="M67.8325 69.7164L55.982 73.3527C55.982 73.3527 55.546 70.0827 57.6802 68.5567C60.7976 66.32 67.6733 65.6943 67.6733 65.6943C67.6733 65.6943 67.7584 67.6389 67.8325 69.7164Z" fill="black"/>
<path d="M65.459 65.9559L65.9168 63.0892L65.7336 61.5937L76.1431 60.8983L76.3001 62.566C76.3001 62.566 77.5383 68.4171 76.6794 70.0042C75.1534 72.8382 68.8314 72.727 63.34 72.727C64.5325 76.215 66.9261 85.044 66.9261 85.044L64.055 86.352C64.055 86.352 58.5157 76.276 57.2578 71.9139C56.1525 68.0618 61.5393 66.9064 65.459 65.9559Z" fill="#263238"/>
<path d="M67.5779 85.8332L63.7258 87.4006L62.8276 85.8266L67.0874 84.1873L67.5779 85.8332Z" fill="#20C0E8"/>
<path opacity="0.2" d="M67.5779 85.8332L63.7258 87.4006L62.8276 85.8266L67.0874 84.1873L67.5779 85.8332Z" fill="white"/>
<path d="M72.8793 62.6728L76.4262 62.4614L76.2125 61.1447L72.7441 61.367L72.8793 62.6728Z" fill="black"/>
<path d="M66.322 61.7767L65.7334 61.816L65.9165 63.0891L66.4245 63.0586L66.322 61.7767Z" fill="black"/>
<path d="M66.8405 63.0346L72.4627 62.6989L72.3581 61.3909L66.7075 61.7528L66.8405 63.0346Z" fill="black"/>
<path d="M68.4929 63.0521C68.3705 63.0525 68.2524 63.0067 68.1623 62.9238C68.0722 62.841 68.0167 62.7272 68.0068 62.6052L67.9654 62.1299C67.9538 62.0023 67.9931 61.8752 68.0748 61.7764C68.1564 61.6776 68.2738 61.6151 68.4014 61.6024L69.4107 61.5152C69.4749 61.5089 69.5396 61.5158 69.6011 61.5353C69.6625 61.5548 69.7194 61.5865 69.7682 61.6285C69.817 61.6698 69.8572 61.7203 69.8864 61.7772C69.9156 61.8341 69.9332 61.8962 69.9383 61.9599L69.9797 62.4351C69.9855 62.4993 69.9785 62.5639 69.959 62.6253C69.9396 62.6867 69.9081 62.7436 69.8663 62.7927C69.8255 62.8422 69.7751 62.8829 69.7182 62.9125C69.6612 62.9421 69.5989 62.9599 69.535 62.9649V62.8559V62.9649L68.5256 63.0499L68.4929 63.0521ZM69.4608 61.731H69.439L68.4297 61.8182C68.3942 61.8209 68.3597 61.8307 68.328 61.8469C68.2964 61.8631 68.2683 61.8855 68.2454 61.9127C68.2224 61.9399 68.2052 61.9713 68.1945 62.0053C68.1839 62.0392 68.1801 62.0749 68.1834 62.1103L68.2226 62.5877C68.2291 62.6591 68.2636 62.7249 68.3185 62.7709C68.3735 62.8162 68.4437 62.8388 68.5147 62.8341L69.5241 62.7469C69.5597 62.7438 69.5945 62.7338 69.6263 62.7174C69.6581 62.7009 69.6863 62.6783 69.7094 62.651C69.7549 62.5961 69.7775 62.5258 69.7726 62.4547L69.7312 61.9795C69.7281 61.9438 69.7181 61.9091 69.7016 61.8773C69.6852 61.8455 69.6626 61.8173 69.6352 61.7942C69.5867 61.7527 69.5247 61.7303 69.4608 61.731Z" fill="white"/>
<path d="M69.2105 62.3916C69.1842 62.3914 69.1588 62.3819 69.1388 62.3648C69.1188 62.3476 69.1056 62.3239 69.1015 62.2979C69.0978 62.2693 69.1056 62.2404 69.1231 62.2175C69.1407 62.1946 69.1666 62.1796 69.1952 62.1758L69.6116 62.1191C69.6258 62.1167 69.6404 62.1171 69.6544 62.1204C69.6685 62.1237 69.6817 62.1298 69.6933 62.1384C69.7049 62.1469 69.7147 62.1578 69.722 62.1702C69.7293 62.1826 69.734 62.1964 69.7359 62.2107C69.7396 62.2396 69.7319 62.2687 69.7144 62.292C69.6968 62.3152 69.6709 62.3306 69.6421 62.335L69.2236 62.3916H69.2105Z" fill="white"/>
<path opacity="0.2" d="M65.5025 52.5882C65.5025 52.5882 66.5576 56.3182 67.8329 58.8426C67.8329 58.8426 65.8251 55.0995 65.0752 52.2154L65.5025 52.5882Z" fill="black"/>
<path d="M65.5566 53.2835L66.0995 52.575H66.3916L66.808 53.011L66.8494 53.508C66.3371 53.7369 65.5566 53.508 65.5566 53.508V53.2835Z" fill="#20C0E8"/>
<path d="M66.0778 52.756C66.0663 51.8506 65.9684 50.9484 65.7856 50.0615L66.0778 50.188C66.3538 51.0779 66.453 52.0133 66.3699 52.9413L66.0778 52.756Z" fill="#20C0E8"/>
<path d="M65.7093 53.3054C65.7093 53.3054 63.6579 52.4944 63.4617 51.1646L63.3179 51.4153C63.3179 51.4153 63.8062 53.0961 65.9644 53.5125L65.7093 53.3054Z" fill="#20C0E8"/>
<path d="M66.564 53.1789C66.7734 53.1453 66.9716 53.0613 67.1414 52.934C67.3111 52.8068 67.4474 52.6402 67.5384 52.4486C68.0246 51.3302 67.5384 49.6887 68.7418 48.9606L69.4176 49.2004C69.0412 49.4871 68.7663 49.8866 68.6328 50.3405C68.3886 51.2779 68.1118 53.5974 66.564 53.5102V53.1789Z" fill="#20C0E8"/>
<path d="M66.0797 48.5834L65.0748 51.0512L64.9941 51.642L64.2812 51.3019L63.1324 50.6174C63.1324 50.6174 62.6223 51.3302 63.4746 52.442L64.2812 51.7749L65.4127 53.0154L65.7331 51.4894L67.052 51.9145C67.052 51.9145 67.5796 49.704 67.5796 49.0718L66.0797 48.5834Z" fill="#20C0E8"/>
<path opacity="0.6" d="M67.5798 49.0718C67.5798 49.7084 67.05 51.9211 67.05 51.9211L65.729 51.496L65.4107 53.022L64.2792 51.7816L63.4727 52.4486C62.6203 51.3368 63.1282 50.624 63.1282 50.624L64.2792 51.3085L64.9921 51.6486L65.0728 51.0578L66.0756 48.59L67.5798 49.0718Z" fill="white"/>
<path opacity="0.2" d="M67.0519 51.921L65.7308 51.4959L65.4125 53.0154L65.3428 51.1057L67.0519 51.921Z" fill="black"/>
<path opacity="0.2" d="M65.4126 53.0154L64.2812 51.775L63.4746 52.442L64.0501 51.4131L65.4126 53.0154Z" fill="black"/>
<path d="M59.9192 55.3982L58.2298 55.2086C57.9955 55.0188 57.7187 54.8887 57.4232 54.8293C56.5935 54.8148 55.7643 54.8791 54.9467 55.0211C54.7287 55.1061 54.8072 56.8567 54.9467 56.8872C55.0862 56.9177 57.2553 56.9417 57.4515 56.8872C57.6477 56.8327 58.1186 56.3029 58.1186 56.3029L59.5988 56.5645L59.9192 55.3982Z" fill="#EBB376"/>
<path d="M70.8172 49.2898C70.1196 49.4315 66.8932 55.5594 66.8932 55.5594L58.5896 55.1539L58.4653 56.5753C58.4653 56.5753 65.9057 58.195 67.5821 57.8833C69.2585 57.5716 72.2822 52.3396 72.4631 51.764C72.8751 50.4539 71.2859 49.1938 70.8172 49.2898Z" fill="#20C0E8"/>
<path opacity="0.6" d="M70.8172 49.2898C70.1196 49.4315 66.8932 55.5594 66.8932 55.5594L58.5896 55.1539L58.4653 56.5753C58.4653 56.5753 65.9057 58.195 67.5821 57.8833C69.2585 57.5716 72.2822 52.3396 72.4631 51.764C72.8751 50.4539 71.2859 49.1938 70.8172 49.2898Z" fill="white"/>
<path d="M64.4279 33.2863H41.4355C41.2042 33.2863 40.9824 33.3782 40.8189 33.5417C40.6553 33.7053 40.5635 33.927 40.5635 34.1583C40.5635 34.3896 40.6553 34.6114 40.8189 34.7749C40.9824 34.9384 41.2042 35.0303 41.4355 35.0303H64.4279C64.6592 35.0303 64.881 34.9384 65.0445 34.7749C65.2081 34.6114 65.2999 34.3896 65.2999 34.1583C65.2999 33.927 65.2081 33.7053 65.0445 33.5417C64.881 33.3782 64.6592 33.2863 64.4279 33.2863Z" fill="#20C0E8"/>
<path opacity="0.6" d="M64.4279 33.2863H41.4355C41.2042 33.2863 40.9824 33.3782 40.8189 33.5417C40.6553 33.7053 40.5635 33.927 40.5635 34.1583C40.5635 34.3896 40.6553 34.6114 40.8189 34.7749C40.9824 34.9384 41.2042 35.0303 41.4355 35.0303H64.4279C64.6592 35.0303 64.881 34.9384 65.0445 34.7749C65.2081 34.6114 65.2999 34.3896 65.2999 34.1583C65.2999 33.927 65.2081 33.7053 65.0445 33.5417C64.881 33.3782 64.6592 33.2863 64.4279 33.2863Z" fill="white"/>
<path d="M55.3131 33.4825H41.4527C41.2793 33.4924 41.1161 33.5682 40.9968 33.6945C40.8775 33.8207 40.811 33.9879 40.811 34.1616C40.811 34.3353 40.8775 34.5025 40.9968 34.6288C41.1161 34.755 41.2793 34.8309 41.4527 34.8407H55.3131C55.4866 34.8309 55.6497 34.755 55.769 34.6288C55.8883 34.5025 55.9548 34.3353 55.9548 34.1616C55.9548 33.9879 55.8883 33.8207 55.769 33.6945C55.6497 33.5682 55.4866 33.4924 55.3131 33.4825Z" fill="#20C0E8"/>
<path d="M47.9818 30.9298C47.9818 31.1478 47.8183 31.2917 47.5458 31.2917H47.2886V31.6099H47.1382V30.5679H47.5458C47.8183 30.5657 47.9818 30.7031 47.9818 30.9298ZM47.8336 30.9298C47.8336 30.7794 47.7333 30.6943 47.5437 30.6943H47.2908V31.1739H47.5437C47.742 31.1739 47.8336 31.078 47.8336 30.9298Z" fill="#263238"/>
<path d="M48.8998 31.61L48.6818 31.2895H48.6164H48.3592V31.61H48.2109V30.5679H48.6142C48.8867 30.5679 49.0502 30.7053 49.0502 30.932C49.0537 31.0044 49.0331 31.0759 48.9917 31.1355C48.9503 31.195 48.8904 31.2392 48.8213 31.2612L49.0677 31.61H48.8998ZM48.8998 30.932C48.8998 30.7816 48.7995 30.6966 48.6077 30.6966H48.3548V31.174H48.6142C48.7952 31.174 48.8955 31.0781 48.8955 30.9298L48.8998 30.932Z" fill="#263238"/>
<path d="M49.2005 31.0868C49.1966 30.9765 49.2258 30.8676 49.2842 30.774C49.3426 30.6804 49.4276 30.6064 49.5284 30.5614C49.6292 30.5165 49.7411 30.5027 49.8498 30.5218C49.9584 30.5409 50.0589 30.592 50.1383 30.6686C50.2177 30.7452 50.2725 30.8438 50.2955 30.9517C50.3185 31.0596 50.3087 31.1719 50.2674 31.2743C50.2262 31.3766 50.1553 31.4643 50.0638 31.526C49.9724 31.5878 49.8646 31.6208 49.7543 31.6209C49.6823 31.6241 49.6105 31.6127 49.5431 31.5873C49.4758 31.5618 49.4143 31.5229 49.3625 31.473C49.3107 31.423 49.2696 31.3629 49.2417 31.2965C49.2139 31.2301 49.1999 31.1588 49.2005 31.0868ZM50.1597 31.0868C50.1606 31.0064 50.1376 30.9276 50.0935 30.8603C50.0495 30.7931 49.9865 30.7404 49.9125 30.7091C49.8385 30.6777 49.7568 30.669 49.6779 30.6842C49.5989 30.6993 49.5263 30.7376 49.4691 30.7941C49.412 30.8507 49.3729 30.9229 49.3569 31.0017C49.3409 31.0805 49.3487 31.1622 49.3792 31.2366C49.4098 31.3109 49.4618 31.3745 49.5285 31.4192C49.5953 31.464 49.6739 31.4879 49.7543 31.4879C49.8076 31.4897 49.8608 31.4806 49.9105 31.4611C49.9602 31.4416 50.0055 31.4122 50.0434 31.3747C50.0814 31.3371 50.1113 31.2922 50.1313 31.2427C50.1513 31.1932 50.161 31.1401 50.1597 31.0868Z" fill="#263238"/>
<path d="M51.2586 31.0802H51.4025V31.4879C51.2894 31.5764 51.1493 31.6234 51.0057 31.6208C50.9187 31.617 50.834 31.592 50.7588 31.5479C50.6837 31.5038 50.6205 31.442 50.5748 31.3679C50.529 31.2938 50.5021 31.2096 50.4963 31.1227C50.4905 31.0358 50.5061 30.9488 50.5416 30.8693C50.5772 30.7897 50.6316 30.7201 50.7003 30.6665C50.7689 30.6128 50.8496 30.5768 50.9353 30.5615C51.0211 30.5462 51.1093 30.5521 51.1922 30.5786C51.2751 30.6052 51.3503 30.6517 51.4112 30.714L51.3175 30.8055C51.2781 30.7661 51.2311 30.7352 51.1794 30.7146C51.1277 30.694 51.0723 30.6841 51.0166 30.6856C50.9102 30.6856 50.8082 30.7279 50.733 30.8031C50.6578 30.8783 50.6155 30.9804 50.6155 31.0867C50.6155 31.1931 50.6578 31.2952 50.733 31.3704C50.8082 31.4456 50.9102 31.4879 51.0166 31.4879C51.1029 31.49 51.1879 31.4665 51.2608 31.4203L51.2586 31.0802Z" fill="#263238"/>
<path d="M52.3834 31.61L52.1654 31.2895H52.1H51.8406V31.61H51.6924V30.5679H52.1022C52.3725 30.5679 52.5382 30.7053 52.5382 30.932C52.5424 31.0031 52.5234 31.0735 52.4841 31.1329C52.4447 31.1922 52.3873 31.2373 52.3202 31.2612L52.5382 31.61H52.3834ZM52.3834 30.932C52.3834 30.7816 52.2832 30.6966 52.0935 30.6966H51.8384V31.174H52.0935C52.2788 31.174 52.3791 31.0781 52.3791 30.9298L52.3834 30.932Z" fill="#263238"/>
<path d="M53.526 31.4792V31.61H52.7695V30.5679H53.5042V30.6966H52.9178V31.017H53.441V31.1435H52.9178V31.4814L53.526 31.4792Z" fill="#263238"/>
<path d="M53.6719 31.49L53.7264 31.3723C53.8235 31.4518 53.9453 31.4949 54.0708 31.4944C54.2518 31.4944 54.3281 31.4246 54.3281 31.3331C54.3281 31.078 53.6959 31.2393 53.6959 30.8513C53.6959 30.69 53.8223 30.5526 54.097 30.5526C54.215 30.55 54.3311 30.5826 54.4305 30.6464L54.3826 30.7641C54.2969 30.7102 54.1982 30.6808 54.097 30.6791C53.9182 30.6791 53.8419 30.7554 53.8419 30.8448C53.8419 31.0998 54.4741 30.9407 54.4741 31.3244C54.4741 31.4835 54.3455 31.6208 54.0708 31.6208C53.9267 31.6247 53.7857 31.5784 53.6719 31.49Z" fill="#263238"/>
<path d="M54.5962 31.4901L54.6507 31.3723C54.748 31.4515 54.8697 31.4946 54.9951 31.4944C55.1761 31.4944 55.2546 31.4247 55.2546 31.3331C55.2546 31.078 54.6224 31.2394 54.6224 30.8513C54.6224 30.69 54.7466 30.5527 55.0213 30.5527C55.14 30.5504 55.2567 30.583 55.357 30.6464L55.3069 30.7641C55.2214 30.7099 55.1225 30.6805 55.0213 30.6791C54.8447 30.6791 54.7684 30.7554 54.7684 30.8448C54.7684 31.0998 55.4006 30.9407 55.4006 31.3244C55.4006 31.4835 55.272 31.6209 54.9951 31.6209C54.851 31.6247 54.7101 31.5785 54.5962 31.4901Z" fill="#263238"/>
<path d="M56.6932 30.5657V30.666L56.2703 31.61H56.1133L56.5254 30.6965H56.0479V30.884H55.9062V30.5679L56.6932 30.5657Z" fill="#263238"/>
<path d="M56.7935 31.0868C56.7935 30.7467 56.9744 30.5527 57.2295 30.5527C57.4845 30.5527 57.6524 30.7467 57.6524 31.0868C57.6524 31.4269 57.4714 31.6209 57.2295 31.6209C56.9875 31.6209 56.7935 31.4269 56.7935 31.0868ZM57.4954 31.0868C57.4954 30.8208 57.3821 30.6857 57.2207 30.6857C57.0594 30.6857 56.9417 30.8208 56.9417 31.0868C56.9417 31.3527 57.0551 31.4879 57.2207 31.4879C57.3864 31.4879 57.4954 31.3527 57.4954 31.0868Z" fill="#263238"/>
<path d="M57.7702 30.8404C57.7656 30.8054 57.7684 30.7698 57.7785 30.736C57.7886 30.7021 57.8058 30.6708 57.8288 30.644C57.8519 30.6173 57.8803 30.5957 57.9123 30.5807C57.9443 30.5657 57.9791 30.5576 58.0144 30.557C58.1583 30.557 58.2542 30.6704 58.2542 30.8404C58.2542 31.0104 58.1583 31.126 58.0144 31.126C57.979 31.1251 57.9441 31.1167 57.9122 31.1015C57.8802 31.0862 57.8518 31.0644 57.8288 31.0375C57.8057 31.0106 57.7886 30.9791 57.7785 30.9452C57.7685 30.9112 57.7656 30.8755 57.7702 30.8404ZM58.1604 30.8404C58.1604 30.7161 58.1038 30.642 58.0144 30.642C57.925 30.642 57.8683 30.7161 57.8683 30.8404C57.8683 30.9647 57.925 31.041 58.0144 31.041C58.1038 31.041 58.1604 30.9668 58.1604 30.8404ZM58.6422 30.5657H58.7578L58.0449 31.6099H57.9294L58.6422 30.5657ZM58.4242 31.3331C58.4242 31.163 58.5201 31.0475 58.6662 31.0475C58.7342 31.0579 58.7963 31.0922 58.8412 31.1444C58.886 31.1966 58.9107 31.2632 58.9107 31.332C58.9107 31.4008 58.886 31.4674 58.8412 31.5196C58.7963 31.5718 58.7342 31.6061 58.6662 31.6165C58.6311 31.6156 58.5965 31.6073 58.5648 31.5921C58.5331 31.577 58.5049 31.5554 58.4821 31.5287C58.4593 31.5019 58.4423 31.4707 58.4324 31.437C58.4224 31.4033 58.4196 31.3679 58.4242 31.3331ZM58.8101 31.3331C58.8101 31.2088 58.7556 31.1325 58.6662 31.1325C58.5768 31.1325 58.5201 31.2066 58.5201 31.3331C58.5201 31.4595 58.5746 31.5315 58.6662 31.5315C58.7578 31.5315 58.8188 31.4573 58.8188 31.3331H58.8101Z" fill="#263238"/>
<path d="M25.0873 57.31V56.5971H24.6099L25.0873 56.3181H24.7298L25.2072 56.0063H25.6606V55.6466H25.1352L25.6606 55.4374V54.6591H25.1352V54.1512H24.6099L25.1352 53.9746V53.6127H24.7581L25.0655 53.3053L25.3336 53.0372H33.4825V53.4034H34.0209L33.4214 53.6716V53.9746H34.5201V54.5348H35.0063L34.5201 54.779V55.4068H34.1757V55.7055H33.4825V56.5971H33.8705L33.5522 56.9154V57.3122L25.0873 57.31Z" fill="#20C0E8"/>
<path opacity="0.7" d="M25.0873 57.31V56.5971H24.6099L25.0873 56.3181H24.7298L25.2072 56.0063H25.6606V55.6466H25.1352L25.6606 55.4374V54.6591H25.1352V54.1512H24.6099L25.1352 53.9746V53.6127H24.7581L25.0655 53.3053L25.3336 53.0372H33.4825V53.4034H34.0209L33.4214 53.6716V53.9746H34.5201V54.5348H35.0063L34.5201 54.779V55.4068H34.1757V55.7055H33.4825V56.5971H33.8705L33.5522 56.9154V57.3122L25.0873 57.31Z" fill="white"/>
<path opacity="0.1" d="M25.0873 57.31V56.5971H24.6099L25.0873 56.3181H24.7298L25.2072 56.0063H25.6606V55.6466H25.1352L25.6606 55.4374V54.6591H25.1352V54.1512H24.6099L25.1352 53.9746V53.6127H24.7581L25.0655 53.3053L25.3336 53.0372H29.626V53.4034H30.1645L29.565 53.6716V53.9746H30.6637V54.5348H31.1499L30.6637 54.779V55.4068H30.3193V55.7055H29.626V56.5971H30.0141L29.6958 56.9154V57.3122L25.0873 57.31Z" fill="black"/>
<path opacity="0.1" d="M33.4214 53.9745H29.5649L33.4214 53.835V53.9745Z" fill="black"/>
<path opacity="0.1" d="M33.4823 55.7056H29.6258L29.6084 55.9759L33.4823 55.7056Z" fill="black"/>
<path opacity="0.1" d="M34.1758 55.4069H30.3193L34.1758 55.542V55.4069Z" fill="black"/>
<path opacity="0.1" d="M33.4824 56.5971H29.626L33.4824 56.4532V56.5971Z" fill="black"/>
<path opacity="0.1" d="M33.5522 56.9154H29.6958V57.0615L33.5522 56.9154Z" fill="black"/>
<path opacity="0.1" d="M34.5205 54.5349H30.6641L34.5205 54.4128V54.5349Z" fill="black"/>
<path opacity="0.1" d="M33.4824 53.4034H29.626L33.4824 53.2682V53.4034Z" fill="black"/>
<path opacity="0.1" d="M25.1357 53.6127H29.0467L25.1357 53.7326V53.6127Z" fill="black"/>
<path opacity="0.1" d="M29.5655 53.9746H25.1357L29.1513 54.1054L29.5655 53.9746Z" fill="black"/>
<path opacity="0.1" d="M30.6642 54.5349L25.1357 54.6591V54.5349H30.6642Z" fill="black"/>
<path opacity="0.1" d="M30.6639 54.7791H27.9302L30.6639 54.9142V54.7791Z" fill="black"/>
<path opacity="0.1" d="M25.6606 55.4373L29.6261 55.4068L25.6606 55.3174V55.4373Z" fill="black"/>
<path opacity="0.1" d="M25.6606 55.6467H29.6958L25.6606 55.7819V55.6467Z" fill="black"/>
<path opacity="0.1" d="M25.0869 56.3181H29.5646V56.4533L25.0869 56.3181Z" fill="black"/>
<path opacity="0.1" d="M25.0869 56.5971H28.3329L25.0869 56.6865V56.5971Z" fill="black"/>
<path d="M47.8989 57.4474L48.0777 56.7716H55.4352L58.8229 57.1095L58.9515 57.4474H47.8989Z" fill="#263238"/>
<path opacity="0.4" d="M55.4352 56.7716V57.4474H47.8989L48.0777 56.7716H55.4352Z" fill="black"/>
<path d="M32.0588 49.268L33.6699 56.571C33.6988 56.6885 33.7658 56.793 33.8605 56.8684C33.9551 56.9437 34.0721 56.9856 34.1931 56.9874H39.4011C39.456 56.9861 39.5099 56.9721 39.5585 56.9465C39.6071 56.9209 39.6491 56.8844 39.6812 56.8398C39.7133 56.7952 39.7347 56.7438 39.7435 56.6896C39.7524 56.6354 39.7486 56.5799 39.7324 56.5274L38.1236 49.2811C38.0909 49.1703 38.021 49.0743 37.9256 49.0092C37.8303 48.944 37.7154 48.9138 37.6004 48.9235H32.3924C32.1548 48.9301 32.0065 49.0369 32.0588 49.268Z" fill="#263238"/>
<path opacity="0.4" d="M32.3576 49.268L33.9665 56.571C33.9954 56.6885 34.0624 56.793 34.1571 56.8684C34.2517 56.9437 34.3687 56.9856 34.4897 56.9874H39.4012C39.456 56.9857 39.5096 56.9714 39.558 56.9457C39.6064 56.9199 39.6482 56.8834 39.6802 56.839C39.7122 56.7945 39.7336 56.7433 39.7427 56.6893C39.7518 56.6353 39.7483 56.5799 39.7326 56.5274L38.1237 49.2811C38.091 49.1703 38.0211 49.0743 37.9258 49.0092C37.8305 48.944 37.7156 48.9138 37.6005 48.9235H32.6999C32.4536 48.9301 32.3053 49.0369 32.3576 49.268Z" fill="white"/>
<path d="M34.5332 56.5121V57.1901C34.5332 57.3623 34.7381 57.4343 34.9082 57.4343H46.9592C47.1314 57.4343 47.3407 57.3623 47.3407 57.1901V56.5121H34.5332Z" fill="#263238"/>
<path opacity="0.2" d="M47.3407 56.5121V57.1901C47.3407 57.3623 47.1358 57.4343 46.9657 57.4343H34.9169C34.7425 57.4343 34.5332 57.3623 34.5332 57.1901V56.5121H47.3407Z" fill="white"/>
<path opacity="0.4" d="M47.341 56.5121V57.1901C47.341 57.3623 47.136 57.4343 46.966 57.4343H41.4201C41.2457 57.4343 41.0386 57.3623 41.0386 57.1901V56.5121H47.341Z" fill="black"/>
<path d="M39.4406 55.9759L37.9778 49.3988H32.6499L34.0996 55.9759H39.4406Z" fill="#20C0E8"/>
<path d="M53.9569 53.5321C53.9676 53.6146 53.9603 53.6984 53.9357 53.7779C53.9111 53.8573 53.8697 53.9306 53.8142 53.9926C53.7588 54.0546 53.6907 54.104 53.6145 54.1374C53.5383 54.1708 53.4558 54.1874 53.3727 54.1861H42.1021C41.9246 54.1826 41.7546 54.1141 41.6244 53.9935C41.4942 53.8729 41.4128 53.7087 41.3957 53.5321L40.7265 46.3163C40.7178 46.2434 40.7222 46.1696 40.7396 46.0983C40.7715 45.9718 40.8454 45.8598 40.9491 45.7807C41.0528 45.7015 41.1803 45.6598 41.3107 45.6623H52.5813C52.7588 45.6657 52.9288 45.7343 53.059 45.8548C53.1892 45.9754 53.2706 46.1396 53.2876 46.3163L53.9569 53.5321Z" fill="#263238"/>
<path opacity="0.4" d="M53.3312 54.1795H42.1021C41.9246 54.176 41.7546 54.1075 41.6244 53.9869C41.4942 53.8663 41.4128 53.7021 41.3957 53.5255L40.7265 46.3097C40.7178 46.2368 40.7222 46.163 40.7396 46.0917H51.9709C52.1481 46.0961 52.3175 46.1649 52.4476 46.2853C52.5776 46.4057 52.6593 46.5694 52.6772 46.7457L53.3465 53.9615C53.3546 54.0345 53.3494 54.1083 53.3312 54.1795Z" fill="black"/>
<path d="M45.5882 49.7542H47.9208L47.2995 56.4293L50.9859 56.983V57.4474H43.2207V56.983L44.8121 56.4293L45.5882 49.7542Z" fill="#263238"/>
<path opacity="0.1" d="M47.9207 49.7542L46.1941 57.3427L44.812 57.3013L45.5881 49.7542H47.9207Z" fill="white"/>
<path d="M40.1423 91.1764H38.8517L36.5278 58.8535H38.2435L40.1423 91.1764Z" fill="#263238"/>
<path opacity="0.1" d="M40.1445 91.1763H38.8517L36.6434 60.4579L36.5278 58.9036H38.2435L38.3351 60.4579L40.1445 91.1763Z" fill="white"/>
<path opacity="0.2" d="M38.3351 60.3816H36.6434L36.5278 58.9036H38.2435L38.3351 60.3816Z" fill="black"/>
<path d="M55.9542 91.1764H54.6614L54.4521 58.8535H56.1656L55.9542 91.1764Z" fill="#263238"/>
<path opacity="0.1" d="M56.1656 58.9036L56.1329 64.1203L55.9563 91.1763H54.6614L54.4848 64.1203L54.4521 58.9036H56.1656Z" fill="white"/>
<path opacity="0.2" d="M56.1656 58.9036L56.1329 64.177H54.4848L54.4521 58.9036H56.1656Z" fill="black"/>
<path d="M69.673 91.1764H68.3825L66.0586 58.8535H67.7743L69.673 91.1764Z" fill="#263238"/>
<path opacity="0.1" d="M69.6752 91.1763H68.3825L66.172 60.4579L66.0586 58.9036H67.7743L67.8658 60.4579L69.6752 91.1763Z" fill="white"/>
<path opacity="0.2" d="M67.8658 60.3816H66.172L66.0586 58.9036H67.7743L67.8658 60.3816Z" fill="black"/>
<path d="M25.3599 91.1764H24.0693L25.9681 58.8535H27.6816L25.3599 91.1764Z" fill="#263238"/>
<path opacity="0.1" d="M27.6816 58.9036L27.5682 60.4579L25.3599 91.1763H24.0693L25.8744 60.4579L25.9681 58.9036H27.6816Z" fill="white"/>
<path opacity="0.2" d="M25.9683 58.9036H27.6817L27.5684 60.3816H25.8745L25.9683 58.9036Z" fill="black"/>
<path d="M24.61 58.0425H69.1322V59.1892C69.1322 59.314 69.0826 59.4338 68.9942 59.5221C68.9059 59.6104 68.7862 59.66 68.6613 59.66H25.07C24.9451 59.66 24.8253 59.6104 24.737 59.5221C24.6487 59.4338 24.5991 59.314 24.5991 59.1892V58.0425H24.61Z" fill="#20C0E8"/>
<path opacity="0.4" d="M24.61 58.0425H69.1322V59.1892C69.1322 59.314 69.0826 59.4338 68.9942 59.5221C68.9059 59.6104 68.7862 59.66 68.6613 59.66H25.07C24.9451 59.66 24.8253 59.6104 24.737 59.5221C24.6487 59.4338 24.5991 59.314 24.5991 59.1892V58.0425H24.61Z" fill="white"/>
<path opacity="0.2" d="M69.1342 58.0425H24.6099V58.8513H69.1342V58.0425Z" fill="black"/>
<path d="M69.9343 58.2539H23.8077C23.687 58.2534 23.5715 58.2052 23.4861 58.1199C23.4008 58.0345 23.3526 57.919 23.3521 57.7983C23.3521 57.6775 23.4001 57.5616 23.4855 57.4762C23.5709 57.3907 23.6868 57.3427 23.8077 57.3427H69.9343C70.0551 57.3427 70.171 57.3907 70.2565 57.4762C70.3419 57.5616 70.3899 57.6775 70.3899 57.7983C70.3893 57.919 70.3411 58.0345 70.2558 58.1199C70.1705 58.2052 70.055 58.2534 69.9343 58.2539Z" fill="#20C0E8"/>
<path opacity="0.4" d="M69.9343 58.2539H23.8077C23.687 58.2534 23.5715 58.2052 23.4861 58.1199C23.4008 58.0345 23.3526 57.919 23.3521 57.7983C23.3521 57.6775 23.4001 57.5616 23.4855 57.4762C23.5709 57.3907 23.6868 57.3427 23.8077 57.3427H69.9343C70.0551 57.3427 70.171 57.3907 70.2565 57.4762C70.3419 57.5616 70.3899 57.6775 70.3899 57.7983C70.3893 57.919 70.3411 58.0345 70.2558 58.1199C70.1705 58.2052 70.055 58.2534 69.9343 58.2539Z" fill="white"/>
<path d="M58.7768 55.2848V55.4374L58.2515 55.6467H58.7768V56.0064H58.3234L57.8438 56.3181H58.2035L57.7261 56.5972H58.2035V57.31L66.6684 57.3122V56.9154L66.9867 56.5972H66.5965V55.7055H67.2919V55.4069H67.6364V55.2848H58.7768Z" fill="#20C0E8"/>
<path opacity="0.9" d="M58.7768 55.2848V55.4374L58.2515 55.6467H58.7768V56.0064H58.3234L57.8438 56.3181H58.2035L57.7261 56.5972H58.2035V57.31L66.6684 57.3122V56.9154L66.9867 56.5972H66.5965V55.7055H67.2919V55.4069H67.6364V55.2848H58.7768Z" fill="white"/>
<path opacity="0.1" d="M58.7768 55.2848V55.4374L58.2515 55.6467H58.7768V56.0064H58.3234L57.8438 56.3181H58.2035L57.7261 56.5972H58.2035V57.31L62.812 57.3122V56.9154L63.1303 56.5972H62.7401V55.7055H63.4355V55.4069H63.7799V55.2848H58.7768Z" fill="black"/>
<path opacity="0.1" d="M66.5968 55.7056H62.7404L62.7251 55.9759L66.5968 55.7056Z" fill="black"/>
<path opacity="0.1" d="M67.2925 55.4069H63.436L67.2925 55.542V55.4069Z" fill="black"/>
<path opacity="0.1" d="M66.5967 56.5971H62.7402L66.5967 56.4532V56.5971Z" fill="black"/>
<path opacity="0.1" d="M66.6684 56.9154H62.812V57.0615L66.6684 56.9154Z" fill="black"/>
<path opacity="0.1" d="M58.7773 55.4373L62.7406 55.4068L58.7773 55.3174V55.4373Z" fill="black"/>
<path opacity="0.1" d="M58.7773 55.6467H62.8125L58.7773 55.7819V55.6467Z" fill="black"/>
<path opacity="0.1" d="M58.2036 56.3181H62.6813V56.4533L58.2036 56.3181Z" fill="black"/>
<path opacity="0.1" d="M58.2036 56.5971H61.4475L58.2036 56.6865V56.5971Z" fill="black"/>
</svg>
