<svg width="26" height="26" viewBox="0 0 26 26" fill="none" xmlns="http://www.w3.org/2000/svg">
<g clip-path="url(#clip0)">
<path d="M10.0163 16.7389L9.6174 19.1083C9.56303 19.4322 9.69594 19.7586 9.96112 19.9519C10.2267 20.1448 10.5794 20.1706 10.8696 20.0186L12.9998 18.9066L15.13 20.0188C15.256 20.0842 15.3941 20.1171 15.5307 20.1171C15.7097 20.1171 15.8882 20.0611 16.0388 19.9521C16.3042 19.7588 16.4375 19.4324 16.3827 19.1085L15.9842 16.7391L17.6995 15.0566C17.934 14.8268 18.0176 14.4839 17.917 14.1719C17.8159 13.8601 17.5455 13.6317 17.221 13.5838L14.8441 13.2314L13.7736 11.0797C13.6284 10.786 13.3276 10.6 12.9995 10.6C12.6721 10.6 12.3715 10.786 12.225 11.0797L11.1556 13.2314L8.77874 13.5836C8.45356 13.6315 8.18443 13.8598 8.08319 14.1717C7.98195 14.4837 8.06527 14.827 8.30025 15.0564L10.0163 16.7389Z" fill="#20C0E8"/>
<path d="M23.2148 2.76409H20.4933V1.25445C20.4933 0.561608 19.9316 0 19.2386 0H19.0397C18.3468 0 17.7854 0.561608 17.7854 1.25445V2.76409H8.18287V1.25445C8.18287 0.561608 7.62126 0 6.92862 0H6.72948C6.03663 0 5.47523 0.561608 5.47523 1.25445V2.76409H2.78531C1.36191 2.76409 0.203491 3.92209 0.203491 5.3459V23.4184C0.203491 24.8414 1.36191 26.0002 2.78531 26.0002H23.2151C24.6382 26.0002 25.7969 24.8416 25.7969 23.4184V5.3459C25.7967 3.92209 24.638 2.76409 23.2148 2.76409ZM22.878 23.0816H3.12215V9.01323H22.878V23.0816Z" fill="#20C0E8"/>
</g>
<defs>
<clipPath id="clip0">
<rect width="26" height="26" fill="white"/>
</clipPath>
</defs>
</svg>
