<svg width="25" height="25" viewBox="0 0 25 25" fill="none" xmlns="http://www.w3.org/2000/svg">
<path d="M1.02325 14.5796V22.3949C1.02325 23.8319 2.19242 25 3.62834 25H22.3851C23.8221 25 24.9902 23.8318 24.9902 22.3949V14.5796H1.02325Z" fill="#9BA0A8"/>
<path d="M12.3461 2.38245L8.44672 3.30778L11.7135 8.11473L15.9369 7.15399L12.3461 2.38245Z" fill="#9BA0A8"/>
<path d="M7.36305 3.56531L3.16046 4.56147L6.39287 9.32363L10.6225 8.36181L7.36305 3.56531Z" fill="#9BA0A8"/>
<path d="M24.9736 4.54682L24.0868 1.18311C23.8825 0.365094 23.0447 -0.149642 22.2184 0.0389514L18.7171 0.8705L22.0392 5.76811L24.5848 5.18875C24.7234 5.15749 24.8422 5.07098 24.9152 4.95014C24.9882 4.8293 25.009 4.68437 24.9736 4.54682Z" fill="#9BA0A8"/>
<path d="M17.6323 1.12793L13.4527 2.11994L17.0498 6.90188L20.9481 6.01508L17.6323 1.12793Z" fill="#9BA0A8"/>
<path d="M6.27412 9.37048L4.60687 13.5376H8.69482L10.3621 9.37048H6.27412Z" fill="#9BA0A8"/>
<path d="M11.4843 9.37048L9.81708 13.5376H13.905L15.5723 9.37048H11.4843Z" fill="#9BA0A8"/>
<path d="M24.4692 9.37048H21.9048L20.2375 13.5386H24.9903V9.89147C24.9902 9.60284 24.7579 9.37048 24.4692 9.37048Z" fill="#9BA0A8"/>
<path d="M16.6946 9.37048L15.0273 13.5376H19.1142L20.7825 9.37048H16.6946Z" fill="#9BA0A8"/>
<path d="M2.07683 4.81982L1.22755 5.02092C0.813872 5.11471 0.463746 5.36582 0.241791 5.7264C0.0198366 6.08801 -0.0458119 6.51316 0.0573501 6.92473L1.02332 10.7428V13.5375H3.48461L5.04869 9.62883L5.30294 9.57154L2.07683 4.81982Z" fill="#9BA0A8"/>
</svg>
